<svg xmlns="http://www.w3.org/2000/svg" width="320" height="202" fill="none" viewBox="0 0 320 202"><rect width="320" height="202" fill="#fff" rx="16"/><path fill="#8C94A6" d="M17.125 22.8748H18.25V25.8748H17.5C17.4005 25.8748 17.3052 25.9143 17.2348 25.9846C17.1645 26.0549 17.125 26.1503 17.125 26.2498C17.125 26.3492 17.1645 26.4446 17.2348 26.5149C17.3052 26.5853 17.4005 26.6248 17.5 26.6248H26.5C26.5995 26.6248 26.6948 26.5853 26.7652 26.5149C26.8355 26.4446 26.875 26.3492 26.875 26.2498C26.875 26.1503 26.8355 26.0549 26.7652 25.9846C26.6948 25.9143 26.5995 25.8748 26.5 25.8748H25.75V22.8748H26.875C26.9566 22.8747 27.0359 22.848 27.101 22.7987C27.166 22.7495 27.2132 22.6804 27.2355 22.6019C27.2577 22.5233 27.2537 22.4397 27.2241 22.3637C27.1945 22.2877 27.1409 22.2234 27.0714 22.1805L22.1964 19.1805C22.1373 19.1442 22.0693 19.125 22 19.125C21.9307 19.125 21.8627 19.1442 21.8036 19.1805L16.9286 22.1805C16.8591 22.2234 16.8055 22.2877 16.7759 22.3637C16.7463 22.4397 16.7423 22.5233 16.7645 22.6019C16.7868 22.6804 16.834 22.7495 16.899 22.7987C16.9641 22.848 17.0434 22.8747 17.125 22.8748ZM19 22.8748H20.5V25.8748H19V22.8748ZM22.75 22.8748V25.8748H21.25V22.8748H22.75ZM25 25.8748H23.5V22.8748H25V25.8748ZM22 19.9399L25.5503 22.1248H18.4497L22 19.9399ZM27.625 27.7498C27.625 27.8492 27.5855 27.9446 27.5152 28.0149C27.4448 28.0853 27.3495 28.1248 27.25 28.1248H16.75C16.6505 28.1248 16.5552 28.0853 16.4848 28.0149C16.4145 27.9446 16.375 27.8492 16.375 27.7498C16.375 27.6503 16.4145 27.5549 16.4848 27.4846C16.5552 27.4143 16.6505 27.3748 16.75 27.3748H27.25C27.3495 27.3748 27.4448 27.4143 27.5152 27.4846C27.5855 27.5549 27.625 27.6503 27.625 27.7498Z"/><path fill="#8C94A6" d="M33.4148 28.0004H32.25L34.8672 20.7276H36.1349L38.7521 28.0004H37.5874L35.5313 22.0487H35.4744L33.4148 28.0004ZM33.6101 25.1523H37.3885V26.0756H33.6101V25.1523Z"/><path fill="#8C94A6" d="M45.5011 23.0927H44.3931C44.3505 22.8559 44.2712 22.6476 44.1552 22.4677C44.0392 22.2878 43.8971 22.1351 43.729 22.0096C43.561 21.8841 43.3728 21.7894 43.1644 21.7255C42.9585 21.6616 42.7395 21.6296 42.5075 21.6296C42.0884 21.6296 41.7132 21.735 41.3817 21.9457C41.0527 22.1564 40.7923 22.4653 40.6005 22.8725C40.4111 23.2797 40.3164 23.7769 40.3164 24.364C40.3164 24.9558 40.4111 25.4554 40.6005 25.8626C40.7923 26.2698 41.0539 26.5775 41.3853 26.7859C41.7167 26.9942 42.0896 27.0984 42.5039 27.0984C42.7335 27.0984 42.9513 27.0676 43.1573 27.006C43.3656 26.9421 43.5539 26.8486 43.7219 26.7255C43.89 26.6024 44.0321 26.4521 44.1481 26.2745C44.2665 26.0946 44.3481 25.8886 44.3931 25.6566L45.5011 25.6602C45.4419 26.0176 45.3271 26.3467 45.1566 26.6474C44.9885 26.9457 44.7719 27.2037 44.5067 27.4215C44.244 27.637 43.9433 27.8039 43.6048 27.9222C43.2662 28.0406 42.8969 28.0998 42.4968 28.0998C41.8671 28.0998 41.306 27.9506 40.8136 27.6523C40.3211 27.3517 39.9329 26.922 39.6488 26.3633C39.3671 25.8046 39.2262 25.1381 39.2262 24.364C39.2262 23.5875 39.3683 22.921 39.6523 22.3647C39.9364 21.806 40.3247 21.3775 40.8171 21.0792C41.3095 20.7785 41.8694 20.6282 42.4968 20.6282C42.8827 20.6282 43.2425 20.6838 43.5763 20.7951C43.9125 20.904 44.2144 21.065 44.4819 21.2781C44.7494 21.4888 44.9708 21.7468 45.146 22.0522C45.3211 22.3552 45.4395 22.7021 45.5011 23.0927Z"/><path fill="#8C94A6" d="M46.8141 28.0004V20.7276H47.9114V23.8881H51.5371V20.7276H52.638V28.0004H51.5371V24.8292H47.9114V28.0004H46.8141Z"/><path fill="#8C94A6" d="M56.8825 28.0004V20.7276H59.5458C60.0619 20.7276 60.4892 20.8129 60.8278 20.9833C61.1663 21.1514 61.4196 21.3799 61.5877 21.6687C61.7558 21.9551 61.8398 22.2783 61.8398 22.6381C61.8398 22.9412 61.7842 23.1969 61.6729 23.4052C61.5617 23.6112 61.4125 23.7769 61.2255 23.9023C61.0408 24.0255 60.8372 24.1154 60.6147 24.1722V24.2433C60.8562 24.2551 61.0917 24.3332 61.3214 24.4776C61.5534 24.6197 61.7451 24.8221 61.8967 25.0849C62.0482 25.3477 62.1239 25.6673 62.1239 26.0437C62.1239 26.4154 62.0363 26.7492 61.8612 27.0451C61.6883 27.3387 61.4208 27.5719 61.0586 27.7447C60.6964 27.9151 60.2335 28.0004 59.6701 28.0004H56.8825ZM57.9798 27.0593H59.5636C60.0891 27.0593 60.4656 26.9575 60.6928 26.7539C60.9201 26.5503 61.0337 26.2958 61.0337 25.9904C61.0337 25.7608 60.9757 25.5501 60.8597 25.3583C60.7437 25.1665 60.578 25.0138 60.3626 24.9002C60.1495 24.7866 59.8962 24.7298 59.6026 24.7298H57.9798V27.0593ZM57.9798 23.8739H59.4499C59.6961 23.8739 59.9175 23.8266 60.114 23.7319C60.3129 23.6372 60.4703 23.5046 60.5863 23.3342C60.7047 23.1613 60.7638 22.9577 60.7638 22.7234C60.7638 22.4227 60.6585 22.1706 60.4478 21.967C60.2371 21.7634 59.9139 21.6616 59.4783 21.6616H57.9798V23.8739Z"/><path fill="#8C94A6" d="M64.9276 28.1211C64.5819 28.1211 64.2694 28.0572 63.9901 27.9293C63.7107 27.7991 63.4893 27.6109 63.326 27.3647C63.165 27.1185 63.0845 26.8166 63.0845 26.4592C63.0845 26.1514 63.1437 25.8981 63.2621 25.6992C63.3804 25.5004 63.5402 25.3429 63.7415 25.2269C63.9427 25.1109 64.1676 25.0233 64.4162 24.9641C64.6648 24.9049 64.9181 24.86 65.1761 24.8292C65.5028 24.7913 65.768 24.7605 65.9716 24.7369C66.1752 24.7108 66.3232 24.6694 66.4155 24.6126C66.5078 24.5558 66.554 24.4634 66.554 24.3356V24.3107C66.554 24.0006 66.4664 23.7603 66.2912 23.5898C66.1184 23.4194 65.8603 23.3342 65.517 23.3342C65.1596 23.3342 64.8778 23.4135 64.6719 23.5721C64.4683 23.7283 64.3274 23.9023 64.2493 24.0941L63.2514 23.8668C63.3698 23.5354 63.5426 23.2679 63.7699 23.0643C63.9995 22.8583 64.2635 22.7092 64.5618 22.6168C64.8601 22.5221 65.1738 22.4748 65.5028 22.4748C65.7206 22.4748 65.9515 22.5008 66.1953 22.5529C66.4415 22.6026 66.6712 22.695 66.8842 22.8299C67.0997 22.9648 67.276 23.1578 67.4133 23.4087C67.5507 23.6573 67.6193 23.9805 67.6193 24.3782V28.0004H66.5824V27.2546H66.5398C66.4711 27.3919 66.3681 27.5269 66.2308 27.6594C66.0935 27.792 65.9171 27.9021 65.7017 27.9897C65.4863 28.0773 65.2282 28.1211 64.9276 28.1211ZM65.1584 27.2688C65.4519 27.2688 65.7029 27.2108 65.9112 27.0948C66.1219 26.9788 66.2817 26.8273 66.3906 26.6403C66.5019 26.4509 66.5575 26.2485 66.5575 26.033V25.3299C66.5196 25.3678 66.4463 25.4033 66.3374 25.4364C66.2308 25.4672 66.1089 25.4944 65.9716 25.5181C65.8343 25.5394 65.7005 25.5595 65.5703 25.5785C65.4401 25.5951 65.3312 25.6093 65.2436 25.6211C65.0376 25.6471 64.8494 25.6909 64.679 25.7525C64.5109 25.814 64.3759 25.9028 64.2741 26.0188C64.1747 26.1325 64.125 26.284 64.125 26.4734C64.125 26.7362 64.2221 26.935 64.4162 27.07C64.6103 27.2025 64.8577 27.2688 65.1584 27.2688Z"/><path fill="#8C94A6" d="M70.0953 24.7617V28.0004H69.0336V22.5458H70.0527V23.4336H70.1202C70.2457 23.1448 70.4422 22.9128 70.7097 22.7376C70.9796 22.5624 71.3193 22.4748 71.7289 22.4748C72.1006 22.4748 72.4261 22.5529 72.7054 22.7092C72.9848 22.863 73.2014 23.0927 73.3553 23.3981C73.5092 23.7035 73.5861 24.0811 73.5861 24.5309V28.0004H72.5243V24.6587C72.5243 24.2634 72.4213 23.9544 72.2154 23.7319C72.0094 23.507 71.7265 23.3945 71.3667 23.3945C71.1204 23.3945 70.9015 23.4478 70.7097 23.5543C70.5203 23.6609 70.37 23.8171 70.2587 24.0231C70.1498 24.2267 70.0953 24.4729 70.0953 24.7617Z"/><path fill="#8C94A6" d="M75.9867 26.1502L75.9796 24.854H76.1642L78.3375 22.5458H79.6088L77.1301 25.1737H76.9632L75.9867 26.1502ZM75.0101 28.0004V20.7276H76.0719V28.0004H75.0101ZM78.4547 28.0004L76.5016 25.408L77.2331 24.6658L79.758 28.0004H78.4547Z"/><path fill="#8C94A6" d="M82.9496 21.6722V20.7276H88.5781V21.6722H86.3089V28.0004H85.2152V21.6722H82.9496Z"/><path fill="#8C94A6" d="M89.1703 28.0004V22.5458H90.1966V23.4123H90.2534C90.3528 23.1187 90.528 22.8879 90.7789 22.7198C91.0323 22.5494 91.3187 22.4641 91.6383 22.4641C91.7046 22.4641 91.7827 22.4665 91.8727 22.4712C91.965 22.476 92.0372 22.4819 92.0893 22.489V23.5046C92.0467 23.4928 91.9709 23.4798 91.862 23.4656C91.7531 23.449 91.6442 23.4407 91.5353 23.4407C91.2844 23.4407 91.0607 23.494 90.8642 23.6005C90.67 23.7047 90.5162 23.8503 90.4025 24.0373C90.2889 24.2219 90.2321 24.4326 90.2321 24.6694V28.0004H89.1703Z"/><path fill="#8C94A6" d="M94.5467 28.1211C94.2011 28.1211 93.8886 28.0572 93.6092 27.9293C93.3298 27.7991 93.1085 27.6109 92.9451 27.3647C92.7841 27.1185 92.7037 26.8166 92.7037 26.4592C92.7037 26.1514 92.7628 25.8981 92.8812 25.6992C92.9996 25.5004 93.1594 25.3429 93.3606 25.2269C93.5618 25.1109 93.7868 25.0233 94.0353 24.9641C94.2839 24.9049 94.5372 24.86 94.7953 24.8292C95.122 24.7913 95.3871 24.7605 95.5907 24.7369C95.7943 24.7108 95.9423 24.6694 96.0346 24.6126C96.127 24.5558 96.1731 24.4634 96.1731 24.3356V24.3107C96.1731 24.0006 96.0855 23.7603 95.9103 23.5898C95.7375 23.4194 95.4795 23.3342 95.1362 23.3342C94.7787 23.3342 94.497 23.4135 94.291 23.5721C94.0874 23.7283 93.9466 23.9023 93.8684 24.0941L92.8706 23.8668C92.9889 23.5354 93.1618 23.2679 93.389 23.0643C93.6187 22.8583 93.8826 22.7092 94.1809 22.6168C94.4792 22.5221 94.7929 22.4748 95.122 22.4748C95.3398 22.4748 95.5706 22.5008 95.8145 22.5529C96.0607 22.6026 96.2903 22.695 96.5034 22.8299C96.7188 22.9648 96.8952 23.1578 97.0325 23.4087C97.1698 23.6573 97.2385 23.9805 97.2385 24.3782V28.0004H96.2015V27.2546H96.1589C96.0903 27.3919 95.9873 27.5269 95.85 27.6594C95.7127 27.792 95.5363 27.9021 95.3208 27.9897C95.1054 28.0773 94.8474 28.1211 94.5467 28.1211ZM94.7775 27.2688C95.0711 27.2688 95.322 27.2108 95.5304 27.0948C95.7411 26.9788 95.9009 26.8273 96.0098 26.6403C96.121 26.4509 96.1767 26.2485 96.1767 26.033V25.3299C96.1388 25.3678 96.0654 25.4033 95.9565 25.4364C95.85 25.4672 95.728 25.4944 95.5907 25.5181C95.4534 25.5394 95.3197 25.5595 95.1895 25.5785C95.0592 25.5951 94.9503 25.6093 94.8627 25.6211C94.6568 25.6471 94.4686 25.6909 94.2981 25.7525C94.13 25.814 93.9951 25.9028 93.8933 26.0188C93.7939 26.1325 93.7441 26.284 93.7441 26.4734C93.7441 26.7362 93.8412 26.935 94.0353 27.07C94.2295 27.2025 94.4769 27.2688 94.7775 27.2688Z"/><path fill="#8C94A6" d="M99.7145 24.7617V28.0004H98.6527V22.5458H99.6719V23.4336H99.7393C99.8648 23.1448 100.061 22.9128 100.329 22.7376C100.599 22.5624 100.938 22.4748 101.348 22.4748C101.72 22.4748 102.045 22.5529 102.325 22.7092C102.604 22.863 102.821 23.0927 102.974 23.3981C103.128 23.7035 103.205 24.0811 103.205 24.5309V28.0004H102.143V24.6587C102.143 24.2634 102.04 23.9544 101.835 23.7319C101.629 23.507 101.346 23.3945 100.986 23.3945C100.74 23.3945 100.521 23.4478 100.329 23.5543C100.139 23.6609 99.9891 23.8171 99.8778 24.0231C99.7689 24.2267 99.7145 24.4729 99.7145 24.7617Z"/><path fill="#8C94A6" d="M108.717 23.8775L107.754 24.0479C107.714 23.9248 107.65 23.8076 107.562 23.6964C107.477 23.5851 107.361 23.494 107.214 23.4229C107.068 23.3519 106.884 23.3164 106.664 23.3164C106.363 23.3164 106.112 23.3839 105.911 23.5188C105.71 23.6514 105.609 23.823 105.609 24.0337C105.609 24.216 105.677 24.3628 105.812 24.4741C105.947 24.5853 106.165 24.6765 106.465 24.7475L107.332 24.9464C107.834 25.0624 108.208 25.2411 108.454 25.4826C108.7 25.7241 108.823 26.0378 108.823 26.4237C108.823 26.7504 108.728 27.0415 108.539 27.2972C108.352 27.5505 108.09 27.7494 107.754 27.8938C107.42 28.0382 107.033 28.1104 106.593 28.1104C105.982 28.1104 105.484 27.9802 105.098 27.7198C104.712 27.457 104.475 27.0842 104.388 26.6012L105.414 26.445C105.478 26.7125 105.609 26.9149 105.808 27.0522C106.007 27.1871 106.266 27.2546 106.586 27.2546C106.934 27.2546 107.212 27.1824 107.42 27.038C107.629 26.8912 107.733 26.7125 107.733 26.5018C107.733 26.3313 107.669 26.1881 107.541 26.0721C107.416 25.9561 107.223 25.8685 106.962 25.8093L106.039 25.6069C105.53 25.4909 105.154 25.3062 104.91 25.0529C104.668 24.7996 104.548 24.4788 104.548 24.0906C104.548 23.7686 104.638 23.4869 104.817 23.2454C104.997 23.0039 105.246 22.8157 105.563 22.6808C105.88 22.5434 106.244 22.4748 106.653 22.4748C107.243 22.4748 107.707 22.6026 108.045 22.8583C108.384 23.1116 108.608 23.4513 108.717 23.8775Z"/><path fill="#8C94A6" d="M112.586 22.5458V23.3981H109.504V22.5458H112.586ZM110.349 28.0004V21.9137C110.349 21.5728 110.424 21.2899 110.573 21.065C110.722 20.8377 110.92 20.6684 111.166 20.5572C111.412 20.4435 111.68 20.3867 111.969 20.3867C112.182 20.3867 112.364 20.4045 112.515 20.44C112.667 20.4731 112.779 20.5039 112.853 20.5323L112.604 21.3917C112.555 21.3775 112.491 21.3609 112.412 21.342C112.334 21.3207 112.24 21.31 112.128 21.31C111.87 21.31 111.686 21.3739 111.574 21.5018C111.465 21.6296 111.411 21.8143 111.411 22.0558V28.0004H110.349Z"/><path fill="#8C94A6" d="M115.818 28.1104C115.281 28.1104 114.818 27.9956 114.43 27.766C114.044 27.534 113.745 27.2085 113.535 26.7894C113.326 26.368 113.222 25.8744 113.222 25.3086C113.222 24.7499 113.326 24.2575 113.535 23.8313C113.745 23.4052 114.039 23.0726 114.415 22.8335C114.794 22.5943 115.237 22.4748 115.743 22.4748C116.051 22.4748 116.349 22.5257 116.638 22.6275C116.927 22.7293 117.186 22.8891 117.416 23.1069C117.646 23.3247 117.827 23.6076 117.959 23.9556C118.092 24.3013 118.158 24.7215 118.158 25.2163V25.5927H113.822V24.7972H117.118C117.118 24.5179 117.061 24.2705 116.947 24.055C116.834 23.8372 116.674 23.6656 116.468 23.5401C116.264 23.4147 116.025 23.3519 115.751 23.3519C115.452 23.3519 115.192 23.4253 114.969 23.5721C114.749 23.7165 114.579 23.9059 114.458 24.1403C114.34 24.3723 114.28 24.6244 114.28 24.8967V25.5181C114.28 25.8827 114.344 26.1928 114.472 26.4485C114.602 26.7042 114.783 26.8995 115.015 27.0344C115.247 27.167 115.519 27.2333 115.829 27.2333C116.03 27.2333 116.213 27.2049 116.379 27.1481C116.545 27.0889 116.688 27.0013 116.809 26.8853C116.93 26.7693 117.022 26.6261 117.086 26.4556L118.091 26.6367C118.01 26.9326 117.866 27.1919 117.657 27.4144C117.452 27.6346 117.192 27.8062 116.88 27.9293C116.57 28.0501 116.216 28.1104 115.818 28.1104Z"/><path fill="#8C94A6" d="M119.336 28.0004V22.5458H120.363V23.4123H120.419C120.519 23.1187 120.694 22.8879 120.945 22.7198C121.198 22.5494 121.485 22.4641 121.804 22.4641C121.871 22.4641 121.949 22.4665 122.039 22.4712C122.131 22.476 122.203 22.4819 122.255 22.489V23.5046C122.213 23.4928 122.137 23.4798 122.028 23.4656C121.919 23.449 121.81 23.4407 121.701 23.4407C121.45 23.4407 121.227 23.494 121.03 23.6005C120.836 23.7047 120.682 23.8503 120.569 24.0373C120.455 24.2219 120.398 24.4326 120.398 24.6694V28.0004H119.336Z"/><path fill="#2267AD" fill-rule="evenodd" d="M289.142 20.9697C289.843 21.2426 290.545 21.5351 291.227 21.8663C289.042 22.7429 286.93 23.7923 284.912 25.0046C284.23 24.6535 283.528 24.3029 282.827 23.9908C284.854 22.8215 286.959 21.808 289.142 20.9697ZM286.53 20.0537C284.271 20.7759 282.084 21.7091 280 22.8408C280.663 23.0944 281.325 23.3477 281.969 23.6207C283.979 22.43 286.101 21.4378 288.303 20.6581C287.719 20.4435 287.134 20.2291 286.53 20.0537Z" clip-rule="evenodd"/><path fill="#CD2E29" fill-rule="evenodd" d="M302.959 24.3415C302.998 24.4583 303.096 24.4973 303.193 24.4973C303.252 24.4973 303.311 24.4973 303.35 24.4583C303.374 24.4316 303.388 24.397 303.388 24.3608C303.388 24.2829 303.33 24.244 303.252 24.244L303.116 24.205C303.077 24.1854 303.018 24.1854 302.979 24.1465C302.94 24.1075 302.921 24.0493 302.921 23.9907C302.921 23.8349 303.057 23.7766 303.193 23.7766C303.311 23.7766 303.427 23.8349 303.466 23.9714L303.369 23.9907C303.369 23.9125 303.271 23.8542 303.174 23.8542C303.116 23.8542 303.018 23.8932 303.018 23.9711C303.018 24.0686 303.077 24.0879 303.155 24.1075L303.271 24.1269C303.33 24.1462 303.388 24.1658 303.427 24.1851C303.466 24.2437 303.486 24.2829 303.486 24.3608C303.486 24.4191 303.466 24.4973 303.408 24.5362C303.35 24.5755 303.271 24.5948 303.193 24.5948C303.037 24.5948 302.94 24.5166 302.882 24.3608L302.959 24.3415ZM303.72 24.5755H303.642V23.796H303.778L304.032 24.4194L304.246 23.796H304.402V24.5755H304.305V23.8932L304.051 24.5755H303.973L303.72 23.8932V24.5755ZM293.877 20.8721C292.087 20.0167 290.237 19.2936 288.341 18.7084C287.659 18.9031 286.996 19.1174 286.353 19.3321C288.304 19.9184 290.207 20.6547 292.045 21.5345C292.649 21.3005 293.253 21.0864 293.877 20.8721ZM296.781 20.0144C294.968 19.2153 293.077 18.5526 291.148 18.0264C290.524 18.1432 289.92 18.2797 289.316 18.4354C291.226 19.0009 293.097 19.7025 294.89 20.5602C295.514 20.3652 296.157 20.1705 296.781 20.0144ZM301.459 21.5737C296.878 23.1137 292.59 25.316 288.711 28.0645C289.686 28.6686 290.621 29.2924 291.537 29.9743C295.228 27.05 299.3 24.6433 303.642 22.8208C302.929 22.379 302.201 21.963 301.459 21.5737ZM298.301 20.0923C293.545 21.3397 289.082 23.367 285.047 26.0566C285.944 26.5049 286.84 26.9729 287.717 27.4795C291.674 24.7506 296.06 22.6065 300.737 21.203C299.939 20.8135 299.139 20.4238 298.301 20.0923Z" clip-rule="evenodd"/><g clip-path="url(#clip0_3635_52389)"><rect width="288" height="47" fill="#F9F9FB" transform="translate(16 139)"/><path fill="#8C94A6" d="M68.3047 161.272H69.5149L71.9354 165.346H72.0376L74.4581 161.272H75.6683L72.5149 166.403V170H71.4581V166.403L68.3047 161.272Z"/><path fill="#8C94A6" d="M78.5121 170.136C77.9212 170.136 77.4027 169.995 76.9567 169.714C76.5135 169.433 76.1669 169.04 75.9169 168.534C75.6698 168.028 75.5462 167.437 75.5462 166.761C75.5462 166.079 75.6698 165.484 75.9169 164.976C76.1669 164.467 76.5135 164.072 76.9567 163.791C77.4027 163.51 77.9212 163.369 78.5121 163.369C79.103 163.369 79.6201 163.51 80.0632 163.791C80.5093 164.072 80.8559 164.467 81.103 164.976C81.353 165.484 81.478 166.079 81.478 166.761C81.478 167.437 81.353 168.028 81.103 168.534C80.8559 169.04 80.5093 169.433 80.0632 169.714C79.6201 169.995 79.103 170.136 78.5121 170.136ZM78.5121 169.233C78.961 169.233 79.3303 169.118 79.6201 168.888C79.9098 168.657 80.1243 168.355 80.2635 167.98C80.4027 167.605 80.4723 167.199 80.4723 166.761C80.4723 166.324 80.4027 165.916 80.2635 165.538C80.1243 165.16 79.9098 164.855 79.6201 164.622C79.3303 164.389 78.961 164.272 78.5121 164.272C78.0632 164.272 77.6939 164.389 77.4041 164.622C77.1144 164.855 76.8999 165.16 76.7607 165.538C76.6215 165.916 76.5519 166.324 76.5519 166.761C76.5519 167.199 76.6215 167.605 76.7607 167.98C76.8999 168.355 77.1144 168.657 77.4041 168.888C77.6939 169.118 78.0632 169.233 78.5121 169.233Z"/><path fill="#8C94A6" d="M87.0182 167.324V163.454H88.0238V170H87.0182V168.892H86.95C86.7966 169.224 86.5579 169.507 86.2341 169.74C85.9102 169.97 85.5011 170.085 85.0068 170.085C84.5977 170.085 84.2341 169.995 83.9159 169.816C83.5977 169.635 83.3477 169.362 83.1659 168.998C82.9841 168.632 82.8932 168.17 82.8932 167.613V163.454H83.8988V167.545C83.8988 168.022 84.0324 168.403 84.2994 168.687C84.5693 168.971 84.9131 169.113 85.3307 169.113C85.5807 169.113 85.8349 169.049 86.0935 168.922C86.3548 168.794 86.5736 168.598 86.7497 168.334C86.9287 168.069 87.0182 167.733 87.0182 167.324Z"/><path fill="#8C94A6" d="M94.0065 166.062V170H93.0008V161.272H94.0065V164.477H94.0917C94.2451 164.139 94.4753 163.87 94.7821 163.672C95.0917 163.47 95.5037 163.369 96.0179 163.369C96.4639 163.369 96.8545 163.459 97.1897 163.638C97.525 163.814 97.7849 164.085 97.9696 164.451C98.1571 164.815 98.2508 165.278 98.2508 165.841V170H97.2451V165.909C97.2451 165.389 97.1102 164.987 96.8403 164.703C96.5733 164.416 96.2025 164.272 95.7281 164.272C95.3986 164.272 95.1031 164.342 94.8417 164.481C94.5832 164.62 94.3787 164.824 94.2281 165.091C94.0804 165.358 94.0065 165.682 94.0065 166.062Z"/><path fill="#8C94A6" d="M101.897 170.153C101.482 170.153 101.106 170.075 100.768 169.919C100.429 169.76 100.161 169.531 99.9621 169.233C99.7633 168.932 99.6638 168.568 99.6638 168.142C99.6638 167.767 99.7377 167.463 99.8854 167.23C100.033 166.994 100.231 166.809 100.478 166.676C100.725 166.542 100.998 166.443 101.296 166.378C101.597 166.309 101.9 166.255 102.204 166.216C102.601 166.165 102.924 166.126 103.171 166.101C103.421 166.072 103.603 166.025 103.716 165.96C103.833 165.895 103.891 165.781 103.891 165.619V165.585C103.891 165.165 103.776 164.838 103.546 164.605C103.319 164.372 102.974 164.255 102.51 164.255C102.03 164.255 101.654 164.361 101.381 164.571C101.108 164.781 100.917 165.005 100.806 165.244L99.8513 164.903C100.022 164.505 100.249 164.196 100.533 163.974C100.82 163.75 101.133 163.593 101.471 163.505C101.812 163.415 102.147 163.369 102.476 163.369C102.687 163.369 102.928 163.395 103.201 163.446C103.476 163.494 103.742 163.595 103.998 163.748C104.256 163.902 104.471 164.133 104.641 164.443C104.812 164.753 104.897 165.167 104.897 165.687V170H103.891V169.113H103.84C103.772 169.255 103.658 169.407 103.499 169.569C103.34 169.731 103.128 169.869 102.864 169.983C102.6 170.096 102.277 170.153 101.897 170.153ZM102.05 169.25C102.448 169.25 102.783 169.172 103.056 169.015C103.331 168.859 103.539 168.657 103.678 168.41C103.82 168.163 103.891 167.903 103.891 167.63V166.71C103.849 166.761 103.755 166.808 103.61 166.851C103.468 166.89 103.303 166.926 103.116 166.957C102.931 166.986 102.75 167.011 102.574 167.034C102.401 167.054 102.26 167.071 102.152 167.085C101.891 167.119 101.647 167.174 101.42 167.251C101.195 167.325 101.013 167.437 100.874 167.588C100.738 167.736 100.67 167.937 100.67 168.193C100.67 168.542 100.799 168.807 101.057 168.986C101.319 169.162 101.65 169.25 102.05 169.25Z"/><path fill="#8C94A6" d="M111.73 163.454L109.31 170H108.287L105.867 163.454H106.958L108.764 168.67H108.833L110.639 163.454H111.73Z"/><path fill="#8C94A6" d="M115.448 170.136C114.817 170.136 114.273 169.997 113.816 169.718C113.361 169.437 113.01 169.045 112.763 168.542C112.519 168.037 112.397 167.449 112.397 166.778C112.397 166.108 112.519 165.517 112.763 165.005C113.01 164.491 113.354 164.091 113.794 163.804C114.237 163.514 114.754 163.369 115.345 163.369C115.686 163.369 116.023 163.426 116.355 163.54C116.688 163.653 116.99 163.838 117.263 164.093C117.536 164.346 117.753 164.682 117.915 165.099C118.077 165.517 118.158 166.031 118.158 166.642V167.068H113.112V166.199H117.135C117.135 165.829 117.061 165.5 116.914 165.21C116.769 164.92 116.561 164.691 116.291 164.524C116.024 164.356 115.709 164.272 115.345 164.272C114.945 164.272 114.598 164.372 114.306 164.571C114.016 164.767 113.793 165.022 113.637 165.338C113.48 165.653 113.402 165.991 113.402 166.352V166.932C113.402 167.426 113.487 167.845 113.658 168.189C113.831 168.53 114.071 168.79 114.378 168.968C114.685 169.145 115.041 169.233 115.448 169.233C115.712 169.233 115.95 169.196 116.164 169.122C116.379 169.045 116.566 168.932 116.722 168.781C116.878 168.628 116.999 168.437 117.084 168.21L118.056 168.483C117.953 168.812 117.781 169.102 117.54 169.352C117.298 169.599 117 169.792 116.645 169.932C116.29 170.068 115.891 170.136 115.448 170.136Z"/><path fill="#8C94A6" d="M127.322 161.273V170H125.741V162.811H125.69L123.648 164.115V162.666L125.817 161.273H127.322Z"/><path fill="#8C94A6" d="M132.643 170.166C131.942 170.166 131.34 169.989 130.837 169.633C130.337 169.275 129.952 168.76 129.682 168.087C129.415 167.41 129.281 166.597 129.281 165.645C129.284 164.693 129.419 163.883 129.686 163.216C129.956 162.545 130.341 162.034 130.841 161.682C131.344 161.329 131.945 161.153 132.643 161.153C133.342 161.153 133.943 161.329 134.446 161.682C134.949 162.034 135.334 162.545 135.601 163.216C135.871 163.886 136.006 164.696 136.006 165.645C136.006 166.599 135.871 167.415 135.601 168.091C135.334 168.764 134.949 169.278 134.446 169.633C133.946 169.989 133.345 170.166 132.643 170.166ZM132.643 168.832C133.189 168.832 133.619 168.564 133.935 168.027C134.253 167.487 134.412 166.693 134.412 165.645C134.412 164.952 134.34 164.369 134.195 163.898C134.05 163.426 133.845 163.071 133.581 162.832C133.317 162.591 133.004 162.47 132.643 162.47C132.101 162.47 131.672 162.74 131.357 163.28C131.041 163.817 130.882 164.605 130.879 165.645C130.876 166.341 130.946 166.926 131.088 167.4C131.233 167.875 131.438 168.233 131.702 168.474C131.966 168.713 132.28 168.832 132.643 168.832Z"/><path fill="#8C94A6" d="M140.527 170.166C139.826 170.166 139.223 169.989 138.721 169.633C138.221 169.275 137.836 168.76 137.566 168.087C137.299 167.41 137.165 166.597 137.165 165.645C137.168 164.693 137.303 163.883 137.57 163.216C137.84 162.545 138.225 162.034 138.725 161.682C139.228 161.329 139.829 161.153 140.527 161.153C141.226 161.153 141.827 161.329 142.33 161.682C142.833 162.034 143.218 162.545 143.485 163.216C143.755 163.886 143.89 164.696 143.89 165.645C143.89 166.599 143.755 167.415 143.485 168.091C143.218 168.764 142.833 169.278 142.33 169.633C141.83 169.989 141.229 170.166 140.527 170.166ZM140.527 168.832C141.073 168.832 141.503 168.564 141.819 168.027C142.137 167.487 142.296 166.693 142.296 165.645C142.296 164.952 142.223 164.369 142.079 163.898C141.934 163.426 141.729 163.071 141.465 162.832C141.201 162.591 140.888 162.47 140.527 162.47C139.985 162.47 139.556 162.74 139.24 163.28C138.925 163.817 138.766 164.605 138.763 165.645C138.76 166.341 138.83 166.926 138.972 167.4C139.117 167.875 139.321 168.233 139.586 168.474C139.85 168.713 140.164 168.832 140.527 168.832Z"/><path fill="#8C94A6" d="M146.674 168.807L146.618 169.275C146.579 169.633 146.508 169.997 146.405 170.366C146.306 170.739 146.201 171.081 146.09 171.393C145.979 171.706 145.89 171.952 145.821 172.131H144.782C144.821 171.957 144.875 171.722 144.944 171.423C145.015 171.125 145.083 170.79 145.148 170.418C145.214 170.045 145.258 169.668 145.28 169.284L145.31 168.807H146.674Z"/><path fill="#8C94A6" d="M151.151 170.166C150.449 170.166 149.847 169.989 149.344 169.633C148.844 169.275 148.459 168.76 148.189 168.087C147.922 167.41 147.788 166.597 147.788 165.645C147.791 164.693 147.926 163.883 148.193 163.216C148.463 162.545 148.848 162.034 149.348 161.682C149.851 161.329 150.452 161.153 151.151 161.153C151.85 161.153 152.45 161.329 152.953 161.682C153.456 162.034 153.841 162.545 154.108 163.216C154.378 163.886 154.513 164.696 154.513 165.645C154.513 166.599 154.378 167.415 154.108 168.091C153.841 168.764 153.456 169.278 152.953 169.633C152.453 169.989 151.852 170.166 151.151 170.166ZM151.151 168.832C151.696 168.832 152.127 168.564 152.442 168.027C152.76 167.487 152.919 166.693 152.919 165.645C152.919 164.952 152.847 164.369 152.702 163.898C152.557 163.426 152.352 163.071 152.088 162.832C151.824 162.591 151.511 162.47 151.151 162.47C150.608 162.47 150.179 162.74 149.864 163.28C149.548 163.817 149.389 164.605 149.386 165.645C149.384 166.341 149.453 166.926 149.595 167.4C149.74 167.875 149.945 168.233 150.209 168.474C150.473 168.713 150.787 168.832 151.151 168.832Z"/><path fill="#8C94A6" d="M159.035 170.166C158.333 170.166 157.731 169.989 157.228 169.633C156.728 169.275 156.343 168.76 156.073 168.087C155.806 167.41 155.672 166.597 155.672 165.645C155.675 164.693 155.81 163.883 156.077 163.216C156.347 162.545 156.732 162.034 157.232 161.682C157.735 161.329 158.336 161.153 159.035 161.153C159.733 161.153 160.334 161.329 160.837 161.682C161.34 162.034 161.725 162.545 161.992 163.216C162.262 163.886 162.397 164.696 162.397 165.645C162.397 166.599 162.262 167.415 161.992 168.091C161.725 168.764 161.34 169.278 160.837 169.633C160.337 169.989 159.736 170.166 159.035 170.166ZM159.035 168.832C159.58 168.832 160.01 168.564 160.326 168.027C160.644 167.487 160.803 166.693 160.803 165.645C160.803 164.952 160.731 164.369 160.586 163.898C160.441 163.426 160.236 163.071 159.972 162.832C159.708 162.591 159.395 162.47 159.035 162.47C158.492 162.47 158.063 162.74 157.748 163.28C157.432 163.817 157.273 164.605 157.27 165.645C157.268 166.341 157.337 166.926 157.479 167.4C157.624 167.875 157.829 168.233 158.093 168.474C158.357 168.713 158.671 168.832 159.035 168.832Z"/><path fill="#8C94A6" d="M166.918 170.166C166.217 170.166 165.615 169.989 165.112 169.633C164.612 169.275 164.227 168.76 163.957 168.087C163.69 167.41 163.556 166.597 163.556 165.645C163.559 164.693 163.694 163.883 163.961 163.216C164.231 162.545 164.616 162.034 165.116 161.682C165.619 161.329 166.22 161.153 166.918 161.153C167.617 161.153 168.218 161.329 168.721 161.682C169.224 162.034 169.609 162.545 169.876 163.216C170.146 163.886 170.281 164.696 170.281 165.645C170.281 166.599 170.146 167.415 169.876 168.091C169.609 168.764 169.224 169.278 168.721 169.633C168.221 169.989 167.62 170.166 166.918 170.166ZM166.918 168.832C167.464 168.832 167.894 168.564 168.21 168.027C168.528 167.487 168.687 166.693 168.687 165.645C168.687 164.952 168.615 164.369 168.47 163.898C168.325 163.426 168.12 163.071 167.856 162.832C167.592 162.591 167.279 162.47 166.918 162.47C166.376 162.47 165.947 162.74 165.632 163.28C165.316 163.817 165.157 164.605 165.154 165.645C165.151 166.341 165.221 166.926 165.363 167.4C165.508 167.875 165.713 168.233 165.977 168.474C166.241 168.713 166.555 168.832 166.918 168.832Z"/><path fill="#8C94A6" d="M180.02 161.273H181.601V166.974C181.601 167.599 181.453 168.149 181.158 168.623C180.865 169.098 180.453 169.469 179.922 169.736C179.39 170 178.77 170.132 178.06 170.132C177.346 170.132 176.724 170 176.193 169.736C175.662 169.469 175.25 169.098 174.957 168.623C174.665 168.149 174.518 167.599 174.518 166.974V161.273H176.099V166.842C176.099 167.206 176.179 167.53 176.338 167.814C176.5 168.098 176.727 168.321 177.02 168.483C177.312 168.642 177.659 168.722 178.06 168.722C178.46 168.722 178.807 168.642 179.099 168.483C179.395 168.321 179.622 168.098 179.781 167.814C179.94 167.53 180.02 167.206 180.02 166.842V161.273Z"/><path fill="#8C94A6" d="M187.942 163.672C187.902 163.3 187.735 163.01 187.439 162.802C187.147 162.595 186.766 162.491 186.297 162.491C185.968 162.491 185.685 162.541 185.449 162.641C185.213 162.74 185.033 162.875 184.908 163.045C184.783 163.216 184.719 163.41 184.716 163.629C184.716 163.811 184.757 163.969 184.84 164.102C184.925 164.236 185.04 164.349 185.185 164.443C185.33 164.534 185.49 164.611 185.666 164.673C185.843 164.736 186.02 164.788 186.199 164.831L187.017 165.035C187.347 165.112 187.664 165.216 187.968 165.347C188.274 165.477 188.549 165.642 188.79 165.841C189.034 166.04 189.228 166.28 189.37 166.561C189.512 166.842 189.583 167.172 189.583 167.55C189.583 168.061 189.452 168.511 189.191 168.9C188.929 169.287 188.551 169.589 188.057 169.808C187.566 170.024 186.97 170.132 186.272 170.132C185.593 170.132 185.003 170.027 184.503 169.817C184.006 169.606 183.617 169.3 183.335 168.896C183.057 168.493 182.907 168.001 182.884 167.422H184.439C184.462 167.726 184.556 167.979 184.72 168.18C184.885 168.382 185.1 168.533 185.364 168.632C185.631 168.731 185.929 168.781 186.259 168.781C186.603 168.781 186.904 168.73 187.162 168.628C187.424 168.523 187.628 168.378 187.776 168.193C187.924 168.006 187.999 167.787 188.002 167.537C187.999 167.31 187.932 167.122 187.801 166.974C187.671 166.824 187.487 166.699 187.252 166.599C187.019 166.497 186.746 166.406 186.433 166.327L185.441 166.071C184.722 165.886 184.154 165.606 183.736 165.231C183.321 164.854 183.114 164.352 183.114 163.727C183.114 163.213 183.253 162.763 183.532 162.376C183.813 161.99 184.195 161.69 184.678 161.477C185.161 161.261 185.708 161.153 186.318 161.153C186.938 161.153 187.48 161.261 187.946 161.477C188.415 161.69 188.783 161.987 189.05 162.368C189.317 162.746 189.455 163.18 189.463 163.672H187.942Z"/><path fill="#8C94A6" d="M193.829 170H190.872V161.273H193.889C194.756 161.273 195.5 161.447 196.122 161.797C196.747 162.143 197.227 162.642 197.562 163.293C197.898 163.943 198.065 164.722 198.065 165.628C198.065 166.537 197.896 167.318 197.558 167.972C197.223 168.625 196.739 169.126 196.105 169.476C195.474 169.825 194.716 170 193.829 170ZM192.453 168.632H193.753C194.361 168.632 194.868 168.521 195.274 168.3C195.68 168.075 195.986 167.741 196.19 167.298C196.395 166.852 196.497 166.295 196.497 165.628C196.497 164.96 196.395 164.406 196.19 163.966C195.986 163.523 195.683 163.192 195.283 162.973C194.885 162.751 194.391 162.641 193.8 162.641H192.453V168.632Z"/><path fill="#8C94A6" d="M205.85 170.153C205.435 170.153 205.059 170.075 204.721 169.919C204.383 169.76 204.114 169.531 203.915 169.233C203.717 168.932 203.617 168.568 203.617 168.142C203.617 167.767 203.691 167.463 203.839 167.23C203.987 166.994 204.184 166.81 204.431 166.676C204.678 166.543 204.951 166.443 205.249 166.378C205.55 166.31 205.853 166.256 206.157 166.216C206.555 166.165 206.877 166.126 207.124 166.101C207.374 166.072 207.556 166.026 207.67 165.96C207.786 165.895 207.844 165.781 207.844 165.619V165.585C207.844 165.165 207.729 164.838 207.499 164.605C207.272 164.372 206.927 164.256 206.464 164.256C205.984 164.256 205.607 164.361 205.335 164.571C205.062 164.781 204.87 165.006 204.759 165.244L203.805 164.903C203.975 164.506 204.202 164.196 204.487 163.974C204.773 163.75 205.086 163.594 205.424 163.506C205.765 163.415 206.1 163.369 206.43 163.369C206.64 163.369 206.881 163.395 207.154 163.446C207.43 163.494 207.695 163.595 207.951 163.749C208.21 163.902 208.424 164.134 208.594 164.443C208.765 164.753 208.85 165.168 208.85 165.688V170H207.844V169.114H207.793C207.725 169.256 207.612 169.408 207.452 169.57C207.293 169.732 207.082 169.869 206.817 169.983C206.553 170.097 206.231 170.153 205.85 170.153ZM206.004 169.25C206.401 169.25 206.737 169.172 207.009 169.016C207.285 168.859 207.492 168.658 207.631 168.411C207.773 168.163 207.844 167.903 207.844 167.631V166.71C207.802 166.761 207.708 166.808 207.563 166.851C207.421 166.891 207.256 166.926 207.069 166.957C206.884 166.986 206.704 167.011 206.528 167.034C206.354 167.054 206.214 167.071 206.106 167.085C205.844 167.119 205.6 167.175 205.373 167.251C205.148 167.325 204.967 167.437 204.827 167.588C204.691 167.736 204.623 167.938 204.623 168.193C204.623 168.543 204.752 168.807 205.011 168.986C205.272 169.162 205.603 169.25 206.004 169.25Z"/><path fill="#8C94A6" d="M215.684 163.455L213.263 170H212.24L209.82 163.455H210.911L212.718 168.67H212.786L214.593 163.455H215.684Z"/><path fill="#8C94A6" d="M218.618 170.153C218.203 170.153 217.827 170.075 217.489 169.919C217.151 169.76 216.882 169.531 216.683 169.233C216.484 168.932 216.385 168.568 216.385 168.142C216.385 167.767 216.459 167.463 216.607 167.23C216.754 166.994 216.952 166.81 217.199 166.676C217.446 166.543 217.719 166.443 218.017 166.378C218.318 166.31 218.621 166.256 218.925 166.216C219.323 166.165 219.645 166.126 219.892 166.101C220.142 166.072 220.324 166.026 220.438 165.96C220.554 165.895 220.612 165.781 220.612 165.619V165.585C220.612 165.165 220.497 164.838 220.267 164.605C220.04 164.372 219.695 164.256 219.232 164.256C218.751 164.256 218.375 164.361 218.102 164.571C217.83 164.781 217.638 165.006 217.527 165.244L216.573 164.903C216.743 164.506 216.97 164.196 217.254 163.974C217.541 163.75 217.854 163.594 218.192 163.506C218.533 163.415 218.868 163.369 219.198 163.369C219.408 163.369 219.649 163.395 219.922 163.446C220.198 163.494 220.463 163.595 220.719 163.749C220.977 163.902 221.192 164.134 221.362 164.443C221.533 164.753 221.618 165.168 221.618 165.688V170H220.612V169.114H220.561C220.493 169.256 220.379 169.408 220.22 169.57C220.061 169.732 219.849 169.869 219.585 169.983C219.321 170.097 218.999 170.153 218.618 170.153ZM218.771 169.25C219.169 169.25 219.504 169.172 219.777 169.016C220.053 168.859 220.26 168.658 220.399 168.411C220.541 168.163 220.612 167.903 220.612 167.631V166.71C220.57 166.761 220.476 166.808 220.331 166.851C220.189 166.891 220.024 166.926 219.837 166.957C219.652 166.986 219.472 167.011 219.296 167.034C219.122 167.054 218.982 167.071 218.874 167.085C218.612 167.119 218.368 167.175 218.141 167.251C217.916 167.325 217.734 167.437 217.595 167.588C217.459 167.736 217.391 167.938 217.391 168.193C217.391 168.543 217.52 168.807 217.778 168.986C218.04 169.162 218.371 169.25 218.771 169.25Z"/><path fill="#8C94A6" d="M223.334 170V163.455H224.339V170H223.334ZM223.845 162.364C223.649 162.364 223.48 162.297 223.338 162.163C223.199 162.03 223.129 161.869 223.129 161.682C223.129 161.494 223.199 161.334 223.338 161.2C223.48 161.067 223.649 161 223.845 161C224.041 161 224.209 161.067 224.348 161.2C224.49 161.334 224.561 161.494 224.561 161.682C224.561 161.869 224.49 162.03 224.348 162.163C224.209 162.297 224.041 162.364 223.845 162.364Z"/><path fill="#8C94A6" d="M227.067 161.273V170H226.061V161.273H227.067Z"/><path fill="#8C94A6" d="M230.715 170.153C230.3 170.153 229.924 170.075 229.586 169.919C229.248 169.76 228.979 169.531 228.78 169.233C228.581 168.932 228.482 168.568 228.482 168.142C228.482 167.767 228.556 167.463 228.704 167.23C228.851 166.994 229.049 166.81 229.296 166.676C229.543 166.543 229.816 166.443 230.114 166.378C230.415 166.31 230.718 166.256 231.022 166.216C231.42 166.165 231.742 166.126 231.989 166.101C232.239 166.072 232.421 166.026 232.535 165.96C232.651 165.895 232.709 165.781 232.709 165.619V165.585C232.709 165.165 232.594 164.838 232.364 164.605C232.137 164.372 231.792 164.256 231.329 164.256C230.849 164.256 230.472 164.361 230.199 164.571C229.927 164.781 229.735 165.006 229.624 165.244L228.67 164.903C228.84 164.506 229.067 164.196 229.351 163.974C229.638 163.75 229.951 163.594 230.289 163.506C230.63 163.415 230.965 163.369 231.295 163.369C231.505 163.369 231.746 163.395 232.019 163.446C232.295 163.494 232.56 163.595 232.816 163.749C233.074 163.902 233.289 164.134 233.459 164.443C233.63 164.753 233.715 165.168 233.715 165.688V170H232.709V169.114H232.658C232.59 169.256 232.476 169.408 232.317 169.57C232.158 169.732 231.947 169.869 231.682 169.983C231.418 170.097 231.096 170.153 230.715 170.153ZM230.868 169.25C231.266 169.25 231.601 169.172 231.874 169.016C232.15 168.859 232.357 168.658 232.496 168.411C232.638 168.163 232.709 167.903 232.709 167.631V166.71C232.667 166.761 232.573 166.808 232.428 166.851C232.286 166.891 232.121 166.926 231.934 166.957C231.749 166.986 231.569 167.011 231.393 167.034C231.219 167.054 231.079 167.071 230.971 167.085C230.709 167.119 230.465 167.175 230.238 167.251C230.013 167.325 229.831 167.437 229.692 167.588C229.556 167.736 229.488 167.938 229.488 168.193C229.488 168.543 229.617 168.807 229.875 168.986C230.137 169.162 230.468 169.25 230.868 169.25Z"/><path fill="#8C94A6" d="M235.567 170V161.273H236.573V164.494H236.658C236.732 164.381 236.834 164.236 236.965 164.06C237.098 163.881 237.289 163.722 237.536 163.582C237.786 163.44 238.124 163.369 238.55 163.369C239.101 163.369 239.587 163.507 240.007 163.783C240.428 164.058 240.756 164.449 240.992 164.955C241.227 165.46 241.345 166.057 241.345 166.744C241.345 167.437 241.227 168.038 240.992 168.547C240.756 169.053 240.429 169.445 240.012 169.723C239.594 169.999 239.112 170.136 238.567 170.136C238.146 170.136 237.81 170.067 237.557 169.928C237.304 169.786 237.11 169.625 236.973 169.446C236.837 169.264 236.732 169.114 236.658 168.994H236.539V170H235.567ZM236.556 166.727C236.556 167.222 236.628 167.658 236.773 168.036C236.918 168.411 237.129 168.705 237.408 168.918C237.686 169.128 238.027 169.233 238.431 169.233C238.851 169.233 239.202 169.122 239.483 168.901C239.767 168.676 239.98 168.375 240.122 167.997C240.267 167.616 240.34 167.193 240.34 166.727C240.34 166.267 240.269 165.852 240.127 165.483C239.987 165.111 239.776 164.817 239.492 164.601C239.21 164.382 238.857 164.273 238.431 164.273C238.021 164.273 237.678 164.376 237.399 164.584C237.121 164.788 236.911 165.075 236.769 165.445C236.627 165.811 236.556 166.239 236.556 166.727Z"/><path fill="#8C94A6" d="M243.769 161.273V170H242.764V161.273H243.769Z"/><path fill="#8C94A6" d="M248.236 170.136C247.605 170.136 247.061 169.997 246.604 169.719C246.149 169.438 245.798 169.045 245.551 168.543C245.307 168.037 245.185 167.449 245.185 166.778C245.185 166.108 245.307 165.517 245.551 165.006C245.798 164.491 246.142 164.091 246.582 163.804C247.025 163.514 247.542 163.369 248.133 163.369C248.474 163.369 248.811 163.426 249.143 163.54C249.476 163.653 249.778 163.838 250.051 164.094C250.324 164.347 250.541 164.682 250.703 165.099C250.865 165.517 250.946 166.031 250.946 166.642V167.068H245.9V166.199H249.923C249.923 165.83 249.849 165.5 249.702 165.21C249.557 164.92 249.349 164.692 249.079 164.524C248.812 164.357 248.497 164.273 248.133 164.273C247.733 164.273 247.386 164.372 247.094 164.571C246.804 164.767 246.581 165.023 246.425 165.338C246.268 165.653 246.19 165.991 246.19 166.352V166.932C246.19 167.426 246.275 167.845 246.446 168.189C246.619 168.53 246.859 168.79 247.166 168.969C247.473 169.145 247.829 169.233 248.236 169.233C248.5 169.233 248.739 169.196 248.952 169.122C249.167 169.045 249.354 168.932 249.51 168.781C249.666 168.628 249.787 168.437 249.872 168.21L250.844 168.483C250.741 168.813 250.569 169.102 250.328 169.352C250.087 169.599 249.788 169.793 249.433 169.932C249.078 170.068 248.679 170.136 248.236 170.136Z"/><rect width="288" height="90" x="16" y="56" fill="#fff" rx="8"/><path fill="#8C94A6" d="M32.3047 73.2726H33.5149L35.9354 77.3465H36.0376L38.4581 73.2726H39.6683L36.5149 78.4033V81.9999H35.4581V78.4033L32.3047 73.2726Z"/><path fill="#8C94A6" d="M42.5121 82.1363C41.9212 82.1363 41.4027 81.9957 40.9567 81.7144C40.5135 81.4332 40.1669 81.0397 39.9169 80.534C39.6698 80.0283 39.5462 79.4374 39.5462 78.7613C39.5462 78.0795 39.6698 77.4843 39.9169 76.9758C40.1669 76.4672 40.5135 76.0724 40.9567 75.7911C41.4027 75.5099 41.9212 75.3692 42.5121 75.3692C43.103 75.3692 43.6201 75.5099 44.0632 75.7911C44.5093 76.0724 44.8559 76.4672 45.103 76.9758C45.353 77.4843 45.478 78.0795 45.478 78.7613C45.478 79.4374 45.353 80.0283 45.103 80.534C44.8559 81.0397 44.5093 81.4332 44.0632 81.7144C43.6201 81.9957 43.103 82.1363 42.5121 82.1363ZM42.5121 81.2329C42.961 81.2329 43.3303 81.1178 43.6201 80.8877C43.9098 80.6576 44.1243 80.355 44.2635 79.98C44.4027 79.605 44.4723 79.1988 44.4723 78.7613C44.4723 78.3238 44.4027 77.9161 44.2635 77.5383C44.1243 77.1604 43.9098 76.855 43.6201 76.6221C43.3303 76.3891 42.961 76.2726 42.5121 76.2726C42.0632 76.2726 41.6939 76.3891 41.4041 76.6221C41.1144 76.855 40.8999 77.1604 40.7607 77.5383C40.6215 77.9161 40.5519 78.3238 40.5519 78.7613C40.5519 79.1988 40.6215 79.605 40.7607 79.98C40.8999 80.355 41.1144 80.6576 41.4041 80.8877C41.6939 81.1178 42.0632 81.2329 42.5121 81.2329Z"/><path fill="#8C94A6" d="M51.0182 79.3238V75.4545H52.0238V81.9999H51.0182V80.892H50.95C50.7966 81.2243 50.5579 81.507 50.2341 81.74C49.9102 81.9701 49.5011 82.0851 49.0068 82.0851C48.5977 82.0851 48.2341 81.9956 47.9159 81.8167C47.5977 81.6349 47.3477 81.3621 47.1659 80.9985C46.9841 80.632 46.8932 80.1704 46.8932 79.6135V75.4545H47.8988V79.5454C47.8988 80.0226 48.0324 80.4033 48.2994 80.6874C48.5693 80.9715 48.9131 81.1135 49.3307 81.1135C49.5807 81.1135 49.8349 81.0496 50.0935 80.9218C50.3548 80.7939 50.5736 80.5979 50.7497 80.3337C50.9287 80.0695 51.0182 79.7329 51.0182 79.3238Z"/><path fill="#8C94A6" d="M61.9099 75.4545C61.8588 75.0226 61.6514 74.6874 61.2878 74.4488C60.9241 74.2101 60.4781 74.0908 59.9497 74.0908C59.5633 74.0908 59.2253 74.1533 58.9355 74.2783C58.6486 74.4033 58.4241 74.5752 58.2622 74.7939C58.1031 75.0127 58.0236 75.2613 58.0236 75.5397C58.0236 75.7726 58.0789 75.9729 58.1897 76.1405C58.3034 76.3053 58.4483 76.4431 58.6244 76.5539C58.8005 76.6618 58.9852 76.7513 59.1784 76.8224C59.3716 76.8905 59.5491 76.9459 59.7111 76.9885L60.5974 77.2272C60.8247 77.2868 61.0775 77.3692 61.3559 77.4743C61.6372 77.5795 61.9057 77.7229 62.1613 77.9047C62.4199 78.0837 62.6329 78.3138 62.8005 78.5951C62.9682 78.8763 63.052 79.2215 63.052 79.6306C63.052 80.1022 62.9284 80.5283 62.6812 80.909C62.4369 81.2897 62.0789 81.5922 61.6074 81.8167C61.1386 82.0411 60.569 82.1533 59.8986 82.1533C59.2736 82.1533 58.7324 82.0525 58.275 81.8508C57.8204 81.6491 57.4625 81.3678 57.2011 81.007C56.9426 80.6462 56.7963 80.2272 56.7622 79.7499H57.8531C57.8815 80.0795 57.9923 80.3522 58.1855 80.5681C58.3815 80.7812 58.6287 80.9403 58.927 81.0454C59.2281 81.1476 59.552 81.1988 59.8986 81.1988C60.302 81.1988 60.6642 81.1334 60.9852 81.0028C61.3062 80.8692 61.5605 80.6846 61.748 80.4488C61.9355 80.2101 62.0292 79.9317 62.0292 79.6135C62.0292 79.3238 61.9483 79.088 61.7863 78.9062C61.6244 78.7243 61.4113 78.5766 61.1471 78.463C60.8829 78.3493 60.5974 78.2499 60.2906 78.1647L59.2167 77.8579C58.5349 77.6618 57.9951 77.382 57.5974 77.0184C57.1997 76.6547 57.0008 76.1789 57.0008 75.5908C57.0008 75.1022 57.1329 74.676 57.3971 74.3124C57.6642 73.9459 58.0221 73.6618 58.471 73.4601C58.9227 73.2556 59.427 73.1533 59.9838 73.1533C60.5463 73.1533 61.0463 73.2542 61.4838 73.4559C61.9213 73.6547 62.2679 73.9275 62.5236 74.2741C62.7821 74.6206 62.9184 75.0141 62.9326 75.4545H61.9099Z"/><path fill="#8C94A6" d="M67.2775 82.1363C66.6468 82.1363 66.1028 81.9971 65.6454 81.7187C65.1908 81.4374 64.84 81.0454 64.5928 80.5425C64.3485 80.0368 64.2264 79.4488 64.2264 78.7783C64.2264 78.1079 64.3485 77.517 64.5928 77.0056C64.84 76.4914 65.1837 76.0908 65.6241 75.8039C66.0673 75.5141 66.5843 75.3692 67.1752 75.3692C67.5161 75.3692 67.8528 75.426 68.1852 75.5397C68.5175 75.6533 68.8201 75.838 69.0928 76.0937C69.3656 76.3465 69.5829 76.6817 69.7448 77.0993C69.9067 77.517 69.9877 78.0312 69.9877 78.642V79.0681H64.9423V78.1988H68.965C68.965 77.8295 68.8911 77.4999 68.7434 77.2101C68.5985 76.9204 68.3911 76.6917 68.1212 76.5241C67.8542 76.3564 67.5388 76.2726 67.1752 76.2726C66.7746 76.2726 66.4281 76.3721 66.1354 76.5709C65.8457 76.767 65.6227 77.0226 65.4664 77.338C65.3102 77.6533 65.232 77.9914 65.232 78.3522V78.9317C65.232 79.426 65.3173 79.8451 65.4877 80.1888C65.661 80.5297 65.9011 80.7897 66.2079 80.9687C66.5147 81.1448 66.8712 81.2329 67.2775 81.2329C67.5417 81.2329 67.7803 81.1959 67.9934 81.1221C68.2093 81.0454 68.3954 80.9317 68.5516 80.7812C68.7079 80.6278 68.8286 80.4374 68.9138 80.2101L69.8854 80.4829C69.7832 80.8124 69.6113 81.1022 69.3698 81.3522C69.1283 81.5993 68.83 81.7925 68.4749 81.9317C68.1198 82.0681 67.7207 82.1363 67.2775 82.1363Z"/><path fill="#8C94A6" d="M72.4032 78.0624V81.9999H71.3975V75.4545H72.3691V76.4772H72.4544C72.6078 76.1448 72.8407 75.8778 73.1532 75.676C73.4657 75.4715 73.8691 75.3692 74.3634 75.3692C74.8066 75.3692 75.1944 75.4601 75.5268 75.642C75.8592 75.8209 76.1177 76.0937 76.3024 76.4601C76.487 76.8238 76.5794 77.284 76.5794 77.8408V81.9999H75.5737V77.909C75.5737 77.3948 75.4402 76.9942 75.1731 76.7073C74.9061 76.4175 74.5396 76.2726 74.0737 76.2726C73.7527 76.2726 73.4657 76.3422 73.2129 76.4814C72.9629 76.6207 72.7654 76.8238 72.6206 77.0908C72.4757 77.3579 72.4032 77.6817 72.4032 78.0624Z"/><path fill="#8C94A6" d="M80.7687 82.1363C80.2232 82.1363 79.7417 81.9985 79.3241 81.7229C78.9064 81.4445 78.5797 81.0525 78.3439 80.5468C78.1082 80.0383 77.9903 79.4374 77.9903 78.7442C77.9903 78.0567 78.1082 77.4601 78.3439 76.9545C78.5797 76.4488 78.9079 76.0581 79.3283 75.7826C79.7488 75.507 80.2346 75.3692 80.7857 75.3692C81.2118 75.3692 81.5485 75.4403 81.7957 75.5823C82.0457 75.7215 82.236 75.8806 82.3667 76.0596C82.5002 76.2357 82.6039 76.3806 82.6778 76.4942H82.763V73.2726H83.7687V81.9999H82.7971V80.9942H82.6778C82.6039 81.1135 82.4988 81.2641 82.3624 81.4459C82.226 81.6249 82.0314 81.7854 81.7786 81.9275C81.5258 82.0667 81.1891 82.1363 80.7687 82.1363ZM80.905 81.2329C81.3084 81.2329 81.6493 81.1278 81.9278 80.9175C82.2062 80.7045 82.4178 80.4104 82.5627 80.0354C82.7076 79.6576 82.78 79.2215 82.78 78.7272C82.78 78.2385 82.709 77.811 82.567 77.4445C82.4249 77.0752 82.2147 76.7883 81.9363 76.5837C81.6579 76.3763 81.3141 76.2726 80.905 76.2726C80.4789 76.2726 80.1238 76.382 79.8397 76.6008C79.5584 76.8167 79.3468 77.1107 79.2047 77.4829C79.0655 77.8522 78.9959 78.267 78.9959 78.7272C78.9959 79.1931 79.067 79.6164 79.209 79.9971C79.3539 80.3749 79.567 80.676 79.8482 80.9005C80.1323 81.1221 80.4846 81.2329 80.905 81.2329Z"/><path fill="#1A1A21" d="M42.0509 125.3C35.9009 125.3 33.7109 121.85 33.7109 114.74C33.7109 108.56 36.3509 104.6 42.3209 104.6C46.5809 104.6 49.4309 106.91 49.4309 110.78V110.96H46.0109V110.78C46.0109 108.89 45.0509 107.72 41.9009 107.72C38.0009 107.72 37.0109 109.73 37.0109 113.96V115.61H37.1609C37.9709 113.9 39.7709 112.55 43.1609 112.55C47.6009 112.55 49.9709 114.95 49.9709 118.76C49.9709 122.75 47.1809 125.3 42.0509 125.3ZM42.1409 122.18C45.6209 122.18 46.7609 121.1 46.7609 118.7C46.7609 116.36 45.6509 115.28 42.1709 115.28C38.7509 115.28 37.4609 116.39 37.4609 118.73C37.4609 121.1 38.7809 122.18 42.1409 122.18Z"/><path fill="#1A1A21" d="M60.7597 125.3C55.5397 125.3 52.8397 122.99 52.8397 119.3V119.12H56.0497V119.3C56.0497 121.55 57.5497 122.33 60.8797 122.33C64.4197 122.33 65.5897 121.34 65.5897 118.52C65.5897 115.82 64.2997 114.77 60.9097 114.77C58.4497 114.77 57.0097 115.46 56.0197 116.03L53.1697 115.58L53.8597 104.9H67.7197V107.81H56.7097L56.2297 113.66H56.3197C57.3697 112.79 59.2597 111.98 61.8997 111.98C66.1897 111.98 68.7997 114.38 68.7997 118.43C68.7997 122.6 66.3097 125.3 60.7597 125.3Z"/><path fill="#1A1A21" d="M72.6549 128.54H71.5749V126.41H72.5649C73.0749 126.41 73.3449 126.29 73.3449 125.63V125H71.5149V120.35H75.6249V125.57C75.6249 127.58 74.5449 128.54 72.6549 128.54Z"/><path fill="#1A1A21" d="M83.5719 125.03H80.0619C80.0619 116.27 84.1119 110.93 87.4419 107.96V107.81H76.2219V104.9H91.3119V107.57C85.8219 112.58 83.5719 117.95 83.5719 125.03Z"/><path fill="#1A1A21" d="M101.383 125.3C95.9827 125.3 92.7127 121.31 92.7127 114.95C92.7127 108.59 95.9827 104.6 101.383 104.6C106.783 104.6 110.083 108.59 110.083 114.95C110.083 121.31 106.783 125.3 101.383 125.3ZM101.383 122.18C104.953 122.18 106.633 120.26 106.633 114.95C106.633 109.64 104.953 107.72 101.383 107.72C97.8127 107.72 96.1627 109.64 96.1627 114.95C96.1627 120.26 97.8127 122.18 101.383 122.18Z"/><path fill="#1A1A21" d="M122.447 125.3C117.047 125.3 113.777 121.31 113.777 114.95C113.777 108.59 117.047 104.6 122.447 104.6C127.847 104.6 131.147 108.59 131.147 114.95C131.147 121.31 127.847 125.3 122.447 125.3ZM122.447 122.18C126.017 122.18 127.697 120.26 127.697 114.95C127.697 109.64 126.017 107.72 122.447 107.72C118.877 107.72 117.227 109.64 117.227 114.95C117.227 120.26 118.877 122.18 122.447 122.18Z"/><rect width="78" height="28" x="210" y="87" fill="#F9F9FB" rx="14"/><g clip-path="url(#clip1_3635_52389)"><g clip-path="url(#clip2_3635_52389)"><rect width="16" height="16" x="216" y="93" fill="#EEEEF0" rx="8"/><g clip-path="url(#clip3_3635_52389)"><rect width="8" height="8" fill="#002868" transform="translate(216 93)"/><path fill="#fff" d="M218 93.3037L218.47 94.6565L219.902 94.6857L218.761 95.5509L219.176 96.9217L218 96.1037L216.824 96.9217L217.239 95.5509L216.098 94.6857L217.53 94.6565L218 93.3037Z"/><path fill="#fff" d="M220 96.6963L220.47 98.0491L221.902 98.0783L220.761 98.9435L221.176 100.314L220 99.4963L218.824 100.314L219.239 98.9435L218.098 98.0783L219.53 98.0491L220 96.6963Z"/><path fill="#fff" d="M222 93.3037L222.47 94.6565L223.902 94.6857L222.761 95.5509L223.176 96.9217L222 96.1037L220.824 96.9217L221.239 95.5509L220.098 94.6857L221.53 94.6565L222 93.3037Z"/></g><rect width="8" height="2.667" fill="#BF0A30" transform="translate(224 93)"/><rect width="8" height="2.667" fill="#fff" transform="translate(224 95.667)"/><rect width="8" height="2.667" fill="#BF0A30" transform="translate(224 98.333)"/><rect width="16" height="4" fill="#fff" transform="translate(216 101)"/><rect width="16" height="4" fill="#BF0A30" transform="translate(216 105)"/></g></g><rect width="15" height="15" x="216.5" y="93.5" stroke="#EEEEF0" rx="7.5"/><path fill="#49576D" d="M240.573 96.2726H241.894V102.013C241.894 102.623 241.751 103.165 241.464 103.636C241.177 104.105 240.773 104.474 240.254 104.744C239.734 105.011 239.124 105.145 238.425 105.145C237.729 105.145 237.121 105.011 236.602 104.744C236.082 104.474 235.678 104.105 235.391 103.636C235.104 103.165 234.961 102.623 234.961 102.013V96.2726H236.278V101.906C236.278 102.301 236.364 102.652 236.538 102.959C236.714 103.266 236.962 103.507 237.283 103.683C237.604 103.856 237.985 103.943 238.425 103.943C238.869 103.943 239.251 103.856 239.572 103.683C239.896 103.507 240.143 103.266 240.313 102.959C240.487 102.652 240.573 102.301 240.573 101.906V96.2726Z"/><path fill="#49576D" d="M248.329 98.5653C248.283 98.1618 248.096 97.8493 247.766 97.6278C247.436 97.4033 247.022 97.2911 246.522 97.2911C246.164 97.2911 245.854 97.3479 245.593 97.4616C245.331 97.5724 245.128 97.7258 244.983 97.9218C244.841 98.115 244.77 98.3351 244.77 98.5823C244.77 98.7897 244.819 98.9687 244.915 99.1192C245.015 99.2698 245.144 99.3962 245.303 99.4985C245.465 99.5979 245.638 99.6817 245.823 99.7499C246.008 99.8153 246.185 99.8692 246.356 99.9118L247.208 100.133C247.486 100.202 247.772 100.294 248.064 100.41C248.357 100.527 248.628 100.68 248.878 100.871C249.128 101.061 249.33 101.297 249.483 101.578C249.64 101.859 249.718 102.196 249.718 102.588C249.718 103.082 249.59 103.521 249.334 103.905C249.081 104.288 248.713 104.591 248.231 104.812C247.75 105.034 247.169 105.145 246.488 105.145C245.834 105.145 245.269 105.041 244.792 104.834C244.314 104.626 243.941 104.332 243.671 103.952C243.401 103.568 243.252 103.114 243.223 102.588H244.544C244.57 102.903 244.672 103.166 244.851 103.376C245.033 103.584 245.265 103.739 245.546 103.841C245.83 103.94 246.141 103.99 246.479 103.99C246.851 103.99 247.182 103.932 247.472 103.815C247.765 103.696 247.995 103.531 248.162 103.321C248.33 103.108 248.414 102.859 248.414 102.575C248.414 102.317 248.34 102.105 248.192 101.94C248.047 101.775 247.85 101.639 247.6 101.531C247.353 101.423 247.073 101.328 246.76 101.246L245.729 100.964C245.03 100.774 244.476 100.494 244.067 100.125C243.661 99.7556 243.458 99.267 243.458 98.659C243.458 98.1562 243.594 97.7172 243.867 97.3422C244.14 96.9672 244.509 96.676 244.975 96.4687C245.441 96.2584 245.966 96.1533 246.552 96.1533C247.142 96.1533 247.664 96.257 248.115 96.4644C248.57 96.6718 248.928 96.9573 249.189 97.3209C249.451 97.6817 249.587 98.0965 249.598 98.5653H248.329Z"/><path fill="#49576D" d="M253.877 105H251.051V96.2726H253.966C254.821 96.2726 255.556 96.4474 256.169 96.7968C256.783 97.1434 257.253 97.642 257.58 98.2925C257.909 98.9403 258.074 99.7172 258.074 100.623C258.074 101.533 257.908 102.314 257.575 102.967C257.246 103.621 256.769 104.123 256.144 104.476C255.519 104.825 254.763 105 253.877 105ZM252.368 103.849H253.804C254.469 103.849 255.021 103.724 255.462 103.474C255.902 103.222 256.232 102.856 256.45 102.379C256.669 101.899 256.779 101.314 256.779 100.623C256.779 99.9388 256.669 99.3579 256.45 98.8806C256.234 98.4033 255.912 98.0411 255.483 97.7939C255.054 97.5468 254.521 97.4232 253.885 97.4232H252.368V103.849Z"/><g clip-path="url(#clip4_3635_52389)"><path fill="#8C94A6" d="M280.346 99.9713L277.221 103.096C277.192 103.125 277.158 103.148 277.12 103.164C277.082 103.18 277.041 103.188 277 103.188C276.959 103.188 276.918 103.18 276.881 103.164C276.843 103.148 276.808 103.125 276.779 103.096L273.654 99.9713C273.595 99.9126 273.562 99.8331 273.562 99.7502C273.562 99.6672 273.595 99.5877 273.654 99.5291C273.713 99.4704 273.792 99.4375 273.875 99.4375C273.958 99.4375 274.038 99.4704 274.096 99.5291L277 102.433L279.904 99.5291C279.933 99.5 279.968 99.477 280.006 99.4613C280.043 99.4456 280.084 99.4375 280.125 99.4375C280.166 99.4375 280.207 99.4456 280.245 99.4613C280.283 99.477 280.317 99.5 280.346 99.5291C280.375 99.5581 280.398 99.5926 280.414 99.6305C280.43 99.6685 280.438 99.7091 280.438 99.7502C280.438 99.7912 280.43 99.8319 280.414 99.8698C280.398 99.9078 280.375 99.9422 280.346 99.9713Z"/><path fill="#E4E3EC" fill-rule="evenodd" d="M268.5 95C268.776 95 269 95.2239 269 95.5L269 106.5C269 106.776 268.776 107 268.5 107C268.224 107 268 106.776 268 106.5L268 95.5C268 95.2239 268.224 95 268.5 95Z" clip-rule="evenodd"/></g></g><rect width="287" height="129" x="16.5" y="56.5" stroke="#EEEEF0" rx="7.5"/><defs><clipPath id="clip0_3635_52389"><rect width="288" height="130" x="16" y="56" fill="#fff" rx="8"/></clipPath><clipPath id="clip1_3635_52389"><rect width="16" height="16" x="216" y="93" fill="#fff" rx="8"/></clipPath><clipPath id="clip2_3635_52389"><rect width="16" height="16" x="216" y="93" fill="#fff" rx="8"/></clipPath><clipPath id="clip3_3635_52389"><rect width="8" height="8" fill="#fff" transform="translate(216 93)"/></clipPath><clipPath id="clip4_3635_52389"><rect width="18" height="12" fill="#fff" transform="translate(268 95)"/></clipPath></defs></svg>