<svg width="512" height="363" viewBox="0 0 512 363" fill="none" xmlns="http://www.w3.org/2000/svg">
<g filter="url(#filter0_b_3913_8897)">
<path d="M257.931 720.817L471.102 299.758C479.225 283.57 466.51 264.83 448.578 266.445L273.563 282.208C261.639 283.282 249.521 281.21 239.061 275.463C229.358 270.101 221.695 262.294 216.528 253.089C212.646 246.117 210.224 238.291 209.497 230.221L195.664 76.6346C194.526 63.9926 183.286 54.6104 170.644 55.749L-242.417 92.9512C-255.059 94.0898 -264.441 105.329 -263.302 117.971L-247.12 297.649C-245.981 310.291 -234.831 319.681 -222.1 318.534C-128.414 310.006 176.241 282.477 176.241 282.477C183.414 281.831 190.56 283.899 196.278 288.175C203.071 293.348 207.091 300.849 207.817 308.919C208.294 314.208 207.336 319.628 204.813 324.736L17.9531 693.712C10.2792 708.865 -10.7011 710.754 -20.9591 697.216L-290.337 341.673C-294.138 336.592 -300.347 333.897 -306.623 334.462L-520.64 353.738C-538.572 355.353 -547.815 376.161 -536.849 390.539L-251.873 766.732C-248.079 771.723 -241.863 774.508 -235.587 773.942L19.9427 750.928L243.105 730.829C249.471 730.256 255.008 726.503 257.931 720.817Z" fill="url(#paint0_radial_3913_8897)"/>
<path d="M470.208 299.31L257.041 720.36C257.04 720.361 257.039 720.363 257.038 720.365L470.208 299.31Z" stroke="url(#paint1_linear_3913_8897)" stroke-opacity="0.8" stroke-width="2"/>
</g>
<g filter="url(#filter1_b_3913_8897)">
<path d="M205.227 690.817L418.399 269.758C426.522 253.57 413.807 234.83 395.875 236.445L220.86 252.208C208.935 253.282 196.818 251.21 186.358 245.463C176.655 240.101 168.992 232.294 163.825 223.089C159.943 216.117 157.521 208.291 156.794 200.221L142.961 46.6346C141.823 33.9926 130.583 24.6104 117.941 25.749L-295.12 62.9512C-307.762 64.0898 -317.144 75.3293 -316.005 87.9713L-299.823 267.649C-298.684 280.291 -287.534 289.681 -274.803 288.534C-181.117 280.006 123.538 252.477 123.538 252.477C130.711 251.831 137.857 253.899 143.575 258.175C150.367 263.348 154.387 270.849 155.114 278.919C155.591 284.208 154.633 289.628 152.11 294.736L-34.7501 663.712C-42.424 678.865 -63.4043 680.754 -73.6622 667.216L-343.04 311.673C-346.842 306.592 -353.05 303.897 -359.326 304.462L-573.343 323.738C-591.275 325.353 -600.518 346.161 -589.552 360.539L-304.576 736.732C-300.782 741.723 -294.566 744.508 -288.29 743.942L-32.7604 720.928L190.402 700.829C196.768 700.256 202.305 696.503 205.227 690.817Z" fill="url(#paint2_radial_3913_8897)"/>
<path d="M417.505 269.31L204.338 690.36C204.337 690.361 204.336 690.363 204.335 690.365L417.505 269.31Z" stroke="url(#paint3_linear_3913_8897)" stroke-opacity="0.8" stroke-width="2"/>
</g>
<defs>
<filter id="filter0_b_3913_8897" x="-545.57" y="51.6553" width="1023.18" height="726.359" filterUnits="userSpaceOnUse" color-interpolation-filters="sRGB">
<feFlood flood-opacity="0" result="BackgroundImageFix"/>
<feGaussianBlur in="BackgroundImageFix" stdDeviation="2"/>
<feComposite in2="SourceAlpha" operator="in" result="effect1_backgroundBlur_3913_8897"/>
<feBlend mode="normal" in="SourceGraphic" in2="effect1_backgroundBlur_3913_8897" result="shape"/>
</filter>
<filter id="filter1_b_3913_8897" x="-598.273" y="21.6553" width="1023.18" height="726.359" filterUnits="userSpaceOnUse" color-interpolation-filters="sRGB">
<feFlood flood-opacity="0" result="BackgroundImageFix"/>
<feGaussianBlur in="BackgroundImageFix" stdDeviation="2"/>
<feComposite in2="SourceAlpha" operator="in" result="effect1_backgroundBlur_3913_8897"/>
<feBlend mode="normal" in="SourceGraphic" in2="effect1_backgroundBlur_3913_8897" result="shape"/>
</filter>
<radialGradient id="paint0_radial_3913_8897" cx="0" cy="0" r="1" gradientUnits="userSpaceOnUse" gradientTransform="translate(240.14 394.481) rotate(-78.0343) scale(446.313 461.239)">
<stop stop-color="white" stop-opacity="0"/>
<stop offset="1" stop-color="white" stop-opacity="0.5"/>
</radialGradient>
<linearGradient id="paint1_linear_3913_8897" x1="294.099" y1="100.391" x2="141.006" y2="338.233" gradientUnits="userSpaceOnUse">
<stop stop-color="white"/>
<stop offset="1" stop-color="white" stop-opacity="0"/>
</linearGradient>
<radialGradient id="paint2_radial_3913_8897" cx="0" cy="0" r="1" gradientUnits="userSpaceOnUse" gradientTransform="translate(187.437 364.481) rotate(-84.1605) scale(474.889 490.771)">
<stop stop-color="white" stop-opacity="0"/>
<stop offset="1" stop-color="white" stop-opacity="0.5"/>
</radialGradient>
<linearGradient id="paint3_linear_3913_8897" x1="176.471" y1="55.5743" x2="107.389" y2="327.057" gradientUnits="userSpaceOnUse">
<stop stop-color="white"/>
<stop offset="1" stop-color="white" stop-opacity="0"/>
</linearGradient>
</defs>
</svg>
