<svg xmlns="http://www.w3.org/2000/svg" width="512" height="363" fill="none" viewBox="0 0 512 363"><g filter="url(#filter0_b_3913_8894)"><path fill="url(#paint0_radial_3913_8894)" d="M254.077 720.817L40.9056 299.758C32.7825 283.57 45.4975 264.83 63.4294 266.445L238.445 282.208C250.369 283.282 262.487 281.21 272.947 275.463C282.65 270.101 290.312 262.294 295.48 253.089C299.362 246.117 301.784 238.291 302.511 230.221L316.344 76.6346C317.482 63.9926 328.722 54.6104 341.364 55.749L754.425 92.9512C767.067 94.0898 776.449 105.329 775.31 117.971L759.128 297.649C757.989 310.291 746.839 319.681 734.107 318.534C640.421 310.006 335.767 282.477 335.767 282.477C328.594 281.831 321.448 283.899 315.73 288.175C308.937 293.348 304.917 300.849 304.19 308.919C303.714 314.208 304.672 319.628 307.195 324.736L494.055 693.712C501.729 708.865 522.709 710.754 532.967 697.216L802.344 341.673C806.146 336.592 812.355 333.897 818.631 334.462L1032.65 353.738C1050.58 355.353 1059.82 376.161 1048.86 390.539L763.881 766.732C760.087 771.723 753.871 774.508 747.594 773.942L492.065 750.928L268.903 730.829C262.537 730.256 257 726.503 254.077 720.817Z"/><path stroke="url(#paint1_linear_3913_8894)" stroke-opacity=".8" stroke-width="2" d="M41.7994 299.31L254.967 720.36C254.968 720.361 254.969 720.363 254.969 720.365L41.7994 299.31Z"/></g><g filter="url(#filter1_b_3913_8894)"><path fill="url(#paint2_radial_3913_8894)" d="M306.78 690.817L93.6087 269.758C85.4857 253.57 98.2006 234.83 116.133 236.445L291.148 252.208C303.072 253.282 315.19 251.21 325.65 245.463C335.353 240.101 343.015 232.294 348.183 223.089C352.065 216.117 354.487 208.291 355.214 200.221L369.047 46.6346C370.185 33.9926 381.425 24.6104 394.067 25.749L807.128 62.9512C819.77 64.0898 829.152 75.3293 828.013 87.9713L811.831 267.649C810.692 280.291 799.542 289.681 786.811 288.534C693.125 280.006 388.47 252.477 388.47 252.477C381.297 251.831 374.151 253.899 368.433 258.175C361.64 263.348 357.62 270.849 356.894 278.919C356.417 284.208 357.375 289.628 359.898 294.736L546.758 663.712C554.432 678.865 575.412 680.754 585.67 667.216L855.048 311.673C858.849 306.592 865.058 303.897 871.334 304.462L1085.35 323.738C1103.28 325.353 1112.53 346.161 1101.56 360.539L816.584 736.732C812.79 741.723 806.574 744.508 800.298 743.942L544.768 720.928L321.606 700.829C315.24 700.256 309.703 696.503 306.78 690.817Z"/><path stroke="url(#paint3_linear_3913_8894)" stroke-opacity=".8" stroke-width="2" d="M94.5025 269.31L307.67 690.36C307.671 690.361 307.672 690.363 307.673 690.365L94.5025 269.31Z"/></g><defs><filter id="filter0_b_3913_8894" width="1023.18" height="726.359" x="34.398" y="51.655" color-interpolation-filters="sRGB" filterUnits="userSpaceOnUse"><feFlood flood-opacity="0" result="BackgroundImageFix"/><feGaussianBlur in="BackgroundImageFix" stdDeviation="2"/><feComposite in2="SourceAlpha" operator="in" result="effect1_backgroundBlur_3913_8894"/><feBlend in="SourceGraphic" in2="effect1_backgroundBlur_3913_8894" mode="normal" result="shape"/></filter><filter id="filter1_b_3913_8894" width="1023.18" height="726.359" x="87.102" y="21.655" color-interpolation-filters="sRGB" filterUnits="userSpaceOnUse"><feFlood flood-opacity="0" result="BackgroundImageFix"/><feGaussianBlur in="BackgroundImageFix" stdDeviation="2"/><feComposite in2="SourceAlpha" operator="in" result="effect1_backgroundBlur_3913_8894"/><feBlend in="SourceGraphic" in2="effect1_backgroundBlur_3913_8894" mode="normal" result="shape"/></filter><radialGradient id="paint0_radial_3913_8894" cx="0" cy="0" r="1" gradientTransform="translate(271.868 394.481) rotate(-103.667) scale(398.85 412.189)" gradientUnits="userSpaceOnUse"><stop stop-color="#fff" stop-opacity="0"/><stop offset="1" stop-color="#fff" stop-opacity=".5"/></radialGradient><linearGradient id="paint1_linear_3913_8894" x1="217.908" x2="371.002" y1="100.391" y2="338.233" gradientUnits="userSpaceOnUse"><stop stop-color="#fff"/><stop offset="1" stop-color="#fff" stop-opacity="0"/></linearGradient><radialGradient id="paint2_radial_3913_8894" cx="0" cy="0" r="1" gradientTransform="translate(324.571 364.481) rotate(-76.6939) scale(479.309 495.34)" gradientUnits="userSpaceOnUse"><stop stop-color="#fff" stop-opacity="0"/><stop offset="1" stop-color="#fff" stop-opacity=".5"/></radialGradient><linearGradient id="paint3_linear_3913_8894" x1="335.536" x2="404.619" y1="55.574" y2="327.057" gradientUnits="userSpaceOnUse"><stop stop-color="#fff"/><stop offset="1" stop-color="#fff" stop-opacity="0"/></linearGradient></defs></svg>