<svg xmlns="http://www.w3.org/2000/svg" width="300" height="118" fill="none" viewBox="0 0 300 118"><rect width="299" height="117" x=".5" y=".5" fill="#fff" rx="11.5"/><path fill="#8C94A6" d="M17.125 23.8748H18.25V26.8748H17.5C17.4005 26.8748 17.3052 26.9143 17.2348 26.9846C17.1645 27.0549 17.125 27.1503 17.125 27.2498C17.125 27.3492 17.1645 27.4446 17.2348 27.5149C17.3052 27.5853 17.4005 27.6248 17.5 27.6248H26.5C26.5995 27.6248 26.6948 27.5853 26.7652 27.5149C26.8355 27.4446 26.875 27.3492 26.875 27.2498C26.875 27.1503 26.8355 27.0549 26.7652 26.9846C26.6948 26.9143 26.5995 26.8748 26.5 26.8748H25.75V23.8748H26.875C26.9566 23.8747 27.0359 23.848 27.101 23.7987C27.166 23.7495 27.2132 23.6804 27.2355 23.6019C27.2577 23.5233 27.2537 23.4397 27.2241 23.3637C27.1945 23.2877 27.1409 23.2234 27.0714 23.1805L22.1964 20.1805C22.1373 20.1442 22.0693 20.125 22 20.125C21.9307 20.125 21.8627 20.1442 21.8036 20.1805L16.9286 23.1805C16.8591 23.2234 16.8055 23.2877 16.7759 23.3637C16.7463 23.4397 16.7423 23.5233 16.7645 23.6019C16.7868 23.6804 16.834 23.7495 16.899 23.7987C16.9641 23.848 17.0434 23.8747 17.125 23.8748ZM19 23.8748H20.5V26.8748H19V23.8748ZM22.75 23.8748V26.8748H21.25V23.8748H22.75ZM25 26.8748H23.5V23.8748H25V26.8748ZM22 20.9399L25.5503 23.1248H18.4497L22 20.9399ZM27.625 28.7498C27.625 28.8492 27.5855 28.9446 27.5152 29.0149C27.4448 29.0853 27.3495 29.1248 27.25 29.1248H16.75C16.6505 29.1248 16.5552 29.0853 16.4848 29.0149C16.4145 28.9446 16.375 28.8492 16.375 28.7498C16.375 28.6503 16.4145 28.5549 16.4848 28.4846C16.5552 28.4143 16.6505 28.3748 16.75 28.3748H27.25C27.3495 28.3748 27.4448 28.4143 27.5152 28.4846C27.5855 28.5549 27.625 28.6503 27.625 28.7498Z"/><path fill="#8C94A6" d="M34.223 29L32.206 21.7273H33.3601L34.777 27.3594H34.8445L36.3182 21.7273H37.4616L38.9354 27.3629H39.0028L40.4162 21.7273H41.5739L39.5533 29H38.4489L36.9183 23.5526H36.8615L35.331 29H34.223ZM42.4892 29V23.5455H43.551V29H42.4892ZM43.0254 22.7038C42.8407 22.7038 42.6821 22.6423 42.5495 22.5192C42.4193 22.3937 42.3542 22.2446 42.3542 22.0717C42.3542 21.8965 42.4193 21.7474 42.5495 21.6243C42.6821 21.4988 42.8407 21.4361 43.0254 21.4361C43.21 21.4361 43.3675 21.4988 43.4977 21.6243C43.6303 21.7474 43.6966 21.8965 43.6966 22.0717C43.6966 22.2446 43.6303 22.3937 43.4977 22.5192C43.3675 22.6423 43.21 22.7038 43.0254 22.7038ZM44.9794 29V23.5455H46.0057V24.4119H46.0625C46.1619 24.1184 46.3371 23.8875 46.5881 23.7195C46.8414 23.549 47.1278 23.4638 47.4474 23.4638C47.5137 23.4638 47.5919 23.4661 47.6818 23.4709C47.7741 23.4756 47.8464 23.4815 47.8984 23.4886V24.5043C47.8558 24.4924 47.7801 24.4794 47.6712 24.4652C47.5623 24.4486 47.4534 24.4403 47.3445 24.4403C47.0935 24.4403 46.8698 24.4936 46.6733 24.6001C46.4792 24.7043 46.3253 24.8499 46.2116 25.0369C46.098 25.2216 46.0412 25.4323 46.0412 25.669V29H44.9794ZM50.9728 29.1101C50.4354 29.1101 49.9726 28.9953 49.5843 28.7656C49.1984 28.5336 48.9002 28.2081 48.6895 27.7891C48.4811 27.3677 48.377 26.8741 48.377 26.3082C48.377 25.7495 48.4811 25.2571 48.6895 24.831C48.9002 24.4048 49.1937 24.0722 49.5701 23.8331C49.9489 23.594 50.3916 23.4744 50.8983 23.4744C51.206 23.4744 51.5043 23.5253 51.7931 23.6271C52.082 23.7289 52.3412 23.8887 52.5708 24.1065C52.8005 24.3243 52.9816 24.6072 53.1142 24.9553C53.2467 25.3009 53.313 25.7211 53.313 26.2159V26.5923H48.9771V25.7969H52.2725C52.2725 25.5175 52.2157 25.2701 52.1021 25.0547C51.9885 24.8369 51.8287 24.6652 51.6227 24.5398C51.4191 24.4143 51.18 24.3516 50.9054 24.3516C50.6071 24.3516 50.3467 24.425 50.1241 24.5717C49.9039 24.7161 49.7335 24.9055 49.6127 25.1399C49.4944 25.3719 49.4352 25.6241 49.4352 25.8963V26.5178C49.4352 26.8823 49.4991 27.1925 49.627 27.4482C49.7572 27.7038 49.9383 27.8991 50.1703 28.0341C50.4023 28.1667 50.6734 28.233 50.9835 28.233C51.1847 28.233 51.3682 28.2045 51.5339 28.1477C51.6996 28.0885 51.8429 28.0009 51.9636 27.8849C52.0843 27.7689 52.1767 27.6257 52.2406 27.4553L53.2456 27.6364C53.1651 27.9323 53.0207 28.1915 52.8123 28.4141C52.6064 28.6342 52.3471 28.8059 52.0346 28.929C51.7245 29.0497 51.3706 29.1101 50.9728 29.1101ZM56.8642 22.6719V21.7273H62.4927V22.6719H60.2235V29H59.1298V22.6719H56.8642ZM63.0849 29V23.5455H64.1112V24.4119H64.168C64.2674 24.1184 64.4426 23.8875 64.6935 23.7195C64.9469 23.549 65.2333 23.4638 65.5529 23.4638C65.6192 23.4638 65.6973 23.4661 65.7873 23.4709C65.8796 23.4756 65.9518 23.4815 66.0039 23.4886V24.5043C65.9613 24.4924 65.8855 24.4794 65.7766 24.4652C65.6677 24.4486 65.5588 24.4403 65.4499 24.4403C65.199 24.4403 64.9753 24.4936 64.7788 24.6001C64.5846 24.7043 64.4308 24.8499 64.3171 25.0369C64.2035 25.2216 64.1467 25.4323 64.1467 25.669V29H63.0849ZM68.4613 29.1207C68.1156 29.1207 67.8031 29.0568 67.5238 28.929C67.2444 28.7988 67.0231 28.6106 66.8597 28.3643C66.6987 28.1181 66.6183 27.8163 66.6183 27.4588C66.6183 27.151 66.6774 26.8977 66.7958 26.6989C66.9142 26.5 67.074 26.3426 67.2752 26.2266C67.4764 26.1106 67.7013 26.023 67.9499 25.9638C68.1985 25.9046 68.4518 25.8596 68.7099 25.8288C69.0366 25.791 69.3017 25.7602 69.5053 25.7365C69.7089 25.7105 69.8569 25.669 69.9492 25.6122C70.0415 25.5554 70.0877 25.4631 70.0877 25.3352V25.3104C70.0877 25.0002 70.0001 24.7599 69.8249 24.5895C69.6521 24.419 69.3941 24.3338 69.0508 24.3338C68.6933 24.3338 68.4116 24.4131 68.2056 24.5717C68.002 24.728 67.8612 24.902 67.783 25.0938L66.7852 24.8665C66.9035 24.535 67.0763 24.2675 67.3036 24.0639C67.5333 23.858 67.7972 23.7088 68.0955 23.6165C68.3938 23.5218 68.7075 23.4744 69.0366 23.4744C69.2544 23.4744 69.4852 23.5005 69.729 23.5526C69.9753 23.6023 70.2049 23.6946 70.418 23.8295C70.6334 23.9645 70.8098 24.1574 70.9471 24.4084C71.0844 24.657 71.1531 24.9801 71.1531 25.3778V29H70.1161V28.2543H70.0735C70.0049 28.3916 69.9019 28.5265 69.7646 28.6591C69.6272 28.7917 69.4509 28.9018 69.2354 28.9893C69.02 29.0769 68.762 29.1207 68.4613 29.1207ZM68.6921 28.2685C68.9857 28.2685 69.2366 28.2105 69.445 28.0945C69.6557 27.9785 69.8155 27.8269 69.9244 27.6399C70.0356 27.4505 70.0913 27.2481 70.0913 27.0327V26.3295C70.0534 26.3674 69.98 26.4029 69.8711 26.4361C69.7646 26.4669 69.6426 26.4941 69.5053 26.5178C69.368 26.5391 69.2343 26.5592 69.104 26.5781C68.9738 26.5947 68.8649 26.6089 68.7773 26.6207C68.5714 26.6468 68.3832 26.6906 68.2127 26.7521C68.0446 26.8137 67.9097 26.9025 67.8079 27.0185C67.7085 27.1321 67.6587 27.2836 67.6587 27.473C67.6587 27.7358 67.7558 27.9347 67.9499 28.0696C68.1441 28.2022 68.3915 28.2685 68.6921 28.2685ZM73.6291 25.7614V29H72.5673V23.5455H73.5865V24.4332H73.6539C73.7794 24.1444 73.9759 23.9124 74.2434 23.7372C74.5133 23.562 74.853 23.4744 75.2626 23.4744C75.6343 23.4744 75.9598 23.5526 76.2392 23.7088C76.5185 23.8627 76.7351 24.0923 76.889 24.3977C77.0429 24.7031 77.1199 25.0807 77.1199 25.5305V29H76.0581V25.6584C76.0581 25.263 75.9551 24.9541 75.7491 24.7315C75.5431 24.5066 75.2602 24.3942 74.9004 24.3942C74.6542 24.3942 74.4352 24.4474 74.2434 24.554C74.054 24.6605 73.9037 24.8168 73.7924 25.0227C73.6835 25.2263 73.6291 25.4725 73.6291 25.7614ZM82.6312 24.8771L81.6689 25.0476C81.6286 24.9245 81.5647 24.8073 81.4771 24.696C81.3919 24.5848 81.2759 24.4936 81.1291 24.4226C80.9823 24.3516 80.7988 24.3161 80.5787 24.3161C80.278 24.3161 80.027 24.3835 79.8258 24.5185C79.6246 24.651 79.524 24.8227 79.524 25.0334C79.524 25.2157 79.5914 25.3625 79.7264 25.4737C79.8613 25.585 80.0791 25.6761 80.3798 25.7472L81.2463 25.946C81.7482 26.062 82.1222 26.2408 82.3684 26.4822C82.6146 26.7237 82.7377 27.0374 82.7377 27.4233C82.7377 27.75 82.6431 28.0412 82.4537 28.2969C82.2666 28.5502 82.005 28.7491 81.6689 28.8935C81.335 29.0379 80.948 29.1101 80.5076 29.1101C79.8968 29.1101 79.3985 28.9799 79.0126 28.7195C78.6267 28.4567 78.39 28.0838 78.3024 27.6009L79.3287 27.4446C79.3926 27.7121 79.524 27.9145 79.7228 28.0518C79.9217 28.1868 80.1809 28.2543 80.5005 28.2543C80.8485 28.2543 81.1267 28.1821 81.335 28.0376C81.5434 27.8909 81.6475 27.7121 81.6475 27.5014C81.6475 27.331 81.5836 27.1877 81.4558 27.0717C81.3303 26.9557 81.1374 26.8681 80.877 26.8089L79.9537 26.6065C79.4447 26.4905 79.0682 26.3059 78.8244 26.0526C78.5829 25.7992 78.4622 25.4785 78.4622 25.0902C78.4622 24.7682 78.5521 24.4865 78.7321 24.245C78.912 24.0036 79.1606 23.8153 79.4778 23.6804C79.795 23.5431 80.1584 23.4744 80.568 23.4744C81.1575 23.4744 81.6215 23.6023 81.96 23.858C82.2986 24.1113 82.5223 24.451 82.6312 24.8771ZM86.5011 23.5455V24.3977H83.4187V23.5455H86.5011ZM84.2638 29V22.9134C84.2638 22.5724 84.3384 22.2895 84.4876 22.0646C84.6367 21.8374 84.8344 21.6681 85.0806 21.5568C85.3268 21.4432 85.5943 21.3864 85.8832 21.3864C86.0962 21.3864 86.2785 21.4041 86.43 21.4396C86.5816 21.4728 86.694 21.5036 86.7674 21.532L86.5188 22.3913C86.4691 22.3771 86.4052 22.3606 86.3271 22.3416C86.2489 22.3203 86.1542 22.3097 86.043 22.3097C85.7849 22.3097 85.6003 22.3736 85.489 22.5014C85.3801 22.6293 85.3256 22.8139 85.3256 23.0554V29H84.2638ZM89.7326 29.1101C89.1952 29.1101 88.7324 28.9953 88.3441 28.7656C87.9582 28.5336 87.6599 28.2081 87.4492 27.7891C87.2409 27.3677 87.1367 26.8741 87.1367 26.3082C87.1367 25.7495 87.2409 25.2571 87.4492 24.831C87.6599 24.4048 87.9535 24.0722 88.3299 23.8331C88.7087 23.594 89.1514 23.4744 89.658 23.4744C89.9658 23.4744 90.2641 23.5253 90.5529 23.6271C90.8417 23.7289 91.101 23.8887 91.3306 24.1065C91.5603 24.3243 91.7414 24.6072 91.8739 24.9553C92.0065 25.3009 92.0728 25.7211 92.0728 26.2159V26.5923H87.7369V25.7969H91.0323C91.0323 25.5175 90.9755 25.2701 90.8619 25.0547C90.7482 24.8369 90.5884 24.6652 90.3825 24.5398C90.1789 24.4143 89.9397 24.3516 89.6651 24.3516C89.3668 24.3516 89.1064 24.425 88.8839 24.5717C88.6637 24.7161 88.4933 24.9055 88.3725 25.1399C88.2541 25.3719 88.195 25.6241 88.195 25.8963V26.5178C88.195 26.8823 88.2589 27.1925 88.3867 27.4482C88.5169 27.7038 88.698 27.8991 88.93 28.0341C89.1621 28.1667 89.4331 28.233 89.7433 28.233C89.9445 28.233 90.128 28.2045 90.2937 28.1477C90.4594 28.0885 90.6026 28.0009 90.7234 27.8849C90.8441 27.7689 90.9364 27.6257 91.0004 27.4553L92.0053 27.6364C91.9248 27.9323 91.7804 28.1915 91.5721 28.4141C91.3661 28.6342 91.1069 28.8059 90.7944 28.929C90.4843 29.0497 90.1303 29.1101 89.7326 29.1101ZM93.2509 29V23.5455H94.2772V24.4119H94.334C94.4334 24.1184 94.6086 23.8875 94.8596 23.7195C95.1129 23.549 95.3993 23.4638 95.7189 23.4638C95.7852 23.4638 95.8633 23.4661 95.9533 23.4709C96.0456 23.4756 96.1178 23.4815 96.1699 23.4886V24.5043C96.1273 24.4924 96.0516 24.4794 95.9426 24.4652C95.8337 24.4486 95.7248 24.4403 95.6159 24.4403C95.365 24.4403 95.1413 24.4936 94.9448 24.6001C94.7507 24.7043 94.5968 24.8499 94.4831 25.0369C94.3695 25.2216 94.3127 25.4323 94.3127 25.669V29H93.2509Z"/><rect width="72" height="18" x="212" y="16" fill="#FFFAEB" rx="9"/><rect width="2" height="9" x="220" y="20.5" fill="#FEC84B" rx="1"/><path fill="#B54708" d="M227.707 21.4545V28H226.719V21.4545H227.707ZM229.934 25.0852V28H228.978V23.0909H229.895V23.8899H229.956C230.069 23.63 230.246 23.4212 230.487 23.2635C230.73 23.1058 231.035 23.027 231.404 23.027C231.738 23.027 232.031 23.0973 232.283 23.2379C232.534 23.3764 232.729 23.5831 232.868 23.858C233.006 24.1328 233.075 24.4727 233.075 24.8775V28H232.12V24.9925C232.12 24.6367 232.027 24.3587 231.842 24.1584C231.656 23.956 231.402 23.8548 231.078 23.8548C230.856 23.8548 230.659 23.9027 230.487 23.9986C230.316 24.0945 230.181 24.2351 230.081 24.4205C229.983 24.6037 229.934 24.8253 229.934 25.0852ZM237.159 24.82V25.6477H234.258V24.82H237.159ZM238.42 28V21.4545H240.753C241.262 21.4545 241.684 21.5472 242.019 21.7326C242.353 21.918 242.603 22.1715 242.77 22.4933C242.936 22.8129 243.019 23.1729 243.019 23.5735C243.019 23.9762 242.935 24.3384 242.766 24.6602C242.6 24.9798 242.349 25.2333 242.012 25.4208C241.678 25.6062 241.257 25.6989 240.75 25.6989H239.145V24.8615H240.66C240.982 24.8615 241.243 24.8061 241.443 24.6953C241.644 24.5824 241.791 24.429 241.884 24.2351C241.978 24.0412 242.025 23.8207 242.025 23.5735C242.025 23.3263 241.978 23.1069 241.884 22.9151C241.791 22.7234 241.642 22.5732 241.44 22.4645C241.24 22.3558 240.976 22.3015 240.647 22.3015H239.407V28H238.42ZM244.01 28V23.0909H244.934V23.8707H244.985C245.074 23.6065 245.232 23.3988 245.458 23.2475C245.686 23.0941 245.944 23.0174 246.231 23.0174C246.291 23.0174 246.361 23.0195 246.442 23.0238C246.525 23.0281 246.59 23.0334 246.637 23.0398V23.9538C246.599 23.9432 246.531 23.9315 246.433 23.9187C246.335 23.9038 246.237 23.8963 246.138 23.8963C245.913 23.8963 245.711 23.9442 245.534 24.0401C245.36 24.1339 245.221 24.2649 245.119 24.4332C245.017 24.5994 244.966 24.7891 244.966 25.0021V28H244.01ZM249.266 28.0991C248.806 28.0991 248.404 27.9936 248.061 27.7827C247.718 27.5717 247.452 27.2766 247.262 26.8974C247.073 26.5181 246.978 26.0749 246.978 25.5678C246.978 25.0586 247.073 24.6133 247.262 24.2319C247.452 23.8505 247.718 23.5543 248.061 23.3434C248.404 23.1325 248.806 23.027 249.266 23.027C249.726 23.027 250.128 23.1325 250.471 23.3434C250.814 23.5543 251.08 23.8505 251.27 24.2319C251.46 24.6133 251.554 25.0586 251.554 25.5678C251.554 26.0749 251.46 26.5181 251.27 26.8974C251.08 27.2766 250.814 27.5717 250.471 27.7827C250.128 27.9936 249.726 28.0991 249.266 28.0991ZM249.269 27.2969C249.568 27.2969 249.815 27.218 250.011 27.0604C250.207 26.9027 250.352 26.6928 250.445 26.4308C250.541 26.1687 250.589 25.88 250.589 25.5646C250.589 25.2514 250.541 24.9638 250.445 24.7017C250.352 24.4375 250.207 24.2255 250.011 24.0657C249.815 23.9059 249.568 23.826 249.269 23.826C248.969 23.826 248.72 23.9059 248.521 24.0657C248.325 24.2255 248.179 24.4375 248.084 24.7017C247.99 24.9638 247.943 25.2514 247.943 25.5646C247.943 25.88 247.99 26.1687 248.084 26.4308C248.179 26.6928 248.325 26.9027 248.521 27.0604C248.72 27.218 248.969 27.2969 249.269 27.2969ZM254.589 29.9432C254.199 29.9432 253.864 29.892 253.583 29.7898C253.303 29.6875 253.075 29.5522 252.899 29.3839C252.722 29.2156 252.59 29.0313 252.502 28.831L253.324 28.4922C253.381 28.5859 253.458 28.685 253.554 28.7894C253.652 28.896 253.784 28.9865 253.95 29.0611C254.118 29.1357 254.335 29.1729 254.599 29.1729C254.961 29.1729 255.261 29.0845 255.497 28.9077C255.734 28.733 255.852 28.4538 255.852 28.0703V27.1051H255.791C255.734 27.2095 255.65 27.3256 255.542 27.4535C255.435 27.5813 255.288 27.6921 255.101 27.7859C254.913 27.8796 254.669 27.9265 254.369 27.9265C253.981 27.9265 253.632 27.8359 253.321 27.6548C253.012 27.4716 252.767 27.2021 252.585 26.8462C252.406 26.4883 252.317 26.0483 252.317 25.5263C252.317 25.0043 252.405 24.5568 252.582 24.1839C252.761 23.8111 253.006 23.5256 253.317 23.3274C253.628 23.1271 253.981 23.027 254.375 23.027C254.68 23.027 254.926 23.0781 255.113 23.1804C255.301 23.2805 255.447 23.3977 255.551 23.532C255.658 23.6662 255.74 23.7844 255.797 23.8867H255.868V23.0909H256.804V28.1087C256.804 28.5305 256.706 28.8768 256.51 29.1474C256.314 29.418 256.049 29.6183 255.714 29.7482C255.382 29.8782 255.007 29.9432 254.589 29.9432ZM254.58 27.1339C254.855 27.1339 255.087 27.07 255.276 26.9421C255.468 26.8121 255.613 26.6268 255.711 26.386C255.811 26.1431 255.861 25.8523 255.861 25.5135C255.861 25.1832 255.812 24.8924 255.714 24.641C255.616 24.3896 255.473 24.1935 255.283 24.0529C255.093 23.9102 254.859 23.8388 254.58 23.8388C254.292 23.8388 254.052 23.9134 253.861 24.0625C253.669 24.2095 253.524 24.4098 253.426 24.6634C253.33 24.9169 253.282 25.2003 253.282 25.5135C253.282 25.8352 253.331 26.1175 253.429 26.3604C253.527 26.6033 253.672 26.793 253.864 26.9293C254.058 27.0657 254.296 27.1339 254.58 27.1339ZM257.996 28V23.0909H258.919V23.8707H258.971C259.06 23.6065 259.218 23.3988 259.444 23.2475C259.672 23.0941 259.929 23.0174 260.217 23.0174C260.277 23.0174 260.347 23.0195 260.428 23.0238C260.511 23.0281 260.576 23.0334 260.623 23.0398V23.9538C260.585 23.9432 260.516 23.9315 260.418 23.9187C260.32 23.9038 260.222 23.8963 260.124 23.8963C259.898 23.8963 259.697 23.9442 259.52 24.0401C259.346 24.1339 259.207 24.2649 259.105 24.4332C259.003 24.5994 258.951 24.7891 258.951 25.0021V28H257.996ZM263.3 28.0991C262.816 28.0991 262.4 27.9957 262.05 27.7891C261.703 27.5803 261.434 27.2873 261.245 26.9102C261.057 26.5309 260.964 26.0866 260.964 25.5774C260.964 25.0746 261.057 24.6314 261.245 24.2479C261.434 23.8643 261.699 23.565 262.037 23.3498C262.378 23.1346 262.777 23.027 263.233 23.027C263.51 23.027 263.778 23.0728 264.038 23.1644C264.298 23.256 264.531 23.3999 264.738 23.5959C264.945 23.7919 265.108 24.0465 265.227 24.3597C265.346 24.6708 265.406 25.049 265.406 25.4943V25.8331H261.504V25.1172H264.47C264.47 24.8658 264.418 24.6431 264.316 24.4492C264.214 24.2532 264.07 24.0987 263.885 23.9858C263.702 23.8729 263.486 23.8164 263.239 23.8164C262.971 23.8164 262.736 23.8825 262.536 24.0146C262.338 24.1445 262.184 24.315 262.076 24.5259C261.969 24.7347 261.916 24.9616 261.916 25.2067V25.766C261.916 26.0941 261.974 26.3732 262.089 26.6033C262.206 26.8335 262.369 27.0092 262.578 27.1307C262.786 27.25 263.03 27.3097 263.309 27.3097C263.491 27.3097 263.656 27.2841 263.805 27.233C263.954 27.1797 264.083 27.1009 264.192 26.9964C264.3 26.892 264.383 26.7631 264.441 26.6097L265.345 26.7727C265.273 27.0391 265.143 27.2724 264.955 27.4727C264.77 27.6708 264.537 27.8253 264.255 27.9361C263.976 28.0447 263.658 28.0991 263.3 28.0991ZM270.055 24.2894L269.189 24.4428C269.153 24.332 269.095 24.2266 269.016 24.1264C268.94 24.0263 268.835 23.9442 268.703 23.8803C268.571 23.8164 268.406 23.7844 268.208 23.7844C267.937 23.7844 267.711 23.8452 267.53 23.9666C267.349 24.0859 267.258 24.2404 267.258 24.43C267.258 24.5941 267.319 24.7262 267.441 24.8263C267.562 24.9265 267.758 25.0085 268.029 25.0724L268.809 25.2514C269.26 25.3558 269.597 25.5167 269.818 25.734C270.04 25.9513 270.151 26.2337 270.151 26.581C270.151 26.875 270.066 27.1371 269.895 27.3672C269.727 27.5952 269.491 27.7741 269.189 27.9041C268.888 28.0341 268.54 28.0991 268.144 28.0991C267.594 28.0991 267.146 27.9819 266.798 27.7475C266.451 27.511 266.238 27.1754 266.159 26.7408L267.083 26.6001C267.14 26.8409 267.258 27.0231 267.437 27.1467C267.616 27.2681 267.85 27.3288 268.137 27.3288C268.451 27.3288 268.701 27.2638 268.888 27.1339C269.076 27.0018 269.17 26.8409 269.17 26.6513C269.17 26.4979 269.112 26.369 268.997 26.2646C268.884 26.1602 268.711 26.0813 268.476 26.0281L267.645 25.8459C267.187 25.7415 266.848 25.5753 266.629 25.3473C266.412 25.1193 266.303 24.8306 266.303 24.4812C266.303 24.1914 266.384 23.9379 266.546 23.7205C266.708 23.5032 266.931 23.3338 267.217 23.2124C267.502 23.0888 267.829 23.027 268.198 23.027C268.729 23.027 269.146 23.142 269.451 23.3722C269.756 23.6001 269.957 23.9059 270.055 24.2894ZM274.79 24.2894L273.924 24.4428C273.888 24.332 273.83 24.2266 273.751 24.1264C273.675 24.0263 273.57 23.9442 273.438 23.8803C273.306 23.8164 273.141 23.7844 272.943 23.7844C272.672 23.7844 272.446 23.8452 272.265 23.9666C272.084 24.0859 271.994 24.2404 271.994 24.43C271.994 24.5941 272.054 24.7262 272.176 24.8263C272.297 24.9265 272.493 25.0085 272.764 25.0724L273.544 25.2514C273.995 25.3558 274.332 25.5167 274.554 25.734C274.775 25.9513 274.886 26.2337 274.886 26.581C274.886 26.875 274.801 27.1371 274.63 27.3672C274.462 27.5952 274.227 27.7741 273.924 27.9041C273.624 28.0341 273.275 28.0991 272.879 28.0991C272.329 28.0991 271.881 27.9819 271.533 27.7475C271.186 27.511 270.973 27.1754 270.894 26.7408L271.818 26.6001C271.875 26.8409 271.994 27.0231 272.173 27.1467C272.352 27.2681 272.585 27.3288 272.873 27.3288C273.186 27.3288 273.436 27.2638 273.624 27.1339C273.811 27.0018 273.905 26.8409 273.905 26.6513C273.905 26.4979 273.847 26.369 273.732 26.2646C273.619 26.1602 273.446 26.0813 273.211 26.0281L272.38 25.8459C271.922 25.7415 271.583 25.5753 271.364 25.3473C271.147 25.1193 271.038 24.8306 271.038 24.4812C271.038 24.1914 271.119 23.9379 271.281 23.7205C271.443 23.5032 271.667 23.3338 271.952 23.2124C272.238 23.0888 272.565 23.027 272.933 23.027C273.464 23.027 273.881 23.142 274.186 23.3722C274.491 23.6001 274.692 23.9059 274.79 24.2894Z"/><path fill="#1A1A21" d="M17.1186 62.8182H18.983L22.2244 70.733H22.3438L25.5852 62.8182H27.4496V73H25.9879V65.6321H25.8935L22.8906 72.9851H21.6776L18.6747 65.6271H18.5803V73H17.1186V62.8182ZM31.646 73.169C31.1621 73.169 30.7246 73.0795 30.3335 72.9006C29.9424 72.7183 29.6325 72.4548 29.4039 72.1101C29.1785 71.7654 29.0658 71.3428 29.0658 70.8423C29.0658 70.4115 29.1486 70.0568 29.3144 69.7784C29.4801 69.5 29.7038 69.2796 29.9855 69.1172C30.2673 68.9548 30.5821 68.8321 30.9301 68.7493C31.2781 68.6664 31.6328 68.6035 31.9941 68.5604C32.4514 68.5073 32.8227 68.4643 33.1077 68.4311C33.3927 68.3946 33.5999 68.3366 33.7291 68.2571C33.8584 68.1776 33.923 68.0483 33.923 67.8693V67.8345C33.923 67.4003 33.8004 67.0639 33.5551 66.8253C33.3132 66.5866 32.9519 66.4673 32.4713 66.4673C31.9709 66.4673 31.5764 66.5784 31.2881 66.8004C31.0031 67.0192 30.8058 67.2628 30.6965 67.5312L29.2995 67.2131C29.4652 66.7491 29.7071 66.3745 30.0253 66.0895C30.3468 65.8011 30.7164 65.5923 31.134 65.4631C31.5516 65.3305 31.9907 65.2642 32.4514 65.2642C32.7564 65.2642 33.0795 65.3007 33.4209 65.3736C33.7656 65.4432 34.0871 65.5724 34.3854 65.7614C34.687 65.9503 34.9339 66.2204 35.1262 66.5717C35.3184 66.9197 35.4145 67.3722 35.4145 67.929V73H33.9628V71.956H33.9031C33.807 72.1482 33.6629 72.3371 33.4706 72.5227C33.2784 72.7083 33.0315 72.8625 32.7299 72.9851C32.4282 73.1077 32.067 73.169 31.646 73.169ZM31.9692 71.9759C32.3802 71.9759 32.7315 71.8946 33.0232 71.7322C33.3182 71.5698 33.5419 71.3577 33.6943 71.0959C33.8501 70.8307 33.928 70.5473 33.928 70.2457V69.2614C33.875 69.3144 33.7722 69.3641 33.6198 69.4105C33.4706 69.4536 33.2999 69.4917 33.1077 69.5249C32.9155 69.5547 32.7282 69.5829 32.5459 69.6094C32.3636 69.6326 32.2111 69.6525 32.0885 69.669C31.8002 69.7055 31.5367 69.7668 31.298 69.853C31.0627 69.9392 30.8738 70.0634 30.7313 70.2259C30.5921 70.3849 30.5225 70.5971 30.5225 70.8622C30.5225 71.2301 30.6584 71.5085 30.9301 71.6974C31.2019 71.883 31.5483 71.9759 31.9692 71.9759ZM37.2544 73V65.3636H38.6912V66.5767H38.7708C38.91 66.1657 39.1553 65.8426 39.5066 65.6072C39.8612 65.3686 40.2623 65.2493 40.7097 65.2493C40.8025 65.2493 40.9119 65.2526 41.0378 65.2592C41.1671 65.2659 41.2682 65.2741 41.3411 65.2841V66.706C41.2814 66.6894 41.1754 66.6712 41.0229 66.6513C40.8704 66.6281 40.718 66.6165 40.5655 66.6165C40.2142 66.6165 39.901 66.6911 39.6259 66.8402C39.3541 66.986 39.1387 67.1899 38.9796 67.4517C38.8205 67.7102 38.741 68.0052 38.741 68.3366V73H37.2544ZM46.5033 65.3636V66.5568H42.3321V65.3636H46.5033ZM43.4507 63.5341H44.9372V70.7578C44.9372 71.0462 44.9803 71.2633 45.0665 71.4091C45.1527 71.5516 45.2637 71.6494 45.3996 71.7024C45.5388 71.7521 45.6896 71.777 45.852 71.777C45.9713 71.777 46.0757 71.7687 46.1652 71.7521C46.2547 71.7356 46.3243 71.7223 46.374 71.7124L46.6425 72.9403C46.5563 72.9735 46.4337 73.0066 46.2746 73.0398C46.1155 73.0762 45.9166 73.0961 45.678 73.0994C45.2869 73.1061 44.9223 73.0365 44.5843 72.8906C44.2462 72.7448 43.9728 72.5194 43.7639 72.2145C43.5551 71.9096 43.4507 71.5268 43.4507 71.0661V63.5341ZM48.0076 73V65.3636H49.4942V73H48.0076ZM48.7584 64.1854C48.4998 64.1854 48.2778 64.0992 48.0922 63.9268C47.9099 63.7512 47.8187 63.5424 47.8187 63.3004C47.8187 63.0552 47.9099 62.8464 48.0922 62.674C48.2778 62.4983 48.4998 62.4105 48.7584 62.4105C49.0169 62.4105 49.2373 62.4983 49.4196 62.674C49.6052 62.8464 49.698 63.0552 49.698 63.3004C49.698 63.5424 49.6052 63.7512 49.4196 63.9268C49.2373 64.0992 49.0169 64.1854 48.7584 64.1854ZM52.8405 68.4659V73H51.354V65.3636H52.7808V66.6065H52.8753C53.0509 66.2022 53.326 65.8774 53.7006 65.6321C54.0784 65.3868 54.554 65.2642 55.1274 65.2642C55.6478 65.2642 56.1035 65.3736 56.4946 65.5923C56.8857 65.8078 57.189 66.1293 57.4044 66.5568C57.6198 66.9844 57.7276 67.513 57.7276 68.1428V73H56.2411V68.3217C56.2411 67.7682 56.0969 67.3357 55.8085 67.0241C55.5202 66.7093 55.1241 66.5518 54.6203 66.5518C54.2756 66.5518 53.969 66.6264 53.7006 66.7756C53.4354 66.9247 53.225 67.1435 53.0692 67.4318C52.9167 67.7169 52.8405 68.0616 52.8405 68.4659ZM65.3035 67.228L63.9562 67.4666C63.8998 67.2943 63.8103 67.1302 63.6877 66.9744C63.5684 66.8187 63.406 66.6911 63.2005 66.5916C62.995 66.4922 62.7381 66.4425 62.4299 66.4425C62.009 66.4425 61.6576 66.5369 61.3759 66.7259C61.0942 66.9115 60.9533 67.1518 60.9533 67.4467C60.9533 67.7019 61.0478 67.9074 61.2367 68.0632C61.4256 68.219 61.7305 68.3466 62.1515 68.446L63.3645 68.7244C64.0672 68.8868 64.5909 69.1371 64.9356 69.4751C65.2803 69.8132 65.4526 70.2524 65.4526 70.7926C65.4526 71.25 65.32 71.6577 65.0549 72.0156C64.793 72.3703 64.4268 72.6487 63.9562 72.8509C63.4888 73.053 62.9469 73.1541 62.3305 73.1541C61.4753 73.1541 60.7777 72.9718 60.2374 72.6072C59.6972 72.2393 59.3657 71.7173 59.2431 71.0412L60.6799 70.8224C60.7694 71.197 60.9533 71.4804 61.2317 71.6726C61.5101 71.8615 61.8731 71.956 62.3205 71.956C62.8077 71.956 63.1972 71.8549 63.4888 71.6527C63.7805 71.4472 63.9263 71.197 63.9263 70.902C63.9263 70.6634 63.8368 70.4628 63.6579 70.3004C63.4822 70.138 63.2121 70.0154 62.8475 69.9325L61.5549 69.6491C60.8423 69.4867 60.3153 69.2282 59.9739 68.8736C59.6359 68.5189 59.4668 68.0698 59.4668 67.5263C59.4668 67.0755 59.5928 66.6811 59.8447 66.343C60.0966 66.005 60.4446 65.7415 60.8887 65.5526C61.3328 65.3603 61.8416 65.2642 62.415 65.2642C63.2403 65.2642 63.8899 65.4432 64.3638 65.8011C64.8378 66.1558 65.151 66.6314 65.3035 67.228ZM76.1847 65.4929C76.1317 65.0223 75.9129 64.6577 75.5284 64.3991C75.144 64.1373 74.6601 64.0064 74.0767 64.0064C73.6591 64.0064 73.2979 64.0727 72.9929 64.2053C72.688 64.3345 72.451 64.5135 72.282 64.7422C72.1163 64.9676 72.0334 65.2244 72.0334 65.5128C72.0334 65.7547 72.0898 65.9635 72.2024 66.1392C72.3184 66.3149 72.4693 66.4624 72.6549 66.5817C72.8438 66.6977 73.046 66.7955 73.2614 66.875C73.4768 66.9512 73.684 67.0142 73.8828 67.0639L74.8772 67.3224C75.202 67.402 75.5351 67.5097 75.8765 67.6456C76.2178 67.7815 76.5344 67.9605 76.826 68.1825C77.1177 68.4046 77.353 68.6797 77.532 69.0078C77.7143 69.3359 77.8054 69.7287 77.8054 70.1861C77.8054 70.7628 77.6563 71.2749 77.358 71.7223C77.063 72.1697 76.6338 72.5227 76.0703 72.7812C75.5102 73.0398 74.8324 73.169 74.037 73.169C73.2747 73.169 72.6151 73.0481 72.0583 72.8061C71.5014 72.5642 71.0656 72.2211 70.7507 71.777C70.4359 71.3295 70.2619 70.7992 70.2287 70.1861H71.7699C71.7997 70.554 71.9191 70.8606 72.1279 71.1058C72.34 71.3478 72.6101 71.5284 72.9382 71.6477C73.2697 71.7637 73.6326 71.8217 74.027 71.8217C74.4612 71.8217 74.8473 71.7538 75.1854 71.6179C75.5268 71.4787 75.7952 71.2865 75.9908 71.0412C76.1863 70.7926 76.2841 70.5026 76.2841 70.1712C76.2841 69.8696 76.1979 69.6226 76.0256 69.4304C75.8566 69.2382 75.6262 69.0791 75.3345 68.9531C75.0462 68.8272 74.7197 68.7161 74.3551 68.62L73.152 68.2919C72.3367 68.0698 71.6904 67.7434 71.2131 67.3125C70.7391 66.8816 70.5022 66.3116 70.5022 65.6023C70.5022 65.0156 70.6613 64.5036 70.9794 64.0661C71.2976 63.6286 71.7285 63.2888 72.272 63.0469C72.8156 62.8016 73.4288 62.679 74.1115 62.679C74.8009 62.679 75.4091 62.8 75.9361 63.0419C76.4664 63.2839 76.884 63.617 77.189 64.0412C77.4939 64.4621 77.653 64.946 77.6662 65.4929H76.1847ZM82.5985 73.1541C81.8826 73.1541 81.2578 72.9901 80.7242 72.6619C80.1906 72.3338 79.7763 71.8748 79.4813 71.2848C79.1863 70.6948 79.0388 70.0054 79.0388 69.2166C79.0388 68.4245 79.1863 67.7318 79.4813 67.1385C79.7763 66.5452 80.1906 66.0845 80.7242 65.7564C81.2578 65.4283 81.8826 65.2642 82.5985 65.2642C83.3144 65.2642 83.9392 65.4283 84.4728 65.7564C85.0064 66.0845 85.4207 66.5452 85.7157 67.1385C86.0107 67.7318 86.1581 68.4245 86.1581 69.2166C86.1581 70.0054 86.0107 70.6948 85.7157 71.2848C85.4207 71.8748 85.0064 72.3338 84.4728 72.6619C83.9392 72.9901 83.3144 73.1541 82.5985 73.1541ZM82.6035 71.9062C83.0675 71.9062 83.4519 71.7836 83.7569 71.5384C84.0618 71.2931 84.2872 70.9666 84.433 70.5589C84.5822 70.1513 84.6567 69.7022 84.6567 69.2116C84.6567 68.7244 84.5822 68.277 84.433 67.8693C84.2872 67.4583 84.0618 67.1286 83.7569 66.88C83.4519 66.6314 83.0675 66.5071 82.6035 66.5071C82.1361 66.5071 81.7483 66.6314 81.4401 66.88C81.1352 67.1286 80.9081 67.4583 80.759 67.8693C80.6132 68.277 80.5403 68.7244 80.5403 69.2116C80.5403 69.7022 80.6132 70.1513 80.759 70.5589C80.9081 70.9666 81.1352 71.2931 81.4401 71.5384C81.7483 71.7836 82.1361 71.9062 82.6035 71.9062ZM87.6774 73V65.3636H89.1142V66.5767H89.1937C89.333 66.1657 89.5782 65.8426 89.9295 65.6072C90.2842 65.3686 90.6852 65.2493 91.1327 65.2493C91.2255 65.2493 91.3348 65.2526 91.4608 65.2592C91.5901 65.2659 91.6911 65.2741 91.7641 65.2841V66.706C91.7044 66.6894 91.5983 66.6712 91.4459 66.6513C91.2934 66.6281 91.141 66.6165 90.9885 66.6165C90.6372 66.6165 90.324 66.6911 90.0489 66.8402C89.7771 66.986 89.5616 67.1899 89.4026 67.4517C89.2435 67.7102 89.1639 68.0052 89.1639 68.3366V73H87.6774ZM95.8536 73.1541C95.1377 73.1541 94.513 72.9901 93.9794 72.6619C93.4457 72.3338 93.0314 71.8748 92.7365 71.2848C92.4415 70.6948 92.294 70.0054 92.294 69.2166C92.294 68.4245 92.4415 67.7318 92.7365 67.1385C93.0314 66.5452 93.4457 66.0845 93.9794 65.7564C94.513 65.4283 95.1377 65.2642 95.8536 65.2642C96.5696 65.2642 97.1943 65.4283 97.7279 65.7564C98.2615 66.0845 98.6758 66.5452 98.9708 67.1385C99.2658 67.7318 99.4133 68.4245 99.4133 69.2166C99.4133 70.0054 99.2658 70.6948 98.9708 71.2848C98.6758 71.8748 98.2615 72.3338 97.7279 72.6619C97.1943 72.9901 96.5696 73.1541 95.8536 73.1541ZM95.8586 71.9062C96.3226 71.9062 96.7071 71.7836 97.012 71.5384C97.3169 71.2931 97.5423 70.9666 97.6882 70.5589C97.8373 70.1513 97.9119 69.7022 97.9119 69.2116C97.9119 68.7244 97.8373 68.277 97.6882 67.8693C97.5423 67.4583 97.3169 67.1286 97.012 66.88C96.7071 66.6314 96.3226 66.5071 95.8586 66.5071C95.3913 66.5071 95.0035 66.6314 94.6953 66.88C94.3903 67.1286 94.1633 67.4583 94.0142 67.8693C93.8683 68.277 93.7954 68.7244 93.7954 69.2116C93.7954 69.7022 93.8683 70.1513 94.0142 70.5589C94.1633 70.9666 94.3903 71.2931 94.6953 71.5384C95.0035 71.7836 95.3913 71.9062 95.8586 71.9062ZM100.933 75.8636V65.3636H102.384V66.6016H102.509C102.595 66.4425 102.719 66.2585 102.881 66.0497C103.044 65.8409 103.269 65.6586 103.558 65.5028C103.846 65.3438 104.227 65.2642 104.701 65.2642C105.318 65.2642 105.868 65.42 106.352 65.7315C106.836 66.0431 107.215 66.4922 107.49 67.0788C107.769 67.6655 107.908 68.3714 107.908 69.1967C107.908 70.022 107.77 70.7296 107.495 71.3196C107.22 71.9062 106.842 72.3587 106.362 72.6768C105.881 72.9917 105.332 73.1491 104.716 73.1491C104.252 73.1491 103.872 73.0713 103.577 72.9155C103.286 72.7597 103.057 72.5774 102.891 72.3686C102.726 72.1598 102.598 71.9742 102.509 71.8118H102.419V75.8636H100.933ZM102.389 69.1818C102.389 69.7187 102.467 70.1894 102.623 70.5938C102.779 70.9981 103.004 71.3146 103.299 71.5433C103.594 71.7687 103.955 71.8814 104.383 71.8814C104.827 71.8814 105.198 71.7637 105.496 71.5284C105.795 71.2898 106.02 70.9666 106.173 70.5589C106.328 70.1513 106.406 69.6922 106.406 69.1818C106.406 68.678 106.33 68.2256 106.178 67.8246C106.028 67.4235 105.803 67.107 105.501 66.875C105.203 66.643 104.83 66.527 104.383 66.527C103.952 66.527 103.587 66.638 103.289 66.8601C102.994 67.0821 102.77 67.392 102.618 67.7898C102.465 68.1875 102.389 68.6515 102.389 69.1818ZM112.998 65.3636V66.5568H108.827V65.3636H112.998ZM109.945 63.5341H111.432V70.7578C111.432 71.0462 111.475 71.2633 111.561 71.4091C111.647 71.5516 111.758 71.6494 111.894 71.7024C112.033 71.7521 112.184 71.777 112.347 71.777C112.466 71.777 112.57 71.7687 112.66 71.7521C112.749 71.7356 112.819 71.7223 112.869 71.7124L113.137 72.9403C113.051 72.9735 112.928 73.0066 112.769 73.0398C112.61 73.0762 112.411 73.0961 112.173 73.0994C111.781 73.1061 111.417 73.0365 111.079 72.8906C110.741 72.7448 110.467 72.5194 110.258 72.2145C110.05 71.9096 109.945 71.5268 109.945 71.0661V63.5341ZM119.34 69.8331V65.3636H120.831V73H119.369V71.6776H119.29C119.114 72.0852 118.832 72.425 118.445 72.6967C118.06 72.9652 117.581 73.0994 117.008 73.0994C116.517 73.0994 116.083 72.9917 115.705 72.7763C115.331 72.5575 115.036 72.2344 114.82 71.8068C114.608 71.3793 114.502 70.8506 114.502 70.2209V65.3636H115.989V70.0419C115.989 70.5623 116.133 70.9766 116.421 71.2848C116.71 71.593 117.084 71.7472 117.545 71.7472C117.823 71.7472 118.1 71.6776 118.375 71.5384C118.653 71.3991 118.884 71.1887 119.066 70.907C119.252 70.6252 119.343 70.2673 119.34 69.8331ZM125.905 73.1541C125.166 73.1541 124.529 72.9867 123.996 72.652C123.466 72.3139 123.058 71.8482 122.773 71.255C122.488 70.6617 122.345 69.9822 122.345 69.2166C122.345 68.4411 122.491 67.7566 122.783 67.1634C123.074 66.5668 123.485 66.1011 124.016 65.7663C124.546 65.4316 125.171 65.2642 125.89 65.2642C126.47 65.2642 126.987 65.3719 127.441 65.5874C127.895 65.7995 128.262 66.0978 128.54 66.4822C128.822 66.8667 128.989 67.3158 129.042 67.8295H127.595C127.516 67.4716 127.333 67.1634 127.048 66.9048C126.767 66.6463 126.389 66.517 125.915 66.517C125.501 66.517 125.138 66.6264 124.826 66.8452C124.518 67.0606 124.278 67.3688 124.105 67.7699C123.933 68.1676 123.847 68.6383 123.847 69.1818C123.847 69.7386 123.931 70.2192 124.1 70.6236C124.269 71.0279 124.508 71.3411 124.816 71.5632C125.128 71.7853 125.494 71.8963 125.915 71.8963C126.197 71.8963 126.452 71.8449 126.681 71.7422C126.913 71.6361 127.106 71.4853 127.262 71.2898C127.421 71.0942 127.532 70.8589 127.595 70.5838H129.042C128.989 71.0777 128.828 71.5185 128.56 71.9062C128.291 72.294 127.932 72.599 127.481 72.821C127.034 73.0431 126.508 73.1541 125.905 73.1541ZM131.978 68.4659V73H130.492V62.8182H131.958V66.6065H132.053C132.232 66.1955 132.505 65.8691 132.873 65.6271C133.241 65.3852 133.722 65.2642 134.315 65.2642C134.839 65.2642 135.296 65.3719 135.687 65.5874C136.081 65.8028 136.386 66.1243 136.602 66.5518C136.821 66.9761 136.93 67.5064 136.93 68.1428V73H135.443V68.3217C135.443 67.7616 135.299 67.3274 135.011 67.0192C134.723 66.7076 134.321 66.5518 133.808 66.5518C133.456 66.5518 133.142 66.6264 132.863 66.7756C132.588 66.9247 132.371 67.1435 132.212 67.4318C132.056 67.7169 131.978 68.0616 131.978 68.4659ZM138.774 73V65.3636H140.26V73H138.774ZM139.524 64.1854C139.266 64.1854 139.044 64.0992 138.858 63.9268C138.676 63.7512 138.585 63.5424 138.585 63.3004C138.585 63.0552 138.676 62.8464 138.858 62.674C139.044 62.4983 139.266 62.4105 139.524 62.4105C139.783 62.4105 140.003 62.4983 140.186 62.674C140.371 62.8464 140.464 63.0552 140.464 63.3004C140.464 63.5424 140.371 63.7512 140.186 63.9268C140.003 64.0992 139.783 64.1854 139.524 64.1854Z"/><path fill="#8C94A6" d="M221.488 72.14C219.234 72.14 217.708 70.866 217.232 68.808H216.14V67.814H217.078C217.064 67.646 217.064 67.478 217.064 67.31C217.064 67.142 217.064 66.974 217.078 66.806H216.14V65.812H217.232C217.708 63.754 219.234 62.48 221.488 62.48C223.994 62.48 225.492 63.894 225.492 65.966V66.05H223.882V65.966C223.882 64.622 223.182 63.936 221.446 63.936C219.948 63.936 219.122 64.482 218.814 65.812H222.566V66.806H218.688C218.674 66.96 218.674 67.128 218.674 67.31C218.674 67.492 218.674 67.66 218.688 67.814H222.566V68.808H218.814C219.122 70.138 219.948 70.684 221.446 70.684C223.182 70.684 223.882 69.998 223.882 68.654V68.57H225.492V68.654C225.492 70.726 223.994 72.14 221.488 72.14Z"/><path fill="#1A1A21" d="M236.848 73H228.944V71.928C228.944 69.896 230.32 68.968 231.824 68.2L233.472 67.352C234.624 66.744 235.088 66.264 235.088 65.352C235.088 64.36 234.72 63.704 232.944 63.704C230.992 63.704 230.592 64.344 230.592 65.816V66.04H228.864V65.784C228.864 63.784 230.112 62.12 233.072 62.12C235.712 62.12 236.816 63.512 236.816 65.288C236.816 67.048 235.616 67.992 234.24 68.696L232.672 69.496C231.584 70.056 230.752 70.568 230.752 71.448H236.848V73ZM243.242 73.16C240.362 73.16 238.618 71.032 238.618 67.64C238.618 64.248 240.362 62.12 243.242 62.12C246.122 62.12 247.882 64.248 247.882 67.64C247.882 71.032 246.122 73.16 243.242 73.16ZM243.242 71.496C245.146 71.496 246.042 70.472 246.042 67.64C246.042 64.808 245.146 63.784 243.242 63.784C241.338 63.784 240.458 64.808 240.458 67.64C240.458 70.472 241.338 71.496 243.242 71.496ZM250.002 74.888H249.426V73.752H249.954C250.226 73.752 250.37 73.688 250.37 73.336V73H249.394V70.52H251.586V73.304C251.586 74.376 251.01 74.888 250.002 74.888ZM260.373 73H258.661V70.776H252.469V69.576L258.373 62.28H260.373V69.224H262.037V70.776H260.373V73ZM254.677 69.224H258.661V64.408H258.533L254.677 69.096V69.224ZM267.301 73.16C264.245 73.16 263.077 71.768 263.077 69.72V69.464H264.773V69.704C264.773 71.048 265.221 71.576 267.333 71.576C269.029 71.576 269.701 71.16 269.701 69.912C269.701 68.568 269.109 68.168 267.621 68.168H265.477V66.728H267.381C268.789 66.728 269.333 66.376 269.333 65.256C269.333 64.136 268.693 63.704 267.189 63.704C265.333 63.704 264.773 64.232 264.773 65.576V65.704H263.077V65.56C263.077 63.512 264.517 62.12 267.205 62.12C269.621 62.12 271.061 63.112 271.061 64.984C271.061 66.216 270.437 67.128 269.077 67.32V67.384C270.549 67.592 271.445 68.552 271.445 70.088C271.445 72.152 269.781 73.16 267.301 73.16ZM277.725 73.16C274.845 73.16 273.101 71.032 273.101 67.64C273.101 64.248 274.845 62.12 277.725 62.12C280.605 62.12 282.365 64.248 282.365 67.64C282.365 71.032 280.605 73.16 277.725 73.16ZM277.725 71.496C279.629 71.496 280.525 70.472 280.525 67.64C280.525 64.808 279.629 63.784 277.725 63.784C275.821 63.784 274.941 64.808 274.941 67.64C274.941 70.472 275.821 71.496 277.725 71.496Z"/><path fill="#8C94A6" d="M16.9588 98V89.2727H20.1548C20.7741 89.2727 21.2869 89.375 21.6932 89.5795C22.0994 89.7812 22.4034 90.0554 22.6051 90.402C22.8068 90.7457 22.9077 91.1335 22.9077 91.5653C22.9077 91.929 22.8409 92.2358 22.7074 92.4858C22.5739 92.733 22.3949 92.9318 22.1705 93.0824C21.9489 93.2301 21.7045 93.3381 21.4375 93.4062V93.4915C21.7273 93.5057 22.0099 93.5994 22.2855 93.7727C22.5639 93.9432 22.794 94.1861 22.9759 94.5014C23.1577 94.8168 23.2486 95.2003 23.2486 95.652C23.2486 96.098 23.1435 96.4986 22.9332 96.8537C22.7259 97.206 22.4048 97.4858 21.9702 97.6932C21.5355 97.8977 20.9801 98 20.304 98H16.9588ZM18.2756 96.8707H20.1761C20.8068 96.8707 21.2585 96.7486 21.5312 96.5043C21.804 96.2599 21.9403 95.9545 21.9403 95.5881C21.9403 95.3125 21.8707 95.0597 21.7315 94.8295C21.5923 94.5994 21.3935 94.4162 21.1349 94.2798C20.8793 94.1435 20.5753 94.0753 20.223 94.0753H18.2756V96.8707ZM18.2756 93.0483H20.0398C20.3352 93.0483 20.6009 92.9915 20.8366 92.8778C21.0753 92.7642 21.2642 92.6051 21.4034 92.4006C21.5455 92.1932 21.6165 91.9489 21.6165 91.6676C21.6165 91.3068 21.4901 91.0043 21.2372 90.7599C20.9844 90.5156 20.5966 90.3935 20.0739 90.3935H18.2756V93.0483ZM26.4929 98.1449C26.0782 98.1449 25.7032 98.0682 25.3679 97.9148C25.0327 97.7585 24.7671 97.5327 24.5711 97.2372C24.3779 96.9418 24.2813 96.5795 24.2813 96.1506C24.2813 95.7812 24.3523 95.4773 24.4943 95.2386C24.6364 95 24.8282 94.8111 25.0696 94.6719C25.3111 94.5327 25.581 94.4276 25.8793 94.3565C26.1776 94.2855 26.4816 94.2315 26.7912 94.1946C27.1833 94.1491 27.5014 94.1122 27.7458 94.0838C27.9901 94.0526 28.1676 94.0028 28.2784 93.9347C28.3892 93.8665 28.4446 93.7557 28.4446 93.6023V93.5724C28.4446 93.2003 28.3395 92.9119 28.1293 92.7074C27.9219 92.5028 27.6122 92.4006 27.2003 92.4006C26.7713 92.4006 26.4333 92.4957 26.1861 92.6861C25.9418 92.8736 25.7728 93.0824 25.679 93.3125L24.4816 93.0398C24.6236 92.642 24.831 92.321 25.1037 92.0767C25.3793 91.8295 25.6961 91.6506 26.054 91.5398C26.412 91.4261 26.7884 91.3693 27.1833 91.3693C27.4446 91.3693 27.7216 91.4006 28.0142 91.4631C28.3097 91.5227 28.5853 91.6335 28.8409 91.7955C29.0995 91.9574 29.3111 92.1889 29.4759 92.4901C29.6407 92.7884 29.723 93.1761 29.723 93.6534V98H28.4787V97.1051H28.4276C28.3452 97.2699 28.2216 97.4318 28.0568 97.5909C27.8921 97.75 27.6804 97.8821 27.4219 97.9872C27.1634 98.0923 26.8537 98.1449 26.4929 98.1449ZM26.7699 97.1222C27.1222 97.1222 27.4233 97.0526 27.6733 96.9134C27.9262 96.7741 28.1179 96.5923 28.2486 96.3679C28.3821 96.1406 28.4489 95.8977 28.4489 95.6392V94.7955C28.4034 94.8409 28.3154 94.8835 28.1847 94.9233C28.0568 94.9602 27.9105 94.9929 27.7458 95.0213C27.581 95.0469 27.4205 95.071 27.2642 95.0938C27.108 95.1136 26.9773 95.1307 26.8722 95.1449C26.625 95.1761 26.3992 95.2287 26.1946 95.3026C25.9929 95.3764 25.831 95.483 25.7088 95.6222C25.5895 95.7585 25.5299 95.9403 25.5299 96.1676C25.5299 96.483 25.6463 96.7216 25.8793 96.8835C26.1122 97.0426 26.4091 97.1222 26.7699 97.1222ZM32.5743 94.1136V98H31.3001V91.4545H32.5231V92.5199H32.6041C32.7547 92.1733 32.9905 91.8949 33.3115 91.6847C33.6354 91.4744 34.043 91.3693 34.5345 91.3693C34.9805 91.3693 35.3712 91.4631 35.7064 91.6506C36.0416 91.8352 36.3015 92.1108 36.4862 92.4773C36.6709 92.8437 36.7632 93.2969 36.7632 93.8366V98H35.489V93.9901C35.489 93.5156 35.3655 93.1449 35.1183 92.8778C34.8712 92.608 34.5317 92.473 34.0998 92.473C33.8044 92.473 33.5416 92.5369 33.3115 92.6648C33.0842 92.7926 32.9038 92.9801 32.7703 93.2273C32.6396 93.4716 32.5743 93.767 32.5743 94.1136ZM39.5239 95.7798L39.5154 94.2244H39.7369L42.3449 91.4545H43.8705L40.896 94.608H40.6958L39.5239 95.7798ZM38.352 98V89.2727H39.6262V98H38.352ZM42.4855 98L40.1418 94.8892L41.0196 93.9986L44.0494 98H42.4855ZM50.7246 98.1321C50.1109 98.1321 49.5754 97.9915 49.118 97.7102C48.6607 97.429 48.3055 97.0355 48.0527 96.5298C47.7999 96.0241 47.6734 95.4332 47.6734 94.7571C47.6734 94.0781 47.7999 93.4844 48.0527 92.9759C48.3055 92.4673 48.6607 92.0724 49.118 91.7912C49.5754 91.5099 50.1109 91.3693 50.7246 91.3693C51.3382 91.3693 51.8737 91.5099 52.3311 91.7912C52.7885 92.0724 53.1436 92.4673 53.3964 92.9759C53.6493 93.4844 53.7757 94.0781 53.7757 94.7571C53.7757 95.4332 53.6493 96.0241 53.3964 96.5298C53.1436 97.0355 52.7885 97.429 52.3311 97.7102C51.8737 97.9915 51.3382 98.1321 50.7246 98.1321ZM50.7288 97.0625C51.1266 97.0625 51.4561 96.9574 51.7175 96.7472C51.9788 96.5369 52.172 96.2571 52.297 95.9077C52.4249 95.5582 52.4888 95.1733 52.4888 94.7528C52.4888 94.3352 52.4249 93.9517 52.297 93.6023C52.172 93.25 51.9788 92.9673 51.7175 92.7543C51.4561 92.5412 51.1266 92.4347 50.7288 92.4347C50.3283 92.4347 49.9959 92.5412 49.7317 92.7543C49.4703 92.9673 49.2757 93.25 49.1479 93.6023C49.0229 93.9517 48.9604 94.3352 48.9604 94.7528C48.9604 95.1733 49.0229 95.5582 49.1479 95.9077C49.2757 96.2571 49.4703 96.5369 49.7317 96.7472C49.9959 96.9574 50.3283 97.0625 50.7288 97.0625ZM58.193 91.4545V92.4773H54.4941V91.4545H58.193ZM55.5083 98V90.696C55.5083 90.2869 55.5978 89.9474 55.7768 89.6776C55.9558 89.4048 56.193 89.2017 56.4885 89.0682C56.7839 88.9318 57.1049 88.8636 57.4515 88.8636C57.7072 88.8636 57.926 88.8849 58.1078 88.9276C58.2896 88.9673 58.4245 89.0043 58.5126 89.0384L58.2143 90.0696C58.1546 90.0526 58.0779 90.0327 57.9842 90.0099C57.8904 89.9844 57.7768 89.9716 57.6433 89.9716C57.3336 89.9716 57.112 90.0483 56.9785 90.2017C56.8478 90.3551 56.7825 90.5767 56.7825 90.8665V98H55.5083ZM63.3085 89.2727L65.7374 96.3807H65.8355L68.2644 89.2727H69.6877L66.5471 98H65.0258L61.8852 89.2727H63.3085ZM72.8905 98.1321C72.2456 98.1321 71.6902 97.9943 71.2243 97.7188C70.7613 97.4403 70.4033 97.0497 70.1505 96.5469C69.9005 96.0412 69.7755 95.4489 69.7755 94.7699C69.7755 94.0994 69.9005 93.5085 70.1505 92.9972C70.4033 92.4858 70.7556 92.0866 71.2073 91.7997C71.6618 91.5128 72.1931 91.3693 72.801 91.3693C73.1704 91.3693 73.5283 91.4304 73.8749 91.5526C74.2215 91.6747 74.5326 91.8665 74.8081 92.1278C75.0837 92.3892 75.301 92.7287 75.4601 93.1463C75.6192 93.5611 75.6988 94.0653 75.6988 94.6591V95.1108H70.4956V94.1562H74.4502C74.4502 93.821 74.382 93.5241 74.2456 93.2656C74.1093 93.0043 73.9175 92.7983 73.6704 92.6477C73.426 92.4972 73.1391 92.4219 72.8096 92.4219C72.4516 92.4219 72.1391 92.5099 71.8721 92.6861C71.6079 92.8594 71.4033 93.0866 71.2584 93.3679C71.1164 93.6463 71.0454 93.9489 71.0454 94.2756V95.0213C71.0454 95.4588 71.1221 95.831 71.2755 96.1378C71.4317 96.4446 71.649 96.679 71.9275 96.8409C72.2059 97 72.5311 97.0795 72.9033 97.0795C73.1448 97.0795 73.365 97.0455 73.5638 96.9773C73.7627 96.9062 73.9346 96.8011 74.0794 96.6619C74.2243 96.5227 74.3351 96.3509 74.4118 96.1463L75.6178 96.3636C75.5212 96.7187 75.3479 97.0298 75.0979 97.2969C74.8508 97.5611 74.5397 97.767 74.1647 97.9148C73.7925 98.0597 73.3678 98.1321 72.8905 98.1321ZM78.2666 94.1136V98H76.9925V91.4545H78.2155V92.5199H78.2964C78.447 92.1733 78.6828 91.8949 79.0038 91.6847C79.3277 91.4744 79.7354 91.3693 80.2268 91.3693C80.6729 91.3693 81.0635 91.4631 81.3987 91.6506C81.7339 91.8352 81.9939 92.1108 82.1786 92.4773C82.3632 92.8437 82.4555 93.2969 82.4555 93.8366V98H81.1814V93.9901C81.1814 93.5156 81.0578 93.1449 80.8107 92.8778C80.5635 92.608 80.224 92.473 79.7922 92.473C79.4967 92.473 79.2339 92.5369 79.0038 92.6648C78.7766 92.7926 78.5962 92.9801 78.4626 93.2273C78.332 93.4716 78.2666 93.767 78.2666 94.1136ZM84.0443 98V91.4545H85.3185V98H84.0443ZM84.6878 90.4446C84.4662 90.4446 84.2759 90.3707 84.1168 90.223C83.9605 90.0724 83.8824 89.8935 83.8824 89.6861C83.8824 89.4759 83.9605 89.2969 84.1168 89.1491C84.2759 88.9986 84.4662 88.9233 84.6878 88.9233C84.9094 88.9233 85.0983 88.9986 85.2546 89.1491C85.4137 89.2969 85.4932 89.4759 85.4932 89.6861C85.4932 89.8935 85.4137 90.0724 85.2546 90.223C85.0983 90.3707 84.9094 90.4446 84.6878 90.4446ZM89.6697 98.1321C89.0362 98.1321 88.4908 97.9886 88.0334 97.7017C87.5788 97.4119 87.2294 97.0128 86.9851 96.5043C86.7408 95.9957 86.6186 95.4134 86.6186 94.7571C86.6186 94.0923 86.7436 93.5057 86.9936 92.9972C87.2436 92.4858 87.5959 92.0866 88.0504 91.7997C88.505 91.5128 89.0405 91.3693 89.6569 91.3693C90.1541 91.3693 90.5973 91.4616 90.9865 91.6463C91.3757 91.8281 91.6896 92.0838 91.9283 92.4134C92.1697 92.7429 92.3132 93.1278 92.3586 93.5682H91.1186C91.0504 93.2614 90.8942 92.9972 90.6498 92.7756C90.4084 92.554 90.0845 92.4432 89.6783 92.4432C89.3231 92.4432 89.0121 92.5369 88.745 92.7244C88.4808 92.9091 88.2748 93.1733 88.1271 93.517C87.9794 93.858 87.9055 94.2614 87.9055 94.7273C87.9055 95.2045 87.978 95.6165 88.1229 95.9631C88.2677 96.3097 88.4723 96.5781 88.7365 96.7685C89.0035 96.9588 89.3175 97.054 89.6783 97.054C89.9197 97.054 90.1385 97.0099 90.3345 96.9219C90.5334 96.831 90.6996 96.7017 90.8331 96.5341C90.9694 96.3665 91.0646 96.1648 91.1186 95.929H92.3586C92.3132 96.3523 92.1754 96.7301 91.9453 97.0625C91.7152 97.3949 91.4069 97.6562 91.0206 97.8466C90.6371 98.0369 90.1868 98.1321 89.6697 98.1321ZM96.4222 98.1321C95.7774 98.1321 95.222 97.9943 94.7561 97.7188C94.293 97.4403 93.935 97.0497 93.6822 96.5469C93.4322 96.0412 93.3072 95.4489 93.3072 94.7699C93.3072 94.0994 93.4322 93.5085 93.6822 92.9972C93.935 92.4858 94.2873 92.0866 94.739 91.7997C95.1936 91.5128 95.7248 91.3693 96.3328 91.3693C96.7021 91.3693 97.06 91.4304 97.4066 91.5526C97.7532 91.6747 98.0643 91.8665 98.3399 92.1278C98.6154 92.3892 98.8328 92.7287 98.9918 93.1463C99.1509 93.5611 99.2305 94.0653 99.2305 94.6591V95.1108H94.0274V94.1562H97.9819C97.9819 93.821 97.9137 93.5241 97.7774 93.2656C97.641 93.0043 97.4492 92.7983 97.2021 92.6477C96.9578 92.4972 96.6708 92.4219 96.3413 92.4219C95.9833 92.4219 95.6708 92.5099 95.4038 92.6861C95.1396 92.8594 94.935 93.0866 94.7901 93.3679C94.6481 93.6463 94.5771 93.9489 94.5771 94.2756V95.0213C94.5771 95.4588 94.6538 95.831 94.8072 96.1378C94.9634 96.4446 95.1808 96.679 95.4592 96.8409C95.7376 97 96.0629 97.0795 96.435 97.0795C96.6765 97.0795 96.8967 97.0455 97.0955 96.9773C97.2944 96.9062 97.4663 96.8011 97.6112 96.6619C97.7561 96.5227 97.8668 96.3509 97.9436 96.1463L99.1495 96.3636C99.0529 96.7187 98.8796 97.0298 98.6296 97.2969C98.3825 97.5611 98.0714 97.767 97.6964 97.9148C97.3242 98.0597 96.8995 98.1321 96.4222 98.1321Z"/><path fill="#8C94A6" d="M211.788 98.1193C211.178 98.1193 210.638 98.0142 210.169 97.804C209.703 97.5937 209.338 97.304 209.074 96.9347C208.81 96.5653 208.679 96.1449 208.682 95.6733C208.679 95.304 208.754 94.9645 208.908 94.6548C209.064 94.3423 209.276 94.0824 209.543 93.875C209.81 93.6648 210.108 93.5312 210.438 93.4744V93.4233C210.003 93.3182 209.655 93.0852 209.393 92.7244C209.132 92.3636 209.003 91.9489 209.006 91.4801C209.003 91.0341 209.121 90.6364 209.359 90.2869C209.601 89.9347 209.932 89.6577 210.352 89.456C210.773 89.2543 211.251 89.1534 211.788 89.1534C212.32 89.1534 212.794 89.2557 213.212 89.4602C213.632 89.6619 213.963 89.9389 214.205 90.2912C214.446 90.6406 214.568 91.0369 214.571 91.4801C214.568 91.9489 214.435 92.3636 214.17 92.7244C213.906 93.0852 213.563 93.3182 213.139 93.4233V93.4744C213.466 93.5312 213.76 93.6648 214.021 93.875C214.286 94.0824 214.496 94.3423 214.652 94.6548C214.811 94.9645 214.892 95.304 214.895 95.6733C214.892 96.1449 214.759 96.5653 214.494 96.9347C214.23 97.304 213.864 97.5937 213.395 97.804C212.929 98.0142 212.393 98.1193 211.788 98.1193ZM211.788 97.0412C212.149 97.0412 212.462 96.9815 212.726 96.8622C212.99 96.7401 213.195 96.571 213.339 96.3551C213.484 96.1364 213.558 95.8807 213.561 95.5881C213.558 95.2841 213.479 95.0156 213.322 94.7827C213.169 94.5497 212.96 94.3665 212.696 94.233C212.432 94.0994 212.129 94.0327 211.788 94.0327C211.445 94.0327 211.139 94.0994 210.872 94.233C210.605 94.3665 210.395 94.5497 210.241 94.7827C210.088 95.0156 210.013 95.2841 210.016 95.5881C210.013 95.8807 210.082 96.1364 210.224 96.3551C210.369 96.571 210.575 96.7401 210.842 96.8622C211.109 96.9815 211.425 97.0412 211.788 97.0412ZM211.788 92.9801C212.078 92.9801 212.335 92.9219 212.56 92.8054C212.784 92.6889 212.96 92.527 213.088 92.3196C213.219 92.1122 213.286 91.8693 213.288 91.5909C213.286 91.3182 213.22 91.0795 213.092 90.875C212.967 90.6705 212.793 90.5128 212.568 90.402C212.344 90.2884 212.084 90.2315 211.788 90.2315C211.487 90.2315 211.223 90.2884 210.996 90.402C210.771 90.5128 210.597 90.6705 210.472 90.875C210.347 91.0795 210.286 91.3182 210.288 91.5909C210.286 91.8693 210.348 92.1122 210.476 92.3196C210.604 92.527 210.78 92.6889 211.004 92.8054C211.232 92.9219 211.493 92.9801 211.788 92.9801ZM219.204 89.1534C219.593 89.1562 219.976 89.2273 220.354 89.3665C220.732 89.5057 221.073 89.733 221.377 90.0483C221.684 90.3636 221.928 90.7898 222.11 91.3267C222.294 91.8608 222.388 92.5256 222.391 93.321C222.391 94.0852 222.314 94.7656 222.161 95.3622C222.007 95.956 221.787 96.4574 221.5 96.8665C221.216 97.2756 220.871 97.5866 220.465 97.7997C220.059 98.0128 219.601 98.1193 219.093 98.1193C218.573 98.1193 218.111 98.017 217.708 97.8125C217.304 97.608 216.976 97.3253 216.723 96.9645C216.471 96.6009 216.313 96.1832 216.25 95.7116H217.55C217.635 96.0866 217.809 96.3906 218.07 96.6236C218.334 96.8537 218.675 96.9688 219.093 96.9688C219.732 96.9688 220.23 96.6903 220.588 96.1335C220.946 95.5739 221.127 94.7926 221.13 93.7898H221.061C220.914 94.0341 220.729 94.2443 220.507 94.4205C220.289 94.5966 220.043 94.733 219.77 94.8295C219.498 94.9261 219.206 94.9744 218.897 94.9744C218.394 94.9744 217.936 94.8509 217.525 94.6037C217.113 94.3565 216.784 94.017 216.54 93.5852C216.296 93.1534 216.174 92.6605 216.174 92.1065C216.174 91.5554 216.299 91.0554 216.549 90.6065C216.802 90.1577 217.154 89.8026 217.605 89.5412C218.06 89.277 218.593 89.1477 219.204 89.1534ZM219.208 90.2614C218.875 90.2614 218.576 90.3437 218.309 90.5085C218.044 90.6705 217.836 90.8906 217.682 91.169C217.529 91.4446 217.452 91.7514 217.452 92.0895C217.452 92.4276 217.526 92.7344 217.674 93.0099C217.824 93.2827 218.029 93.5 218.287 93.6619C218.549 93.821 218.847 93.9006 219.182 93.9006C219.432 93.9006 219.665 93.8523 219.881 93.7557C220.097 93.6591 220.286 93.5256 220.448 93.3551C220.61 93.1818 220.736 92.9858 220.827 92.767C220.918 92.5483 220.963 92.3182 220.963 92.0767C220.963 91.7557 220.887 91.4574 220.733 91.1818C220.583 90.9062 220.375 90.6847 220.111 90.517C219.847 90.3466 219.546 90.2614 219.208 90.2614ZM226.849 98.1449C226.175 98.142 225.6 97.9645 225.123 97.6122C224.646 97.2599 224.281 96.7472 224.028 96.0739C223.775 95.4006 223.648 94.5895 223.648 93.6406C223.648 92.6946 223.775 91.8864 224.028 91.2159C224.283 90.5455 224.65 90.0341 225.127 89.6818C225.607 89.3295 226.181 89.1534 226.849 89.1534C227.516 89.1534 228.089 89.331 228.566 89.6861C229.043 90.0384 229.408 90.5497 229.661 91.2202C229.917 91.8878 230.045 92.6946 230.045 93.6406C230.045 94.5923 229.918 95.4048 229.666 96.0781C229.413 96.7486 229.048 97.2614 228.57 97.6165C228.093 97.9688 227.519 98.1449 226.849 98.1449ZM226.849 97.0071C227.44 97.0071 227.901 96.7188 228.234 96.142C228.569 95.5653 228.737 94.7315 228.737 93.6406C228.737 92.9162 228.66 92.304 228.506 91.804C228.356 91.3011 228.139 90.9205 227.854 90.6619C227.573 90.4006 227.238 90.2699 226.849 90.2699C226.261 90.2699 225.799 90.5597 225.464 91.1392C225.129 91.7187 224.96 92.5526 224.957 93.6406C224.957 94.3679 225.032 94.983 225.183 95.4858C225.336 95.9858 225.553 96.3651 225.835 96.6236C226.116 96.8793 226.454 97.0071 226.849 97.0071ZM231.437 98V97.0455L234.39 93.9858C234.705 93.6534 234.965 93.3622 235.169 93.1122C235.377 92.8594 235.532 92.6193 235.634 92.392C235.736 92.1648 235.787 91.9233 235.787 91.6676C235.787 91.3778 235.719 91.1278 235.583 90.9176C235.446 90.7045 235.26 90.5412 235.025 90.4276C234.789 90.3111 234.523 90.2528 234.228 90.2528C233.915 90.2528 233.642 90.3168 233.41 90.4446C233.177 90.5724 232.998 90.7528 232.873 90.9858C232.748 91.2187 232.685 91.4915 232.685 91.804H231.428C231.428 91.2727 231.55 90.8082 231.794 90.4105C232.039 90.0128 232.374 89.7045 232.8 89.4858C233.226 89.2642 233.711 89.1534 234.253 89.1534C234.802 89.1534 235.285 89.2628 235.702 89.4815C236.123 89.6974 236.451 89.9929 236.687 90.3679C236.922 90.7401 237.04 91.1605 237.04 91.6293C237.04 91.9531 236.979 92.2699 236.857 92.5795C236.738 92.8892 236.529 93.2344 236.231 93.6151C235.932 93.9929 235.517 94.4517 234.986 94.9915L233.252 96.8068V96.8707H237.181V98H231.437ZM241.714 98.1193C241.129 98.1193 240.606 98.0185 240.146 97.8168C239.689 97.6151 239.326 97.3352 239.059 96.9773C238.795 96.6165 238.653 96.1989 238.633 95.7244H239.971C239.988 95.983 240.075 96.2074 240.231 96.3977C240.39 96.5852 240.598 96.7301 240.853 96.8324C241.109 96.9347 241.393 96.9858 241.706 96.9858C242.049 96.9858 242.353 96.9261 242.618 96.8068C242.885 96.6875 243.094 96.5213 243.244 96.3082C243.395 96.0923 243.47 95.8438 243.47 95.5625C243.47 95.2699 243.395 95.0128 243.244 94.7912C243.096 94.5668 242.879 94.3906 242.592 94.2628C242.308 94.1349 241.964 94.071 241.561 94.071H240.824V92.9972H241.561C241.885 92.9972 242.169 92.9389 242.413 92.8224C242.66 92.706 242.853 92.544 242.993 92.3366C243.132 92.1264 243.201 91.8807 243.201 91.5994C243.201 91.3295 243.14 91.0952 243.018 90.8963C242.899 90.6946 242.728 90.5369 242.507 90.4233C242.288 90.3097 242.03 90.2528 241.731 90.2528C241.447 90.2528 241.182 90.3054 240.934 90.4105C240.69 90.5128 240.491 90.6605 240.338 90.8537C240.184 91.044 240.102 91.2727 240.091 91.5398H238.817C238.831 91.0682 238.97 90.6534 239.234 90.2955C239.501 89.9375 239.853 89.6577 240.291 89.456C240.728 89.2543 241.214 89.1534 241.748 89.1534C242.308 89.1534 242.791 89.2628 243.197 89.4815C243.606 89.6974 243.922 89.9858 244.143 90.3466C244.368 90.7074 244.478 91.1023 244.476 91.5312C244.478 92.0199 244.342 92.4347 244.067 92.7756C243.794 93.1165 243.43 93.3452 242.976 93.4616V93.5298C243.555 93.6179 244.004 93.848 244.322 94.2202C244.643 94.5923 244.802 95.054 244.799 95.6051C244.802 96.0852 244.669 96.5156 244.399 96.8963C244.132 97.277 243.767 97.5767 243.304 97.7955C242.841 98.0114 242.311 98.1193 241.714 98.1193ZM246.29 98V97.0455L249.243 93.9858C249.559 93.6534 249.819 93.3622 250.023 93.1122C250.231 92.8594 250.385 92.6193 250.488 92.392C250.59 92.1648 250.641 91.9233 250.641 91.6676C250.641 91.3778 250.573 91.1278 250.437 90.9176C250.3 90.7045 250.114 90.5412 249.878 90.4276C249.643 90.3111 249.377 90.2528 249.081 90.2528C248.769 90.2528 248.496 90.3168 248.263 90.4446C248.03 90.5724 247.851 90.7528 247.726 90.9858C247.601 91.2187 247.539 91.4915 247.539 91.804H246.282C246.282 91.2727 246.404 90.8082 246.648 90.4105C246.893 90.0128 247.228 89.7045 247.654 89.4858C248.08 89.2642 248.564 89.1534 249.107 89.1534C249.655 89.1534 250.138 89.2628 250.556 89.4815C250.976 89.6974 251.304 89.9929 251.54 90.3679C251.776 90.7401 251.894 91.1605 251.894 91.6293C251.894 91.9531 251.833 92.2699 251.711 92.5795C251.591 92.8892 251.383 93.2344 251.084 93.6151C250.786 93.9929 250.371 94.4517 249.84 94.9915L248.106 96.8068V96.8707H252.035V98H246.29ZM256.568 98.1193C255.983 98.1193 255.46 98.0185 255 97.8168C254.542 97.6151 254.18 97.3352 253.913 96.9773C253.649 96.6165 253.507 96.1989 253.487 95.7244H254.825C254.842 95.983 254.929 96.2074 255.085 96.3977C255.244 96.5852 255.452 96.7301 255.707 96.8324C255.963 96.9347 256.247 96.9858 256.559 96.9858C256.903 96.9858 257.207 96.9261 257.471 96.8068C257.738 96.6875 257.947 96.5213 258.098 96.3082C258.248 96.0923 258.324 95.8438 258.324 95.5625C258.324 95.2699 258.248 95.0128 258.098 94.7912C257.95 94.5668 257.733 94.3906 257.446 94.2628C257.162 94.1349 256.818 94.071 256.415 94.071H255.677V92.9972H256.415C256.738 92.9972 257.023 92.9389 257.267 92.8224C257.514 92.706 257.707 92.544 257.846 92.3366C257.986 92.1264 258.055 91.8807 258.055 91.5994C258.055 91.3295 257.994 91.0952 257.872 90.8963C257.753 90.6946 257.582 90.5369 257.361 90.4233C257.142 90.3097 256.883 90.2528 256.585 90.2528C256.301 90.2528 256.035 90.3054 255.788 90.4105C255.544 90.5128 255.345 90.6605 255.192 90.8537C255.038 91.044 254.956 91.2727 254.944 91.5398H253.67C253.684 91.0682 253.824 90.6534 254.088 90.2955C254.355 89.9375 254.707 89.6577 255.145 89.456C255.582 89.2543 256.068 89.1534 256.602 89.1534C257.162 89.1534 257.645 89.2628 258.051 89.4815C258.46 89.6974 258.775 89.9858 258.997 90.3466C259.221 90.7074 259.332 91.1023 259.329 91.5312C259.332 92.0199 259.196 92.4347 258.92 92.7756C258.648 93.1165 258.284 93.3452 257.829 93.4616V93.5298C258.409 93.6179 258.858 93.848 259.176 94.2202C259.497 94.5923 259.656 95.054 259.653 95.6051C259.656 96.0852 259.523 96.5156 259.253 96.8963C258.986 97.277 258.621 97.5767 258.157 97.7955C257.694 98.0114 257.165 98.1193 256.568 98.1193ZM260.961 96.2955V95.2301L264.732 89.2727H265.572V90.8409H265.039L262.341 95.1108V95.179H267.51V96.2955H260.961ZM265.099 98V95.9716L265.107 95.4858V89.2727H266.356V98H265.099ZM268.692 96.2955V95.2301L272.464 89.2727H273.303V90.8409H272.77L270.073 95.1108V95.179H275.242V96.2955H268.692ZM272.83 98V95.9716L272.839 95.4858V89.2727H274.087V98H272.83ZM279.645 98.1193C279.06 98.1193 278.538 98.0185 278.077 97.8168C277.62 97.6151 277.258 97.3352 276.991 96.9773C276.726 96.6165 276.584 96.1989 276.565 95.7244H277.903C277.92 95.983 278.006 96.2074 278.163 96.3977C278.322 96.5852 278.529 96.7301 278.785 96.8324C279.04 96.9347 279.324 96.9858 279.637 96.9858C279.981 96.9858 280.285 96.9261 280.549 96.8068C280.816 96.6875 281.025 96.5213 281.175 96.3082C281.326 96.0923 281.401 95.8438 281.401 95.5625C281.401 95.2699 281.326 95.0128 281.175 94.7912C281.028 94.5668 280.81 94.3906 280.523 94.2628C280.239 94.1349 279.895 94.071 279.492 94.071H278.755V92.9972H279.492C279.816 92.9972 280.1 92.9389 280.344 92.8224C280.592 92.706 280.785 92.544 280.924 92.3366C281.063 92.1264 281.133 91.8807 281.133 91.5994C281.133 91.3295 281.072 91.0952 280.949 90.8963C280.83 90.6946 280.66 90.5369 280.438 90.4233C280.219 90.3097 279.961 90.2528 279.663 90.2528C279.378 90.2528 279.113 90.3054 278.866 90.4105C278.621 90.5128 278.422 90.6605 278.269 90.8537C278.116 91.044 278.033 91.2727 278.022 91.5398H276.748C276.762 91.0682 276.901 90.6534 277.165 90.2955C277.432 89.9375 277.785 89.6577 278.222 89.456C278.66 89.2543 279.145 89.1534 279.68 89.1534C280.239 89.1534 280.722 89.2628 281.128 89.4815C281.538 89.6974 281.853 89.9858 282.074 90.3466C282.299 90.7074 282.41 91.1023 282.407 91.5312C282.41 92.0199 282.273 92.4347 281.998 92.7756C281.725 93.1165 281.361 93.3452 280.907 93.4616V93.5298C281.486 93.6179 281.935 93.848 282.253 94.2202C282.574 94.5923 282.734 95.054 282.731 95.6051C282.734 96.0852 282.6 96.5156 282.33 96.8963C282.063 97.277 281.698 97.5767 281.235 97.7955C280.772 98.0114 280.242 98.1193 279.645 98.1193Z"/><rect width="299" height="117" x=".5" y=".5" stroke="#EEEEF0" rx="11.5"/></svg>