<svg xmlns="http://www.w3.org/2000/svg" width="300" height="118" fill="none" viewBox="0 0 300 118"><rect width="299" height="117" x=".5" y=".5" fill="#fff" rx="11.5"/><path fill="#8C94A6" d="M17.125 23.8748H18.25V26.8748H17.5C17.4005 26.8748 17.3052 26.9143 17.2348 26.9846C17.1645 27.0549 17.125 27.1503 17.125 27.2498C17.125 27.3492 17.1645 27.4446 17.2348 27.5149C17.3052 27.5853 17.4005 27.6248 17.5 27.6248H26.5C26.5995 27.6248 26.6948 27.5853 26.7652 27.5149C26.8355 27.4446 26.875 27.3492 26.875 27.2498C26.875 27.1503 26.8355 27.0549 26.7652 26.9846C26.6948 26.9143 26.5995 26.8748 26.5 26.8748H25.75V23.8748H26.875C26.9566 23.8747 27.0359 23.848 27.101 23.7987C27.166 23.7495 27.2132 23.6804 27.2355 23.6019C27.2577 23.5233 27.2537 23.4397 27.2241 23.3637C27.1945 23.2877 27.1409 23.2234 27.0714 23.1805L22.1964 20.1805C22.1373 20.1442 22.0693 20.125 22 20.125C21.9307 20.125 21.8627 20.1442 21.8036 20.1805L16.9286 23.1805C16.8591 23.2234 16.8055 23.2877 16.7759 23.3637C16.7463 23.4397 16.7423 23.5233 16.7645 23.6019C16.7868 23.6804 16.834 23.7495 16.899 23.7987C16.9641 23.848 17.0434 23.8747 17.125 23.8748ZM19 23.8748H20.5V26.8748H19V23.8748ZM22.75 23.8748V26.8748H21.25V23.8748H22.75ZM25 26.8748H23.5V23.8748H25V26.8748ZM22 20.9399L25.5503 23.1248H18.4497L22 20.9399ZM27.625 28.7498C27.625 28.8492 27.5855 28.9446 27.5152 29.0149C27.4448 29.0853 27.3495 29.1248 27.25 29.1248H16.75C16.6505 29.1248 16.5552 29.0853 16.4848 29.0149C16.4145 28.9446 16.375 28.8492 16.375 28.7498C16.375 28.6503 16.4145 28.5549 16.4848 28.4846C16.5552 28.4143 16.6505 28.3748 16.75 28.3748H27.25C27.3495 28.3748 27.4448 28.4143 27.5152 28.4846C27.5855 28.5549 27.625 28.6503 27.625 28.7498Z"/><path fill="#8C94A6" d="M33.4134 29H32.2486L34.8658 21.7273H36.1335L38.7507 29H37.5859L35.5298 23.0483H35.473L33.4134 29ZM33.6087 26.152H37.3871V27.0753H33.6087V26.152ZM45.4996 24.0923H44.3917C44.3491 23.8556 44.2698 23.6473 44.1538 23.4673C44.0378 23.2874 43.8957 23.1347 43.7276 23.0092C43.5595 22.8838 43.3713 22.7891 43.163 22.7251C42.957 22.6612 42.738 22.6293 42.506 22.6293C42.087 22.6293 41.7118 22.7346 41.3803 22.9453C41.0513 23.156 40.7908 23.465 40.5991 23.8722C40.4097 24.2794 40.315 24.7765 40.315 25.3636C40.315 25.9555 40.4097 26.455 40.5991 26.8622C40.7908 27.2694 41.0524 27.5772 41.3839 27.7855C41.7153 27.9938 42.0882 28.098 42.5025 28.098C42.7321 28.098 42.9499 28.0672 43.1559 28.0057C43.3642 27.9418 43.5524 27.8482 43.7205 27.7251C43.8886 27.602 44.0307 27.4517 44.1467 27.2741C44.265 27.0942 44.3467 26.8883 44.3917 26.6562L45.4996 26.6598C45.4405 27.0173 45.3256 27.3464 45.1552 27.647C44.9871 27.9453 44.7705 28.2034 44.5053 28.4212C44.2425 28.6366 43.9419 28.8035 43.6033 28.9219C43.2648 29.0402 42.8955 29.0994 42.4954 29.0994C41.8656 29.0994 41.3046 28.9503 40.8121 28.652C40.3197 28.3513 39.9315 27.9216 39.6474 27.3629C39.3656 26.8042 39.2248 26.1378 39.2248 25.3636C39.2248 24.5871 39.3668 23.9207 39.6509 23.3643C39.935 22.8056 40.3233 22.3771 40.8157 22.0788C41.3081 21.7782 41.868 21.6278 42.4954 21.6278C42.8813 21.6278 43.2411 21.6835 43.5749 21.7947C43.9111 21.9036 44.2129 22.0646 44.4805 22.2777C44.748 22.4884 44.9693 22.7464 45.1445 23.0518C45.3197 23.3549 45.4381 23.7017 45.4996 24.0923ZM46.8127 29V21.7273H47.91V24.8878H51.5357V21.7273H52.6365V29H51.5357V25.8288H47.91V29H46.8127ZM56.881 29V21.7273H59.5444C60.0605 21.7273 60.4878 21.8125 60.8263 21.983C61.1649 22.151 61.4182 22.3795 61.5863 22.6683C61.7544 22.9548 61.8384 23.2779 61.8384 23.6378C61.8384 23.9408 61.7828 24.1965 61.6715 24.4048C61.5603 24.6108 61.4111 24.7765 61.2241 24.902C61.0394 25.0251 60.8358 25.1151 60.6133 25.1719V25.2429C60.8548 25.2547 61.0903 25.3329 61.32 25.4773C61.552 25.6193 61.7437 25.8217 61.8952 26.0845C62.0468 26.3473 62.1225 26.6669 62.1225 27.0433C62.1225 27.415 62.0349 27.7488 61.8597 28.0447C61.6869 28.3383 61.4194 28.5715 61.0572 28.7443C60.695 28.9148 60.2321 29 59.6687 29H56.881ZM57.9783 28.0589H59.5621C60.0877 28.0589 60.4641 27.9571 60.6914 27.7536C60.9187 27.55 61.0323 27.2955 61.0323 26.9901C61.0323 26.7604 60.9743 26.5497 60.8583 26.358C60.7423 26.1662 60.5766 26.0135 60.3612 25.8999C60.1481 25.7862 59.8948 25.7294 59.6012 25.7294H57.9783V28.0589ZM57.9783 24.8736H59.4485C59.6947 24.8736 59.9161 24.8262 60.1126 24.7315C60.3114 24.6368 60.4689 24.5043 60.5849 24.3338C60.7032 24.161 60.7624 23.9574 60.7624 23.723C60.7624 23.4223 60.6571 23.1702 60.4464 22.9666C60.2357 22.763 59.9125 22.6612 59.4769 22.6612H57.9783V24.8736ZM64.9261 29.1207C64.5805 29.1207 64.268 29.0568 63.9886 28.929C63.7093 28.7988 63.4879 28.6106 63.3246 28.3643C63.1636 28.1181 63.0831 27.8163 63.0831 27.4588C63.0831 27.151 63.1423 26.8977 63.2607 26.6989C63.379 26.5 63.5388 26.3426 63.7401 26.2266C63.9413 26.1106 64.1662 26.023 64.4148 25.9638C64.6634 25.9046 64.9167 25.8596 65.1747 25.8288C65.5014 25.791 65.7666 25.7602 65.9702 25.7365C66.1738 25.7105 66.3217 25.669 66.4141 25.6122C66.5064 25.5554 66.5526 25.4631 66.5526 25.3352V25.3104C66.5526 25.0002 66.465 24.7599 66.2898 24.5895C66.117 24.419 65.8589 24.3338 65.5156 24.3338C65.1581 24.3338 64.8764 24.4131 64.6705 24.5717C64.4669 24.728 64.326 24.902 64.2479 25.0938L63.25 24.8665C63.3684 24.535 63.5412 24.2675 63.7685 24.0639C63.9981 23.858 64.2621 23.7088 64.5604 23.6165C64.8587 23.5218 65.1723 23.4744 65.5014 23.4744C65.7192 23.4744 65.95 23.5005 66.1939 23.5526C66.4401 23.6023 66.6697 23.6946 66.8828 23.8295C67.0982 23.9645 67.2746 24.1574 67.4119 24.4084C67.5492 24.657 67.6179 24.9801 67.6179 25.3778V29H66.581V28.2543H66.5384C66.4697 28.3916 66.3667 28.5265 66.2294 28.6591C66.0921 28.7917 65.9157 28.9018 65.7003 28.9893C65.4848 29.0769 65.2268 29.1207 64.9261 29.1207ZM65.157 28.2685C65.4505 28.2685 65.7015 28.2105 65.9098 28.0945C66.1205 27.9785 66.2803 27.8269 66.3892 27.6399C66.5005 27.4505 66.5561 27.2481 66.5561 27.0327V26.3295C66.5182 26.3674 66.4448 26.4029 66.3359 26.4361C66.2294 26.4669 66.1075 26.4941 65.9702 26.5178C65.8329 26.5391 65.6991 26.5592 65.5689 26.5781C65.4387 26.5947 65.3298 26.6089 65.2422 26.6207C65.0362 26.6468 64.848 26.6906 64.6776 26.7521C64.5095 26.8137 64.3745 26.9025 64.2727 27.0185C64.1733 27.1321 64.1236 27.2836 64.1236 27.473C64.1236 27.7358 64.2206 27.9347 64.4148 28.0696C64.6089 28.2022 64.8563 28.2685 65.157 28.2685ZM70.0939 25.7614V29H69.0321V23.5455H70.0513V24.4332H70.1188C70.2443 24.1444 70.4408 23.9124 70.7083 23.7372C70.9782 23.562 71.3179 23.4744 71.7275 23.4744C72.0991 23.4744 72.4247 23.5526 72.704 23.7088C72.9834 23.8627 73.2 24.0923 73.3539 24.3977C73.5078 24.7031 73.5847 25.0807 73.5847 25.5305V29H72.5229V25.6584C72.5229 25.263 72.4199 24.9541 72.214 24.7315C72.008 24.5066 71.7251 24.3942 71.3652 24.3942C71.119 24.3942 70.9 24.4474 70.7083 24.554C70.5189 24.6605 70.3685 24.8168 70.2573 25.0227C70.1484 25.2263 70.0939 25.4725 70.0939 25.7614ZM75.9853 27.1499L75.9782 25.8537H76.1628L78.3361 23.5455H79.6074L77.1287 26.1733H76.9618L75.9853 27.1499ZM75.0087 29V21.7273H76.0705V29H75.0087ZM78.4533 29L76.5002 26.4077L77.2317 25.6655L79.7566 29H78.4533ZM82.9482 22.6719V21.7273H88.5767V22.6719H86.3075V29H85.2138V22.6719H82.9482ZM89.1689 29V23.5455H90.1951V24.4119H90.252C90.3514 24.1184 90.5266 23.8875 90.7775 23.7195C91.0308 23.549 91.3173 23.4638 91.6369 23.4638C91.7032 23.4638 91.7813 23.4661 91.8713 23.4709C91.9636 23.4756 92.0358 23.4815 92.0879 23.4886V24.5043C92.0453 24.4924 91.9695 24.4794 91.8606 24.4652C91.7517 24.4486 91.6428 24.4403 91.5339 24.4403C91.283 24.4403 91.0592 24.4936 90.8627 24.6001C90.6686 24.7043 90.5147 24.8499 90.4011 25.0369C90.2875 25.2216 90.2306 25.4323 90.2306 25.669V29H89.1689ZM94.5453 29.1207C94.1996 29.1207 93.8871 29.0568 93.6078 28.929C93.3284 28.7988 93.1071 28.6106 92.9437 28.3643C92.7827 28.1181 92.7022 27.8163 92.7022 27.4588C92.7022 27.151 92.7614 26.8977 92.8798 26.6989C92.9982 26.5 93.158 26.3426 93.3592 26.2266C93.5604 26.1106 93.7853 26.023 94.0339 25.9638C94.2825 25.9046 94.5358 25.8596 94.7939 25.8288C95.1206 25.791 95.3857 25.7602 95.5893 25.7365C95.7929 25.7105 95.9409 25.669 96.0332 25.6122C96.1255 25.5554 96.1717 25.4631 96.1717 25.3352V25.3104C96.1717 25.0002 96.0841 24.7599 95.9089 24.5895C95.7361 24.419 95.478 24.3338 95.1348 24.3338C94.7773 24.3338 94.4956 24.4131 94.2896 24.5717C94.086 24.728 93.9451 24.902 93.867 25.0938L92.8691 24.8665C92.9875 24.535 93.1603 24.2675 93.3876 24.0639C93.6172 23.858 93.8812 23.7088 94.1795 23.6165C94.4778 23.5218 94.7915 23.4744 95.1206 23.4744C95.3384 23.4744 95.5692 23.5005 95.813 23.5526C96.0592 23.6023 96.2889 23.6946 96.502 23.8295C96.7174 23.9645 96.8938 24.1574 97.0311 24.4084C97.1684 24.657 97.237 24.9801 97.237 25.3778V29H96.2001V28.2543H96.1575C96.0888 28.3916 95.9859 28.5265 95.8485 28.6591C95.7112 28.7917 95.5349 28.9018 95.3194 28.9893C95.104 29.0769 94.8459 29.1207 94.5453 29.1207ZM94.7761 28.2685C95.0697 28.2685 95.3206 28.2105 95.5289 28.0945C95.7396 27.9785 95.8994 27.8269 96.0083 27.6399C96.1196 27.4505 96.1752 27.2481 96.1752 27.0327V26.3295C96.1374 26.3674 96.064 26.4029 95.9551 26.4361C95.8485 26.4669 95.7266 26.4941 95.5893 26.5178C95.452 26.5391 95.3182 26.5592 95.188 26.5781C95.0578 26.5947 94.9489 26.6089 94.8613 26.6207C94.6554 26.6468 94.4672 26.6906 94.2967 26.7521C94.1286 26.8137 93.9937 26.9025 93.8919 27.0185C93.7924 27.1321 93.7427 27.2836 93.7427 27.473C93.7427 27.7358 93.8398 27.9347 94.0339 28.0696C94.228 28.2022 94.4754 28.2685 94.7761 28.2685ZM99.7131 25.7614V29H98.6513V23.5455H99.6705V24.4332H99.7379C99.8634 24.1444 100.06 23.9124 100.327 23.7372C100.597 23.562 100.937 23.4744 101.347 23.4744C101.718 23.4744 102.044 23.5526 102.323 23.7088C102.603 23.8627 102.819 24.0923 102.973 24.3977C103.127 24.7031 103.204 25.0807 103.204 25.5305V29H102.142V25.6584C102.142 25.263 102.039 24.9541 101.833 24.7315C101.627 24.5066 101.344 24.3942 100.984 24.3942C100.738 24.3942 100.519 24.4474 100.327 24.554C100.138 24.6605 99.9877 24.8168 99.8764 25.0227C99.7675 25.2263 99.7131 25.4725 99.7131 25.7614ZM108.715 24.8771L107.753 25.0476C107.713 24.9245 107.649 24.8073 107.561 24.696C107.476 24.5848 107.36 24.4936 107.213 24.4226C107.066 24.3516 106.883 24.3161 106.663 24.3161C106.362 24.3161 106.111 24.3835 105.91 24.5185C105.709 24.651 105.608 24.8227 105.608 25.0334C105.608 25.2157 105.675 25.3625 105.81 25.4737C105.945 25.585 106.163 25.6761 106.464 25.7472L107.33 25.946C107.832 26.062 108.206 26.2408 108.452 26.4822C108.699 26.7237 108.822 27.0374 108.822 27.4233C108.822 27.75 108.727 28.0412 108.538 28.2969C108.351 28.5502 108.089 28.7491 107.753 28.8935C107.419 29.0379 107.032 29.1101 106.592 29.1101C105.981 29.1101 105.482 28.9799 105.097 28.7195C104.711 28.4567 104.474 28.0838 104.386 27.6009L105.413 27.4446C105.477 27.7121 105.608 27.9145 105.807 28.0518C106.006 28.1868 106.265 28.2543 106.585 28.2543C106.933 28.2543 107.211 28.1821 107.419 28.0376C107.627 27.8909 107.732 27.7121 107.732 27.5014C107.732 27.331 107.668 27.1877 107.54 27.0717C107.414 26.9557 107.221 26.8681 106.961 26.8089L106.038 26.6065C105.529 26.4905 105.152 26.3059 104.908 26.0526C104.667 25.7992 104.546 25.4785 104.546 25.0902C104.546 24.7682 104.636 24.4865 104.816 24.245C104.996 24.0036 105.245 23.8153 105.562 23.6804C105.879 23.5431 106.242 23.4744 106.652 23.4744C107.241 23.4744 107.705 23.6023 108.044 23.858C108.383 24.1113 108.606 24.451 108.715 24.8771ZM112.585 23.5455V24.3977H109.503V23.5455H112.585ZM110.348 29V22.9134C110.348 22.5724 110.422 22.2895 110.572 22.0646C110.721 21.8374 110.918 21.6681 111.165 21.5568C111.411 21.4432 111.678 21.3864 111.967 21.3864C112.18 21.3864 112.363 21.4041 112.514 21.4396C112.666 21.4728 112.778 21.5036 112.851 21.532L112.603 22.3913C112.553 22.3771 112.489 22.3606 112.411 22.3416C112.333 22.3203 112.238 22.3097 112.127 22.3097C111.869 22.3097 111.684 22.3736 111.573 22.5014C111.464 22.6293 111.41 22.8139 111.41 23.0554V29H110.348ZM115.817 29.1101C115.279 29.1101 114.816 28.9953 114.428 28.7656C114.042 28.5336 113.744 28.2081 113.533 27.7891C113.325 27.3677 113.221 26.8741 113.221 26.3082C113.221 25.7495 113.325 25.2571 113.533 24.831C113.744 24.4048 114.037 24.0722 114.414 23.8331C114.793 23.594 115.235 23.4744 115.742 23.4744C116.05 23.4744 116.348 23.5253 116.637 23.6271C116.926 23.7289 117.185 23.8887 117.415 24.1065C117.644 24.3243 117.825 24.6072 117.958 24.9553C118.09 25.3009 118.157 25.7211 118.157 26.2159V26.5923H113.821V25.7969H117.116C117.116 25.5175 117.059 25.2701 116.946 25.0547C116.832 24.8369 116.672 24.6652 116.466 24.5398C116.263 24.4143 116.024 24.3516 115.749 24.3516C115.451 24.3516 115.19 24.425 114.968 24.5717C114.748 24.7161 114.577 24.9055 114.456 25.1399C114.338 25.3719 114.279 25.6241 114.279 25.8963V26.5178C114.279 26.8823 114.343 27.1925 114.471 27.4482C114.601 27.7038 114.782 27.8991 115.014 28.0341C115.246 28.1667 115.517 28.233 115.827 28.233C116.028 28.233 116.212 28.2045 116.378 28.1477C116.543 28.0885 116.687 28.0009 116.807 27.8849C116.928 27.7689 117.02 27.6257 117.084 27.4553L118.089 27.6364C118.009 27.9323 117.864 28.1915 117.656 28.4141C117.45 28.6342 117.191 28.8059 116.878 28.929C116.568 29.0497 116.214 29.1101 115.817 29.1101ZM119.335 29V23.5455H120.361V24.4119H120.418C120.517 24.1184 120.693 23.8875 120.944 23.7195C121.197 23.549 121.483 23.4638 121.803 23.4638C121.869 23.4638 121.947 23.4661 122.037 23.4709C122.13 23.4756 122.202 23.4815 122.254 23.4886V24.5043C122.211 24.4924 122.136 24.4794 122.027 24.4652C121.918 24.4486 121.809 24.4403 121.7 24.4403C121.449 24.4403 121.225 24.4936 121.029 24.6001C120.835 24.7043 120.681 24.8499 120.567 25.0369C120.453 25.2216 120.397 25.4323 120.397 25.669V29H119.335Z"/><rect width="69" height="18" x="215" y="16" fill="#F1FEF8" rx="9"/><rect width="2" height="9" x="223" y="20.5" fill="#93E9C1" rx="1"/><path fill="#339969" d="M235.156 23.5831H234.158C234.12 23.37 234.049 23.1825 233.944 23.0206C233.84 22.8587 233.712 22.7212 233.561 22.6083C233.409 22.4954 233.24 22.4102 233.053 22.3526C232.867 22.2951 232.67 22.2663 232.461 22.2663C232.084 22.2663 231.746 22.3612 231.448 22.5508C231.152 22.7404 230.918 23.0185 230.745 23.3849C230.575 23.7514 230.489 24.1989 230.489 24.7273C230.489 25.2599 230.575 25.7095 230.745 26.076C230.918 26.4425 231.153 26.7195 231.451 26.907C231.75 27.0945 232.085 27.1882 232.458 27.1882C232.665 27.1882 232.861 27.1605 233.046 27.1051C233.234 27.0476 233.403 26.9634 233.554 26.8526C233.706 26.7418 233.833 26.6065 233.938 26.4467C234.044 26.2848 234.118 26.0994 234.158 25.8906L235.156 25.8938C235.102 26.2156 234.999 26.5117 234.846 26.7823C234.694 27.0508 234.499 27.283 234.261 27.479C234.024 27.6729 233.754 27.8232 233.449 27.9297C233.144 28.0362 232.812 28.0895 232.452 28.0895C231.885 28.0895 231.38 27.9553 230.937 27.6868C230.494 27.4162 230.144 27.0295 229.888 26.5266C229.635 26.0238 229.508 25.424 229.508 24.7273C229.508 24.0284 229.636 23.4286 229.892 22.9279C230.147 22.4251 230.497 22.0394 230.94 21.771C231.383 21.5004 231.887 21.3651 232.452 21.3651C232.799 21.3651 233.123 21.4151 233.423 21.5153C233.726 21.6133 233.998 21.7582 234.238 21.9499C234.479 22.1396 234.678 22.3718 234.836 22.6467C234.994 22.9194 235.1 23.2315 235.156 23.5831ZM238.238 28.0991C237.778 28.0991 237.377 27.9936 237.033 27.7827C236.69 27.5717 236.424 27.2766 236.234 26.8974C236.045 26.5181 235.95 26.0749 235.95 25.5678C235.95 25.0586 236.045 24.6133 236.234 24.2319C236.424 23.8505 236.69 23.5543 237.033 23.3434C237.377 23.1325 237.778 23.027 238.238 23.027C238.699 23.027 239.1 23.1325 239.443 23.3434C239.786 23.5543 240.053 23.8505 240.242 24.2319C240.432 24.6133 240.527 25.0586 240.527 25.5678C240.527 26.0749 240.432 26.5181 240.242 26.8974C240.053 27.2766 239.786 27.5717 239.443 27.7827C239.1 27.9936 238.699 28.0991 238.238 28.0991ZM238.242 27.2969C238.54 27.2969 238.787 27.218 238.983 27.0604C239.179 26.9027 239.324 26.6928 239.418 26.4308C239.514 26.1687 239.562 25.88 239.562 25.5646C239.562 25.2514 239.514 24.9638 239.418 24.7017C239.324 24.4375 239.179 24.2255 238.983 24.0657C238.787 23.9059 238.54 23.826 238.242 23.826C237.941 23.826 237.692 23.9059 237.494 24.0657C237.298 24.2255 237.152 24.4375 237.056 24.7017C236.962 24.9638 236.915 25.2514 236.915 25.5646C236.915 25.88 236.962 26.1687 237.056 26.4308C237.152 26.6928 237.298 26.9027 237.494 27.0604C237.692 27.218 237.941 27.2969 238.242 27.2969ZM241.503 28V23.0909H242.421V23.8899H242.481C242.584 23.6193 242.751 23.4084 242.983 23.2571C243.215 23.1037 243.493 23.027 243.817 23.027C244.145 23.027 244.42 23.1037 244.642 23.2571C244.866 23.4105 245.031 23.6214 245.137 23.8899H245.188C245.306 23.6278 245.492 23.419 245.748 23.2635C246.003 23.1058 246.308 23.027 246.662 23.027C247.107 23.027 247.47 23.1665 247.752 23.4457C248.035 23.7248 248.177 24.1456 248.177 24.7081V28H247.221V24.7976C247.221 24.4652 247.131 24.2244 246.949 24.0753C246.768 23.9261 246.552 23.8516 246.301 23.8516C245.99 23.8516 245.748 23.9474 245.575 24.1392C245.403 24.3288 245.316 24.5728 245.316 24.8711V28H244.364V24.7369C244.364 24.4705 244.281 24.2564 244.115 24.0945C243.948 23.9325 243.732 23.8516 243.466 23.8516C243.285 23.8516 243.117 23.8995 242.964 23.9954C242.813 24.0891 242.69 24.2202 242.596 24.3885C242.505 24.5568 242.459 24.7518 242.459 24.9734V28H241.503ZM249.368 29.8409V23.0909H250.301V23.8867H250.381C250.436 23.7844 250.516 23.6662 250.62 23.532C250.725 23.3977 250.87 23.2805 251.055 23.1804C251.24 23.0781 251.485 23.027 251.79 23.027C252.186 23.027 252.54 23.1271 252.851 23.3274C253.162 23.5277 253.406 23.8164 253.583 24.1935C253.762 24.5707 253.852 25.0245 253.852 25.555C253.852 26.0856 253.763 26.5405 253.586 26.9197C253.409 27.2969 253.167 27.5877 252.858 27.7923C252.549 27.9947 252.196 28.0959 251.8 28.0959C251.501 28.0959 251.257 28.0458 251.068 27.9457C250.88 27.8455 250.733 27.7283 250.627 27.5941C250.52 27.4599 250.438 27.3406 250.381 27.2362H250.323V29.8409H249.368ZM250.304 25.5455C250.304 25.8906 250.354 26.1932 250.454 26.4531C250.554 26.7131 250.699 26.9165 250.889 27.0636C251.078 27.2085 251.311 27.2809 251.586 27.2809C251.871 27.2809 252.11 27.2053 252.301 27.054C252.493 26.9006 252.638 26.6928 252.736 26.4308C252.836 26.1687 252.886 25.8736 252.886 25.5455C252.886 25.2216 252.837 24.9308 252.739 24.6729C252.643 24.4151 252.499 24.2116 252.305 24.0625C252.113 23.9134 251.873 23.8388 251.586 23.8388C251.309 23.8388 251.074 23.9102 250.882 24.0529C250.693 24.1957 250.549 24.3949 250.451 24.6506C250.353 24.9062 250.304 25.2045 250.304 25.5455ZM255.788 21.4545V28H254.832V21.4545H255.788ZM259.099 28.0991C258.616 28.0991 258.199 27.9957 257.85 27.7891C257.502 27.5803 257.234 27.2873 257.044 26.9102C256.857 26.5309 256.763 26.0866 256.763 25.5774C256.763 25.0746 256.857 24.6314 257.044 24.2479C257.234 23.8643 257.498 23.565 257.837 23.3498C258.178 23.1346 258.576 23.027 259.032 23.027C259.309 23.027 259.578 23.0728 259.837 23.1644C260.097 23.256 260.331 23.3999 260.537 23.5959C260.744 23.7919 260.907 24.0465 261.026 24.3597C261.146 24.6708 261.205 25.049 261.205 25.4943V25.8331H257.303V25.1172H260.269C260.269 24.8658 260.218 24.6431 260.116 24.4492C260.013 24.2532 259.869 24.0987 259.684 23.9858C259.501 23.8729 259.286 23.8164 259.038 23.8164C258.77 23.8164 258.536 23.8825 258.335 24.0146C258.137 24.1445 257.984 24.315 257.875 24.5259C257.769 24.7347 257.715 24.9616 257.715 25.2067V25.766C257.715 26.0941 257.773 26.3732 257.888 26.6033C258.005 26.8335 258.168 27.0092 258.377 27.1307C258.586 27.25 258.83 27.3097 259.109 27.3097C259.29 27.3097 259.455 27.2841 259.604 27.233C259.753 27.1797 259.882 27.1009 259.991 26.9964C260.1 26.892 260.183 26.7631 260.24 26.6097L261.145 26.7727C261.072 27.0391 260.942 27.2724 260.755 27.4727C260.569 27.6708 260.336 27.8253 260.055 27.9361C259.776 28.0447 259.457 28.0991 259.099 28.0991ZM264.467 23.0909V23.858H261.786V23.0909H264.467ZM262.505 21.9148H263.46V26.5586C263.46 26.744 263.488 26.8835 263.544 26.9773C263.599 27.0689 263.67 27.1317 263.758 27.1658C263.847 27.1978 263.944 27.2138 264.049 27.2138C264.125 27.2138 264.192 27.2085 264.25 27.1978C264.307 27.1871 264.352 27.1786 264.384 27.1722L264.557 27.9616C264.501 27.983 264.422 28.0043 264.32 28.0256C264.218 28.049 264.09 28.0618 263.937 28.0639C263.685 28.0682 263.451 28.0234 263.234 27.9297C263.016 27.8359 262.84 27.6911 262.706 27.495C262.572 27.299 262.505 27.0529 262.505 26.7567V21.9148ZM267.497 28.0991C267.014 28.0991 266.597 27.9957 266.248 27.7891C265.9 27.5803 265.632 27.2873 265.442 26.9102C265.255 26.5309 265.161 26.0866 265.161 25.5774C265.161 25.0746 265.255 24.6314 265.442 24.2479C265.632 23.8643 265.896 23.565 266.235 23.3498C266.576 23.1346 266.974 23.027 267.43 23.027C267.707 23.027 267.976 23.0728 268.236 23.1644C268.496 23.256 268.729 23.3999 268.936 23.5959C269.142 23.7919 269.305 24.0465 269.425 24.3597C269.544 24.6708 269.603 25.049 269.603 25.4943V25.8331H265.701V25.1172H268.667C268.667 24.8658 268.616 24.6431 268.514 24.4492C268.411 24.2532 268.268 24.0987 268.082 23.9858C267.899 23.8729 267.684 23.8164 267.437 23.8164C267.168 23.8164 266.934 23.8825 266.733 24.0146C266.535 24.1445 266.382 24.315 266.273 24.5259C266.167 24.7347 266.113 24.9616 266.113 25.2067V25.766C266.113 26.0941 266.171 26.3732 266.286 26.6033C266.403 26.8335 266.566 27.0092 266.775 27.1307C266.984 27.25 267.228 27.3097 267.507 27.3097C267.688 27.3097 267.853 27.2841 268.002 27.233C268.151 27.1797 268.28 27.1009 268.389 26.9964C268.498 26.892 268.581 26.7631 268.638 26.6097L269.543 26.7727C269.47 27.0391 269.34 27.2724 269.153 27.4727C268.967 27.6708 268.734 27.8253 268.453 27.9361C268.174 28.0447 267.855 28.0991 267.497 28.0991ZM272.411 28.0959C272.015 28.0959 271.661 27.9947 271.35 27.7923C271.041 27.5877 270.799 27.2969 270.622 26.9197C270.447 26.5405 270.36 26.0856 270.36 25.555C270.36 25.0245 270.448 24.5707 270.625 24.1935C270.804 23.8164 271.049 23.5277 271.36 23.3274C271.671 23.1271 272.024 23.027 272.418 23.027C272.723 23.027 272.968 23.0781 273.153 23.1804C273.34 23.2805 273.485 23.3977 273.588 23.532C273.692 23.6662 273.773 23.7844 273.831 23.8867H273.888V21.4545H274.844V28H273.91V27.2362H273.831C273.773 27.3406 273.69 27.4599 273.581 27.5941C273.475 27.7283 273.328 27.8455 273.14 27.9457C272.953 28.0458 272.71 28.0959 272.411 28.0959ZM272.622 27.2809C272.897 27.2809 273.13 27.2085 273.319 27.0636C273.511 26.9165 273.656 26.7131 273.754 26.4531C273.854 26.1932 273.904 25.8906 273.904 25.5455C273.904 25.2045 273.855 24.9062 273.757 24.6506C273.659 24.3949 273.515 24.1957 273.326 24.0529C273.136 23.9102 272.902 23.8388 272.622 23.8388C272.335 23.8388 272.095 23.9134 271.903 24.0625C271.712 24.2116 271.567 24.4151 271.469 24.6729C271.373 24.9308 271.325 25.2216 271.325 25.5455C271.325 25.8736 271.374 26.1687 271.472 26.4308C271.57 26.6928 271.715 26.9006 271.907 27.054C272.1 27.2053 272.339 27.2809 272.622 27.2809Z"/><path fill="#1A1A21" d="M21.076 62.8182H22.6072V70.0369C22.6072 70.6899 22.478 71.2483 22.2195 71.7124C21.9643 72.1764 21.6046 72.531 21.1406 72.7763C20.6766 73.0182 20.133 73.1392 19.5099 73.1392C18.9366 73.1392 18.4212 73.0348 17.9638 72.826C17.5097 72.6172 17.1501 72.3139 16.8849 71.9162C16.6231 71.5152 16.4922 71.0279 16.4922 70.4545H18.0185C18.0185 70.7363 18.0831 70.9799 18.2124 71.1854C18.3449 71.3909 18.5256 71.5516 18.7543 71.6676C18.9863 71.7803 19.2514 71.8366 19.5497 71.8366C19.8745 71.8366 20.1496 71.7687 20.375 71.6328C20.6037 71.4936 20.7777 71.2898 20.897 71.0213C21.0163 70.7528 21.076 70.4247 21.076 70.0369V62.8182ZM26.8062 73.169C26.3223 73.169 25.8848 73.0795 25.4937 72.9006C25.1026 72.7183 24.7927 72.4548 24.564 72.1101C24.3386 71.7654 24.2259 71.3428 24.2259 70.8423C24.2259 70.4115 24.3088 70.0568 24.4745 69.7784C24.6402 69.5 24.864 69.2796 25.1457 69.1172C25.4274 68.9548 25.7423 68.8321 26.0903 68.7493C26.4383 68.6664 26.7929 68.6035 27.1542 68.5604C27.6116 68.5073 27.9828 68.4643 28.2678 68.4311C28.5529 68.3946 28.76 68.3366 28.8893 68.2571C29.0186 68.1776 29.0832 68.0483 29.0832 67.8693V67.8345C29.0832 67.4003 28.9606 67.0639 28.7153 66.8253C28.4733 66.5866 28.1121 66.4673 27.6315 66.4673C27.131 66.4673 26.7366 66.5784 26.4482 66.8004C26.1632 67.0192 25.966 67.2628 25.8566 67.5312L24.4596 67.2131C24.6253 66.7491 24.8673 66.3745 25.1855 66.0895C25.507 65.8011 25.8765 65.5923 26.2941 65.4631C26.7117 65.3305 27.1509 65.2642 27.6116 65.2642C27.9165 65.2642 28.2397 65.3007 28.5811 65.3736C28.9258 65.4432 29.2473 65.5724 29.5455 65.7614C29.8472 65.9503 30.0941 66.2204 30.2863 66.5717C30.4785 66.9197 30.5747 67.3722 30.5747 67.929V73H29.123V71.956H29.0633C28.9672 72.1482 28.823 72.3371 28.6308 72.5227C28.4385 72.7083 28.1916 72.8625 27.89 72.9851C27.5884 73.1077 27.2271 73.169 26.8062 73.169ZM27.1294 71.9759C27.5403 71.9759 27.8917 71.8946 28.1833 71.7322C28.4783 71.5698 28.702 71.3577 28.8545 71.0959C29.0103 70.8307 29.0882 70.5473 29.0882 70.2457V69.2614C29.0351 69.3144 28.9324 69.3641 28.7799 69.4105C28.6308 69.4536 28.4601 69.4917 28.2678 69.5249C28.0756 69.5547 27.8884 69.5829 27.7061 69.6094C27.5238 69.6326 27.3713 69.6525 27.2487 69.669C26.9603 69.7055 26.6968 69.7668 26.4582 69.853C26.2229 69.9392 26.0339 70.0634 25.8914 70.2259C25.7522 70.3849 25.6826 70.5971 25.6826 70.8622C25.6826 71.2301 25.8185 71.5085 26.0903 71.6974C26.3621 71.883 26.7084 71.9759 27.1294 71.9759ZM33.9011 68.4659V73H32.4146V65.3636H33.8414V66.6065H33.9359C34.1116 66.2022 34.3867 65.8774 34.7612 65.6321C35.139 65.3868 35.6146 65.2642 36.188 65.2642C36.7084 65.2642 37.1641 65.3736 37.5552 65.5923C37.9463 65.8078 38.2496 66.1293 38.465 66.5568C38.6805 66.9844 38.7882 67.513 38.7882 68.1428V73H37.3017V68.3217C37.3017 67.7682 37.1575 67.3357 36.8691 67.0241C36.5808 66.7093 36.1847 66.5518 35.6809 66.5518C35.3362 66.5518 35.0297 66.6264 34.7612 66.7756C34.496 66.9247 34.2856 67.1435 34.1298 67.4318C33.9773 67.7169 33.9011 68.0616 33.9011 68.4659ZM43.933 73.1541C43.1806 73.1541 42.5327 72.9934 41.9891 72.6719C41.4488 72.3471 41.0312 71.8913 40.7362 71.3047C40.4446 70.7147 40.2987 70.0237 40.2987 69.2315C40.2987 68.4493 40.4446 67.7599 40.7362 67.1634C41.0312 66.5668 41.4422 66.1011 41.9692 65.7663C42.4995 65.4316 43.1193 65.2642 43.8286 65.2642C44.2595 65.2642 44.6771 65.3355 45.0814 65.478C45.4858 65.6205 45.8487 65.8442 46.1702 66.1491C46.4917 66.4541 46.7452 66.8501 46.9309 67.3374C47.1165 67.8213 47.2093 68.4096 47.2093 69.1023V69.6293H41.1389V68.5156H45.7526C45.7526 68.1245 45.673 67.7782 45.5139 67.4766C45.3549 67.1716 45.1311 66.9313 44.8428 66.7557C44.5577 66.58 44.223 66.4922 43.8385 66.4922C43.4209 66.4922 43.0563 66.5949 42.7448 66.8004C42.4365 67.0026 42.1979 67.2678 42.0289 67.5959C41.8631 67.9207 41.7803 68.2737 41.7803 68.6548V69.5249C41.7803 70.0353 41.8698 70.4695 42.0487 70.8274C42.231 71.1854 42.4846 71.4588 42.8094 71.6477C43.1342 71.8333 43.5137 71.9261 43.9479 71.9261C44.2296 71.9261 44.4865 71.8864 44.7185 71.8068C44.9505 71.724 45.151 71.6013 45.3201 71.4389C45.4891 71.2765 45.6184 71.076 45.7078 70.8374L47.1148 71.0909C47.0021 71.5052 46.7999 71.8681 46.5083 72.1797C46.2199 72.4879 45.857 72.7282 45.4195 72.9006C44.9853 73.0696 44.4898 73.1541 43.933 73.1541ZM52.2832 65.3636V66.5568H48.1121V65.3636H52.2832ZM49.2307 63.5341H50.7172V70.7578C50.7172 71.0462 50.7603 71.2633 50.8464 71.4091C50.9326 71.5516 51.0436 71.6494 51.1795 71.7024C51.3187 71.7521 51.4695 71.777 51.6319 71.777C51.7513 71.777 51.8557 71.7687 51.9451 71.7521C52.0346 71.7356 52.1042 71.7223 52.154 71.7124L52.4224 72.9403C52.3362 72.9735 52.2136 73.0066 52.0545 73.0398C51.8954 73.0762 51.6966 73.0961 51.4579 73.0994C51.0668 73.1061 50.7023 73.0365 50.3642 72.8906C50.0261 72.7448 49.7527 72.5194 49.5439 72.2145C49.3351 71.9096 49.2307 71.5268 49.2307 71.0661V63.5341ZM55.4381 68.4659V73H53.9516V62.8182H55.4183V66.6065H55.5127C55.6917 66.1955 55.9651 65.8691 56.333 65.6271C56.7009 65.3852 57.1815 65.2642 57.7748 65.2642C58.2985 65.2642 58.7558 65.3719 59.1469 65.5874C59.5414 65.8028 59.8463 66.1243 60.0617 66.5518C60.2805 66.9761 60.3898 67.5064 60.3898 68.1428V73H58.9033V68.3217C58.9033 67.7616 58.7592 67.3274 58.4708 67.0192C58.1825 66.7076 57.7814 66.5518 57.2677 66.5518C56.9164 66.5518 56.6015 66.6264 56.3231 66.7756C56.048 66.9247 55.8309 67.1435 55.6718 67.4318C55.516 67.7169 55.4381 68.0616 55.4381 68.4659ZM66.778 73H65.1473L68.8114 62.8182H70.5862L74.2503 73H72.6196L69.7411 64.6676H69.6615L66.778 73ZM67.0514 69.0128H72.3412V70.3054H67.0514V69.0128ZM80.2987 69.8331V65.3636H81.7902V73H80.3285V71.6776H80.249C80.0733 72.0852 79.7916 72.425 79.4038 72.6967C79.0193 72.9652 78.5404 73.0994 77.967 73.0994C77.4765 73.0994 77.0423 72.9917 76.6644 72.7763C76.2899 72.5575 75.9949 72.2344 75.7795 71.8068C75.5674 71.3793 75.4613 70.8506 75.4613 70.2209V65.3636H76.9478V70.0419C76.9478 70.5623 77.092 70.9766 77.3804 71.2848C77.6687 71.593 78.0432 71.7472 78.5039 71.7472C78.7823 71.7472 79.0591 71.6776 79.3342 71.5384C79.6126 71.3991 79.843 71.1887 80.0252 70.907C80.2108 70.6252 80.302 70.2673 80.2987 69.8331ZM87.2121 65.3636V66.5568H83.041V65.3636H87.2121ZM84.1596 63.5341H85.6461V70.7578C85.6461 71.0462 85.6892 71.2633 85.7753 71.4091C85.8615 71.5516 85.9725 71.6494 86.1084 71.7024C86.2476 71.7521 86.3984 71.777 86.5608 71.777C86.6802 71.777 86.7846 71.7687 86.8741 71.7521C86.9635 71.7356 87.0331 71.7223 87.0829 71.7124L87.3513 72.9403C87.2652 72.9735 87.1425 73.0066 86.9834 73.0398C86.8243 73.0762 86.6255 73.0961 86.3868 73.0994C85.9957 73.1061 85.6312 73.0365 85.2931 72.8906C84.955 72.7448 84.6816 72.5194 84.4728 72.2145C84.264 71.9096 84.1596 71.5268 84.1596 71.0661V63.5341ZM94.3157 67.228L92.9684 67.4666C92.9121 67.2943 92.8226 67.1302 92.7 66.9744C92.5806 66.8187 92.4182 66.6911 92.2127 66.5916C92.0073 66.4922 91.7504 66.4425 91.4422 66.4425C91.0212 66.4425 90.6699 66.5369 90.3882 66.7259C90.1064 66.9115 89.9656 67.1518 89.9656 67.4467C89.9656 67.7019 90.06 67.9074 90.249 68.0632C90.4379 68.219 90.7428 68.3466 91.1637 68.446L92.3768 68.7244C93.0795 68.8868 93.6031 69.1371 93.9478 69.4751C94.2925 69.8132 94.4649 70.2524 94.4649 70.7926C94.4649 71.25 94.3323 71.6577 94.0672 72.0156C93.8053 72.3703 93.4391 72.6487 92.9684 72.8509C92.5011 73.053 91.9592 73.1541 91.3427 73.1541C90.4876 73.1541 89.7899 72.9718 89.2497 72.6072C88.7094 72.2393 88.378 71.7173 88.2554 71.0412L89.6922 70.8224C89.7816 71.197 89.9656 71.4804 90.244 71.6726C90.5224 71.8615 90.8853 71.956 91.3328 71.956C91.82 71.956 92.2094 71.8549 92.5011 71.6527C92.7928 71.4472 92.9386 71.197 92.9386 70.902C92.9386 70.6634 92.8491 70.4628 92.6701 70.3004C92.4945 70.138 92.2243 70.0154 91.8598 69.9325L90.5672 69.6491C89.8546 69.4867 89.3276 69.2282 88.9862 68.8736C88.6481 68.5189 88.4791 68.0698 88.4791 67.5263C88.4791 67.0755 88.605 66.6811 88.8569 66.343C89.1088 66.005 89.4568 65.7415 89.901 65.5526C90.3451 65.3603 90.8538 65.2642 91.4272 65.2642C92.2525 65.2642 92.9021 65.4432 93.3761 65.8011C93.8501 66.1558 94.1633 66.6314 94.3157 67.228ZM100.797 69.8331V65.3636H102.288V73H100.826V71.6776H100.747C100.571 72.0852 100.29 72.425 99.9018 72.6967C99.5173 72.9652 99.0384 73.0994 98.465 73.0994C97.9744 73.0994 97.5403 72.9917 97.1624 72.7763C96.7879 72.5575 96.4929 72.2344 96.2775 71.8068C96.0653 71.3793 95.9593 70.8506 95.9593 70.2209V65.3636H97.4458V70.0419C97.4458 70.5623 97.59 70.9766 97.8783 71.2848C98.1667 71.593 98.5412 71.7472 99.0019 71.7472C99.2803 71.7472 99.5571 71.6776 99.8322 71.5384C100.111 71.3991 100.341 71.1887 100.523 70.907C100.709 70.6252 100.8 70.2673 100.797 69.8331ZM104.145 73V65.3636H105.632V73H104.145ZM104.896 64.1854C104.638 64.1854 104.416 64.0992 104.23 63.9268C104.048 63.7512 103.957 63.5424 103.957 63.3004C103.957 63.0552 104.048 62.8464 104.23 62.674C104.416 62.4983 104.638 62.4105 104.896 62.4105C105.155 62.4105 105.375 62.4983 105.557 62.674C105.743 62.8464 105.836 63.0552 105.836 63.3004C105.836 63.5424 105.743 63.7512 105.557 63.9268C105.375 64.0992 105.155 64.1854 104.896 64.1854ZM107.611 73V62.8182H109.098V66.6016H109.187C109.273 66.4425 109.398 66.2585 109.56 66.0497C109.722 65.8409 109.948 65.6586 110.236 65.5028C110.524 65.3438 110.906 65.2642 111.38 65.2642C111.996 65.2642 112.546 65.42 113.03 65.7315C113.514 66.0431 113.894 66.4922 114.169 67.0788C114.447 67.6655 114.586 68.3714 114.586 69.1967C114.586 70.022 114.449 70.7296 114.174 71.3196C113.899 71.9062 113.521 72.3587 113.04 72.6768C112.559 72.9917 112.011 73.1491 111.394 73.1491C110.93 73.1491 110.551 73.0713 110.256 72.9155C109.964 72.7597 109.736 72.5774 109.57 72.3686C109.404 72.1598 109.277 71.9742 109.187 71.8118H109.063V73H107.611ZM109.068 69.1818C109.068 69.7187 109.146 70.1894 109.301 70.5938C109.457 70.9981 109.683 71.3146 109.978 71.5433C110.273 71.7687 110.634 71.8814 111.061 71.8814C111.506 71.8814 111.877 71.7637 112.175 71.5284C112.473 71.2898 112.699 70.9666 112.851 70.5589C113.007 70.1513 113.085 69.6922 113.085 69.1818C113.085 68.678 113.009 68.2256 112.856 67.8246C112.707 67.4235 112.482 67.107 112.18 66.875C111.882 66.643 111.509 66.527 111.061 66.527C110.631 66.527 110.266 66.638 109.968 66.8601C109.673 67.0821 109.449 67.392 109.296 67.7898C109.144 68.1875 109.068 68.6515 109.068 69.1818ZM118.338 73.169C117.854 73.169 117.416 73.0795 117.025 72.9006C116.634 72.7183 116.324 72.4548 116.096 72.1101C115.87 71.7654 115.758 71.3428 115.758 70.8423C115.758 70.4115 115.84 70.0568 116.006 69.7784C116.172 69.5 116.396 69.2796 116.677 69.1172C116.959 68.9548 117.274 68.8321 117.622 68.7493C117.97 68.6664 118.325 68.6035 118.686 68.5604C119.143 68.5073 119.514 68.4643 119.799 68.4311C120.084 68.3946 120.292 68.3366 120.421 68.2571C120.55 68.1776 120.615 68.0483 120.615 67.8693V67.8345C120.615 67.4003 120.492 67.0639 120.247 66.8253C120.005 66.5866 119.644 66.4673 119.163 66.4673C118.663 66.4673 118.268 66.5784 117.98 66.8004C117.695 67.0192 117.498 67.2628 117.388 67.5312L115.991 67.2131C116.157 66.7491 116.399 66.3745 116.717 66.0895C117.039 65.8011 117.408 65.5923 117.826 65.4631C118.243 65.3305 118.682 65.2642 119.143 65.2642C119.448 65.2642 119.771 65.3007 120.113 65.3736C120.457 65.4432 120.779 65.5724 121.077 65.7614C121.379 65.9503 121.626 66.2204 121.818 66.5717C122.01 66.9197 122.106 67.3722 122.106 67.929V73H120.655V71.956H120.595C120.499 72.1482 120.355 72.3371 120.162 72.5227C119.97 72.7083 119.723 72.8625 119.422 72.9851C119.12 73.1077 118.759 73.169 118.338 73.169ZM118.661 71.9759C119.072 71.9759 119.423 71.8946 119.715 71.7322C120.01 71.5698 120.234 71.3577 120.386 71.0959C120.542 70.8307 120.62 70.5473 120.62 70.2457V69.2614C120.567 69.3144 120.464 69.3641 120.311 69.4105C120.162 69.4536 119.992 69.4917 119.799 69.5249C119.607 69.5547 119.42 69.5829 119.238 69.6094C119.055 69.6326 118.903 69.6525 118.78 69.669C118.492 69.7055 118.228 69.7668 117.99 69.853C117.754 69.9392 117.566 70.0634 117.423 70.2259C117.284 70.3849 117.214 70.5971 117.214 70.8622C117.214 71.2301 117.35 71.5085 117.622 71.6974C117.894 71.883 118.24 71.9759 118.661 71.9759Z"/><path fill="#8C94A6" d="M217.068 73.4H215.668V72.084C213.61 71.832 212.7 70.67 212.7 69.088V68.85H214.184V69.004C214.184 70.166 214.674 70.754 216.634 70.754C218.02 70.754 218.524 70.376 218.524 69.508C218.524 68.654 218.244 68.346 216.802 68.052L215.206 67.73C213.596 67.422 212.728 66.638 212.728 65.154C212.728 63.88 213.638 62.69 215.668 62.508V61.22H217.068V62.536C219.042 62.816 219.854 64.132 219.854 65.602V65.77H218.37V65.616C218.37 64.468 217.866 63.866 216.186 63.866C214.8 63.866 214.24 64.258 214.24 65.084C214.24 65.938 214.618 66.176 215.906 66.456L217.502 66.792C219.266 67.156 220.036 68.038 220.036 69.452C220.036 70.824 219.112 71.972 217.068 72.126V73.4Z"/><path fill="#1A1A21" d="M227.352 73H225.624V64.84H223.368V63.608H223.784C224.792 63.608 225.384 63.24 225.832 62.28H227.352V73ZM233.654 73.16C230.87 73.16 229.43 71.928 229.43 69.96V69.864H231.142V69.96C231.142 71.16 231.942 71.576 233.718 71.576C235.606 71.576 236.23 71.048 236.23 69.544C236.23 68.104 235.542 67.544 233.734 67.544C232.422 67.544 231.654 67.912 231.126 68.216L229.606 67.976L229.974 62.28H237.366V63.832H231.494L231.238 66.952H231.286C231.846 66.488 232.854 66.056 234.262 66.056C236.55 66.056 237.942 67.336 237.942 69.496C237.942 71.72 236.614 73.16 233.654 73.16ZM244.324 73.16C241.444 73.16 239.7 71.032 239.7 67.64C239.7 64.248 241.444 62.12 244.324 62.12C247.204 62.12 248.964 64.248 248.964 67.64C248.964 71.032 247.204 73.16 244.324 73.16ZM244.324 71.496C246.228 71.496 247.124 70.472 247.124 67.64C247.124 64.808 246.228 63.784 244.324 63.784C242.42 63.784 241.54 64.808 241.54 67.64C241.54 70.472 242.42 71.496 244.324 71.496ZM251.084 74.888H250.508V73.752H251.036C251.308 73.752 251.452 73.688 251.452 73.336V73H250.476V70.52H252.668V73.304C252.668 74.376 252.092 74.888 251.084 74.888ZM262.191 73H254.287V71.928C254.287 69.896 255.663 68.968 257.167 68.2L258.815 67.352C259.967 66.744 260.431 66.264 260.431 65.352C260.431 64.36 260.063 63.704 258.287 63.704C256.335 63.704 255.935 64.344 255.935 65.816V66.04H254.207V65.784C254.207 63.784 255.455 62.12 258.415 62.12C261.055 62.12 262.159 63.512 262.159 65.288C262.159 67.048 260.959 67.992 259.583 68.696L258.015 69.496C256.927 70.056 256.095 70.568 256.095 71.448H262.191V73ZM272.023 73H264.119V71.928C264.119 69.896 265.495 68.968 266.999 68.2L268.647 67.352C269.799 66.744 270.263 66.264 270.263 65.352C270.263 64.36 269.895 63.704 268.119 63.704C266.167 63.704 265.767 64.344 265.767 65.816V66.04H264.039V65.784C264.039 63.784 265.287 62.12 268.247 62.12C270.887 62.12 271.991 63.512 271.991 65.288C271.991 67.048 270.791 67.992 269.415 68.696L267.847 69.496C266.759 70.056 265.927 70.568 265.927 71.448H272.023V73ZM278.417 73.16C275.537 73.16 273.793 71.032 273.793 67.64C273.793 64.248 275.537 62.12 278.417 62.12C281.297 62.12 283.057 64.248 283.057 67.64C283.057 71.032 281.297 73.16 278.417 73.16ZM278.417 71.496C280.321 71.496 281.217 70.472 281.217 67.64C281.217 64.808 280.321 63.784 278.417 63.784C276.513 63.784 275.633 64.808 275.633 67.64C275.633 70.472 276.513 71.496 278.417 71.496Z"/><path fill="#8C94A6" d="M24.2074 92.1108H22.8778C22.8267 91.8267 22.7315 91.5767 22.5923 91.3608C22.4531 91.1449 22.2827 90.9616 22.081 90.8111C21.8793 90.6605 21.6534 90.5469 21.4034 90.4702C21.1563 90.3935 20.8935 90.3551 20.6151 90.3551C20.1122 90.3551 19.6619 90.4815 19.2642 90.7344C18.8693 90.9872 18.5568 91.358 18.3267 91.8466C18.0994 92.3352 17.9858 92.9318 17.9858 93.6364C17.9858 94.3466 18.0994 94.946 18.3267 95.4347C18.5568 95.9233 18.8707 96.2926 19.2685 96.5426C19.6662 96.7926 20.1136 96.9176 20.6108 96.9176C20.8864 96.9176 21.1477 96.8807 21.3949 96.8068C21.6449 96.7301 21.8707 96.6179 22.0724 96.4702C22.2741 96.3224 22.4446 96.142 22.5838 95.929C22.7259 95.7131 22.8239 95.4659 22.8778 95.1875L24.2074 95.1918C24.1364 95.6207 23.9986 96.0156 23.794 96.3764C23.5923 96.7344 23.3324 97.044 23.0142 97.3054C22.6989 97.5639 22.3381 97.7642 21.9318 97.9062C21.5256 98.0483 21.0824 98.1193 20.6023 98.1193C19.8466 98.1193 19.1733 97.9403 18.5824 97.5824C17.9915 97.2216 17.5256 96.706 17.1847 96.0355C16.8466 95.3651 16.6776 94.5653 16.6776 93.6364C16.6776 92.7045 16.848 91.9048 17.1889 91.2372C17.5298 90.5668 17.9957 90.0526 18.5866 89.6946C19.1776 89.3338 19.8494 89.1534 20.6023 89.1534C21.0653 89.1534 21.4972 89.2202 21.8977 89.3537C22.3011 89.4844 22.6634 89.6776 22.9844 89.9332C23.3054 90.1861 23.571 90.4957 23.7812 90.8622C23.9915 91.2259 24.1335 91.642 24.2074 92.1108ZM27.4656 98.1449C27.0508 98.1449 26.6758 98.0682 26.3406 97.9148C26.0054 97.7585 25.7397 97.5327 25.5437 97.2372C25.3505 96.9418 25.2539 96.5795 25.2539 96.1506C25.2539 95.7812 25.325 95.4773 25.467 95.2386C25.609 95 25.8008 94.8111 26.0423 94.6719C26.2838 94.5327 26.5537 94.4276 26.8519 94.3565C27.1502 94.2855 27.4542 94.2315 27.7639 94.1946C28.1559 94.1491 28.4741 94.1122 28.7184 94.0838C28.9627 94.0526 29.1403 94.0028 29.2511 93.9347C29.3619 93.8665 29.4173 93.7557 29.4173 93.6023V93.5724C29.4173 93.2003 29.3122 92.9119 29.1019 92.7074C28.8946 92.5028 28.5849 92.4006 28.173 92.4006C27.744 92.4006 27.4059 92.4957 27.1588 92.6861C26.9144 92.8736 26.7454 93.0824 26.6517 93.3125L25.4542 93.0398C25.5963 92.642 25.8037 92.321 26.0764 92.0767C26.3519 91.8295 26.6687 91.6506 27.0267 91.5398C27.3846 91.4261 27.761 91.3693 28.1559 91.3693C28.4173 91.3693 28.6943 91.4006 28.9869 91.4631C29.2823 91.5227 29.5579 91.6335 29.8136 91.7955C30.0721 91.9574 30.2838 92.1889 30.4485 92.4901C30.6133 92.7884 30.6957 93.1761 30.6957 93.6534V98H29.4514V97.1051H29.4002C29.3179 97.2699 29.1943 97.4318 29.0295 97.5909C28.8647 97.75 28.6531 97.8821 28.3946 97.9872C28.136 98.0923 27.8264 98.1449 27.4656 98.1449ZM27.7426 97.1222C28.0948 97.1222 28.396 97.0526 28.646 96.9134C28.8988 96.7741 29.0906 96.5923 29.2213 96.3679C29.3548 96.1406 29.4215 95.8977 29.4215 95.6392V94.7955C29.3761 94.8409 29.288 94.8835 29.1573 94.9233C29.0295 94.9602 28.8832 94.9929 28.7184 95.0213C28.5537 95.0469 28.3931 95.071 28.2369 95.0938C28.0806 95.1136 27.95 95.1307 27.8448 95.1449C27.5977 95.1761 27.3718 95.2287 27.1673 95.3026C26.9656 95.3764 26.8037 95.483 26.6815 95.6222C26.5622 95.7585 26.5025 95.9403 26.5025 96.1676C26.5025 96.483 26.619 96.7216 26.8519 96.8835C27.0849 97.0426 27.3818 97.1222 27.7426 97.1222ZM32.2728 100.455V91.4545H33.5171V92.5156H33.6236C33.6975 92.3793 33.804 92.2216 33.9432 92.0426C34.0824 91.8636 34.2756 91.7074 34.5228 91.5739C34.7699 91.4375 35.0966 91.3693 35.5029 91.3693C36.0313 91.3693 36.5029 91.5028 36.9177 91.7699C37.3324 92.0369 37.6577 92.4219 37.8935 92.9247C38.1322 93.4276 38.2515 94.0327 38.2515 94.7401C38.2515 95.4474 38.1336 96.054 37.8978 96.5597C37.662 97.0625 37.3381 97.4503 36.9262 97.723C36.5143 97.9929 36.0441 98.1278 35.5157 98.1278C35.118 98.1278 34.7927 98.0611 34.5398 97.9276C34.2898 97.794 34.0938 97.6378 33.9518 97.4588C33.8097 97.2798 33.7003 97.1207 33.6236 96.9815H33.5469V100.455H32.2728ZM33.5214 94.7273C33.5214 95.1875 33.5881 95.5909 33.7216 95.9375C33.8552 96.2841 34.0484 96.5554 34.3012 96.7514C34.554 96.9446 34.8637 97.0412 35.2302 97.0412C35.6109 97.0412 35.929 96.9403 36.1847 96.7386C36.4404 96.5341 36.6336 96.2571 36.7643 95.9077C36.8978 95.5582 36.9645 95.1648 36.9645 94.7273C36.9645 94.2955 36.8992 93.9077 36.7685 93.5639C36.6407 93.2202 36.4475 92.9489 36.189 92.75C35.9333 92.5511 35.6137 92.4517 35.2302 92.4517C34.8609 92.4517 34.5484 92.5469 34.2927 92.7372C34.0398 92.9276 33.8481 93.1932 33.7174 93.5341C33.5867 93.875 33.5214 94.2727 33.5214 94.7273ZM39.559 98V91.4545H40.8332V98H39.559ZM40.2025 90.4446C39.9809 90.4446 39.7906 90.3707 39.6315 90.223C39.4752 90.0724 39.3971 89.8935 39.3971 89.6861C39.3971 89.4759 39.4752 89.2969 39.6315 89.1491C39.7906 88.9986 39.9809 88.9233 40.2025 88.9233C40.4241 88.9233 40.613 88.9986 40.7693 89.1491C40.9284 89.2969 41.0079 89.4759 41.0079 89.6861C41.0079 89.8935 40.9284 90.0724 40.7693 90.223C40.613 90.3707 40.4241 90.4446 40.2025 90.4446ZM45.4827 91.4545V92.4773H41.9074V91.4545H45.4827ZM42.8662 89.8864H44.1404V96.0781C44.1404 96.3253 44.1773 96.5114 44.2512 96.6364C44.325 96.7585 44.4202 96.8423 44.5367 96.8878C44.656 96.9304 44.7853 96.9517 44.9245 96.9517C45.0267 96.9517 45.1162 96.9446 45.1929 96.9304C45.2696 96.9162 45.3293 96.9048 45.3719 96.8963L45.602 97.9489C45.5282 97.9773 45.4231 98.0057 45.2867 98.0341C45.1503 98.0653 44.9799 98.0824 44.7753 98.0852C44.4401 98.0909 44.1276 98.0312 43.8378 97.9062C43.5481 97.7812 43.3137 97.5881 43.1347 97.3267C42.9557 97.0653 42.8662 96.7372 42.8662 96.3423V89.8864ZM48.677 98.1449C48.2622 98.1449 47.8872 98.0682 47.552 97.9148C47.2168 97.7585 46.9511 97.5327 46.7551 97.2372C46.5619 96.9418 46.4653 96.5795 46.4653 96.1506C46.4653 95.7812 46.5364 95.4773 46.6784 95.2386C46.8205 95 47.0122 94.8111 47.2537 94.6719C47.4952 94.5327 47.7651 94.4276 48.0634 94.3565C48.3616 94.2855 48.6656 94.2315 48.9753 94.1946C49.3673 94.1491 49.6855 94.1122 49.9298 94.0838C50.1741 94.0526 50.3517 94.0028 50.4625 93.9347C50.5733 93.8665 50.6287 93.7557 50.6287 93.6023V93.5724C50.6287 93.2003 50.5236 92.9119 50.3134 92.7074C50.106 92.5028 49.7963 92.4006 49.3844 92.4006C48.9554 92.4006 48.6173 92.4957 48.3702 92.6861C48.1259 92.8736 47.9568 93.0824 47.8631 93.3125L46.6656 93.0398C46.8077 92.642 47.0151 92.321 47.2878 92.0767C47.5634 91.8295 47.8801 91.6506 48.2381 91.5398C48.596 91.4261 48.9724 91.3693 49.3673 91.3693C49.6287 91.3693 49.9057 91.4006 50.1983 91.4631C50.4937 91.5227 50.7693 91.6335 51.025 91.7955C51.2835 91.9574 51.4952 92.1889 51.6599 92.4901C51.8247 92.7884 51.9071 93.1761 51.9071 93.6534V98H50.6628V97.1051H50.6116C50.5293 97.2699 50.4057 97.4318 50.2409 97.5909C50.0761 97.75 49.8645 97.8821 49.606 97.9872C49.3474 98.0923 49.0378 98.1449 48.677 98.1449ZM48.954 97.1222C49.3062 97.1222 49.6074 97.0526 49.8574 96.9134C50.1102 96.7741 50.302 96.5923 50.4327 96.3679C50.5662 96.1406 50.633 95.8977 50.633 95.6392V94.7955C50.5875 94.8409 50.4994 94.8835 50.3687 94.9233C50.2409 94.9602 50.0946 94.9929 49.9298 95.0213C49.7651 95.0469 49.6045 95.071 49.4483 95.0938C49.292 95.1136 49.1614 95.1307 49.0562 95.1449C48.8091 95.1761 48.5832 95.2287 48.3787 95.3026C48.177 95.3764 48.0151 95.483 47.8929 95.6222C47.7736 95.7585 47.7139 95.9403 47.7139 96.1676C47.7139 96.483 47.8304 96.7216 48.0634 96.8835C48.2963 97.0426 48.5932 97.1222 48.954 97.1222ZM54.7583 89.2727V98H53.4842V89.2727H54.7583ZM59.5105 98V89.2727H62.7065C63.3259 89.2727 63.8387 89.375 64.2449 89.5795C64.6512 89.7812 64.9551 90.0554 65.1568 90.402C65.3585 90.7457 65.4594 91.1335 65.4594 91.5653C65.4594 91.929 65.3926 92.2358 65.2591 92.4858C65.1256 92.733 64.9466 92.9318 64.7222 93.0824C64.5006 93.2301 64.2563 93.3381 63.9892 93.4062V93.4915C64.279 93.5057 64.5617 93.5994 64.8372 93.7727C65.1156 93.9432 65.3458 94.1861 65.5276 94.5014C65.7094 94.8168 65.8003 95.2003 65.8003 95.652C65.8003 96.098 65.6952 96.4986 65.485 96.8537C65.2776 97.206 64.9565 97.4858 64.5219 97.6932C64.0872 97.8977 63.5318 98 62.8557 98H59.5105ZM60.8273 96.8707H62.7279C63.3585 96.8707 63.8102 96.7486 64.083 96.5043C64.3557 96.2599 64.4921 95.9545 64.4921 95.5881C64.4921 95.3125 64.4225 95.0597 64.2833 94.8295C64.144 94.5994 63.9452 94.4162 63.6867 94.2798C63.431 94.1435 63.127 94.0753 62.7747 94.0753H60.8273V96.8707ZM60.8273 93.0483H62.5915C62.8869 93.0483 63.1526 92.9915 63.3884 92.8778C63.627 92.7642 63.8159 92.6051 63.9551 92.4006C64.0972 92.1932 64.1682 91.9489 64.1682 91.6676C64.1682 91.3068 64.0418 91.0043 63.7889 90.7599C63.5361 90.5156 63.1483 90.3935 62.6256 90.3935H60.8273V93.0483ZM69.0446 98.1449C68.6299 98.1449 68.2549 98.0682 67.9196 97.9148C67.5844 97.7585 67.3188 97.5327 67.1228 97.2372C66.9296 96.9418 66.833 96.5795 66.833 96.1506C66.833 95.7812 66.904 95.4773 67.0461 95.2386C67.1881 95 67.3799 94.8111 67.6213 94.6719C67.8628 94.5327 68.1327 94.4276 68.431 94.3565C68.7293 94.2855 69.0333 94.2315 69.3429 94.1946C69.735 94.1491 70.0532 94.1122 70.2975 94.0838C70.5418 94.0526 70.7194 94.0028 70.8302 93.9347C70.9409 93.8665 70.9963 93.7557 70.9963 93.6023V93.5724C70.9963 93.2003 70.8912 92.9119 70.681 92.7074C70.4736 92.5028 70.164 92.4006 69.752 92.4006C69.3231 92.4006 68.985 92.4957 68.7378 92.6861C68.4935 92.8736 68.3245 93.0824 68.2307 93.3125L67.0333 93.0398C67.1753 92.642 67.3827 92.321 67.6554 92.0767C67.931 91.8295 68.2478 91.6506 68.6057 91.5398C68.9637 91.4261 69.3401 91.3693 69.735 91.3693C69.9963 91.3693 70.2733 91.4006 70.566 91.4631C70.8614 91.5227 71.137 91.6335 71.3927 91.7955C71.6512 91.9574 71.8628 92.1889 72.0276 92.4901C72.1924 92.7884 72.2748 93.1761 72.2748 93.6534V98H71.0304V97.1051H70.9793C70.8969 97.2699 70.7733 97.4318 70.6086 97.5909C70.4438 97.75 70.2321 97.8821 69.9736 97.9872C69.7151 98.0923 69.4054 98.1449 69.0446 98.1449ZM69.3216 97.1222C69.6739 97.1222 69.975 97.0526 70.225 96.9134C70.4779 96.7741 70.6696 96.5923 70.8003 96.3679C70.9338 96.1406 71.0006 95.8977 71.0006 95.6392V94.7955C70.9552 94.8409 70.8671 94.8835 70.7364 94.9233C70.6086 94.9602 70.4623 94.9929 70.2975 95.0213C70.1327 95.0469 69.9722 95.071 69.816 95.0938C69.6597 95.1136 69.529 95.1307 69.4239 95.1449C69.1767 95.1761 68.9509 95.2287 68.7463 95.3026C68.5446 95.3764 68.3827 95.483 68.2606 95.6222C68.1412 95.7585 68.0816 95.9403 68.0816 96.1676C68.0816 96.483 68.1981 96.7216 68.431 96.8835C68.664 97.0426 68.9608 97.1222 69.3216 97.1222ZM75.126 94.1136V98H73.8518V91.4545H75.0749V92.5199H75.1558C75.3064 92.1733 75.5422 91.8949 75.8632 91.6847C76.1871 91.4744 76.5947 91.3693 77.0862 91.3693C77.5322 91.3693 77.9229 91.4631 78.2581 91.6506C78.5933 91.8352 78.8533 92.1108 79.0379 92.4773C79.2226 92.8437 79.3149 93.2969 79.3149 93.8366V98H78.0408V93.9901C78.0408 93.5156 77.9172 93.1449 77.67 92.8778C77.4229 92.608 77.0834 92.473 76.6516 92.473C76.3561 92.473 76.0933 92.5369 75.8632 92.6648C75.6359 92.7926 75.4555 92.9801 75.322 93.2273C75.1913 93.4716 75.126 93.767 75.126 94.1136ZM82.0756 95.7798L82.0671 94.2244H82.2887L84.8966 91.4545H86.4222L83.4478 94.608H83.2475L82.0756 95.7798ZM80.9037 98V89.2727H82.1779V98H80.9037ZM85.0372 98L82.6935 94.8892L83.5713 93.9986L86.6012 98H85.0372Z"/><path fill="#8C94A6" d="M210.134 98L213.943 90.4659V90.402H209.537V89.2727H215.307V90.4403L211.51 98H210.134ZM219.442 98.1193C218.831 98.1193 218.291 98.0142 217.822 97.804C217.357 97.5937 216.992 97.304 216.727 96.9347C216.463 96.5653 216.332 96.1449 216.335 95.6733C216.332 95.304 216.408 94.9645 216.561 94.6548C216.717 94.3423 216.929 94.0824 217.196 93.875C217.463 93.6648 217.761 93.5312 218.091 93.4744V93.4233C217.656 93.3182 217.308 93.0852 217.047 92.7244C216.786 92.3636 216.656 91.9489 216.659 91.4801C216.656 91.0341 216.774 90.6364 217.013 90.2869C217.254 89.9347 217.585 89.6577 218.006 89.456C218.426 89.2543 218.905 89.1534 219.442 89.1534C219.973 89.1534 220.447 89.2557 220.865 89.4602C221.286 89.6619 221.617 89.9389 221.858 90.2912C222.099 90.6406 222.222 91.0369 222.224 91.4801C222.222 91.9489 222.088 92.3636 221.824 92.7244C221.56 93.0852 221.216 93.3182 220.793 93.4233V93.4744C221.119 93.5312 221.413 93.6648 221.675 93.875C221.939 94.0824 222.149 94.3423 222.305 94.6548C222.465 94.9645 222.545 95.304 222.548 95.6733C222.545 96.1449 222.412 96.5653 222.148 96.9347C221.884 97.304 221.517 97.5937 221.048 97.804C220.582 98.0142 220.047 98.1193 219.442 98.1193ZM219.442 97.0412C219.803 97.0412 220.115 96.9815 220.379 96.8622C220.643 96.7401 220.848 96.571 220.993 96.3551C221.138 96.1364 221.212 95.8807 221.215 95.5881C221.212 95.2841 221.132 95.0156 220.976 94.7827C220.822 94.5497 220.614 94.3665 220.349 94.233C220.085 94.0994 219.783 94.0327 219.442 94.0327C219.098 94.0327 218.793 94.0994 218.526 94.233C218.259 94.3665 218.048 94.5497 217.895 94.7827C217.742 95.0156 217.666 95.2841 217.669 95.5881C217.666 95.8807 217.736 96.1364 217.878 96.3551C218.023 96.571 218.229 96.7401 218.496 96.8622C218.763 96.9815 219.078 97.0412 219.442 97.0412ZM219.442 92.9801C219.732 92.9801 219.989 92.9219 220.213 92.8054C220.438 92.6889 220.614 92.527 220.742 92.3196C220.872 92.1122 220.939 91.8693 220.942 91.5909C220.939 91.3182 220.874 91.0795 220.746 90.875C220.621 90.6705 220.446 90.5128 220.222 90.402C219.997 90.2884 219.737 90.2315 219.442 90.2315C219.141 90.2315 218.876 90.2884 218.649 90.402C218.425 90.5128 218.25 90.6705 218.125 90.875C218 91.0795 217.939 91.3182 217.942 91.5909C217.939 91.8693 218.001 92.1122 218.129 92.3196C218.257 92.527 218.433 92.6889 218.658 92.8054C218.885 92.9219 219.146 92.9801 219.442 92.9801ZM226.857 89.1534C227.246 89.1562 227.63 89.2273 228.008 89.3665C228.385 89.5057 228.726 89.733 229.03 90.0483C229.337 90.3636 229.581 90.7898 229.763 91.3267C229.948 91.8608 230.042 92.5256 230.044 93.321C230.044 94.0852 229.968 94.7656 229.814 95.3622C229.661 95.956 229.441 96.4574 229.154 96.8665C228.87 97.2756 228.525 97.5866 228.118 97.7997C227.712 98.0128 227.255 98.1193 226.746 98.1193C226.226 98.1193 225.765 98.017 225.361 97.8125C224.958 97.608 224.63 97.3253 224.377 96.9645C224.124 96.6009 223.966 96.1832 223.904 95.7116H225.204C225.289 96.0866 225.462 96.3906 225.723 96.6236C225.988 96.8537 226.329 96.9688 226.746 96.9688C227.385 96.9688 227.884 96.6903 228.242 96.1335C228.6 95.5739 228.78 94.7926 228.783 93.7898H228.715C228.567 94.0341 228.383 94.2443 228.161 94.4205C227.942 94.5966 227.696 94.733 227.424 94.8295C227.151 94.9261 226.86 94.9744 226.55 94.9744C226.047 94.9744 225.59 94.8509 225.178 94.6037C224.766 94.3565 224.438 94.017 224.194 93.5852C223.949 93.1534 223.827 92.6605 223.827 92.1065C223.827 91.5554 223.952 91.0554 224.202 90.6065C224.455 90.1577 224.807 89.8026 225.259 89.5412C225.713 89.277 226.246 89.1477 226.857 89.1534ZM226.861 90.2614C226.529 90.2614 226.229 90.3437 225.962 90.5085C225.698 90.6705 225.489 90.8906 225.336 91.169C225.182 91.4446 225.106 91.7514 225.106 92.0895C225.106 92.4276 225.179 92.7344 225.327 93.0099C225.478 93.2827 225.682 93.5 225.941 93.6619C226.202 93.821 226.5 93.9006 226.836 93.9006C227.086 93.9006 227.319 93.8523 227.535 93.7557C227.75 93.6591 227.939 93.5256 228.101 93.3551C228.263 93.1818 228.39 92.9858 228.481 92.767C228.571 92.5483 228.617 92.3182 228.617 92.0767C228.617 91.7557 228.54 91.4574 228.387 91.1818C228.236 90.9062 228.029 90.6847 227.765 90.517C227.5 90.3466 227.199 90.2614 226.861 90.2614ZM231.281 96.2955V95.2301L235.052 89.2727H235.891V90.8409H235.359L232.661 95.1108V95.179H237.83V96.2955H231.281ZM235.418 98V95.9716L235.427 95.4858V89.2727H236.676V98H235.418ZM242.234 98.1449C241.56 98.142 240.985 97.9645 240.508 97.6122C240.031 97.2599 239.666 96.7472 239.413 96.0739C239.16 95.4006 239.033 94.5895 239.033 93.6406C239.033 92.6946 239.16 91.8864 239.413 91.2159C239.668 90.5455 240.035 90.0341 240.512 89.6818C240.992 89.3295 241.566 89.1534 242.234 89.1534C242.901 89.1534 243.474 89.331 243.951 89.6861C244.428 90.0384 244.793 90.5497 245.046 91.2202C245.302 91.8878 245.43 92.6946 245.43 93.6406C245.43 94.5923 245.303 95.4048 245.051 96.0781C244.798 96.7486 244.433 97.2614 243.955 97.6165C243.478 97.9688 242.904 98.1449 242.234 98.1449ZM242.234 97.0071C242.825 97.0071 243.286 96.7188 243.619 96.142C243.954 95.5653 244.122 94.7315 244.122 93.6406C244.122 92.9162 244.045 92.304 243.891 91.804C243.741 91.3011 243.524 90.9205 243.239 90.6619C242.958 90.4006 242.623 90.2699 242.234 90.2699C241.646 90.2699 241.184 90.5597 240.849 91.1392C240.514 91.7187 240.345 92.5526 240.342 93.6406C240.342 94.3679 240.417 94.983 240.568 95.4858C240.721 95.9858 240.938 96.3651 241.22 96.6236C241.501 96.8793 241.839 97.0071 242.234 97.0071ZM249.86 98.1193C249.275 98.1193 248.752 98.0185 248.292 97.8168C247.834 97.6151 247.472 97.3352 247.205 96.9773C246.941 96.6165 246.799 96.1989 246.779 95.7244H248.117C248.134 95.983 248.221 96.2074 248.377 96.3977C248.536 96.5852 248.743 96.7301 248.999 96.8324C249.255 96.9347 249.539 96.9858 249.851 96.9858C250.195 96.9858 250.499 96.9261 250.763 96.8068C251.03 96.6875 251.239 96.5213 251.39 96.3082C251.54 96.0923 251.616 95.8438 251.616 95.5625C251.616 95.2699 251.54 95.0128 251.39 94.7912C251.242 94.5668 251.025 94.3906 250.738 94.2628C250.454 94.1349 250.11 94.071 249.706 94.071H248.969V92.9972H249.706C250.03 92.9972 250.314 92.9389 250.559 92.8224C250.806 92.706 250.999 92.544 251.138 92.3366C251.277 92.1264 251.347 91.8807 251.347 91.5994C251.347 91.3295 251.286 91.0952 251.164 90.8963C251.045 90.6946 250.874 90.5369 250.652 90.4233C250.434 90.3097 250.175 90.2528 249.877 90.2528C249.593 90.2528 249.327 90.3054 249.08 90.4105C248.836 90.5128 248.637 90.6605 248.483 90.8537C248.33 91.044 248.248 91.2727 248.236 91.5398H246.962C246.976 91.0682 247.116 90.6534 247.38 90.2955C247.647 89.9375 247.999 89.6577 248.437 89.456C248.874 89.2543 249.36 89.1534 249.894 89.1534C250.454 89.1534 250.937 89.2628 251.343 89.4815C251.752 89.6974 252.067 89.9858 252.289 90.3466C252.513 90.7074 252.624 91.1023 252.621 91.5312C252.624 92.0199 252.488 92.4347 252.212 92.7756C251.939 93.1165 251.576 93.3452 251.121 93.4616V93.5298C251.701 93.6179 252.15 93.848 252.468 94.2202C252.789 94.5923 252.948 95.054 252.945 95.6051C252.948 96.0852 252.814 96.5156 252.545 96.8963C252.277 97.277 251.912 97.5767 251.449 97.7955C250.986 98.0114 250.456 98.1193 249.86 98.1193ZM254.253 96.2955V95.2301L258.024 89.2727H258.863V90.8409H258.331L255.633 95.1108V95.179H260.802V96.2955H254.253ZM258.39 98V95.9716L258.399 95.4858V89.2727H259.648V98H258.39ZM265.069 89.1534C265.459 89.1562 265.842 89.2273 266.22 89.3665C266.598 89.5057 266.939 89.733 267.243 90.0483C267.55 90.3636 267.794 90.7898 267.976 91.3267C268.16 91.8608 268.254 92.5256 268.257 93.321C268.257 94.0852 268.18 94.7656 268.027 95.3622C267.873 95.956 267.653 96.4574 267.366 96.8665C267.082 97.2756 266.737 97.5866 266.331 97.7997C265.925 98.0128 265.467 98.1193 264.959 98.1193C264.439 98.1193 263.977 98.017 263.574 97.8125C263.17 97.608 262.842 97.3253 262.589 96.9645C262.336 96.6009 262.179 96.1832 262.116 95.7116H263.416C263.501 96.0866 263.675 96.3906 263.936 96.6236C264.2 96.8537 264.541 96.9688 264.959 96.9688C265.598 96.9688 266.096 96.6903 266.454 96.1335C266.812 95.5739 266.993 94.7926 266.996 93.7898H266.927C266.78 94.0341 266.595 94.2443 266.373 94.4205C266.155 94.5966 265.909 94.733 265.636 94.8295C265.363 94.9261 265.072 94.9744 264.763 94.9744C264.26 94.9744 263.802 94.8509 263.39 94.6037C262.979 94.3565 262.65 94.017 262.406 93.5852C262.162 93.1534 262.04 92.6605 262.04 92.1065C262.04 91.5554 262.165 91.0554 262.415 90.6065C262.667 90.1577 263.02 89.8026 263.471 89.5412C263.926 89.277 264.459 89.1477 265.069 89.1534ZM265.074 90.2614C264.741 90.2614 264.442 90.3437 264.175 90.5085C263.91 90.6705 263.702 90.8906 263.548 91.169C263.395 91.4446 263.318 91.7514 263.318 92.0895C263.318 92.4276 263.392 92.7344 263.54 93.0099C263.69 93.2827 263.895 93.5 264.153 93.6619C264.415 93.821 264.713 93.9006 265.048 93.9006C265.298 93.9006 265.531 93.8523 265.747 93.7557C265.963 93.6591 266.152 93.5256 266.314 93.3551C266.476 93.1818 266.602 92.9858 266.693 92.767C266.784 92.5483 266.829 92.3182 266.829 92.0767C266.829 91.7557 266.753 91.4574 266.599 91.1818C266.449 90.9062 266.241 90.6847 265.977 90.517C265.713 90.3466 265.412 90.2614 265.074 90.2614ZM272.715 98.1449C272.041 98.142 271.466 97.9645 270.989 97.6122C270.512 97.2599 270.147 96.7472 269.894 96.0739C269.641 95.4006 269.514 94.5895 269.514 93.6406C269.514 92.6946 269.641 91.8864 269.894 91.2159C270.149 90.5455 270.516 90.0341 270.993 89.6818C271.473 89.3295 272.047 89.1534 272.715 89.1534C273.382 89.1534 273.955 89.331 274.432 89.6861C274.909 90.0384 275.274 90.5497 275.527 91.2202C275.783 91.8878 275.911 92.6946 275.911 93.6406C275.911 94.5923 275.784 95.4048 275.531 96.0781C275.279 96.7486 274.914 97.2614 274.436 97.6165C273.959 97.9688 273.385 98.1449 272.715 98.1449ZM272.715 97.0071C273.306 97.0071 273.767 96.7188 274.1 96.142C274.435 95.5653 274.603 94.7315 274.603 93.6406C274.603 92.9162 274.526 92.304 274.372 91.804C274.222 91.3011 274.004 90.9205 273.72 90.6619C273.439 90.4006 273.104 90.2699 272.715 90.2699C272.127 90.2699 271.665 90.5597 271.33 91.1392C270.995 91.7187 270.826 92.5526 270.823 93.6406C270.823 94.3679 270.898 94.983 271.049 95.4858C271.202 95.9858 271.419 96.3651 271.701 96.6236C271.982 96.8793 272.32 97.0071 272.715 97.0071ZM277.302 98V97.0455L280.256 93.9858C280.571 93.6534 280.831 93.3622 281.035 93.1122C281.243 92.8594 281.398 92.6193 281.5 92.392C281.602 92.1648 281.653 91.9233 281.653 91.6676C281.653 91.3778 281.585 91.1278 281.449 90.9176C281.312 90.7045 281.126 90.5412 280.891 90.4276C280.655 90.3111 280.389 90.2528 280.094 90.2528C279.781 90.2528 279.508 90.3168 279.275 90.4446C279.043 90.5724 278.864 90.7528 278.739 90.9858C278.614 91.2187 278.551 91.4915 278.551 91.804H277.294C277.294 91.2727 277.416 90.8082 277.66 90.4105C277.905 90.0128 278.24 89.7045 278.666 89.4858C279.092 89.2642 279.577 89.1534 280.119 89.1534C280.668 89.1534 281.15 89.2628 281.568 89.4815C281.989 89.6974 282.317 89.9929 282.552 90.3679C282.788 90.7401 282.906 91.1605 282.906 91.6293C282.906 91.9531 282.845 92.2699 282.723 92.5795C282.604 92.8892 282.395 93.2344 282.096 93.6151C281.798 93.9929 281.383 94.4517 280.852 94.9915L279.118 96.8068V96.8707H283.047V98H277.302Z"/><rect width="299" height="117" x=".5" y=".5" stroke="#EEEEF0" rx="11.5"/></svg>