<svg xmlns="http://www.w3.org/2000/svg" width="300" height="118" fill="none" viewBox="0 0 300 118"><rect width="299" height="117" x=".5" y=".5" fill="#fff" rx="11.5"/><path fill="#8C94A6" d="M17.125 23.8748H18.25V26.8748H17.5C17.4005 26.8748 17.3052 26.9143 17.2348 26.9846C17.1645 27.0549 17.125 27.1503 17.125 27.2498C17.125 27.3492 17.1645 27.4446 17.2348 27.5149C17.3052 27.5853 17.4005 27.6248 17.5 27.6248H26.5C26.5995 27.6248 26.6948 27.5853 26.7652 27.5149C26.8355 27.4446 26.875 27.3492 26.875 27.2498C26.875 27.1503 26.8355 27.0549 26.7652 26.9846C26.6948 26.9143 26.5995 26.8748 26.5 26.8748H25.75V23.8748H26.875C26.9566 23.8747 27.0359 23.848 27.101 23.7987C27.166 23.7495 27.2132 23.6804 27.2355 23.6019C27.2577 23.5233 27.2537 23.4397 27.2241 23.3637C27.1945 23.2877 27.1409 23.2234 27.0714 23.1805L22.1964 20.1805C22.1373 20.1442 22.0693 20.125 22 20.125C21.9307 20.125 21.8627 20.1442 21.8036 20.1805L16.9286 23.1805C16.8591 23.2234 16.8055 23.2877 16.7759 23.3637C16.7463 23.4397 16.7423 23.5233 16.7645 23.6019C16.7868 23.6804 16.834 23.7495 16.899 23.7987C16.9641 23.848 17.0434 23.8747 17.125 23.8748ZM19 23.8748H20.5V26.8748H19V23.8748ZM22.75 23.8748V26.8748H21.25V23.8748H22.75ZM25 26.8748H23.5V23.8748H25V26.8748ZM22 20.9399L25.5503 23.1248H18.4497L22 20.9399ZM27.625 28.7498C27.625 28.8492 27.5855 28.9446 27.5152 29.0149C27.4448 29.0853 27.3495 29.1248 27.25 29.1248H16.75C16.6505 29.1248 16.5552 29.0853 16.4848 29.0149C16.4145 28.9446 16.375 28.8492 16.375 28.7498C16.375 28.6503 16.4145 28.5549 16.4848 28.4846C16.5552 28.4143 16.6505 28.3748 16.75 28.3748H27.25C27.3495 28.3748 27.4448 28.4143 27.5152 28.4846C27.5855 28.5549 27.625 28.6503 27.625 28.7498Z"/><path fill="#8C94A6" d="M36.7656 23.6378C36.7277 23.3016 36.5715 23.0412 36.2969 22.8565C36.0223 22.6695 35.6766 22.576 35.2599 22.576C34.9616 22.576 34.7036 22.6233 34.4858 22.718C34.268 22.8104 34.0987 22.9382 33.978 23.1016C33.8596 23.2625 33.8004 23.446 33.8004 23.652C33.8004 23.8248 33.8407 23.974 33.9212 24.0994C34.004 24.2249 34.1117 24.3303 34.2443 24.4155C34.3793 24.4983 34.5237 24.5682 34.6776 24.625C34.8314 24.6795 34.9794 24.7244 35.1214 24.7599L35.8317 24.9446C36.0637 25.0014 36.3016 25.0784 36.5455 25.1754C36.7893 25.2725 37.0154 25.4003 37.2237 25.5589C37.4321 25.7176 37.6001 25.9141 37.728 26.1484C37.8582 26.3828 37.9233 26.6634 37.9233 26.9901C37.9233 27.402 37.8168 27.7678 37.6037 28.0874C37.393 28.407 37.0864 28.6591 36.6839 28.8438C36.2839 29.0284 35.7997 29.1207 35.2315 29.1207C34.687 29.1207 34.2159 29.0343 33.8182 28.8615C33.4205 28.6887 33.1091 28.4437 32.8842 28.1264C32.6593 27.8068 32.535 27.428 32.5114 26.9901H33.6122C33.6335 27.2528 33.7188 27.4718 33.8679 27.647C34.0194 27.8198 34.2124 27.9489 34.4467 28.0341C34.6835 28.117 34.9427 28.1584 35.2244 28.1584C35.5346 28.1584 35.8104 28.1098 36.0518 28.0128C36.2957 27.9134 36.4875 27.776 36.6271 27.6009C36.7668 27.4233 36.8366 27.2161 36.8366 26.9794C36.8366 26.764 36.7751 26.5876 36.652 26.4503C36.5313 26.313 36.3667 26.1993 36.1584 26.1094C35.9524 26.0194 35.7192 25.9401 35.4588 25.8714L34.5994 25.6371C34.017 25.4785 33.5554 25.2453 33.2145 24.9375C32.8759 24.6297 32.7067 24.2225 32.7067 23.7159C32.7067 23.2969 32.8203 22.9311 33.0476 22.6186C33.2749 22.3061 33.5826 22.0634 33.9709 21.8906C34.3591 21.7154 34.7971 21.6278 35.2848 21.6278C35.7772 21.6278 36.2116 21.7143 36.5881 21.8871C36.9669 22.0599 37.2652 22.2978 37.483 22.6009C37.7008 22.9015 37.8144 23.2472 37.8239 23.6378H36.7656ZM40.6586 29L38.6415 21.7273H39.7956L41.2125 27.3594H41.28L42.7537 21.7273H43.8972L45.3709 27.3629H45.4384L46.8517 21.7273H48.0094L45.9888 29H44.8844L43.3539 23.5526H43.2971L41.7665 29H40.6586ZM50.1072 21.7273V29H49.0099V21.7273H50.1072ZM51.7053 29V21.7273H56.2152V22.6719H52.8026V24.8878H55.892V25.8288H52.8026V29H51.7053ZM57.206 22.6719V21.7273H62.8345V22.6719H60.5653V29H59.4716V22.6719H57.206ZM69.4094 21.3864L67.0657 30.0938H66.1175L68.4613 21.3864H69.4094ZM74.1404 21.7273V29H73.0431V21.7273H74.1404ZM75.7385 29V21.7273H78.4018C78.9179 21.7273 79.3452 21.8125 79.6838 21.983C80.0223 22.151 80.2756 22.3795 80.4437 22.6683C80.6118 22.9548 80.6958 23.2779 80.6958 23.6378C80.6958 23.9408 80.6402 24.1965 80.5289 24.4048C80.4177 24.6108 80.2685 24.7765 80.0815 24.902C79.8968 25.0251 79.6932 25.1151 79.4707 25.1719V25.2429C79.7122 25.2547 79.9477 25.3329 80.1774 25.4773C80.4094 25.6193 80.6011 25.8217 80.7527 26.0845C80.9042 26.3473 80.9799 26.6669 80.9799 27.0433C80.9799 27.415 80.8923 27.7488 80.7172 28.0447C80.5443 28.3383 80.2768 28.5715 79.9146 28.7443C79.5524 28.9148 79.0895 29 78.5261 29H75.7385ZM76.8358 28.0589H78.4196C78.9451 28.0589 79.3216 27.9571 79.5488 27.7536C79.7761 27.55 79.8897 27.2955 79.8897 26.9901C79.8897 26.7604 79.8317 26.5497 79.7157 26.358C79.5997 26.1662 79.434 26.0135 79.2186 25.8999C79.0055 25.7862 78.7522 25.7294 78.4586 25.7294H76.8358V28.0589ZM76.8358 24.8736H78.3059C78.5521 24.8736 78.7735 24.8262 78.97 24.7315C79.1689 24.6368 79.3263 24.5043 79.4423 24.3338C79.5607 24.161 79.6199 23.9574 79.6199 23.723C79.6199 23.4223 79.5145 23.1702 79.3038 22.9666C79.0931 22.763 78.7699 22.6612 78.3343 22.6612H76.8358V24.8736ZM82.8958 29H81.731L84.3482 21.7273H85.6159L88.2331 29H87.0684L85.0123 23.0483H84.9554L82.8958 29ZM83.0911 26.152H86.8695V27.0753H83.0911V26.152ZM95.1534 21.7273V29H94.1449L90.4482 23.6662H90.3807V29H89.2834V21.7273H90.299L93.9993 27.0682H94.0668V21.7273H95.1534ZM99.0419 22.6719V21.7273H104.67V22.6719H102.401V29H101.308V22.6719H99.0419ZM105.263 29V23.5455H106.289V24.4119H106.346C106.445 24.1184 106.62 23.8875 106.871 23.7195C107.125 23.549 107.411 23.4638 107.731 23.4638C107.797 23.4638 107.875 23.4661 107.965 23.4709C108.057 23.4756 108.13 23.4815 108.182 23.4886V24.5043C108.139 24.4924 108.063 24.4794 107.954 24.4652C107.845 24.4486 107.737 24.4403 107.628 24.4403C107.377 24.4403 107.153 24.4936 106.956 24.6001C106.762 24.7043 106.608 24.8499 106.495 25.0369C106.381 25.2216 106.324 25.4323 106.324 25.669V29H105.263ZM110.639 29.1207C110.293 29.1207 109.981 29.0568 109.702 28.929C109.422 28.7988 109.201 28.6106 109.037 28.3643C108.876 28.1181 108.796 27.8163 108.796 27.4588C108.796 27.151 108.855 26.8977 108.974 26.6989C109.092 26.5 109.252 26.3426 109.453 26.2266C109.654 26.1106 109.879 26.023 110.128 25.9638C110.376 25.9046 110.63 25.8596 110.888 25.8288C111.214 25.791 111.479 25.7602 111.683 25.7365C111.887 25.7105 112.035 25.669 112.127 25.6122C112.219 25.5554 112.265 25.4631 112.265 25.3352V25.3104C112.265 25.0002 112.178 24.7599 112.003 24.5895C111.83 24.419 111.572 24.3338 111.229 24.3338C110.871 24.3338 110.589 24.4131 110.383 24.5717C110.18 24.728 110.039 24.902 109.961 25.0938L108.963 24.8665C109.081 24.535 109.254 24.2675 109.481 24.0639C109.711 23.858 109.975 23.7088 110.273 23.6165C110.572 23.5218 110.885 23.4744 111.214 23.4744C111.432 23.4744 111.663 23.5005 111.907 23.5526C112.153 23.6023 112.383 23.6946 112.596 23.8295C112.811 23.9645 112.988 24.1574 113.125 24.4084C113.262 24.657 113.331 24.9801 113.331 25.3778V29H112.294V28.2543H112.251C112.183 28.3916 112.08 28.5265 111.942 28.6591C111.805 28.7917 111.629 28.9018 111.413 28.9893C111.198 29.0769 110.94 29.1207 110.639 29.1207ZM110.87 28.2685C111.163 28.2685 111.414 28.2105 111.623 28.0945C111.833 27.9785 111.993 27.8269 112.102 27.6399C112.213 27.4505 112.269 27.2481 112.269 27.0327V26.3295C112.231 26.3674 112.158 26.4029 112.049 26.4361C111.942 26.4669 111.82 26.4941 111.683 26.5178C111.546 26.5391 111.412 26.5592 111.282 26.5781C111.152 26.5947 111.043 26.6089 110.955 26.6207C110.749 26.6468 110.561 26.6906 110.39 26.7521C110.222 26.8137 110.087 26.9025 109.986 27.0185C109.886 27.1321 109.836 27.2836 109.836 27.473C109.836 27.7358 109.934 27.9347 110.128 28.0696C110.322 28.2022 110.569 28.2685 110.87 28.2685ZM115.807 25.7614V29H114.745V23.5455H115.764V24.4332H115.832C115.957 24.1444 116.154 23.9124 116.421 23.7372C116.691 23.562 117.031 23.4744 117.44 23.4744C117.812 23.4744 118.138 23.5526 118.417 23.7088C118.696 23.8627 118.913 24.0923 119.067 24.3977C119.221 24.7031 119.298 25.0807 119.298 25.5305V29H118.236V25.6584C118.236 25.263 118.133 24.9541 117.927 24.7315C117.721 24.5066 117.438 24.3942 117.078 24.3942C116.832 24.3942 116.613 24.4474 116.421 24.554C116.232 24.6605 116.081 24.8168 115.97 25.0227C115.861 25.2263 115.807 25.4725 115.807 25.7614ZM124.809 24.8771L123.847 25.0476C123.806 24.9245 123.742 24.8073 123.655 24.696C123.57 24.5848 123.454 24.4936 123.307 24.4226C123.16 24.3516 122.977 24.3161 122.756 24.3161C122.456 24.3161 122.205 24.3835 122.004 24.5185C121.802 24.651 121.702 24.8227 121.702 25.0334C121.702 25.2157 121.769 25.3625 121.904 25.4737C122.039 25.585 122.257 25.6761 122.558 25.7472L123.424 25.946C123.926 26.062 124.3 26.2408 124.546 26.4822C124.792 26.7237 124.915 27.0374 124.915 27.4233C124.915 27.75 124.821 28.0412 124.631 28.2969C124.444 28.5502 124.183 28.7491 123.847 28.8935C123.513 29.0379 123.126 29.1101 122.685 29.1101C122.075 29.1101 121.576 28.9799 121.19 28.7195C120.804 28.4567 120.568 28.0838 120.48 27.6009L121.506 27.4446C121.57 27.7121 121.702 27.9145 121.901 28.0518C122.099 28.1868 122.359 28.2543 122.678 28.2543C123.026 28.2543 123.304 28.1821 123.513 28.0376C123.721 27.8909 123.825 27.7121 123.825 27.5014C123.825 27.331 123.761 27.1877 123.634 27.0717C123.508 26.9557 123.315 26.8681 123.055 26.8089L122.131 26.6065C121.622 26.4905 121.246 26.3059 121.002 26.0526C120.761 25.7992 120.64 25.4785 120.64 25.0902C120.64 24.7682 120.73 24.4865 120.91 24.245C121.09 24.0036 121.338 23.8153 121.656 23.6804C121.973 23.5431 122.336 23.4744 122.746 23.4744C123.335 23.4744 123.799 23.6023 124.138 23.858C124.476 24.1113 124.7 24.451 124.809 24.8771ZM128.679 23.5455V24.3977H125.596V23.5455H128.679ZM126.442 29V22.9134C126.442 22.5724 126.516 22.2895 126.665 22.0646C126.814 21.8374 127.012 21.6681 127.258 21.5568C127.505 21.4432 127.772 21.3864 128.061 21.3864C128.274 21.3864 128.456 21.4041 128.608 21.4396C128.759 21.4728 128.872 21.5036 128.945 21.532L128.697 22.3913C128.647 22.3771 128.583 22.3606 128.505 22.3416C128.427 22.3203 128.332 22.3097 128.221 22.3097C127.963 22.3097 127.778 22.3736 127.667 22.5014C127.558 22.6293 127.503 22.8139 127.503 23.0554V29H126.442ZM131.91 29.1101C131.373 29.1101 130.91 28.9953 130.522 28.7656C130.136 28.5336 129.838 28.2081 129.627 27.7891C129.419 27.3677 129.314 26.8741 129.314 26.3082C129.314 25.7495 129.419 25.2571 129.627 24.831C129.838 24.4048 130.131 24.0722 130.508 23.8331C130.886 23.594 131.329 23.4744 131.836 23.4744C132.144 23.4744 132.442 23.5253 132.731 23.6271C133.019 23.7289 133.279 23.8887 133.508 24.1065C133.738 24.3243 133.919 24.6072 134.052 24.9553C134.184 25.3009 134.251 25.7211 134.251 26.2159V26.5923H129.915V25.7969H133.21C133.21 25.5175 133.153 25.2701 133.04 25.0547C132.926 24.8369 132.766 24.6652 132.56 24.5398C132.357 24.4143 132.117 24.3516 131.843 24.3516C131.545 24.3516 131.284 24.425 131.062 24.5717C130.841 24.7161 130.671 24.9055 130.55 25.1399C130.432 25.3719 130.373 25.6241 130.373 25.8963V26.5178C130.373 26.8823 130.437 27.1925 130.564 27.4482C130.695 27.7038 130.876 27.8991 131.108 28.0341C131.34 28.1667 131.611 28.233 131.921 28.233C132.122 28.233 132.306 28.2045 132.471 28.1477C132.637 28.0885 132.78 28.0009 132.901 27.8849C133.022 27.7689 133.114 27.6257 133.178 27.4553L134.183 27.6364C134.103 27.9323 133.958 28.1915 133.75 28.4141C133.544 28.6342 133.285 28.8059 132.972 28.929C132.662 29.0497 132.308 29.1101 131.91 29.1101ZM135.429 29V23.5455H136.455V24.4119H136.512C136.611 24.1184 136.786 23.8875 137.037 23.7195C137.291 23.549 137.577 23.4638 137.897 23.4638C137.963 23.4638 138.041 23.4661 138.131 23.4709C138.223 23.4756 138.296 23.4815 138.348 23.4886V24.5043C138.305 24.4924 138.229 24.4794 138.12 24.4652C138.011 24.4486 137.903 24.4403 137.794 24.4403C137.543 24.4403 137.319 24.4936 137.123 24.6001C136.928 24.7043 136.775 24.8499 136.661 25.0369C136.547 25.2216 136.49 25.4323 136.49 25.669V29H135.429Z"/><rect width="69" height="18" x="215" y="16" fill="#F1FEF8" rx="9"/><rect width="2" height="9" x="223" y="20.5" fill="#93E9C1" rx="1"/><path fill="#339969" d="M235.156 23.5831H234.158C234.12 23.37 234.049 23.1825 233.944 23.0206C233.84 22.8587 233.712 22.7212 233.561 22.6083C233.409 22.4954 233.24 22.4102 233.053 22.3526C232.867 22.2951 232.67 22.2663 232.461 22.2663C232.084 22.2663 231.746 22.3612 231.448 22.5508C231.152 22.7404 230.918 23.0185 230.745 23.3849C230.575 23.7514 230.489 24.1989 230.489 24.7273C230.489 25.2599 230.575 25.7095 230.745 26.076C230.918 26.4425 231.153 26.7195 231.451 26.907C231.75 27.0945 232.085 27.1882 232.458 27.1882C232.665 27.1882 232.861 27.1605 233.046 27.1051C233.234 27.0476 233.403 26.9634 233.554 26.8526C233.706 26.7418 233.833 26.6065 233.938 26.4467C234.044 26.2848 234.118 26.0994 234.158 25.8906L235.156 25.8938C235.102 26.2156 234.999 26.5117 234.846 26.7823C234.694 27.0508 234.499 27.283 234.261 27.479C234.024 27.6729 233.754 27.8232 233.449 27.9297C233.144 28.0362 232.812 28.0895 232.452 28.0895C231.885 28.0895 231.38 27.9553 230.937 27.6868C230.494 27.4162 230.144 27.0295 229.888 26.5266C229.635 26.0238 229.508 25.424 229.508 24.7273C229.508 24.0284 229.636 23.4286 229.892 22.9279C230.147 22.4251 230.497 22.0394 230.94 21.771C231.383 21.5004 231.887 21.3651 232.452 21.3651C232.799 21.3651 233.123 21.4151 233.423 21.5153C233.726 21.6133 233.998 21.7582 234.238 21.9499C234.479 22.1396 234.678 22.3718 234.836 22.6467C234.994 22.9194 235.1 23.2315 235.156 23.5831ZM238.238 28.0991C237.778 28.0991 237.377 27.9936 237.033 27.7827C236.69 27.5717 236.424 27.2766 236.234 26.8974C236.045 26.5181 235.95 26.0749 235.95 25.5678C235.95 25.0586 236.045 24.6133 236.234 24.2319C236.424 23.8505 236.69 23.5543 237.033 23.3434C237.377 23.1325 237.778 23.027 238.238 23.027C238.699 23.027 239.1 23.1325 239.443 23.3434C239.786 23.5543 240.053 23.8505 240.242 24.2319C240.432 24.6133 240.527 25.0586 240.527 25.5678C240.527 26.0749 240.432 26.5181 240.242 26.8974C240.053 27.2766 239.786 27.5717 239.443 27.7827C239.1 27.9936 238.699 28.0991 238.238 28.0991ZM238.242 27.2969C238.54 27.2969 238.787 27.218 238.983 27.0604C239.179 26.9027 239.324 26.6928 239.418 26.4308C239.514 26.1687 239.562 25.88 239.562 25.5646C239.562 25.2514 239.514 24.9638 239.418 24.7017C239.324 24.4375 239.179 24.2255 238.983 24.0657C238.787 23.9059 238.54 23.826 238.242 23.826C237.941 23.826 237.692 23.9059 237.494 24.0657C237.298 24.2255 237.152 24.4375 237.056 24.7017C236.962 24.9638 236.915 25.2514 236.915 25.5646C236.915 25.88 236.962 26.1687 237.056 26.4308C237.152 26.6928 237.298 26.9027 237.494 27.0604C237.692 27.218 237.941 27.2969 238.242 27.2969ZM241.503 28V23.0909H242.421V23.8899H242.481C242.584 23.6193 242.751 23.4084 242.983 23.2571C243.215 23.1037 243.493 23.027 243.817 23.027C244.145 23.027 244.42 23.1037 244.642 23.2571C244.866 23.4105 245.031 23.6214 245.137 23.8899H245.188C245.306 23.6278 245.492 23.419 245.748 23.2635C246.003 23.1058 246.308 23.027 246.662 23.027C247.107 23.027 247.47 23.1665 247.752 23.4457C248.035 23.7248 248.177 24.1456 248.177 24.7081V28H247.221V24.7976C247.221 24.4652 247.131 24.2244 246.949 24.0753C246.768 23.9261 246.552 23.8516 246.301 23.8516C245.99 23.8516 245.748 23.9474 245.575 24.1392C245.403 24.3288 245.316 24.5728 245.316 24.8711V28H244.364V24.7369C244.364 24.4705 244.281 24.2564 244.115 24.0945C243.948 23.9325 243.732 23.8516 243.466 23.8516C243.285 23.8516 243.117 23.8995 242.964 23.9954C242.813 24.0891 242.69 24.2202 242.596 24.3885C242.505 24.5568 242.459 24.7518 242.459 24.9734V28H241.503ZM249.368 29.8409V23.0909H250.301V23.8867H250.381C250.436 23.7844 250.516 23.6662 250.62 23.532C250.725 23.3977 250.87 23.2805 251.055 23.1804C251.24 23.0781 251.485 23.027 251.79 23.027C252.186 23.027 252.54 23.1271 252.851 23.3274C253.162 23.5277 253.406 23.8164 253.583 24.1935C253.762 24.5707 253.852 25.0245 253.852 25.555C253.852 26.0856 253.763 26.5405 253.586 26.9197C253.409 27.2969 253.167 27.5877 252.858 27.7923C252.549 27.9947 252.196 28.0959 251.8 28.0959C251.501 28.0959 251.257 28.0458 251.068 27.9457C250.88 27.8455 250.733 27.7283 250.627 27.5941C250.52 27.4599 250.438 27.3406 250.381 27.2362H250.323V29.8409H249.368ZM250.304 25.5455C250.304 25.8906 250.354 26.1932 250.454 26.4531C250.554 26.7131 250.699 26.9165 250.889 27.0636C251.078 27.2085 251.311 27.2809 251.586 27.2809C251.871 27.2809 252.11 27.2053 252.301 27.054C252.493 26.9006 252.638 26.6928 252.736 26.4308C252.836 26.1687 252.886 25.8736 252.886 25.5455C252.886 25.2216 252.837 24.9308 252.739 24.6729C252.643 24.4151 252.499 24.2116 252.305 24.0625C252.113 23.9134 251.873 23.8388 251.586 23.8388C251.309 23.8388 251.074 23.9102 250.882 24.0529C250.693 24.1957 250.549 24.3949 250.451 24.6506C250.353 24.9062 250.304 25.2045 250.304 25.5455ZM255.788 21.4545V28H254.832V21.4545H255.788ZM259.099 28.0991C258.616 28.0991 258.199 27.9957 257.85 27.7891C257.502 27.5803 257.234 27.2873 257.044 26.9102C256.857 26.5309 256.763 26.0866 256.763 25.5774C256.763 25.0746 256.857 24.6314 257.044 24.2479C257.234 23.8643 257.498 23.565 257.837 23.3498C258.178 23.1346 258.576 23.027 259.032 23.027C259.309 23.027 259.578 23.0728 259.837 23.1644C260.097 23.256 260.331 23.3999 260.537 23.5959C260.744 23.7919 260.907 24.0465 261.026 24.3597C261.146 24.6708 261.205 25.049 261.205 25.4943V25.8331H257.303V25.1172H260.269C260.269 24.8658 260.218 24.6431 260.116 24.4492C260.013 24.2532 259.869 24.0987 259.684 23.9858C259.501 23.8729 259.286 23.8164 259.038 23.8164C258.77 23.8164 258.536 23.8825 258.335 24.0146C258.137 24.1445 257.984 24.315 257.875 24.5259C257.769 24.7347 257.715 24.9616 257.715 25.2067V25.766C257.715 26.0941 257.773 26.3732 257.888 26.6033C258.005 26.8335 258.168 27.0092 258.377 27.1307C258.586 27.25 258.83 27.3097 259.109 27.3097C259.29 27.3097 259.455 27.2841 259.604 27.233C259.753 27.1797 259.882 27.1009 259.991 26.9964C260.1 26.892 260.183 26.7631 260.24 26.6097L261.145 26.7727C261.072 27.0391 260.942 27.2724 260.755 27.4727C260.569 27.6708 260.336 27.8253 260.055 27.9361C259.776 28.0447 259.457 28.0991 259.099 28.0991ZM264.467 23.0909V23.858H261.786V23.0909H264.467ZM262.505 21.9148H263.46V26.5586C263.46 26.744 263.488 26.8835 263.544 26.9773C263.599 27.0689 263.67 27.1317 263.758 27.1658C263.847 27.1978 263.944 27.2138 264.049 27.2138C264.125 27.2138 264.192 27.2085 264.25 27.1978C264.307 27.1871 264.352 27.1786 264.384 27.1722L264.557 27.9616C264.501 27.983 264.422 28.0043 264.32 28.0256C264.218 28.049 264.09 28.0618 263.937 28.0639C263.685 28.0682 263.451 28.0234 263.234 27.9297C263.016 27.8359 262.84 27.6911 262.706 27.495C262.572 27.299 262.505 27.0529 262.505 26.7567V21.9148ZM267.497 28.0991C267.014 28.0991 266.597 27.9957 266.248 27.7891C265.9 27.5803 265.632 27.2873 265.442 26.9102C265.255 26.5309 265.161 26.0866 265.161 25.5774C265.161 25.0746 265.255 24.6314 265.442 24.2479C265.632 23.8643 265.896 23.565 266.235 23.3498C266.576 23.1346 266.974 23.027 267.43 23.027C267.707 23.027 267.976 23.0728 268.236 23.1644C268.496 23.256 268.729 23.3999 268.936 23.5959C269.142 23.7919 269.305 24.0465 269.425 24.3597C269.544 24.6708 269.603 25.049 269.603 25.4943V25.8331H265.701V25.1172H268.667C268.667 24.8658 268.616 24.6431 268.514 24.4492C268.411 24.2532 268.268 24.0987 268.082 23.9858C267.899 23.8729 267.684 23.8164 267.437 23.8164C267.168 23.8164 266.934 23.8825 266.733 24.0146C266.535 24.1445 266.382 24.315 266.273 24.5259C266.167 24.7347 266.113 24.9616 266.113 25.2067V25.766C266.113 26.0941 266.171 26.3732 266.286 26.6033C266.403 26.8335 266.566 27.0092 266.775 27.1307C266.984 27.25 267.228 27.3097 267.507 27.3097C267.688 27.3097 267.853 27.2841 268.002 27.233C268.151 27.1797 268.28 27.1009 268.389 26.9964C268.498 26.892 268.581 26.7631 268.638 26.6097L269.543 26.7727C269.47 27.0391 269.34 27.2724 269.153 27.4727C268.967 27.6708 268.734 27.8253 268.453 27.9361C268.174 28.0447 267.855 28.0991 267.497 28.0991ZM272.411 28.0959C272.015 28.0959 271.661 27.9947 271.35 27.7923C271.041 27.5877 270.799 27.2969 270.622 26.9197C270.447 26.5405 270.36 26.0856 270.36 25.555C270.36 25.0245 270.448 24.5707 270.625 24.1935C270.804 23.8164 271.049 23.5277 271.36 23.3274C271.671 23.1271 272.024 23.027 272.418 23.027C272.723 23.027 272.968 23.0781 273.153 23.1804C273.34 23.2805 273.485 23.3977 273.588 23.532C273.692 23.6662 273.773 23.7844 273.831 23.8867H273.888V21.4545H274.844V28H273.91V27.2362H273.831C273.773 27.3406 273.69 27.4599 273.581 27.5941C273.475 27.7283 273.328 27.8455 273.14 27.9457C272.953 28.0458 272.71 28.0959 272.411 28.0959ZM272.622 27.2809C272.897 27.2809 273.13 27.2085 273.319 27.0636C273.511 26.9165 273.656 26.7131 273.754 26.4531C273.854 26.1932 273.904 25.8906 273.904 25.5455C273.904 25.2045 273.855 24.9062 273.757 24.6506C273.659 24.3949 273.515 24.1957 273.326 24.0529C273.136 23.9102 272.902 23.8388 272.622 23.8388C272.335 23.8388 272.095 23.9134 271.903 24.0625C271.712 24.2116 271.567 24.4151 271.469 24.6729C271.373 24.9308 271.325 25.2216 271.325 25.5455C271.325 25.8736 271.374 26.1687 271.472 26.4308C271.57 26.6928 271.715 26.9006 271.907 27.054C272.1 27.2053 272.339 27.2809 272.622 27.2809Z"/><path fill="#1A1A21" d="M25.9631 67.9091C25.9631 68.9962 25.7642 69.9309 25.3665 70.7131C24.9688 71.492 24.4235 72.0919 23.7308 72.5128C23.0414 72.9304 22.2576 73.1392 21.3793 73.1392C20.4976 73.1392 19.7105 72.9304 19.0178 72.5128C18.3284 72.0919 17.7848 71.4903 17.3871 70.7081C16.9893 69.9259 16.7905 68.9929 16.7905 67.9091C16.7905 66.822 16.9893 65.889 17.3871 65.1101C17.7848 64.3279 18.3284 63.728 19.0178 63.3104C19.7105 62.8894 20.4976 62.679 21.3793 62.679C22.2576 62.679 23.0414 62.8894 23.7308 63.3104C24.4235 63.728 24.9688 64.3279 25.3665 65.1101C25.7642 65.889 25.9631 66.822 25.9631 67.9091ZM24.4418 67.9091C24.4418 67.0805 24.3075 66.3828 24.0391 65.8161C23.7739 65.246 23.4093 64.8151 22.9453 64.5234C22.4846 64.2285 21.9626 64.081 21.3793 64.081C20.7926 64.081 20.2689 64.2285 19.8082 64.5234C19.3475 64.8151 18.983 65.246 18.7145 65.8161C18.4493 66.3828 18.3168 67.0805 18.3168 67.9091C18.3168 68.7377 18.4493 69.437 18.7145 70.0071C18.983 70.5739 19.3475 71.0047 19.8082 71.2997C20.2689 71.5914 20.7926 71.7372 21.3793 71.7372C21.9626 71.7372 22.4846 71.5914 22.9453 71.2997C23.4093 71.0047 23.7739 70.5739 24.0391 70.0071C24.3075 69.437 24.4418 68.7377 24.4418 67.9091ZM27.6191 73V65.3636H29.0459V66.6065H29.1404C29.2995 66.1856 29.5596 65.8575 29.9209 65.6222C30.2822 65.3835 30.7147 65.2642 31.2185 65.2642C31.7289 65.2642 32.1565 65.3835 32.5012 65.6222C32.8492 65.8608 33.106 66.1889 33.2718 66.6065H33.3513C33.5336 66.1989 33.8236 65.8741 34.2213 65.6321C34.6191 65.3868 35.093 65.2642 35.6432 65.2642C36.3359 65.2642 36.901 65.4813 37.3385 65.9155C37.7793 66.3497 37.9997 67.0043 37.9997 67.8793V73H36.5132V68.0185C36.5132 67.5014 36.3724 67.1269 36.0906 66.8949C35.8089 66.6629 35.4725 66.5469 35.0814 66.5469C34.5975 66.5469 34.2213 66.696 33.9529 66.9943C33.6844 67.2893 33.5502 67.6688 33.5502 68.1328V73H32.0686V67.924C32.0686 67.5097 31.9394 67.1766 31.6808 66.9247C31.4223 66.6728 31.0859 66.5469 30.6716 66.5469C30.3899 66.5469 30.1297 66.6214 29.8911 66.7706C29.6558 66.9164 29.4652 67.1203 29.3193 67.3821C29.1768 67.6439 29.1056 67.9472 29.1056 68.2919V73H27.6191ZM42.0744 73.169C41.5905 73.169 41.153 73.0795 40.7619 72.9006C40.3708 72.7183 40.0609 72.4548 39.8322 72.1101C39.6068 71.7654 39.4941 71.3428 39.4941 70.8423C39.4941 70.4115 39.577 70.0568 39.7427 69.7784C39.9084 69.5 40.1322 69.2796 40.4139 69.1172C40.6956 68.9548 41.0105 68.8321 41.3585 68.7493C41.7065 68.6664 42.0611 68.6035 42.4224 68.5604C42.8798 68.5073 43.251 68.4643 43.5361 68.4311C43.8211 68.3946 44.0282 68.3366 44.1575 68.2571C44.2868 68.1776 44.3514 68.0483 44.3514 67.8693V67.8345C44.3514 67.4003 44.2288 67.0639 43.9835 66.8253C43.7415 66.5866 43.3803 66.4673 42.8997 66.4673C42.3992 66.4673 42.0048 66.5784 41.7164 66.8004C41.4314 67.0192 41.2342 67.2628 41.1248 67.5312L39.7278 67.2131C39.8935 66.7491 40.1355 66.3745 40.4537 66.0895C40.7752 65.8011 41.1447 65.5923 41.5623 65.4631C41.9799 65.3305 42.4191 65.2642 42.8798 65.2642C43.1847 65.2642 43.5079 65.3007 43.8493 65.3736C44.194 65.4432 44.5155 65.5724 44.8137 65.7614C45.1154 65.9503 45.3623 66.2204 45.5545 66.5717C45.7468 66.9197 45.8429 67.3722 45.8429 67.929V73H44.3912V71.956H44.3315C44.2354 72.1482 44.0912 72.3371 43.899 72.5227C43.7067 72.7083 43.4598 72.8625 43.1582 72.9851C42.8566 73.1077 42.4953 73.169 42.0744 73.169ZM42.3976 71.9759C42.8085 71.9759 43.1599 71.8946 43.4515 71.7322C43.7465 71.5698 43.9702 71.3577 44.1227 71.0959C44.2785 70.8307 44.3564 70.5473 44.3564 70.2457V69.2614C44.3033 69.3144 44.2006 69.3641 44.0481 69.4105C43.899 69.4536 43.7283 69.4917 43.5361 69.5249C43.3438 69.5547 43.1566 69.5829 42.9743 69.6094C42.792 69.6326 42.6395 69.6525 42.5169 69.669C42.2285 69.7055 41.965 69.7668 41.7264 69.853C41.4911 69.9392 41.3021 70.0634 41.1596 70.2259C41.0204 70.3849 40.9508 70.5971 40.9508 70.8622C40.9508 71.2301 41.0867 71.5085 41.3585 71.6974C41.6303 71.883 41.9766 71.9759 42.3976 71.9759ZM49.1693 68.4659V73H47.6828V62.8182H49.1494V66.6065H49.2439C49.4229 66.1955 49.6963 65.8691 50.0642 65.6271C50.4321 65.3852 50.9127 65.2642 51.506 65.2642C52.0296 65.2642 52.487 65.3719 52.8781 65.5874C53.2725 65.8028 53.5775 66.1243 53.7929 66.5518C54.0116 66.9761 54.121 67.5064 54.121 68.1428V73H52.6345V68.3217C52.6345 67.7616 52.4903 67.3274 52.202 67.0192C51.9136 66.7076 51.5126 66.5518 50.9989 66.5518C50.6475 66.5518 50.3327 66.6264 50.0543 66.7756C49.7792 66.9247 49.5621 67.1435 49.403 67.4318C49.2472 67.7169 49.1693 68.0616 49.1693 68.4659ZM59.6491 73V62.8182H61.1853V71.6776H65.7989V73H59.6491ZM69.5144 73.169C69.0305 73.169 68.593 73.0795 68.2019 72.9006C67.8108 72.7183 67.5009 72.4548 67.2722 72.1101C67.0468 71.7654 66.9341 71.3428 66.9341 70.8423C66.9341 70.4115 67.017 70.0568 67.1827 69.7784C67.3484 69.5 67.5722 69.2796 67.8539 69.1172C68.1356 68.9548 68.4505 68.8321 68.7985 68.7493C69.1465 68.6664 69.5011 68.6035 69.8624 68.5604C70.3198 68.5073 70.691 68.4643 70.9761 68.4311C71.2611 68.3946 71.4682 68.3366 71.5975 68.2571C71.7268 68.1776 71.7914 68.0483 71.7914 67.8693V67.8345C71.7914 67.4003 71.6688 67.0639 71.4235 66.8253C71.1815 66.5866 70.8203 66.4673 70.3397 66.4673C69.8392 66.4673 69.4448 66.5784 69.1564 66.8004C68.8714 67.0192 68.6742 67.2628 68.5648 67.5312L67.1678 67.2131C67.3335 66.7491 67.5755 66.3745 67.8937 66.0895C68.2152 65.8011 68.5847 65.5923 69.0023 65.4631C69.4199 65.3305 69.8591 65.2642 70.3198 65.2642C70.6247 65.2642 70.9479 65.3007 71.2893 65.3736C71.634 65.4432 71.9555 65.5724 72.2537 65.7614C72.5554 65.9503 72.8023 66.2204 72.9945 66.5717C73.1868 66.9197 73.2829 67.3722 73.2829 67.929V73H71.8312V71.956H71.7715C71.6754 72.1482 71.5312 72.3371 71.339 72.5227C71.1467 72.7083 70.8998 72.8625 70.5982 72.9851C70.2966 73.1077 69.9353 73.169 69.5144 73.169ZM69.8376 71.9759C70.2485 71.9759 70.5999 71.8946 70.8915 71.7322C71.1865 71.5698 71.4102 71.3577 71.5627 71.0959C71.7185 70.8307 71.7964 70.5473 71.7964 70.2457V69.2614C71.7433 69.3144 71.6406 69.3641 71.4881 69.4105C71.339 69.4536 71.1683 69.4917 70.9761 69.5249C70.7838 69.5547 70.5966 69.5829 70.4143 69.6094C70.232 69.6326 70.0795 69.6525 69.9569 69.669C69.6685 69.7055 69.405 69.7668 69.1664 69.853C68.9311 69.9392 68.7421 70.0634 68.5996 70.2259C68.4604 70.3849 68.3908 70.5971 68.3908 70.8622C68.3908 71.2301 68.5267 71.5085 68.7985 71.6974C69.0703 71.883 69.4166 71.9759 69.8376 71.9759ZM75.789 75.8636C75.5669 75.8636 75.3648 75.8454 75.1825 75.8089C75.0002 75.7758 74.8643 75.7393 74.7748 75.6996L75.1327 74.4815C75.4045 74.5545 75.6465 74.5859 75.8586 74.576C76.0707 74.5661 76.258 74.4865 76.4204 74.3374C76.5861 74.1882 76.7319 73.9446 76.8579 73.6065L77.0418 73.0994L74.2478 65.3636H75.8387L77.7727 71.2898H77.8522L79.7862 65.3636H81.382L78.235 74.0192C78.0892 74.4169 77.9036 74.7533 77.6782 75.0284C77.4528 75.3068 77.1844 75.5156 76.8728 75.6548C76.5613 75.794 76.2 75.8636 75.789 75.8636ZM82.6391 73V65.3636H84.1256V73H82.6391ZM83.3898 64.1854C83.1312 64.1854 82.9092 64.0992 82.7236 63.9268C82.5413 63.7512 82.4501 63.5424 82.4501 63.3004C82.4501 63.0552 82.5413 62.8464 82.7236 62.674C82.9092 62.4983 83.1312 62.4105 83.3898 62.4105C83.6483 62.4105 83.8687 62.4983 84.051 62.674C84.2366 62.8464 84.3294 63.0552 84.3294 63.3004C84.3294 63.5424 84.2366 63.7512 84.051 63.9268C83.8687 64.0992 83.6483 64.1854 83.3898 64.1854ZM87.4719 68.4659V73H85.9854V65.3636H87.4122V66.6065H87.5067C87.6824 66.2022 87.9574 65.8774 88.332 65.6321C88.7098 65.3868 89.1854 65.2642 89.7588 65.2642C90.2792 65.2642 90.7349 65.3736 91.126 65.5923C91.5171 65.8078 91.8204 66.1293 92.0358 66.5568C92.2512 66.9844 92.359 67.513 92.359 68.1428V73H90.8725V68.3217C90.8725 67.7682 90.7283 67.3357 90.4399 67.0241C90.1516 66.7093 89.7555 66.5518 89.2517 66.5518C88.907 66.5518 88.6004 66.6264 88.332 66.7756C88.0668 66.9247 87.8564 67.1435 87.7006 67.4318C87.5481 67.7169 87.4719 68.0616 87.4719 68.4659ZM97.0712 73.1491C96.4548 73.1491 95.9046 72.9917 95.4207 72.6768C94.9401 72.3587 94.5622 71.9062 94.2871 71.3196C94.0154 70.7296 93.8795 70.022 93.8795 69.1967C93.8795 68.3714 94.017 67.6655 94.2921 67.0788C94.5705 66.4922 94.9517 66.0431 95.4356 65.7315C95.9195 65.42 96.468 65.2642 97.0812 65.2642C97.5551 65.2642 97.9363 65.3438 98.2246 65.5028C98.5163 65.6586 98.7417 65.8409 98.9008 66.0497C99.0632 66.2585 99.1891 66.4425 99.2786 66.6016H99.3681V62.8182H100.855V73H99.4029V71.8118H99.2786C99.1891 71.9742 99.0599 72.1598 98.8908 72.3686C98.7251 72.5774 98.4964 72.7597 98.2048 72.9155C97.9131 73.0713 97.5352 73.1491 97.0712 73.1491ZM97.3994 71.8814C97.8269 71.8814 98.1882 71.7687 98.4832 71.5433C98.7815 71.3146 99.0068 70.9981 99.1593 70.5938C99.3151 70.1894 99.393 69.7187 99.393 69.1818C99.393 68.6515 99.3167 68.1875 99.1643 67.7898C99.0118 67.392 98.7881 67.0821 98.4931 66.8601C98.1981 66.638 97.8335 66.527 97.3994 66.527C96.9519 66.527 96.579 66.643 96.2808 66.875C95.9825 67.107 95.7571 67.4235 95.6046 67.8246C95.4555 68.2256 95.3809 68.678 95.3809 69.1818C95.3809 69.6922 95.4571 70.1513 95.6096 70.5589C95.762 70.9666 95.9874 71.2898 96.2857 71.5284C96.5873 71.7637 96.9585 71.8814 97.3994 71.8814ZM106.127 73.1541C105.375 73.1541 104.727 72.9934 104.184 72.6719C103.643 72.3471 103.226 71.8913 102.931 71.3047C102.639 70.7147 102.493 70.0237 102.493 69.2315C102.493 68.4493 102.639 67.7599 102.931 67.1634C103.226 66.5668 103.637 66.1011 104.164 65.7663C104.694 65.4316 105.314 65.2642 106.023 65.2642C106.454 65.2642 106.872 65.3355 107.276 65.478C107.68 65.6205 108.043 65.8442 108.365 66.1491C108.686 66.4541 108.94 66.8501 109.125 67.3374C109.311 67.8213 109.404 68.4096 109.404 69.1023V69.6293H103.333V68.5156H107.947C107.947 68.1245 107.867 67.7782 107.708 67.4766C107.549 67.1716 107.326 66.9313 107.037 66.7557C106.752 66.58 106.417 66.4922 106.033 66.4922C105.615 66.4922 105.251 66.5949 104.939 66.8004C104.631 67.0026 104.392 67.2678 104.223 67.5959C104.058 67.9207 103.975 68.2737 103.975 68.6548V69.5249C103.975 70.0353 104.064 70.4695 104.243 70.8274C104.425 71.1854 104.679 71.4588 105.004 71.6477C105.329 71.8333 105.708 71.9261 106.142 71.9261C106.424 71.9261 106.681 71.8864 106.913 71.8068C107.145 71.724 107.345 71.6013 107.515 71.4389C107.684 71.2765 107.813 71.076 107.902 70.8374L109.309 71.0909C109.197 71.5052 108.994 71.8681 108.703 72.1797C108.414 72.4879 108.051 72.7282 107.614 72.9006C107.18 73.0696 106.684 73.1541 106.127 73.1541Z"/><path fill="#8C94A6" d="M181.768 68.584H179.178V72H177.526V68.584H176.238V67.436H177.526V66.442H176.238V65.294H177.526V62.018H179.612L181.474 65.294H184.12V62.018H185.772V65.294H187.06V66.442H185.772V67.436H187.06V68.584H185.772V72H183.714L181.768 68.584ZM179.178 65.294H179.892L179.584 64.748L179.08 63.544L179.178 65.07V65.294ZM180.55 66.442H179.178V67.436H181.11L180.55 66.442ZM184.12 66.442H182.132L182.692 67.436H184.12V66.442ZM184.218 70.404L184.12 68.85V68.584H183.35L183.686 69.186L184.218 70.404Z"/><path fill="#1A1A21" d="M198.112 73H196.4V70.776H190.208V69.576L196.112 62.28H198.112V69.224H199.776V70.776H198.112V73ZM192.416 69.224H196.4V64.408H196.272L192.416 69.096V69.224ZM205.617 73.16C202.737 73.16 200.993 71.032 200.993 67.64C200.993 64.248 202.737 62.12 205.617 62.12C208.497 62.12 210.257 64.248 210.257 67.64C210.257 71.032 208.497 73.16 205.617 73.16ZM205.617 71.496C207.521 71.496 208.417 70.472 208.417 67.64C208.417 64.808 207.521 63.784 205.617 63.784C203.713 63.784 202.833 64.808 202.833 67.64C202.833 70.472 203.713 71.496 205.617 71.496ZM212.377 74.888H211.801V73.752H212.329C212.601 73.752 212.745 73.688 212.745 73.336V73H211.769V70.52H213.961V73.304C213.961 74.376 213.385 74.888 212.377 74.888ZM220.124 73.16C217.244 73.16 215.5 71.032 215.5 67.64C215.5 64.248 217.244 62.12 220.124 62.12C223.004 62.12 224.764 64.248 224.764 67.64C224.764 71.032 223.004 73.16 220.124 73.16ZM220.124 71.496C222.028 71.496 222.924 70.472 222.924 67.64C222.924 64.808 222.028 63.784 220.124 63.784C218.22 63.784 217.34 64.808 217.34 67.64C217.34 70.472 218.22 71.496 220.124 71.496ZM231.519 73.16C228.639 73.16 226.895 71.032 226.895 67.64C226.895 64.248 228.639 62.12 231.519 62.12C234.399 62.12 236.159 64.248 236.159 67.64C236.159 71.032 234.399 73.16 231.519 73.16ZM231.519 71.496C233.423 71.496 234.319 70.472 234.319 67.64C234.319 64.808 233.423 63.784 231.519 63.784C229.615 63.784 228.735 64.808 228.735 67.64C228.735 70.472 229.615 71.496 231.519 71.496ZM242.263 73.16C239.479 73.16 238.039 71.928 238.039 69.96V69.864H239.751V69.96C239.751 71.16 240.551 71.576 242.327 71.576C244.215 71.576 244.839 71.048 244.839 69.544C244.839 68.104 244.151 67.544 242.343 67.544C241.031 67.544 240.263 67.912 239.735 68.216L238.215 67.976L238.583 62.28H245.975V63.832H240.103L239.847 66.952H239.895C240.455 66.488 241.463 66.056 242.871 66.056C245.159 66.056 246.551 67.336 246.551 69.496C246.551 71.72 245.223 73.16 242.263 73.16ZM248.767 74.888H248.191V73.752H248.719C248.991 73.752 249.135 73.688 249.135 73.336V73H248.159V70.52H250.351V73.304C250.351 74.376 249.775 74.888 248.767 74.888ZM256.226 73.16C253.874 73.16 252.354 71.88 252.354 69.816V69.72H254.178V69.816C254.178 70.824 254.658 71.496 256.354 71.496C258.37 71.496 258.802 70.536 258.802 68.168V67.288H258.722C258.258 68.2 257.33 68.92 255.522 68.92C253.154 68.92 251.922 67.64 251.922 65.608C251.922 63.48 253.394 62.12 256.13 62.12C259.394 62.12 260.578 63.816 260.578 67.64C260.578 71.112 259.298 73.16 256.226 73.16ZM256.082 67.464C257.89 67.464 258.562 66.872 258.562 65.624C258.562 64.36 257.874 63.784 256.082 63.784C254.226 63.784 253.602 64.36 253.602 65.64C253.602 66.888 254.21 67.464 256.082 67.464ZM267.065 73.16C264.185 73.16 262.441 71.032 262.441 67.64C262.441 64.248 264.185 62.12 267.065 62.12C269.945 62.12 271.705 64.248 271.705 67.64C271.705 71.032 269.945 73.16 267.065 73.16ZM267.065 71.496C268.969 71.496 269.865 70.472 269.865 67.64C269.865 64.808 268.969 63.784 267.065 63.784C265.161 63.784 264.281 64.808 264.281 67.64C264.281 70.472 265.161 71.496 267.065 71.496ZM278.459 73.16C275.579 73.16 273.835 71.032 273.835 67.64C273.835 64.248 275.579 62.12 278.459 62.12C281.339 62.12 283.099 64.248 283.099 67.64C283.099 71.032 281.339 73.16 278.459 73.16ZM278.459 71.496C280.363 71.496 281.259 70.472 281.259 67.64C281.259 64.808 280.363 63.784 278.459 63.784C276.555 63.784 275.675 64.808 275.675 67.64C275.675 70.472 276.555 71.496 278.459 71.496Z"/><path fill="#8C94A6" d="M24.2074 92.1108H22.8778C22.8267 91.8267 22.7315 91.5767 22.5923 91.3608C22.4531 91.1449 22.2827 90.9616 22.081 90.8111C21.8793 90.6605 21.6534 90.5469 21.4034 90.4702C21.1563 90.3935 20.8935 90.3551 20.6151 90.3551C20.1122 90.3551 19.6619 90.4815 19.2642 90.7344C18.8693 90.9872 18.5568 91.358 18.3267 91.8466C18.0994 92.3352 17.9858 92.9318 17.9858 93.6364C17.9858 94.3466 18.0994 94.946 18.3267 95.4347C18.5568 95.9233 18.8707 96.2926 19.2685 96.5426C19.6662 96.7926 20.1136 96.9176 20.6108 96.9176C20.8864 96.9176 21.1477 96.8807 21.3949 96.8068C21.6449 96.7301 21.8707 96.6179 22.0724 96.4702C22.2741 96.3224 22.4446 96.142 22.5838 95.929C22.7259 95.7131 22.8239 95.4659 22.8778 95.1875L24.2074 95.1918C24.1364 95.6207 23.9986 96.0156 23.794 96.3764C23.5923 96.7344 23.3324 97.044 23.0142 97.3054C22.6989 97.5639 22.3381 97.7642 21.9318 97.9062C21.5256 98.0483 21.0824 98.1193 20.6023 98.1193C19.8466 98.1193 19.1733 97.9403 18.5824 97.5824C17.9915 97.2216 17.5256 96.706 17.1847 96.0355C16.8466 95.3651 16.6776 94.5653 16.6776 93.6364C16.6776 92.7045 16.848 91.9048 17.1889 91.2372C17.5298 90.5668 17.9957 90.0526 18.5866 89.6946C19.1776 89.3338 19.8494 89.1534 20.6023 89.1534C21.0653 89.1534 21.4972 89.2202 21.8977 89.3537C22.3011 89.4844 22.6634 89.6776 22.9844 89.9332C23.3054 90.1861 23.571 90.4957 23.7812 90.8622C23.9915 91.2259 24.1335 91.642 24.2074 92.1108ZM26.8349 89.2727V98H25.5608V89.2727H26.8349ZM31.2501 98.1321C30.6052 98.1321 30.0498 97.9943 29.5839 97.7188C29.1208 97.4403 28.7628 97.0497 28.51 96.5469C28.26 96.0412 28.135 95.4489 28.135 94.7699C28.135 94.0994 28.26 93.5085 28.51 92.9972C28.7628 92.4858 29.1151 92.0866 29.5668 91.7997C30.0214 91.5128 30.5526 91.3693 31.1606 91.3693C31.5299 91.3693 31.8878 91.4304 32.2344 91.5526C32.581 91.6747 32.8921 91.8665 33.1677 92.1278C33.4432 92.3892 33.6606 92.7287 33.8197 93.1463C33.9788 93.5611 34.0583 94.0653 34.0583 94.6591V95.1108H28.8552V94.1562H32.8097C32.8097 93.821 32.7415 93.5241 32.6052 93.2656C32.4688 93.0043 32.277 92.7983 32.0299 92.6477C31.7856 92.4972 31.4986 92.4219 31.1691 92.4219C30.8111 92.4219 30.4986 92.5099 30.2316 92.6861C29.9674 92.8594 29.7628 93.0866 29.618 93.3679C29.4759 93.6463 29.4049 93.9489 29.4049 94.2756V95.0213C29.4049 95.4588 29.4816 95.831 29.635 96.1378C29.7913 96.4446 30.0086 96.679 30.287 96.8409C30.5654 97 30.8907 97.0795 31.2628 97.0795C31.5043 97.0795 31.7245 97.0455 31.9234 96.9773C32.1222 96.9062 32.2941 96.8011 32.439 96.6619C32.5839 96.5227 32.6947 96.3509 32.7714 96.1463L33.9773 96.3636C33.8807 96.7187 33.7074 97.0298 33.4574 97.2969C33.2103 97.5611 32.8992 97.767 32.5242 97.9148C32.152 98.0597 31.7273 98.1321 31.2501 98.1321ZM37.2568 98.1449C36.8421 98.1449 36.4671 98.0682 36.1318 97.9148C35.7966 97.7585 35.531 97.5327 35.335 97.2372C35.1418 96.9418 35.0452 96.5795 35.0452 96.1506C35.0452 95.7812 35.1162 95.4773 35.2583 95.2386C35.4003 95 35.5921 94.8111 35.8335 94.6719C36.075 94.5327 36.3449 94.4276 36.6432 94.3565C36.9415 94.2855 37.2455 94.2315 37.5551 94.1946C37.9472 94.1491 38.2654 94.1122 38.5097 94.0838C38.754 94.0526 38.9315 94.0028 39.0423 93.9347C39.1531 93.8665 39.2085 93.7557 39.2085 93.6023V93.5724C39.2085 93.2003 39.1034 92.9119 38.8932 92.7074C38.6858 92.5028 38.3762 92.4006 37.9642 92.4006C37.5352 92.4006 37.1972 92.4957 36.95 92.6861C36.7057 92.8736 36.5367 93.0824 36.4429 93.3125L35.2455 93.0398C35.3875 92.642 35.5949 92.321 35.8676 92.0767C36.1432 91.8295 36.46 91.6506 36.8179 91.5398C37.1759 91.4261 37.5523 91.3693 37.9472 91.3693C38.2085 91.3693 38.4855 91.4006 38.7781 91.4631C39.0736 91.5227 39.3492 91.6335 39.6048 91.7955C39.8634 91.9574 40.075 92.1889 40.2398 92.4901C40.4046 92.7884 40.4869 93.1761 40.4869 93.6534V98H39.2426V97.1051H39.1915C39.1091 97.2699 38.9855 97.4318 38.8208 97.5909C38.656 97.75 38.4443 97.8821 38.1858 97.9872C37.9273 98.0923 37.6176 98.1449 37.2568 98.1449ZM37.5338 97.1222C37.8861 97.1222 38.1872 97.0526 38.4372 96.9134C38.6901 96.7741 38.8818 96.5923 39.0125 96.3679C39.146 96.1406 39.2128 95.8977 39.2128 95.6392V94.7955C39.1673 94.8409 39.0793 94.8835 38.9486 94.9233C38.8208 94.9602 38.6744 94.9929 38.5097 95.0213C38.3449 95.0469 38.1844 95.071 38.0281 95.0938C37.8719 95.1136 37.7412 95.1307 37.6361 95.1449C37.3889 95.1761 37.1631 95.2287 36.9585 95.3026C36.7568 95.3764 36.5949 95.483 36.4727 95.6222C36.3534 95.7585 36.2938 95.9403 36.2938 96.1676C36.2938 96.483 36.4102 96.7216 36.6432 96.8835C36.8762 97.0426 37.173 97.1222 37.5338 97.1222ZM42.064 98V91.4545H43.2956V92.4943H43.3638C43.4831 92.142 43.6933 91.8651 43.9944 91.6634C44.2984 91.4588 44.6422 91.3565 45.0257 91.3565C45.1052 91.3565 45.199 91.3594 45.3069 91.3651C45.4177 91.3707 45.5044 91.3778 45.5669 91.3864V92.6051C45.5157 92.5909 45.4248 92.5753 45.2941 92.5582C45.1635 92.5384 45.0328 92.5284 44.9021 92.5284C44.601 92.5284 44.3325 92.5923 44.0967 92.7202C43.8638 92.8452 43.6791 93.0199 43.5427 93.2443C43.4064 93.4659 43.3382 93.7187 43.3382 94.0028V98H42.064ZM49.7076 98V89.2727H52.9036C53.5229 89.2727 54.0357 89.375 54.4419 89.5795C54.8482 89.7812 55.1522 90.0554 55.3539 90.402C55.5556 90.7457 55.6564 91.1335 55.6564 91.5653C55.6564 91.929 55.5897 92.2358 55.4561 92.4858C55.3226 92.733 55.1436 92.9318 54.9192 93.0824C54.6976 93.2301 54.4533 93.3381 54.1862 93.4062V93.4915C54.476 93.5057 54.7587 93.5994 55.0343 93.7727C55.3127 93.9432 55.5428 94.1861 55.7246 94.5014C55.9064 94.8168 55.9973 95.2003 55.9973 95.652C55.9973 96.098 55.8922 96.4986 55.682 96.8537C55.4746 97.206 55.1536 97.4858 54.7189 97.6932C54.2843 97.8977 53.7289 98 53.0527 98H49.7076ZM51.0243 96.8707H52.9249C53.5556 96.8707 54.0073 96.7486 54.28 96.5043C54.5527 96.2599 54.6891 95.9545 54.6891 95.5881C54.6891 95.3125 54.6195 95.0597 54.4803 94.8295C54.3411 94.5994 54.1422 94.4162 53.8837 94.2798C53.628 94.1435 53.324 94.0753 52.9718 94.0753H51.0243V96.8707ZM51.0243 93.0483H52.7885C53.084 93.0483 53.3496 92.9915 53.5854 92.8778C53.824 92.7642 54.013 92.6051 54.1522 92.4006C54.2942 92.1932 54.3652 91.9489 54.3652 91.6676C54.3652 91.3068 54.2388 91.0043 53.986 90.7599C53.7331 90.5156 53.3453 90.3935 52.8226 90.3935H51.0243V93.0483ZM59.2417 98.1449C58.8269 98.1449 58.4519 98.0682 58.1167 97.9148C57.7814 97.7585 57.5158 97.5327 57.3198 97.2372C57.1266 96.9418 57.03 96.5795 57.03 96.1506C57.03 95.7812 57.1011 95.4773 57.2431 95.2386C57.3851 95 57.5769 94.8111 57.8184 94.6719C58.0599 94.5327 58.3297 94.4276 58.628 94.3565C58.9263 94.2855 59.2303 94.2315 59.54 94.1946C59.932 94.1491 60.2502 94.1122 60.4945 94.0838C60.7388 94.0526 60.9164 94.0028 61.0272 93.9347C61.138 93.8665 61.1934 93.7557 61.1934 93.6023V93.5724C61.1934 93.2003 61.0883 92.9119 60.878 92.7074C60.6707 92.5028 60.361 92.4006 59.9491 92.4006C59.5201 92.4006 59.182 92.4957 58.9349 92.6861C58.6905 92.8736 58.5215 93.0824 58.4278 93.3125L57.2303 93.0398C57.3724 92.642 57.5797 92.321 57.8525 92.0767C58.128 91.8295 58.4448 91.6506 58.8028 91.5398C59.1607 91.4261 59.5371 91.3693 59.932 91.3693C60.1934 91.3693 60.4704 91.4006 60.763 91.4631C61.0584 91.5227 61.334 91.6335 61.5897 91.7955C61.8482 91.9574 62.0599 92.1889 62.2246 92.4901C62.3894 92.7884 62.4718 93.1761 62.4718 93.6534V98H61.2275V97.1051H61.1763C61.0939 97.2699 60.9704 97.4318 60.8056 97.5909C60.6408 97.75 60.4292 97.8821 60.1707 97.9872C59.9121 98.0923 59.6025 98.1449 59.2417 98.1449ZM59.5187 97.1222C59.8709 97.1222 60.1721 97.0526 60.4221 96.9134C60.6749 96.7741 60.8667 96.5923 60.9974 96.3679C61.1309 96.1406 61.1976 95.8977 61.1976 95.6392V94.7955C61.1522 94.8409 61.0641 94.8835 60.9334 94.9233C60.8056 94.9602 60.6593 94.9929 60.4945 95.0213C60.3297 95.0469 60.1692 95.071 60.013 95.0938C59.8567 95.1136 59.7261 95.1307 59.6209 95.1449C59.3738 95.1761 59.1479 95.2287 58.9434 95.3026C58.7417 95.3764 58.5797 95.483 58.4576 95.6222C58.3383 95.7585 58.2786 95.9403 58.2786 96.1676C58.2786 96.483 58.3951 96.7216 58.628 96.8835C58.861 97.0426 59.1579 97.1222 59.5187 97.1222ZM65.323 94.1136V98H64.0489V91.4545H65.2719V92.5199H65.3529C65.5034 92.1733 65.7392 91.8949 66.0602 91.6847C66.3841 91.4744 66.7918 91.3693 67.2833 91.3693C67.7293 91.3693 68.1199 91.4631 68.4551 91.6506C68.7904 91.8352 69.0503 92.1108 69.235 92.4773C69.4196 92.8437 69.5119 93.2969 69.5119 93.8366V98H68.2378V93.9901C68.2378 93.5156 68.1142 93.1449 67.8671 92.8778C67.6199 92.608 67.2804 92.473 66.8486 92.473C66.5531 92.473 66.2904 92.5369 66.0602 92.6648C65.833 92.7926 65.6526 92.9801 65.519 93.2273C65.3884 93.4716 65.323 93.767 65.323 94.1136ZM72.2726 95.7798L72.2641 94.2244H72.4857L75.0936 91.4545H76.6192L73.6448 94.608H73.4445L72.2726 95.7798ZM71.1008 98V89.2727H72.3749V98H71.1008ZM75.2343 98L72.8905 94.8892L73.7684 93.9986L76.7982 98H75.2343Z"/><path fill="#8C94A6" d="M167.878 98.1449C167.205 98.142 166.629 97.9645 166.152 97.6122C165.675 97.2599 165.31 96.7472 165.057 96.0739C164.804 95.4006 164.678 94.5895 164.678 93.6406C164.678 92.6946 164.804 91.8864 165.057 91.2159C165.313 90.5455 165.679 90.0341 166.156 89.6818C166.636 89.3295 167.21 89.1534 167.878 89.1534C168.545 89.1534 169.118 89.331 169.595 89.6861C170.072 90.0384 170.438 90.5497 170.69 91.2202C170.946 91.8878 171.074 92.6946 171.074 93.6406C171.074 94.5923 170.947 95.4048 170.695 96.0781C170.442 96.7486 170.077 97.2614 169.599 97.6165C169.122 97.9688 168.548 98.1449 167.878 98.1449ZM167.878 97.0071C168.469 97.0071 168.93 96.7188 169.263 96.142C169.598 95.5653 169.766 94.7315 169.766 93.6406C169.766 92.9162 169.689 92.304 169.536 91.804C169.385 91.3011 169.168 90.9205 168.884 90.6619C168.602 90.4006 168.267 90.2699 167.878 90.2699C167.29 90.2699 166.828 90.5597 166.493 91.1392C166.158 91.7187 165.989 92.5526 165.986 93.6406C165.986 94.3679 166.061 94.983 166.212 95.4858C166.365 95.9858 166.582 96.3651 166.864 96.6236C167.145 96.8793 167.483 97.0071 167.878 97.0071ZM175.504 98.1449C174.831 98.142 174.255 97.9645 173.778 97.6122C173.301 97.2599 172.936 96.7472 172.683 96.0739C172.43 95.4006 172.304 94.5895 172.304 93.6406C172.304 92.6946 172.43 91.8864 172.683 91.2159C172.939 90.5455 173.305 90.0341 173.782 89.6818C174.262 89.3295 174.836 89.1534 175.504 89.1534C176.172 89.1534 176.744 89.331 177.221 89.6861C177.699 90.0384 178.064 90.5497 178.316 91.2202C178.572 91.8878 178.7 92.6946 178.7 93.6406C178.7 94.5923 178.574 95.4048 178.321 96.0781C178.068 96.7486 177.703 97.2614 177.226 97.6165C176.748 97.9688 176.174 98.1449 175.504 98.1449ZM175.504 97.0071C176.095 97.0071 176.556 96.7188 176.889 96.142C177.224 95.5653 177.392 94.7315 177.392 93.6406C177.392 92.9162 177.315 92.304 177.162 91.804C177.011 91.3011 176.794 90.9205 176.51 90.6619C176.228 90.4006 175.893 90.2699 175.504 90.2699C174.916 90.2699 174.454 90.5597 174.119 91.1392C173.784 91.7187 173.615 92.5526 173.612 93.6406C173.612 94.3679 173.687 94.983 173.838 95.4858C173.991 95.9858 174.208 96.3651 174.49 96.6236C174.771 96.8793 175.109 97.0071 175.504 97.0071ZM183.403 89.2727V98H182.082V90.5938H182.031L179.943 91.9574V90.696L182.12 89.2727H183.403ZM185.46 96.2955V95.2301L189.232 89.2727H190.071V90.8409H189.538L186.841 95.1108V95.179H192.01V96.2955H185.46ZM189.598 98V95.9716L189.607 95.4858V89.2727H190.855V98H189.598ZM196.413 98.1193C195.828 98.1193 195.306 98.0185 194.845 97.8168C194.388 97.6151 194.026 97.3352 193.759 96.9773C193.494 96.6165 193.352 96.1989 193.333 95.7244H194.671C194.688 95.983 194.774 96.2074 194.931 96.3977C195.09 96.5852 195.297 96.7301 195.553 96.8324C195.808 96.9347 196.092 96.9858 196.405 96.9858C196.749 96.9858 197.053 96.9261 197.317 96.8068C197.584 96.6875 197.793 96.5213 197.943 96.3082C198.094 96.0923 198.169 95.8438 198.169 95.5625C198.169 95.2699 198.094 95.0128 197.943 94.7912C197.796 94.5668 197.578 94.3906 197.291 94.2628C197.007 94.1349 196.663 94.071 196.26 94.071H195.523V92.9972H196.26C196.584 92.9972 196.868 92.9389 197.112 92.8224C197.359 92.706 197.553 92.544 197.692 92.3366C197.831 92.1264 197.901 91.8807 197.901 91.5994C197.901 91.3295 197.84 91.0952 197.717 90.8963C197.598 90.6946 197.428 90.5369 197.206 90.4233C196.987 90.3097 196.729 90.2528 196.431 90.2528C196.146 90.2528 195.881 90.3054 195.634 90.4105C195.389 90.5128 195.19 90.6605 195.037 90.8537C194.884 91.044 194.801 91.2727 194.79 91.5398H193.516C193.53 91.0682 193.669 90.6534 193.933 90.2955C194.2 89.9375 194.553 89.6577 194.99 89.456C195.428 89.2543 195.913 89.1534 196.448 89.1534C197.007 89.1534 197.49 89.2628 197.896 89.4815C198.306 89.6974 198.621 89.9858 198.842 90.3466C199.067 90.7074 199.178 91.1023 199.175 91.5312C199.178 92.0199 199.041 92.4347 198.766 92.7756C198.493 93.1165 198.129 93.3452 197.675 93.4616V93.5298C198.254 93.6179 198.703 93.848 199.021 94.2202C199.342 94.5923 199.502 95.054 199.499 95.6051C199.502 96.0852 199.368 96.5156 199.098 96.8963C198.831 97.277 198.466 97.5767 198.003 97.7955C197.54 98.0114 197.01 98.1193 196.413 98.1193ZM203.891 89.1534C204.281 89.1562 204.664 89.2273 205.042 89.3665C205.42 89.5057 205.761 89.733 206.065 90.0483C206.372 90.3636 206.616 90.7898 206.798 91.3267C206.982 91.8608 207.076 92.5256 207.079 93.321C207.079 94.0852 207.002 94.7656 206.849 95.3622C206.695 95.956 206.475 96.4574 206.188 96.8665C205.904 97.2756 205.559 97.5866 205.153 97.7997C204.747 98.0128 204.289 98.1193 203.781 98.1193C203.261 98.1193 202.799 98.017 202.396 97.8125C201.992 97.608 201.664 97.3253 201.411 96.9645C201.159 96.6009 201.001 96.1832 200.938 95.7116H202.238C202.323 96.0866 202.497 96.3906 202.758 96.6236C203.022 96.8537 203.363 96.9688 203.781 96.9688C204.42 96.9688 204.918 96.6903 205.276 96.1335C205.634 95.5739 205.815 94.7926 205.818 93.7898H205.749C205.602 94.0341 205.417 94.2443 205.195 94.4205C204.977 94.5966 204.731 94.733 204.458 94.8295C204.186 94.9261 203.894 94.9744 203.585 94.9744C203.082 94.9744 202.624 94.8509 202.213 94.6037C201.801 94.3565 201.472 94.017 201.228 93.5852C200.984 93.1534 200.862 92.6605 200.862 92.1065C200.862 91.5554 200.987 91.0554 201.237 90.6065C201.489 90.1577 201.842 89.8026 202.293 89.5412C202.748 89.277 203.281 89.1477 203.891 89.1534ZM203.896 90.2614C203.563 90.2614 203.264 90.3437 202.997 90.5085C202.732 90.6705 202.524 90.8906 202.37 91.169C202.217 91.4446 202.14 91.7514 202.14 92.0895C202.14 92.4276 202.214 92.7344 202.362 93.0099C202.512 93.2827 202.717 93.5 202.975 93.6619C203.237 93.821 203.535 93.9006 203.87 93.9006C204.12 93.9006 204.353 93.8523 204.569 93.7557C204.785 93.6591 204.974 93.5256 205.136 93.3551C205.298 93.1818 205.424 92.9858 205.515 92.767C205.606 92.5483 205.651 92.3182 205.651 92.0767C205.651 91.7557 205.575 91.4574 205.421 91.1818C205.271 90.9062 205.063 90.6847 204.799 90.517C204.535 90.3466 204.234 90.2614 203.896 90.2614ZM211.537 98.1193C210.952 98.1193 210.429 98.0185 209.969 97.8168C209.511 97.6151 209.149 97.3352 208.882 96.9773C208.618 96.6165 208.476 96.1989 208.456 95.7244H209.794C209.811 95.983 209.898 96.2074 210.054 96.3977C210.213 96.5852 210.42 96.7301 210.676 96.8324C210.932 96.9347 211.216 96.9858 211.528 96.9858C211.872 96.9858 212.176 96.9261 212.44 96.8068C212.707 96.6875 212.916 96.5213 213.067 96.3082C213.217 96.0923 213.292 95.8438 213.292 95.5625C213.292 95.2699 213.217 95.0128 213.067 94.7912C212.919 94.5668 212.702 94.3906 212.415 94.2628C212.13 94.1349 211.787 94.071 211.383 94.071H210.646V92.9972H211.383C211.707 92.9972 211.991 92.9389 212.236 92.8224C212.483 92.706 212.676 92.544 212.815 92.3366C212.954 92.1264 213.024 91.8807 213.024 91.5994C213.024 91.3295 212.963 91.0952 212.841 90.8963C212.721 90.6946 212.551 90.5369 212.329 90.4233C212.111 90.3097 211.852 90.2528 211.554 90.2528C211.27 90.2528 211.004 90.3054 210.757 90.4105C210.513 90.5128 210.314 90.6605 210.16 90.8537C210.007 91.044 209.925 91.2727 209.913 91.5398H208.639C208.653 91.0682 208.792 90.6534 209.057 90.2955C209.324 89.9375 209.676 89.6577 210.113 89.456C210.551 89.2543 211.037 89.1534 211.571 89.1534C212.13 89.1534 212.613 89.2628 213.02 89.4815C213.429 89.6974 213.744 89.9858 213.966 90.3466C214.19 90.7074 214.301 91.1023 214.298 91.5312C214.301 92.0199 214.165 92.4347 213.889 92.7756C213.616 93.1165 213.253 93.3452 212.798 93.4616V93.5298C213.378 93.6179 213.827 93.848 214.145 94.2202C214.466 94.5923 214.625 95.054 214.622 95.6051C214.625 96.0852 214.491 96.5156 214.221 96.8963C213.954 97.277 213.589 97.5767 213.126 97.7955C212.663 98.0114 212.133 98.1193 211.537 98.1193ZM215.93 96.2955V95.2301L219.701 89.2727H220.54V90.8409H220.008L217.31 95.1108V95.179H222.479V96.2955H215.93ZM220.067 98V95.9716L220.076 95.4858V89.2727H221.324V98H220.067ZM226.883 98.1193C226.297 98.1193 225.775 98.0185 225.315 97.8168C224.857 97.6151 224.495 97.3352 224.228 96.9773C223.964 96.6165 223.822 96.1989 223.802 95.7244H225.14C225.157 95.983 225.243 96.2074 225.4 96.3977C225.559 96.5852 225.766 96.7301 226.022 96.8324C226.278 96.9347 226.562 96.9858 226.874 96.9858C227.218 96.9858 227.522 96.9261 227.786 96.8068C228.053 96.6875 228.262 96.5213 228.413 96.3082C228.563 96.0923 228.638 95.8438 228.638 95.5625C228.638 95.2699 228.563 95.0128 228.413 94.7912C228.265 94.5668 228.047 94.3906 227.761 94.2628C227.476 94.1349 227.133 94.071 226.729 94.071H225.992V92.9972H226.729C227.053 92.9972 227.337 92.9389 227.582 92.8224C227.829 92.706 228.022 92.544 228.161 92.3366C228.3 92.1264 228.37 91.8807 228.37 91.5994C228.37 91.3295 228.309 91.0952 228.187 90.8963C228.067 90.6946 227.897 90.5369 227.675 90.4233C227.457 90.3097 227.198 90.2528 226.9 90.2528C226.616 90.2528 226.35 90.3054 226.103 90.4105C225.859 90.5128 225.66 90.6605 225.506 90.8537C225.353 91.044 225.27 91.2727 225.259 91.5398H223.985C223.999 91.0682 224.138 90.6534 224.403 90.2955C224.67 89.9375 225.022 89.6577 225.459 89.456C225.897 89.2543 226.383 89.1534 226.917 89.1534C227.476 89.1534 227.959 89.2628 228.366 89.4815C228.775 89.6974 229.09 89.9858 229.312 90.3466C229.536 90.7074 229.647 91.1023 229.644 91.5312C229.647 92.0199 229.511 92.4347 229.235 92.7756C228.962 93.1165 228.599 93.3452 228.144 93.4616V93.5298C228.724 93.6179 229.172 93.848 229.491 94.2202C229.812 94.5923 229.971 95.054 229.968 95.6051C229.971 96.0852 229.837 96.5156 229.567 96.8963C229.3 97.277 228.935 97.5767 228.472 97.7955C228.009 98.0114 227.479 98.1193 226.883 98.1193ZM234.361 89.1534C234.75 89.1562 235.133 89.2273 235.511 89.3665C235.889 89.5057 236.23 89.733 236.534 90.0483C236.841 90.3636 237.085 90.7898 237.267 91.3267C237.452 91.8608 237.545 92.5256 237.548 93.321C237.548 94.0852 237.471 94.7656 237.318 95.3622C237.165 95.956 236.945 96.4574 236.658 96.8665C236.373 97.2756 236.028 97.5866 235.622 97.7997C235.216 98.0128 234.758 98.1193 234.25 98.1193C233.73 98.1193 233.268 98.017 232.865 97.8125C232.462 97.608 232.133 97.3253 231.881 96.9645C231.628 96.6009 231.47 96.1832 231.408 95.7116H232.707C232.793 96.0866 232.966 96.3906 233.227 96.6236C233.491 96.8537 233.832 96.9688 234.25 96.9688C234.889 96.9688 235.388 96.6903 235.746 96.1335C236.104 95.5739 236.284 94.7926 236.287 93.7898H236.219C236.071 94.0341 235.886 94.2443 235.665 94.4205C235.446 94.5966 235.2 94.733 234.927 94.8295C234.655 94.9261 234.364 94.9744 234.054 94.9744C233.551 94.9744 233.094 94.8509 232.682 94.6037C232.27 94.3565 231.942 94.017 231.697 93.5852C231.453 93.1534 231.331 92.6605 231.331 92.1065C231.331 91.5554 231.456 91.0554 231.706 90.6065C231.959 90.1577 232.311 89.8026 232.763 89.5412C233.217 89.277 233.75 89.1477 234.361 89.1534ZM234.365 90.2614C234.033 90.2614 233.733 90.3437 233.466 90.5085C233.202 90.6705 232.993 90.8906 232.839 91.169C232.686 91.4446 232.609 91.7514 232.609 92.0895C232.609 92.4276 232.683 92.7344 232.831 93.0099C232.981 93.2827 233.186 93.5 233.445 93.6619C233.706 93.821 234.004 93.9006 234.339 93.9006C234.589 93.9006 234.822 93.8523 235.038 93.7557C235.254 93.6591 235.443 93.5256 235.605 93.3551C235.767 93.1818 235.893 92.9858 235.984 92.767C236.075 92.5483 236.121 92.3182 236.121 92.0767C236.121 91.7557 236.044 91.4574 235.891 91.1818C235.74 90.9062 235.533 90.6847 235.268 90.517C235.004 90.3466 234.703 90.2614 234.365 90.2614ZM242.006 98.1449C241.333 98.142 240.757 97.9645 240.28 97.6122C239.803 97.2599 239.438 96.7472 239.185 96.0739C238.932 95.4006 238.806 94.5895 238.806 93.6406C238.806 92.6946 238.932 91.8864 239.185 91.2159C239.441 90.5455 239.807 90.0341 240.284 89.6818C240.764 89.3295 241.338 89.1534 242.006 89.1534C242.674 89.1534 243.246 89.331 243.723 89.6861C244.201 90.0384 244.566 90.5497 244.818 91.2202C245.074 91.8878 245.202 92.6946 245.202 93.6406C245.202 94.5923 245.076 95.4048 244.823 96.0781C244.57 96.7486 244.205 97.2614 243.728 97.6165C243.25 97.9688 242.676 98.1449 242.006 98.1449ZM242.006 97.0071C242.597 97.0071 243.059 96.7188 243.391 96.142C243.726 95.5653 243.894 94.7315 243.894 93.6406C243.894 92.9162 243.817 92.304 243.664 91.804C243.513 91.3011 243.296 90.9205 243.012 90.6619C242.73 90.4006 242.395 90.2699 242.006 90.2699C241.418 90.2699 240.956 90.5597 240.621 91.1392C240.286 91.7187 240.117 92.5526 240.114 93.6406C240.114 94.3679 240.189 94.983 240.34 95.4858C240.493 95.9858 240.711 96.3651 240.992 96.6236C241.273 96.8793 241.611 97.0071 242.006 97.0071ZM246.594 98V97.0455L249.547 93.9858C249.862 93.6534 250.122 93.3622 250.327 93.1122C250.534 92.8594 250.689 92.6193 250.791 92.392C250.893 92.1648 250.945 91.9233 250.945 91.6676C250.945 91.3778 250.876 91.1278 250.74 90.9176C250.604 90.7045 250.418 90.5412 250.182 90.4276C249.946 90.3111 249.68 90.2528 249.385 90.2528C249.072 90.2528 248.8 90.3168 248.567 90.4446C248.334 90.5724 248.155 90.7528 248.03 90.9858C247.905 91.2187 247.842 91.4915 247.842 91.804H246.585C246.585 91.2727 246.707 90.8082 246.952 90.4105C247.196 90.0128 247.531 89.7045 247.957 89.4858C248.383 89.2642 248.868 89.1534 249.41 89.1534C249.959 89.1534 250.442 89.2628 250.859 89.4815C251.28 89.6974 251.608 89.9929 251.844 90.3679C252.08 90.7401 252.197 91.1605 252.197 91.6293C252.197 91.9531 252.136 92.2699 252.014 92.5795C251.895 92.8892 251.686 93.2344 251.388 93.6151C251.089 93.9929 250.675 94.4517 250.143 94.9915L248.409 96.8068V96.8707H252.338V98H246.594ZM256.871 98.1193C256.286 98.1193 255.763 98.0185 255.303 97.8168C254.846 97.6151 254.484 97.3352 254.217 96.9773C253.952 96.6165 253.81 96.1989 253.79 95.7244H255.129C255.146 95.983 255.232 96.2074 255.388 96.3977C255.548 96.5852 255.755 96.7301 256.011 96.8324C256.266 96.9347 256.55 96.9858 256.863 96.9858C257.207 96.9858 257.511 96.9261 257.775 96.8068C258.042 96.6875 258.251 96.5213 258.401 96.3082C258.552 96.0923 258.627 95.8438 258.627 95.5625C258.627 95.2699 258.552 95.0128 258.401 94.7912C258.254 94.5668 258.036 94.3906 257.749 94.2628C257.465 94.1349 257.121 94.071 256.718 94.071H255.981V92.9972H256.718C257.042 92.9972 257.326 92.9389 257.57 92.8224C257.817 92.706 258.011 92.544 258.15 92.3366C258.289 92.1264 258.359 91.8807 258.359 91.5994C258.359 91.3295 258.298 91.0952 258.175 90.8963C258.056 90.6946 257.886 90.5369 257.664 90.4233C257.445 90.3097 257.187 90.2528 256.888 90.2528C256.604 90.2528 256.339 90.3054 256.092 90.4105C255.847 90.5128 255.648 90.6605 255.495 90.8537C255.342 91.044 255.259 91.2727 255.248 91.5398H253.974C253.988 91.0682 254.127 90.6534 254.391 90.2955C254.658 89.9375 255.011 89.6577 255.448 89.456C255.886 89.2543 256.371 89.1534 256.906 89.1534C257.465 89.1534 257.948 89.2628 258.354 89.4815C258.763 89.6974 259.079 89.9858 259.3 90.3466C259.525 90.7074 259.636 91.1023 259.633 91.5312C259.636 92.0199 259.499 92.4347 259.224 92.7756C258.951 93.1165 258.587 93.3452 258.133 93.4616V93.5298C258.712 93.6179 259.161 93.848 259.479 94.2202C259.8 94.5923 259.96 95.054 259.957 95.6051C259.96 96.0852 259.826 96.5156 259.556 96.8963C259.289 97.277 258.924 97.5767 258.461 97.7955C257.998 98.0114 257.468 98.1193 256.871 98.1193ZM264.396 98.1193C263.786 98.1193 263.246 98.0142 262.777 97.804C262.311 97.5937 261.946 97.304 261.682 96.9347C261.418 96.5653 261.287 96.1449 261.29 95.6733C261.287 95.304 261.362 94.9645 261.516 94.6548C261.672 94.3423 261.884 94.0824 262.151 93.875C262.418 93.6648 262.716 93.5312 263.045 93.4744V93.4233C262.611 93.3182 262.263 93.0852 262.001 92.7244C261.74 92.3636 261.611 91.9489 261.614 91.4801C261.611 91.0341 261.729 90.6364 261.967 90.2869C262.209 89.9347 262.54 89.6577 262.96 89.456C263.381 89.2543 263.859 89.1534 264.396 89.1534C264.928 89.1534 265.402 89.2557 265.82 89.4602C266.24 89.6619 266.571 89.9389 266.813 90.2912C267.054 90.6406 267.176 91.0369 267.179 91.4801C267.176 91.9489 267.043 92.3636 266.778 92.7244C266.514 93.0852 266.17 93.3182 265.747 93.4233V93.4744C266.074 93.5312 266.368 93.6648 266.629 93.875C266.893 94.0824 267.104 94.3423 267.26 94.6548C267.419 94.9645 267.5 95.304 267.503 95.6733C267.5 96.1449 267.366 96.5653 267.102 96.9347C266.838 97.304 266.472 97.5937 266.003 97.804C265.537 98.0142 265.001 98.1193 264.396 98.1193ZM264.396 97.0412C264.757 97.0412 265.07 96.9815 265.334 96.8622C265.598 96.7401 265.803 96.571 265.947 96.3551C266.092 96.1364 266.166 95.8807 266.169 95.5881C266.166 95.2841 266.087 95.0156 265.93 94.7827C265.777 94.5497 265.568 94.3665 265.304 94.233C265.04 94.0994 264.737 94.0327 264.396 94.0327C264.053 94.0327 263.747 94.0994 263.48 94.233C263.213 94.3665 263.003 94.5497 262.849 94.7827C262.696 95.0156 262.621 95.2841 262.624 95.5881C262.621 95.8807 262.69 96.1364 262.832 96.3551C262.977 96.571 263.183 96.7401 263.45 96.8622C263.717 96.9815 264.033 97.0412 264.396 97.0412ZM264.396 92.9801C264.686 92.9801 264.943 92.9219 265.168 92.8054C265.392 92.6889 265.568 92.527 265.696 92.3196C265.827 92.1122 265.893 91.8693 265.896 91.5909C265.893 91.3182 265.828 91.0795 265.7 90.875C265.575 90.6705 265.401 90.5128 265.176 90.402C264.952 90.2884 264.692 90.2315 264.396 90.2315C264.095 90.2315 263.831 90.2884 263.604 90.402C263.379 90.5128 263.205 90.6705 263.08 90.875C262.955 91.0795 262.893 91.3182 262.896 91.5909C262.893 91.8693 262.956 92.1122 263.084 92.3196C263.212 92.527 263.388 92.6889 263.612 92.8054C263.84 92.9219 264.101 92.9801 264.396 92.9801ZM268.726 96.2955V95.2301L272.498 89.2727H273.337V90.8409H272.804L270.107 95.1108V95.179H275.276V96.2955H268.726ZM272.864 98V95.9716L272.873 95.4858V89.2727H274.121V98H272.864ZM279.679 98.1193C279.094 98.1193 278.571 98.0185 278.111 97.8168C277.654 97.6151 277.292 97.3352 277.025 96.9773C276.76 96.6165 276.618 96.1989 276.598 95.7244H277.937C277.954 95.983 278.04 96.2074 278.196 96.3977C278.356 96.5852 278.563 96.7301 278.819 96.8324C279.074 96.9347 279.358 96.9858 279.671 96.9858C280.015 96.9858 280.319 96.9261 280.583 96.8068C280.85 96.6875 281.059 96.5213 281.209 96.3082C281.36 96.0923 281.435 95.8438 281.435 95.5625C281.435 95.2699 281.36 95.0128 281.209 94.7912C281.062 94.5668 280.844 94.3906 280.557 94.2628C280.273 94.1349 279.929 94.071 279.526 94.071H278.789V92.9972H279.526C279.85 92.9972 280.134 92.9389 280.378 92.8224C280.625 92.706 280.819 92.544 280.958 92.3366C281.097 92.1264 281.167 91.8807 281.167 91.5994C281.167 91.3295 281.106 91.0952 280.983 90.8963C280.864 90.6946 280.694 90.5369 280.472 90.4233C280.253 90.3097 279.995 90.2528 279.696 90.2528C279.412 90.2528 279.147 90.3054 278.9 90.4105C278.655 90.5128 278.456 90.6605 278.303 90.8537C278.15 91.044 278.067 91.2727 278.056 91.5398H276.782C276.796 91.0682 276.935 90.6534 277.199 90.2955C277.466 89.9375 277.819 89.6577 278.256 89.456C278.694 89.2543 279.179 89.1534 279.713 89.1534C280.273 89.1534 280.756 89.2628 281.162 89.4815C281.571 89.6974 281.887 89.9858 282.108 90.3466C282.333 90.7074 282.444 91.1023 282.441 91.5312C282.444 92.0199 282.307 92.4347 282.032 92.7756C281.759 93.1165 281.395 93.3452 280.941 93.4616V93.5298C281.52 93.6179 281.969 93.848 282.287 94.2202C282.608 94.5923 282.767 95.054 282.765 95.6051C282.767 96.0852 282.634 96.5156 282.364 96.8963C282.097 97.277 281.732 97.5767 281.269 97.7955C280.806 98.0114 280.276 98.1193 279.679 98.1193Z"/><rect width="299" height="117" x=".5" y=".5" stroke="#EEEEF0" rx="11.5"/></svg>