<svg xmlns="http://www.w3.org/2000/svg" width="300" height="118" fill="none" viewBox="0 0 300 118"><rect width="299" height="117" x=".5" y=".5" fill="#fff" rx="11.5"/><path fill="#8C94A6" d="M17.125 23.8748H18.25V26.8748H17.5C17.4005 26.8748 17.3052 26.9143 17.2348 26.9846C17.1645 27.0549 17.125 27.1503 17.125 27.2498C17.125 27.3492 17.1645 27.4446 17.2348 27.5149C17.3052 27.5853 17.4005 27.6248 17.5 27.6248H26.5C26.5995 27.6248 26.6948 27.5853 26.7652 27.5149C26.8355 27.4446 26.875 27.3492 26.875 27.2498C26.875 27.1503 26.8355 27.0549 26.7652 26.9846C26.6948 26.9143 26.5995 26.8748 26.5 26.8748H25.75V23.8748H26.875C26.9566 23.8747 27.0359 23.848 27.101 23.7987C27.166 23.7495 27.2132 23.6804 27.2355 23.6019C27.2577 23.5233 27.2537 23.4397 27.2241 23.3637C27.1945 23.2877 27.1409 23.2234 27.0714 23.1805L22.1964 20.1805C22.1373 20.1442 22.0693 20.125 22 20.125C21.9307 20.125 21.8627 20.1442 21.8036 20.1805L16.9286 23.1805C16.8591 23.2234 16.8055 23.2877 16.7759 23.3637C16.7463 23.4397 16.7423 23.5233 16.7645 23.6019C16.7868 23.6804 16.834 23.7495 16.899 23.7987C16.9641 23.848 17.0434 23.8747 17.125 23.8748ZM19 23.8748H20.5V26.8748H19V23.8748ZM22.75 23.8748V26.8748H21.25V23.8748H22.75ZM25 26.8748H23.5V23.8748H25V26.8748ZM22 20.9399L25.5503 23.1248H18.4497L22 20.9399ZM27.625 28.7498C27.625 28.8492 27.5855 28.9446 27.5152 29.0149C27.4448 29.0853 27.3495 29.1248 27.25 29.1248H16.75C16.6505 29.1248 16.5552 29.0853 16.4848 29.0149C16.4145 28.9446 16.375 28.8492 16.375 28.7498C16.375 28.6503 16.4145 28.5549 16.4848 28.4846C16.5552 28.4143 16.6505 28.3748 16.75 28.3748H27.25C27.3495 28.3748 27.4448 28.4143 27.5152 28.4846C27.5855 28.5549 27.625 28.6503 27.625 28.7498Z"/><path fill="#8C94A6" d="M33.4134 29H32.2486L34.8658 21.7273H36.1335L38.7507 29H37.5859L35.5298 23.0483H35.473L33.4134 29ZM33.6087 26.152H37.3871V27.0753H33.6087V26.152ZM45.4996 24.0923H44.3917C44.3491 23.8556 44.2698 23.6473 44.1538 23.4673C44.0378 23.2874 43.8957 23.1347 43.7276 23.0092C43.5595 22.8838 43.3713 22.7891 43.163 22.7251C42.957 22.6612 42.738 22.6293 42.506 22.6293C42.087 22.6293 41.7118 22.7346 41.3803 22.9453C41.0513 23.156 40.7908 23.465 40.5991 23.8722C40.4097 24.2794 40.315 24.7765 40.315 25.3636C40.315 25.9555 40.4097 26.455 40.5991 26.8622C40.7908 27.2694 41.0524 27.5772 41.3839 27.7855C41.7153 27.9938 42.0882 28.098 42.5025 28.098C42.7321 28.098 42.9499 28.0672 43.1559 28.0057C43.3642 27.9418 43.5524 27.8482 43.7205 27.7251C43.8886 27.602 44.0307 27.4517 44.1467 27.2741C44.265 27.0942 44.3467 26.8883 44.3917 26.6562L45.4996 26.6598C45.4405 27.0173 45.3256 27.3464 45.1552 27.647C44.9871 27.9453 44.7705 28.2034 44.5053 28.4212C44.2425 28.6366 43.9419 28.8035 43.6033 28.9219C43.2648 29.0402 42.8955 29.0994 42.4954 29.0994C41.8656 29.0994 41.3046 28.9503 40.8121 28.652C40.3197 28.3513 39.9315 27.9216 39.6474 27.3629C39.3656 26.8042 39.2248 26.1378 39.2248 25.3636C39.2248 24.5871 39.3668 23.9207 39.6509 23.3643C39.935 22.8056 40.3233 22.3771 40.8157 22.0788C41.3081 21.7782 41.868 21.6278 42.4954 21.6278C42.8813 21.6278 43.2411 21.6835 43.5749 21.7947C43.9111 21.9036 44.2129 22.0646 44.4805 22.2777C44.748 22.4884 44.9693 22.7464 45.1445 23.0518C45.3197 23.3549 45.4381 23.7017 45.4996 24.0923ZM46.8127 29V21.7273H47.91V24.8878H51.5357V21.7273H52.6365V29H51.5357V25.8288H47.91V29H46.8127ZM56.881 29V21.7273H59.5444C60.0605 21.7273 60.4878 21.8125 60.8263 21.983C61.1649 22.151 61.4182 22.3795 61.5863 22.6683C61.7544 22.9548 61.8384 23.2779 61.8384 23.6378C61.8384 23.9408 61.7828 24.1965 61.6715 24.4048C61.5603 24.6108 61.4111 24.7765 61.2241 24.902C61.0394 25.0251 60.8358 25.1151 60.6133 25.1719V25.2429C60.8548 25.2547 61.0903 25.3329 61.32 25.4773C61.552 25.6193 61.7437 25.8217 61.8952 26.0845C62.0468 26.3473 62.1225 26.6669 62.1225 27.0433C62.1225 27.415 62.0349 27.7488 61.8597 28.0447C61.6869 28.3383 61.4194 28.5715 61.0572 28.7443C60.695 28.9148 60.2321 29 59.6687 29H56.881ZM57.9783 28.0589H59.5621C60.0877 28.0589 60.4641 27.9571 60.6914 27.7536C60.9187 27.55 61.0323 27.2955 61.0323 26.9901C61.0323 26.7604 60.9743 26.5497 60.8583 26.358C60.7423 26.1662 60.5766 26.0135 60.3612 25.8999C60.1481 25.7862 59.8948 25.7294 59.6012 25.7294H57.9783V28.0589ZM57.9783 24.8736H59.4485C59.6947 24.8736 59.9161 24.8262 60.1126 24.7315C60.3114 24.6368 60.4689 24.5043 60.5849 24.3338C60.7032 24.161 60.7624 23.9574 60.7624 23.723C60.7624 23.4223 60.6571 23.1702 60.4464 22.9666C60.2357 22.763 59.9125 22.6612 59.4769 22.6612H57.9783V24.8736ZM64.9261 29.1207C64.5805 29.1207 64.268 29.0568 63.9886 28.929C63.7093 28.7988 63.4879 28.6106 63.3246 28.3643C63.1636 28.1181 63.0831 27.8163 63.0831 27.4588C63.0831 27.151 63.1423 26.8977 63.2607 26.6989C63.379 26.5 63.5388 26.3426 63.7401 26.2266C63.9413 26.1106 64.1662 26.023 64.4148 25.9638C64.6634 25.9046 64.9167 25.8596 65.1747 25.8288C65.5014 25.791 65.7666 25.7602 65.9702 25.7365C66.1738 25.7105 66.3217 25.669 66.4141 25.6122C66.5064 25.5554 66.5526 25.4631 66.5526 25.3352V25.3104C66.5526 25.0002 66.465 24.7599 66.2898 24.5895C66.117 24.419 65.8589 24.3338 65.5156 24.3338C65.1581 24.3338 64.8764 24.4131 64.6705 24.5717C64.4669 24.728 64.326 24.902 64.2479 25.0938L63.25 24.8665C63.3684 24.535 63.5412 24.2675 63.7685 24.0639C63.9981 23.858 64.2621 23.7088 64.5604 23.6165C64.8587 23.5218 65.1723 23.4744 65.5014 23.4744C65.7192 23.4744 65.95 23.5005 66.1939 23.5526C66.4401 23.6023 66.6697 23.6946 66.8828 23.8295C67.0982 23.9645 67.2746 24.1574 67.4119 24.4084C67.5492 24.657 67.6179 24.9801 67.6179 25.3778V29H66.581V28.2543H66.5384C66.4697 28.3916 66.3667 28.5265 66.2294 28.6591C66.0921 28.7917 65.9157 28.9018 65.7003 28.9893C65.4848 29.0769 65.2268 29.1207 64.9261 29.1207ZM65.157 28.2685C65.4505 28.2685 65.7015 28.2105 65.9098 28.0945C66.1205 27.9785 66.2803 27.8269 66.3892 27.6399C66.5005 27.4505 66.5561 27.2481 66.5561 27.0327V26.3295C66.5182 26.3674 66.4448 26.4029 66.3359 26.4361C66.2294 26.4669 66.1075 26.4941 65.9702 26.5178C65.8329 26.5391 65.6991 26.5592 65.5689 26.5781C65.4387 26.5947 65.3298 26.6089 65.2422 26.6207C65.0362 26.6468 64.848 26.6906 64.6776 26.7521C64.5095 26.8137 64.3745 26.9025 64.2727 27.0185C64.1733 27.1321 64.1236 27.2836 64.1236 27.473C64.1236 27.7358 64.2206 27.9347 64.4148 28.0696C64.6089 28.2022 64.8563 28.2685 65.157 28.2685ZM70.0939 25.7614V29H69.0321V23.5455H70.0513V24.4332H70.1188C70.2443 24.1444 70.4408 23.9124 70.7083 23.7372C70.9782 23.562 71.3179 23.4744 71.7275 23.4744C72.0991 23.4744 72.4247 23.5526 72.704 23.7088C72.9834 23.8627 73.2 24.0923 73.3539 24.3977C73.5078 24.7031 73.5847 25.0807 73.5847 25.5305V29H72.5229V25.6584C72.5229 25.263 72.4199 24.9541 72.214 24.7315C72.008 24.5066 71.7251 24.3942 71.3652 24.3942C71.119 24.3942 70.9 24.4474 70.7083 24.554C70.5189 24.6605 70.3685 24.8168 70.2573 25.0227C70.1484 25.2263 70.0939 25.4725 70.0939 25.7614ZM75.9853 27.1499L75.9782 25.8537H76.1628L78.3361 23.5455H79.6074L77.1287 26.1733H76.9618L75.9853 27.1499ZM75.0087 29V21.7273H76.0705V29H75.0087ZM78.4533 29L76.5002 26.4077L77.2317 25.6655L79.7566 29H78.4533ZM82.9482 22.6719V21.7273H88.5767V22.6719H86.3075V29H85.2138V22.6719H82.9482ZM89.1689 29V23.5455H90.1951V24.4119H90.252C90.3514 24.1184 90.5266 23.8875 90.7775 23.7195C91.0308 23.549 91.3173 23.4638 91.6369 23.4638C91.7032 23.4638 91.7813 23.4661 91.8713 23.4709C91.9636 23.4756 92.0358 23.4815 92.0879 23.4886V24.5043C92.0453 24.4924 91.9695 24.4794 91.8606 24.4652C91.7517 24.4486 91.6428 24.4403 91.5339 24.4403C91.283 24.4403 91.0592 24.4936 90.8627 24.6001C90.6686 24.7043 90.5147 24.8499 90.4011 25.0369C90.2875 25.2216 90.2306 25.4323 90.2306 25.669V29H89.1689ZM94.5453 29.1207C94.1996 29.1207 93.8871 29.0568 93.6078 28.929C93.3284 28.7988 93.1071 28.6106 92.9437 28.3643C92.7827 28.1181 92.7022 27.8163 92.7022 27.4588C92.7022 27.151 92.7614 26.8977 92.8798 26.6989C92.9982 26.5 93.158 26.3426 93.3592 26.2266C93.5604 26.1106 93.7853 26.023 94.0339 25.9638C94.2825 25.9046 94.5358 25.8596 94.7939 25.8288C95.1206 25.791 95.3857 25.7602 95.5893 25.7365C95.7929 25.7105 95.9409 25.669 96.0332 25.6122C96.1255 25.5554 96.1717 25.4631 96.1717 25.3352V25.3104C96.1717 25.0002 96.0841 24.7599 95.9089 24.5895C95.7361 24.419 95.478 24.3338 95.1348 24.3338C94.7773 24.3338 94.4956 24.4131 94.2896 24.5717C94.086 24.728 93.9451 24.902 93.867 25.0938L92.8691 24.8665C92.9875 24.535 93.1603 24.2675 93.3876 24.0639C93.6172 23.858 93.8812 23.7088 94.1795 23.6165C94.4778 23.5218 94.7915 23.4744 95.1206 23.4744C95.3384 23.4744 95.5692 23.5005 95.813 23.5526C96.0592 23.6023 96.2889 23.6946 96.502 23.8295C96.7174 23.9645 96.8938 24.1574 97.0311 24.4084C97.1684 24.657 97.237 24.9801 97.237 25.3778V29H96.2001V28.2543H96.1575C96.0888 28.3916 95.9859 28.5265 95.8485 28.6591C95.7112 28.7917 95.5349 28.9018 95.3194 28.9893C95.104 29.0769 94.8459 29.1207 94.5453 29.1207ZM94.7761 28.2685C95.0697 28.2685 95.3206 28.2105 95.5289 28.0945C95.7396 27.9785 95.8994 27.8269 96.0083 27.6399C96.1196 27.4505 96.1752 27.2481 96.1752 27.0327V26.3295C96.1374 26.3674 96.064 26.4029 95.9551 26.4361C95.8485 26.4669 95.7266 26.4941 95.5893 26.5178C95.452 26.5391 95.3182 26.5592 95.188 26.5781C95.0578 26.5947 94.9489 26.6089 94.8613 26.6207C94.6554 26.6468 94.4672 26.6906 94.2967 26.7521C94.1286 26.8137 93.9937 26.9025 93.8919 27.0185C93.7924 27.1321 93.7427 27.2836 93.7427 27.473C93.7427 27.7358 93.8398 27.9347 94.0339 28.0696C94.228 28.2022 94.4754 28.2685 94.7761 28.2685ZM99.7131 25.7614V29H98.6513V23.5455H99.6705V24.4332H99.7379C99.8634 24.1444 100.06 23.9124 100.327 23.7372C100.597 23.562 100.937 23.4744 101.347 23.4744C101.718 23.4744 102.044 23.5526 102.323 23.7088C102.603 23.8627 102.819 24.0923 102.973 24.3977C103.127 24.7031 103.204 25.0807 103.204 25.5305V29H102.142V25.6584C102.142 25.263 102.039 24.9541 101.833 24.7315C101.627 24.5066 101.344 24.3942 100.984 24.3942C100.738 24.3942 100.519 24.4474 100.327 24.554C100.138 24.6605 99.9877 24.8168 99.8764 25.0227C99.7675 25.2263 99.7131 25.4725 99.7131 25.7614ZM108.715 24.8771L107.753 25.0476C107.713 24.9245 107.649 24.8073 107.561 24.696C107.476 24.5848 107.36 24.4936 107.213 24.4226C107.066 24.3516 106.883 24.3161 106.663 24.3161C106.362 24.3161 106.111 24.3835 105.91 24.5185C105.709 24.651 105.608 24.8227 105.608 25.0334C105.608 25.2157 105.675 25.3625 105.81 25.4737C105.945 25.585 106.163 25.6761 106.464 25.7472L107.33 25.946C107.832 26.062 108.206 26.2408 108.452 26.4822C108.699 26.7237 108.822 27.0374 108.822 27.4233C108.822 27.75 108.727 28.0412 108.538 28.2969C108.351 28.5502 108.089 28.7491 107.753 28.8935C107.419 29.0379 107.032 29.1101 106.592 29.1101C105.981 29.1101 105.482 28.9799 105.097 28.7195C104.711 28.4567 104.474 28.0838 104.386 27.6009L105.413 27.4446C105.477 27.7121 105.608 27.9145 105.807 28.0518C106.006 28.1868 106.265 28.2543 106.585 28.2543C106.933 28.2543 107.211 28.1821 107.419 28.0376C107.627 27.8909 107.732 27.7121 107.732 27.5014C107.732 27.331 107.668 27.1877 107.54 27.0717C107.414 26.9557 107.221 26.8681 106.961 26.8089L106.038 26.6065C105.529 26.4905 105.152 26.3059 104.908 26.0526C104.667 25.7992 104.546 25.4785 104.546 25.0902C104.546 24.7682 104.636 24.4865 104.816 24.245C104.996 24.0036 105.245 23.8153 105.562 23.6804C105.879 23.5431 106.242 23.4744 106.652 23.4744C107.241 23.4744 107.705 23.6023 108.044 23.858C108.383 24.1113 108.606 24.451 108.715 24.8771ZM112.585 23.5455V24.3977H109.503V23.5455H112.585ZM110.348 29V22.9134C110.348 22.5724 110.422 22.2895 110.572 22.0646C110.721 21.8374 110.918 21.6681 111.165 21.5568C111.411 21.4432 111.678 21.3864 111.967 21.3864C112.18 21.3864 112.363 21.4041 112.514 21.4396C112.666 21.4728 112.778 21.5036 112.851 21.532L112.603 22.3913C112.553 22.3771 112.489 22.3606 112.411 22.3416C112.333 22.3203 112.238 22.3097 112.127 22.3097C111.869 22.3097 111.684 22.3736 111.573 22.5014C111.464 22.6293 111.41 22.8139 111.41 23.0554V29H110.348ZM115.817 29.1101C115.279 29.1101 114.816 28.9953 114.428 28.7656C114.042 28.5336 113.744 28.2081 113.533 27.7891C113.325 27.3677 113.221 26.8741 113.221 26.3082C113.221 25.7495 113.325 25.2571 113.533 24.831C113.744 24.4048 114.037 24.0722 114.414 23.8331C114.793 23.594 115.235 23.4744 115.742 23.4744C116.05 23.4744 116.348 23.5253 116.637 23.6271C116.926 23.7289 117.185 23.8887 117.415 24.1065C117.644 24.3243 117.825 24.6072 117.958 24.9553C118.09 25.3009 118.157 25.7211 118.157 26.2159V26.5923H113.821V25.7969H117.116C117.116 25.5175 117.059 25.2701 116.946 25.0547C116.832 24.8369 116.672 24.6652 116.466 24.5398C116.263 24.4143 116.024 24.3516 115.749 24.3516C115.451 24.3516 115.19 24.425 114.968 24.5717C114.748 24.7161 114.577 24.9055 114.456 25.1399C114.338 25.3719 114.279 25.6241 114.279 25.8963V26.5178C114.279 26.8823 114.343 27.1925 114.471 27.4482C114.601 27.7038 114.782 27.8991 115.014 28.0341C115.246 28.1667 115.517 28.233 115.827 28.233C116.028 28.233 116.212 28.2045 116.378 28.1477C116.543 28.0885 116.687 28.0009 116.807 27.8849C116.928 27.7689 117.02 27.6257 117.084 27.4553L118.089 27.6364C118.009 27.9323 117.864 28.1915 117.656 28.4141C117.45 28.6342 117.191 28.8059 116.878 28.929C116.568 29.0497 116.214 29.1101 115.817 29.1101ZM119.335 29V23.5455H120.361V24.4119H120.418C120.517 24.1184 120.693 23.8875 120.944 23.7195C121.197 23.549 121.483 23.4638 121.803 23.4638C121.869 23.4638 121.947 23.4661 122.037 23.4709C122.13 23.4756 122.202 23.4815 122.254 23.4886V24.5043C122.211 24.4924 122.136 24.4794 122.027 24.4652C121.918 24.4486 121.809 24.4403 121.7 24.4403C121.449 24.4403 121.225 24.4936 121.029 24.6001C120.835 24.7043 120.681 24.8499 120.567 25.0369C120.453 25.2216 120.397 25.4323 120.397 25.669V29H119.335Z"/><rect width="42" height="18" x="242" y="16" fill="#EAF6FF" rx="9"/><rect width="2" height="9" x="250" y="20.5" fill="#7CD4FD" rx="1"/><path fill="#0086C9" d="M260.289 23.174C260.255 22.8714 260.114 22.6371 259.867 22.4709C259.62 22.3026 259.309 22.2184 258.934 22.2184C258.665 22.2184 258.433 22.261 258.237 22.3462C258.041 22.4293 257.889 22.5444 257.78 22.6914C257.674 22.8363 257.62 23.0014 257.62 23.1868C257.62 23.3423 257.657 23.4766 257.729 23.5895C257.804 23.7024 257.901 23.7972 258.02 23.8739C258.141 23.9485 258.271 24.0114 258.41 24.0625C258.548 24.1115 258.681 24.152 258.809 24.1839L259.449 24.3501C259.657 24.4013 259.871 24.4705 260.091 24.5579C260.31 24.6452 260.514 24.7603 260.701 24.9031C260.889 25.0458 261.04 25.2227 261.155 25.4336C261.272 25.6445 261.331 25.897 261.331 26.1911C261.331 26.5618 261.235 26.891 261.043 27.1786C260.854 27.4663 260.578 27.6932 260.216 27.8594C259.855 28.0256 259.42 28.1087 258.908 28.1087C258.418 28.1087 257.994 28.0309 257.636 27.8754C257.278 27.7198 256.998 27.4993 256.796 27.2138C256.593 26.9261 256.482 26.5852 256.46 26.1911H257.451C257.47 26.4276 257.547 26.6246 257.681 26.7823C257.817 26.9379 257.991 27.054 258.202 27.1307C258.415 27.2053 258.648 27.2425 258.902 27.2425C259.181 27.2425 259.429 27.1989 259.647 27.1115C259.866 27.022 260.039 26.8984 260.164 26.7408C260.29 26.581 260.353 26.3945 260.353 26.1815C260.353 25.9876 260.298 25.8288 260.187 25.7053C260.078 25.5817 259.93 25.4794 259.743 25.3984C259.557 25.3175 259.347 25.2461 259.113 25.1843L258.339 24.9734C257.815 24.8306 257.4 24.6207 257.093 24.3438C256.788 24.0668 256.636 23.7003 256.636 23.2443C256.636 22.8672 256.738 22.538 256.943 22.2567C257.147 21.9755 257.424 21.7571 257.774 21.6016C258.123 21.4439 258.517 21.3651 258.956 21.3651C259.4 21.3651 259.79 21.4428 260.129 21.5984C260.47 21.7539 260.739 21.968 260.935 22.2408C261.131 22.5114 261.233 22.8224 261.241 23.174H260.289ZM264.46 28.0991C263.976 28.0991 263.56 27.9957 263.211 27.7891C262.863 27.5803 262.595 27.2873 262.405 26.9102C262.218 26.5309 262.124 26.0866 262.124 25.5774C262.124 25.0746 262.218 24.6314 262.405 24.2479C262.595 23.8643 262.859 23.565 263.198 23.3498C263.539 23.1346 263.937 23.027 264.393 23.027C264.67 23.027 264.938 23.0728 265.198 23.1644C265.458 23.256 265.692 23.3999 265.898 23.5959C266.105 23.7919 266.268 24.0465 266.387 24.3597C266.507 24.6708 266.566 25.049 266.566 25.4943V25.8331H262.664V25.1172H265.63C265.63 24.8658 265.579 24.6431 265.476 24.4492C265.374 24.2532 265.23 24.0987 265.045 23.9858C264.862 23.8729 264.647 23.8164 264.399 23.8164C264.131 23.8164 263.897 23.8825 263.696 24.0146C263.498 24.1445 263.345 24.315 263.236 24.5259C263.13 24.7347 263.076 24.9616 263.076 25.2067V25.766C263.076 26.0941 263.134 26.3732 263.249 26.6033C263.366 26.8335 263.529 27.0092 263.738 27.1307C263.947 27.25 264.191 27.3097 264.47 27.3097C264.651 27.3097 264.816 27.2841 264.965 27.233C265.114 27.1797 265.243 27.1009 265.352 26.9964C265.461 26.892 265.544 26.7631 265.601 26.6097L266.506 26.7727C266.433 27.0391 266.303 27.2724 266.116 27.4727C265.93 27.6708 265.697 27.8253 265.416 27.9361C265.137 28.0447 264.818 28.0991 264.46 28.0991ZM268.492 25.0852V28H267.537V23.0909H268.454V23.8899H268.515C268.628 23.63 268.804 23.4212 269.045 23.2635C269.288 23.1058 269.594 23.027 269.962 23.027C270.297 23.027 270.59 23.0973 270.841 23.2379C271.093 23.3764 271.288 23.5831 271.426 23.858C271.565 24.1328 271.634 24.4727 271.634 24.8775V28H270.678V24.9925C270.678 24.6367 270.586 24.3587 270.4 24.1584C270.215 23.956 269.96 23.8548 269.636 23.8548C269.415 23.8548 269.218 23.9027 269.045 23.9986C268.875 24.0945 268.739 24.2351 268.639 24.4205C268.541 24.6037 268.492 24.8253 268.492 25.0852ZM275.117 23.0909V23.858H272.436V23.0909H275.117ZM273.155 21.9148H274.11V26.5586C274.11 26.744 274.138 26.8835 274.193 26.9773C274.249 27.0689 274.32 27.1317 274.408 27.1658C274.497 27.1978 274.594 27.2138 274.698 27.2138C274.775 27.2138 274.842 27.2085 274.9 27.1978C274.957 27.1871 275.002 27.1786 275.034 27.1722L275.207 27.9616C275.151 27.983 275.072 28.0043 274.97 28.0256C274.868 28.049 274.74 28.0618 274.587 28.0639C274.335 28.0682 274.101 28.0234 273.883 27.9297C273.666 27.8359 273.49 27.6911 273.356 27.495C273.222 27.299 273.155 27.0529 273.155 26.7567V21.9148Z"/><path fill="#1A1A21" d="M25.5753 66.1293H24.0241C23.9645 65.7978 23.8535 65.5062 23.6911 65.2543C23.5286 65.0024 23.3298 64.7886 23.0945 64.6129C22.8591 64.4373 22.5956 64.3047 22.304 64.2152C22.0156 64.1257 21.709 64.081 21.3842 64.081C20.7976 64.081 20.2723 64.2285 19.8082 64.5234C19.3475 64.8184 18.983 65.2509 18.7145 65.821C18.4493 66.3911 18.3168 67.0871 18.3168 67.9091C18.3168 68.7377 18.4493 69.437 18.7145 70.0071C18.983 70.5772 19.3492 71.008 19.8132 71.2997C20.2772 71.5914 20.7992 71.7372 21.3793 71.7372C21.7008 71.7372 22.0057 71.6941 22.294 71.608C22.5857 71.5185 22.8492 71.3875 23.0845 71.2152C23.3198 71.0429 23.5187 70.8324 23.6811 70.5838C23.8468 70.3319 23.9612 70.0436 24.0241 69.7188L25.5753 69.7237C25.4924 70.2242 25.3317 70.6849 25.093 71.1058C24.8577 71.5234 24.5545 71.8847 24.1832 72.1896C23.8153 72.4912 23.3944 72.7249 22.9205 72.8906C22.4465 73.0563 21.9295 73.1392 21.3693 73.1392C20.4877 73.1392 19.7022 72.9304 19.0128 72.5128C18.3234 72.0919 17.7798 71.4903 17.3821 70.7081C16.9877 69.9259 16.7905 68.9929 16.7905 67.9091C16.7905 66.822 16.9893 65.889 17.3871 65.1101C17.7848 64.3279 18.3284 63.728 19.0178 63.3104C19.7071 62.8894 20.491 62.679 21.3693 62.679C21.9096 62.679 22.4134 62.7569 22.8807 62.9126C23.3513 63.0651 23.7739 63.2905 24.1484 63.5888C24.523 63.8838 24.8329 64.245 25.0781 64.6726C25.3234 65.0968 25.4891 65.5824 25.5753 66.1293ZM28.6407 68.4659V73H27.1542V62.8182H28.6208V66.6065H28.7153C28.8943 66.1955 29.1677 65.8691 29.5356 65.6271C29.9035 65.3852 30.3841 65.2642 30.9774 65.2642C31.501 65.2642 31.9584 65.3719 32.3495 65.5874C32.7439 65.8028 33.0489 66.1243 33.2643 66.5518C33.483 66.9761 33.5924 67.5064 33.5924 68.1428V73H32.1059V68.3217C32.1059 67.7616 31.9617 67.3274 31.6734 67.0192C31.385 66.7076 30.984 66.5518 30.4703 66.5518C30.1189 66.5518 29.8041 66.6264 29.5257 66.7756C29.2506 66.9247 29.0335 67.1435 28.8744 67.4318C28.7186 67.7169 28.6407 68.0616 28.6407 68.4659ZM38.7273 73.1541C37.9749 73.1541 37.3269 72.9934 36.7834 72.6719C36.2431 72.3471 35.8255 71.8913 35.5305 71.3047C35.2389 70.7147 35.093 70.0237 35.093 69.2315C35.093 68.4493 35.2389 67.7599 35.5305 67.1634C35.8255 66.5668 36.2365 66.1011 36.7635 65.7663C37.2938 65.4316 37.9136 65.2642 38.6229 65.2642C39.0537 65.2642 39.4714 65.3355 39.8757 65.478C40.2801 65.6205 40.643 65.8442 40.9645 66.1491C41.286 66.4541 41.5395 66.8501 41.7251 67.3374C41.9108 67.8213 42.0036 68.4096 42.0036 69.1023V69.6293H35.9332V68.5156H40.5469C40.5469 68.1245 40.4673 67.7782 40.3082 67.4766C40.1492 67.1716 39.9254 66.9313 39.6371 66.7557C39.352 66.58 39.0173 66.4922 38.6328 66.4922C38.2152 66.4922 37.8506 66.5949 37.5391 66.8004C37.2308 67.0026 36.9922 67.2678 36.8232 67.5959C36.6574 67.9207 36.5746 68.2737 36.5746 68.6548V69.5249C36.5746 70.0353 36.6641 70.4695 36.843 70.8274C37.0253 71.1854 37.2789 71.4588 37.6037 71.6477C37.9285 71.8333 38.308 71.9261 38.7422 71.9261C39.0239 71.9261 39.2808 71.8864 39.5128 71.8068C39.7448 71.724 39.9453 71.6013 40.1144 71.4389C40.2834 71.2765 40.4126 71.076 40.5021 70.8374L41.9091 71.0909C41.7964 71.5052 41.5942 71.8681 41.3026 72.1797C41.0142 72.4879 40.6513 72.7282 40.2138 72.9006C39.7796 73.0696 39.2841 73.1541 38.7273 73.1541ZM48.3502 69.8331V65.3636H49.8417V73H48.3801V71.6776H48.3005C48.1249 72.0852 47.8431 72.425 47.4554 72.6967C47.0709 72.9652 46.592 73.0994 46.0186 73.0994C45.528 73.0994 45.0938 72.9917 44.716 72.7763C44.3415 72.5575 44.0465 72.2344 43.8311 71.8068C43.6189 71.3793 43.5129 70.8506 43.5129 70.2209V65.3636H44.9994V70.0419C44.9994 70.5623 45.1436 70.9766 45.4319 71.2848C45.7203 71.593 46.0948 71.7472 46.5555 71.7472C46.8339 71.7472 47.1107 71.6776 47.3858 71.5384C47.6642 71.3991 47.8945 71.1887 48.0768 70.907C48.2624 70.6252 48.3536 70.2673 48.3502 69.8331ZM53.1856 68.4659V73H51.6991V65.3636H53.1259V66.6065H53.2204C53.396 66.2022 53.6711 65.8774 54.0456 65.6321C54.4235 65.3868 54.8991 65.2642 55.4725 65.2642C55.9929 65.2642 56.4486 65.3736 56.8397 65.5923C57.2308 65.8078 57.534 66.1293 57.7495 66.5568C57.9649 66.9844 58.0726 67.513 58.0726 68.1428V73H56.5861V68.3217C56.5861 67.7682 56.442 67.3357 56.1536 67.0241C55.8652 66.7093 55.4692 66.5518 54.9654 66.5518C54.6207 66.5518 54.3141 66.6264 54.0456 66.7756C53.7805 66.9247 53.57 67.1435 53.4143 67.4318C53.2618 67.7169 53.1856 68.0616 53.1856 68.4659ZM63.1279 76.0227C62.5214 76.0227 61.9994 75.9432 61.5619 75.7841C61.1277 75.625 60.7731 75.4145 60.498 75.1527C60.2229 74.8909 60.0174 74.6042 59.8815 74.2926L61.1592 73.7656C61.2487 73.9115 61.368 74.0656 61.5172 74.228C61.6696 74.3937 61.8751 74.5346 62.1336 74.6506C62.3955 74.7666 62.7319 74.8246 63.1429 74.8246C63.7063 74.8246 64.172 74.687 64.5399 74.4119C64.9078 74.1402 65.0917 73.706 65.0917 73.1094V71.608H64.9973C64.9078 71.7704 64.7785 71.951 64.6095 72.1499C64.4438 72.3487 64.2151 72.5211 63.9234 72.6669C63.6317 72.8127 63.2522 72.8857 62.7849 72.8857C62.1817 72.8857 61.6381 72.7448 61.1542 72.4631C60.6736 72.178 60.2925 71.7588 60.0108 71.2053C59.7324 70.6484 59.5931 69.964 59.5931 69.152C59.5931 68.34 59.7307 67.6439 60.0058 67.0639C60.2842 66.4839 60.6654 66.0398 61.1493 65.7315C61.6332 65.42 62.1817 65.2642 62.7949 65.2642C63.2688 65.2642 63.6516 65.3438 63.9433 65.5028C64.235 65.6586 64.462 65.8409 64.6244 66.0497C64.7901 66.2585 64.9177 66.4425 65.0072 66.6016H65.1166V65.3636H66.5733V73.169C66.5733 73.8253 66.4208 74.3639 66.1159 74.7848C65.8109 75.2057 65.3983 75.5173 64.8779 75.7195C64.3609 75.9216 63.7776 76.0227 63.1279 76.0227ZM63.113 71.6527C63.5406 71.6527 63.9019 71.5533 64.1968 71.3544C64.4951 71.1522 64.7205 70.8639 64.873 70.4893C65.0288 70.1115 65.1066 69.6591 65.1066 69.1321C65.1066 68.6184 65.0304 68.166 64.8779 67.7749C64.7255 67.3838 64.5018 67.0788 64.2068 66.8601C63.9118 66.638 63.5472 66.527 63.113 66.527C62.6656 66.527 62.2927 66.643 61.9944 66.875C61.6961 67.1037 61.4707 67.4152 61.3183 67.8097C61.1691 68.2041 61.0946 68.6449 61.0946 69.1321C61.0946 69.6326 61.1708 70.0717 61.3233 70.4496C61.4757 70.8274 61.7011 71.1224 61.9994 71.3345C62.301 71.5466 62.6722 71.6527 63.113 71.6527ZM72.1113 73V62.8182H78.4252V64.1406H73.6475V67.2429H77.9728V68.5604H73.6475V73H72.1113ZM82.25 73.169C81.7661 73.169 81.3286 73.0795 80.9375 72.9006C80.5464 72.7183 80.2365 72.4548 80.0078 72.1101C79.7825 71.7654 79.6698 71.3428 79.6698 70.8423C79.6698 70.4115 79.7526 70.0568 79.9184 69.7784C80.0841 69.5 80.3078 69.2796 80.5895 69.1172C80.8712 68.9548 81.1861 68.8321 81.5341 68.7493C81.8821 68.6664 82.2368 68.6035 82.598 68.5604C83.0554 68.5073 83.4266 68.4643 83.7117 68.4311C83.9967 68.3946 84.2039 68.3366 84.3331 68.2571C84.4624 68.1776 84.527 68.0483 84.527 67.8693V67.8345C84.527 67.4003 84.4044 67.0639 84.1591 66.8253C83.9172 66.5866 83.5559 66.4673 83.0753 66.4673C82.5748 66.4673 82.1804 66.5784 81.8921 66.8004C81.607 67.0192 81.4098 67.2628 81.3005 67.5312L79.9034 67.2131C80.0692 66.7491 80.3111 66.3745 80.6293 66.0895C80.9508 65.8011 81.3203 65.5923 81.738 65.4631C82.1556 65.3305 82.5947 65.2642 83.0554 65.2642C83.3604 65.2642 83.6835 65.3007 84.0249 65.3736C84.3696 65.4432 84.6911 65.5724 84.9894 65.7614C85.291 65.9503 85.5379 66.2204 85.7301 66.5717C85.9224 66.9197 86.0185 67.3722 86.0185 67.929V73H84.5668V71.956H84.5071C84.411 72.1482 84.2668 72.3371 84.0746 72.5227C83.8824 72.7083 83.6354 72.8625 83.3338 72.9851C83.0322 73.1077 82.671 73.169 82.25 73.169ZM82.5732 71.9759C82.9842 71.9759 83.3355 71.8946 83.6272 71.7322C83.9221 71.5698 84.1459 71.3577 84.2983 71.0959C84.4541 70.8307 84.532 70.5473 84.532 70.2457V69.2614C84.479 69.3144 84.3762 69.3641 84.2238 69.4105C84.0746 69.4536 83.9039 69.4917 83.7117 69.5249C83.5194 69.5547 83.3322 69.5829 83.1499 69.6094C82.9676 69.6326 82.8151 69.6525 82.6925 69.669C82.4041 69.7055 82.1407 69.7668 81.902 69.853C81.6667 69.9392 81.4778 70.0634 81.3353 70.2259C81.1961 70.3849 81.1264 70.5971 81.1264 70.8622C81.1264 71.2301 81.2623 71.5085 81.5341 71.6974C81.8059 71.883 82.1523 71.9759 82.5732 71.9759ZM91.4231 65.3636V66.5568H87.2519V65.3636H91.4231ZM88.3705 63.5341H89.857V70.7578C89.857 71.0462 89.9001 71.2633 89.9863 71.4091C90.0724 71.5516 90.1835 71.6494 90.3194 71.7024C90.4586 71.7521 90.6094 71.777 90.7718 71.777C90.8911 71.777 90.9955 71.7687 91.085 71.7521C91.1745 71.7356 91.2441 71.7223 91.2938 71.7124L91.5623 72.9403C91.4761 72.9735 91.3535 73.0066 91.1944 73.0398C91.0353 73.0762 90.8364 73.0961 90.5978 73.0994C90.2067 73.1061 89.8421 73.0365 89.504 72.8906C89.166 72.7448 88.8925 72.5194 88.6837 72.2145C88.4749 71.9096 88.3705 71.5268 88.3705 71.0661V63.5341ZM96.062 73.1541C95.3461 73.1541 94.7213 72.9901 94.1877 72.6619C93.6541 72.3338 93.2398 71.8748 92.9448 71.2848C92.6498 70.6948 92.5023 70.0054 92.5023 69.2166C92.5023 68.4245 92.6498 67.7318 92.9448 67.1385C93.2398 66.5452 93.6541 66.0845 94.1877 65.7564C94.7213 65.4283 95.3461 65.2642 96.062 65.2642C96.7779 65.2642 97.4027 65.4283 97.9363 65.7564C98.4699 66.0845 98.8842 66.5452 99.1792 67.1385C99.4742 67.7318 99.6217 68.4245 99.6217 69.2166C99.6217 70.0054 99.4742 70.6948 99.1792 71.2848C98.8842 71.8748 98.4699 72.3338 97.9363 72.6619C97.4027 72.9901 96.7779 73.1541 96.062 73.1541ZM96.067 71.9062C96.531 71.9062 96.9155 71.7836 97.2204 71.5384C97.5253 71.2931 97.7507 70.9666 97.8965 70.5589C98.0457 70.1513 98.1202 69.7022 98.1202 69.2116C98.1202 68.7244 98.0457 68.277 97.8965 67.8693C97.7507 67.4583 97.5253 67.1286 97.2204 66.88C96.9155 66.6314 96.531 66.5071 96.067 66.5071C95.5996 66.5071 95.2119 66.6314 94.9036 66.88C94.5987 67.1286 94.3717 67.4583 94.2225 67.8693C94.0767 68.277 94.0038 68.7244 94.0038 69.2116C94.0038 69.7022 94.0767 70.1513 94.2225 70.5589C94.3717 70.9666 94.5987 71.2931 94.9036 71.5384C95.2119 71.7836 95.5996 71.9062 96.067 71.9062ZM102.508 70.4098L102.498 68.5952H102.757L105.799 65.3636H107.579L104.109 69.0426H103.875L102.508 70.4098ZM101.141 73V62.8182H102.627V73H101.141ZM105.963 73L103.229 69.3707L104.253 68.3317L107.788 73H105.963ZM108.794 73V65.3636H110.28V73H108.794ZM109.545 64.1854C109.286 64.1854 109.064 64.0992 108.878 63.9268C108.696 63.7512 108.605 63.5424 108.605 63.3004C108.605 63.0552 108.696 62.8464 108.878 62.674C109.064 62.4983 109.286 62.4105 109.545 62.4105C109.803 62.4105 110.024 62.4983 110.206 62.674C110.391 62.8464 110.484 63.0552 110.484 63.3004C110.484 63.5424 110.391 63.7512 110.206 63.9268C110.024 64.0992 109.803 64.1854 109.545 64.1854Z"/><path fill="#8C94A6" d="M210.068 73.4H208.668V72.084C206.61 71.832 205.7 70.67 205.7 69.088V68.85H207.184V69.004C207.184 70.166 207.674 70.754 209.634 70.754C211.02 70.754 211.524 70.376 211.524 69.508C211.524 68.654 211.244 68.346 209.802 68.052L208.206 67.73C206.596 67.422 205.728 66.638 205.728 65.154C205.728 63.88 206.638 62.69 208.668 62.508V61.22H210.068V62.536C212.042 62.816 212.854 64.132 212.854 65.602V65.77H211.37V65.616C211.37 64.468 210.866 63.866 209.186 63.866C207.8 63.866 207.24 64.258 207.24 65.084C207.24 65.938 207.618 66.176 208.906 66.456L210.502 66.792C212.266 67.156 213.036 68.038 213.036 69.452C213.036 70.824 212.112 71.972 210.068 72.126V73.4Z"/><path fill="#1A1A21" d="M221.36 73.16C218.08 73.16 216.912 71.32 216.912 67.528C216.912 64.232 218.32 62.12 221.504 62.12C223.776 62.12 225.296 63.352 225.296 65.416V65.512H223.472V65.416C223.472 64.408 222.96 63.784 221.28 63.784C219.2 63.784 218.672 64.856 218.672 67.112V67.992H218.752C219.184 67.08 220.144 66.36 221.952 66.36C224.32 66.36 225.584 67.64 225.584 69.672C225.584 71.8 224.096 73.16 221.36 73.16ZM221.408 71.496C223.264 71.496 223.872 70.92 223.872 69.64C223.872 68.392 223.28 67.816 221.424 67.816C219.6 67.816 218.912 68.408 218.912 69.656C218.912 70.92 219.616 71.496 221.408 71.496ZM231.898 73.16C229.018 73.16 227.274 71.032 227.274 67.64C227.274 64.248 229.018 62.12 231.898 62.12C234.778 62.12 236.538 64.248 236.538 67.64C236.538 71.032 234.778 73.16 231.898 73.16ZM231.898 71.496C233.802 71.496 234.698 70.472 234.698 67.64C234.698 64.808 233.802 63.784 231.898 63.784C229.994 63.784 229.114 64.808 229.114 67.64C229.114 70.472 229.994 71.496 231.898 71.496ZM245.666 73H243.954V70.776H237.762V69.576L243.666 62.28H245.666V69.224H247.33V70.776H245.666V73ZM239.97 69.224H243.954V64.408H243.826L239.97 69.096V69.224ZM248.912 74.888H248.336V73.752H248.864C249.136 73.752 249.28 73.688 249.28 73.336V73H248.304V70.52H250.496V73.304C250.496 74.376 249.92 74.888 248.912 74.888ZM256.659 73.16C253.779 73.16 252.035 71.032 252.035 67.64C252.035 64.248 253.779 62.12 256.659 62.12C259.539 62.12 261.299 64.248 261.299 67.64C261.299 71.032 259.539 73.16 256.659 73.16ZM256.659 71.496C258.563 71.496 259.459 70.472 259.459 67.64C259.459 64.808 258.563 63.784 256.659 63.784C254.755 63.784 253.875 64.808 253.875 67.64C253.875 70.472 254.755 71.496 256.659 71.496ZM267.609 73.16C265.257 73.16 263.737 71.88 263.737 69.816V69.72H265.561V69.816C265.561 70.824 266.041 71.496 267.737 71.496C269.753 71.496 270.185 70.536 270.185 68.168V67.288H270.105C269.641 68.2 268.713 68.92 266.905 68.92C264.537 68.92 263.305 67.64 263.305 65.608C263.305 63.48 264.777 62.12 267.513 62.12C270.777 62.12 271.961 63.816 271.961 67.64C271.961 71.112 270.681 73.16 267.609 73.16ZM267.465 67.464C269.273 67.464 269.945 66.872 269.945 65.624C269.945 64.36 269.257 63.784 267.465 63.784C265.609 63.784 264.985 64.36 264.985 65.64C264.985 66.888 265.593 67.464 267.465 67.464ZM278.448 73.16C275.568 73.16 273.824 71.032 273.824 67.64C273.824 64.248 275.568 62.12 278.448 62.12C281.328 62.12 283.088 64.248 283.088 67.64C283.088 71.032 281.328 73.16 278.448 73.16ZM278.448 71.496C280.352 71.496 281.248 70.472 281.248 67.64C281.248 64.808 280.352 63.784 278.448 63.784C276.544 63.784 275.664 64.808 275.664 67.64C275.664 70.472 276.544 71.496 278.448 71.496Z"/><path fill="#8C94A6" d="M22.571 89.2727H23.892V95.0128C23.892 95.6236 23.7486 96.1648 23.4616 96.6364C23.1747 97.1051 22.7713 97.4744 22.2514 97.7443C21.7315 98.0114 21.1222 98.1449 20.4233 98.1449C19.7273 98.1449 19.1193 98.0114 18.5994 97.7443C18.0795 97.4744 17.6761 97.1051 17.3892 96.6364C17.1023 96.1648 16.9588 95.6236 16.9588 95.0128V89.2727H18.2756V94.9062C18.2756 95.3011 18.3622 95.652 18.5355 95.9588C18.7116 96.2656 18.9602 96.5071 19.2812 96.6832C19.6023 96.8565 19.983 96.9432 20.4233 96.9432C20.8665 96.9432 21.2486 96.8565 21.5696 96.6832C21.8935 96.5071 22.1406 96.2656 22.3111 95.9588C22.4844 95.652 22.571 95.3011 22.571 94.9062V89.2727ZM26.8583 94.1136V98H25.5842V91.4545H26.8072V92.5199H26.8882C27.0387 92.1733 27.2745 91.8949 27.5956 91.6847C27.9194 91.4744 28.3271 91.3693 28.8186 91.3693C29.2646 91.3693 29.6552 91.4631 29.9904 91.6506C30.3257 91.8352 30.5856 92.1108 30.7703 92.4773C30.9549 92.8437 31.0473 93.2969 31.0473 93.8366V98H29.7731V93.9901C29.7731 93.5156 29.6495 93.1449 29.4024 92.8778C29.1552 92.608 28.8157 92.473 28.3839 92.473C28.0885 92.473 27.8257 92.5369 27.5956 92.6648C27.3683 92.7926 27.1879 92.9801 27.0544 93.2273C26.9237 93.4716 26.8583 93.767 26.8583 94.1136ZM32.6361 98V91.4545H33.9102V98H32.6361ZM33.2795 90.4446C33.0579 90.4446 32.8676 90.3707 32.7085 90.223C32.5523 90.0724 32.4741 89.8935 32.4741 89.6861C32.4741 89.4759 32.5523 89.2969 32.7085 89.1491C32.8676 88.9986 33.0579 88.9233 33.2795 88.9233C33.5011 88.9233 33.69 88.9986 33.8463 89.1491C34.0054 89.2969 34.0849 89.4759 34.0849 89.6861C34.0849 89.8935 34.0054 90.0724 33.8463 90.223C33.69 90.3707 33.5011 90.4446 33.2795 90.4446ZM38.5597 91.4545V92.4773H34.9845V91.4545H38.5597ZM35.9433 89.8864H37.2174V96.0781C37.2174 96.3253 37.2543 96.5114 37.3282 96.6364C37.4021 96.7585 37.4972 96.8423 37.6137 96.8878C37.733 96.9304 37.8623 96.9517 38.0015 96.9517C38.1038 96.9517 38.1933 96.9446 38.27 96.9304C38.3467 96.9162 38.4063 96.9048 38.4489 96.8963L38.6791 97.9489C38.6052 97.9773 38.5001 98.0057 38.3637 98.0341C38.2274 98.0653 38.0569 98.0824 37.8524 98.0852C37.5171 98.0909 37.2046 98.0312 36.9149 97.9062C36.6251 97.7812 36.3907 97.5881 36.2117 97.3267C36.0328 97.0653 35.9433 96.7372 35.9433 96.3423V89.8864ZM42.5999 98.1321C41.955 98.1321 41.3996 97.9943 40.9337 97.7188C40.4706 97.4403 40.1127 97.0497 39.8598 96.5469C39.6098 96.0412 39.4848 95.4489 39.4848 94.7699C39.4848 94.0994 39.6098 93.5085 39.8598 92.9972C40.1127 92.4858 40.465 92.0866 40.9167 91.7997C41.3712 91.5128 41.9025 91.3693 42.5104 91.3693C42.8797 91.3693 43.2377 91.4304 43.5843 91.5526C43.9309 91.6747 44.2419 91.8665 44.5175 92.1278C44.7931 92.3892 45.0104 92.7287 45.1695 93.1463C45.3286 93.5611 45.4081 94.0653 45.4081 94.6591V95.1108H40.205V94.1562H44.1596C44.1596 93.821 44.0914 93.5241 43.955 93.2656C43.8187 93.0043 43.6269 92.7983 43.3797 92.6477C43.1354 92.4972 42.8485 92.4219 42.5189 92.4219C42.161 92.4219 41.8485 92.5099 41.5814 92.6861C41.3172 92.8594 41.1127 93.0866 40.9678 93.3679C40.8258 93.6463 40.7547 93.9489 40.7547 94.2756V95.0213C40.7547 95.4588 40.8314 95.831 40.9848 96.1378C41.1411 96.4446 41.3584 96.679 41.6368 96.8409C41.9152 97 42.2405 97.0795 42.6127 97.0795C42.8542 97.0795 43.0743 97.0455 43.2732 96.9773C43.4721 96.9062 43.6439 96.8011 43.7888 96.6619C43.9337 96.5227 44.0445 96.3509 44.1212 96.1463L45.3272 96.3636C45.2306 96.7187 45.0573 97.0298 44.8073 97.2969C44.5601 97.5611 44.249 97.767 43.874 97.9148C43.5019 98.0597 43.0772 98.1321 42.5999 98.1321ZM49.1521 98.1278C48.6237 98.1278 48.1521 97.9929 47.7374 97.723C47.3254 97.4503 47.0016 97.0625 46.7658 96.5597C46.5328 96.054 46.4163 95.4474 46.4163 94.7401C46.4163 94.0327 46.5342 93.4276 46.77 92.9247C47.0087 92.4219 47.3354 92.0369 47.7501 91.7699C48.1649 91.5028 48.6351 91.3693 49.1607 91.3693C49.5669 91.3693 49.8936 91.4375 50.1408 91.5739C50.3908 91.7074 50.5839 91.8636 50.7203 92.0426C50.8595 92.2216 50.9675 92.3793 51.0442 92.5156H51.1209V89.2727H52.395V98H51.1507V96.9815H51.0442C50.9675 97.1207 50.8567 97.2798 50.7118 97.4588C50.5697 97.6378 50.3737 97.794 50.1237 97.9276C49.8737 98.0611 49.5499 98.1278 49.1521 98.1278ZM49.4334 97.0412C49.7999 97.0412 50.1095 96.9446 50.3624 96.7514C50.618 96.5554 50.8112 96.2841 50.9419 95.9375C51.0754 95.5909 51.1422 95.1875 51.1422 94.7273C51.1422 94.2727 51.0768 93.875 50.9462 93.5341C50.8155 93.1932 50.6237 92.9276 50.3709 92.7372C50.118 92.5469 49.8055 92.4517 49.4334 92.4517C49.0499 92.4517 48.7303 92.5511 48.4746 92.75C48.2189 92.9489 48.0257 93.2202 47.895 93.5639C47.7672 93.9077 47.7033 94.2955 47.7033 94.7273C47.7033 95.1648 47.7686 95.5582 47.8993 95.9077C48.03 96.2571 48.2232 96.5341 48.4788 96.7386C48.7374 96.9403 49.0555 97.0412 49.4334 97.0412ZM57.2516 98V89.2727H60.4476C61.067 89.2727 61.5797 89.375 61.986 89.5795C62.3922 89.7812 62.6962 90.0554 62.8979 90.402C63.0996 90.7457 63.2005 91.1335 63.2005 91.5653C63.2005 91.929 63.1337 92.2358 63.0002 92.4858C62.8667 92.733 62.6877 92.9318 62.4633 93.0824C62.2417 93.2301 61.9974 93.3381 61.7303 93.4062V93.4915C62.0201 93.5057 62.3028 93.5994 62.5783 93.7727C62.8567 93.9432 63.0868 94.1861 63.2687 94.5014C63.4505 94.8168 63.5414 95.2003 63.5414 95.652C63.5414 96.098 63.4363 96.4986 63.2261 96.8537C63.0187 97.206 62.6976 97.4858 62.263 97.6932C61.8283 97.8977 61.2729 98 60.5968 98H57.2516ZM58.5684 96.8707H60.4689C61.0996 96.8707 61.5513 96.7486 61.8241 96.5043C62.0968 96.2599 62.2332 95.9545 62.2332 95.5881C62.2332 95.3125 62.1636 95.0597 62.0243 94.8295C61.8851 94.5994 61.6863 94.4162 61.4278 94.2798C61.1721 94.1435 60.8681 94.0753 60.5158 94.0753H58.5684V96.8707ZM58.5684 93.0483H60.3326C60.628 93.0483 60.8937 92.9915 61.1295 92.8778C61.3681 92.7642 61.557 92.6051 61.6962 92.4006C61.8383 92.1932 61.9093 91.9489 61.9093 91.6676C61.9093 91.3068 61.7829 91.0043 61.53 90.7599C61.2772 90.5156 60.8894 90.3935 60.3667 90.3935H58.5684V93.0483ZM66.7857 98.1449C66.371 98.1449 65.996 98.0682 65.6607 97.9148C65.3255 97.7585 65.0599 97.5327 64.8639 97.2372C64.6707 96.9418 64.5741 96.5795 64.5741 96.1506C64.5741 95.7812 64.6451 95.4773 64.7872 95.2386C64.9292 95 65.121 94.8111 65.3624 94.6719C65.6039 94.5327 65.8738 94.4276 66.1721 94.3565C66.4704 94.2855 66.7744 94.2315 67.084 94.1946C67.4761 94.1491 67.7943 94.1122 68.0386 94.0838C68.2829 94.0526 68.4605 94.0028 68.5713 93.9347C68.682 93.8665 68.7374 93.7557 68.7374 93.6023V93.5724C68.7374 93.2003 68.6323 92.9119 68.4221 92.7074C68.2147 92.5028 67.9051 92.4006 67.4931 92.4006C67.0641 92.4006 66.7261 92.4957 66.4789 92.6861C66.2346 92.8736 66.0656 93.0824 65.9718 93.3125L64.7744 93.0398C64.9164 92.642 65.1238 92.321 65.3965 92.0767C65.6721 91.8295 65.9889 91.6506 66.3468 91.5398C66.7048 91.4261 67.0812 91.3693 67.4761 91.3693C67.7374 91.3693 68.0144 91.4006 68.307 91.4631C68.6025 91.5227 68.8781 91.6335 69.1338 91.7955C69.3923 91.9574 69.6039 92.1889 69.7687 92.4901C69.9335 92.7884 70.0159 93.1761 70.0159 93.6534V98H68.7715V97.1051H68.7204C68.638 97.2699 68.5144 97.4318 68.3497 97.5909C68.1849 97.75 67.9732 97.8821 67.7147 97.9872C67.4562 98.0923 67.1465 98.1449 66.7857 98.1449ZM67.0627 97.1222C67.415 97.1222 67.7161 97.0526 67.9661 96.9134C68.219 96.7741 68.4107 96.5923 68.5414 96.3679C68.6749 96.1406 68.7417 95.8977 68.7417 95.6392V94.7955C68.6963 94.8409 68.6082 94.8835 68.4775 94.9233C68.3497 94.9602 68.2034 94.9929 68.0386 95.0213C67.8738 95.0469 67.7133 95.071 67.557 95.0938C67.4008 95.1136 67.2701 95.1307 67.165 95.1449C66.9178 95.1761 66.692 95.2287 66.4874 95.3026C66.2857 95.3764 66.1238 95.483 66.0016 95.6222C65.8823 95.7585 65.8227 95.9403 65.8227 96.1676C65.8227 96.483 65.9391 96.7216 66.1721 96.8835C66.4051 97.0426 66.7019 97.1222 67.0627 97.1222ZM72.8671 94.1136V98H71.5929V91.4545H72.8159V92.5199H72.8969C73.0475 92.1733 73.2833 91.8949 73.6043 91.6847C73.9282 91.4744 74.3358 91.3693 74.8273 91.3693C75.2733 91.3693 75.664 91.4631 75.9992 91.6506C76.3344 91.8352 76.5944 92.1108 76.779 92.4773C76.9637 92.8437 77.056 93.2969 77.056 93.8366V98H75.7819V93.9901C75.7819 93.5156 75.6583 93.1449 75.4111 92.8778C75.164 92.608 74.8245 92.473 74.3927 92.473C74.0972 92.473 73.8344 92.5369 73.6043 92.6648C73.377 92.7926 73.1966 92.9801 73.0631 93.2273C72.9324 93.4716 72.8671 93.767 72.8671 94.1136ZM79.8167 95.7798L79.8082 94.2244H80.0298L82.6377 91.4545H84.1633L81.1888 94.608H80.9886L79.8167 95.7798ZM78.6448 98V89.2727H79.919V98H78.6448ZM82.7783 98L80.4346 94.8892L81.3124 93.9986L84.3423 98H82.7783ZM89.6793 89.2727V98H88.3626V89.2727H89.6793ZM92.6488 94.1136V98H91.3747V91.4545H92.5977V92.5199H92.6786C92.8292 92.1733 93.065 91.8949 93.386 91.6847C93.7099 91.4744 94.1176 91.3693 94.609 91.3693C95.0551 91.3693 95.4457 91.4631 95.7809 91.6506C96.1161 91.8352 96.3761 92.1108 96.5607 92.4773C96.7454 92.8437 96.8377 93.2969 96.8377 93.8366V98H95.5636V93.9901C95.5636 93.5156 95.44 93.1449 95.1928 92.8778C94.9457 92.608 94.6062 92.473 94.1744 92.473C93.8789 92.473 93.6161 92.5369 93.386 92.6648C93.1588 92.7926 92.9784 92.9801 92.8448 93.2273C92.7142 93.4716 92.6488 93.767 92.6488 94.1136ZM101.184 98.1321C100.55 98.1321 100.005 97.9886 99.5473 97.7017C99.0927 97.4119 98.7433 97.0128 98.499 96.5043C98.2547 95.9957 98.1325 95.4134 98.1325 94.7571C98.1325 94.0923 98.2575 93.5057 98.5075 92.9972C98.7575 92.4858 99.1098 92.0866 99.5643 91.7997C100.019 91.5128 100.554 91.3693 101.171 91.3693C101.668 91.3693 102.111 91.4616 102.5 91.6463C102.89 91.8281 103.204 92.0838 103.442 92.4134C103.684 92.7429 103.827 93.1278 103.873 93.5682H102.632C102.564 93.2614 102.408 92.9972 102.164 92.7756C101.922 92.554 101.598 92.4432 101.192 92.4432C100.837 92.4432 100.526 92.5369 100.259 92.7244C99.9947 92.9091 99.7887 93.1733 99.641 93.517C99.4933 93.858 99.4194 94.2614 99.4194 94.7273C99.4194 95.2045 99.4919 95.6165 99.6368 95.9631C99.7816 96.3097 99.9862 96.5781 100.25 96.7685C100.517 96.9588 100.831 97.054 101.192 97.054C101.434 97.054 101.652 97.0099 101.848 96.9219C102.047 96.831 102.213 96.7017 102.347 96.5341C102.483 96.3665 102.579 96.1648 102.632 95.929H103.873C103.827 96.3523 103.689 96.7301 103.459 97.0625C103.229 97.3949 102.921 97.6562 102.534 97.8466C102.151 98.0369 101.701 98.1321 101.184 98.1321ZM105.955 98.081C105.722 98.081 105.521 97.9986 105.354 97.8338C105.186 97.6662 105.102 97.4645 105.102 97.2287C105.102 96.9957 105.186 96.7969 105.354 96.6321C105.521 96.4645 105.722 96.3807 105.955 96.3807C106.188 96.3807 106.388 96.4645 106.555 96.6321C106.723 96.7969 106.807 96.9957 106.807 97.2287C106.807 97.3849 106.767 97.5284 106.688 97.6591C106.611 97.7869 106.509 97.8892 106.381 97.9659C106.253 98.0426 106.111 98.081 105.955 98.081Z"/><path fill="#8C94A6" d="M205.878 98.1449C205.205 98.142 204.629 97.9645 204.152 97.6122C203.675 97.2599 203.31 96.7472 203.057 96.0739C202.804 95.4006 202.678 94.5895 202.678 93.6406C202.678 92.6946 202.804 91.8864 203.057 91.2159C203.313 90.5455 203.679 90.0341 204.156 89.6818C204.636 89.3295 205.21 89.1534 205.878 89.1534C206.545 89.1534 207.118 89.331 207.595 89.6861C208.072 90.0384 208.438 90.5497 208.69 91.2202C208.946 91.8878 209.074 92.6946 209.074 93.6406C209.074 94.5923 208.947 95.4048 208.695 96.0781C208.442 96.7486 208.077 97.2614 207.599 97.6165C207.122 97.9688 206.548 98.1449 205.878 98.1449ZM205.878 97.0071C206.469 97.0071 206.93 96.7188 207.263 96.142C207.598 95.5653 207.766 94.7315 207.766 93.6406C207.766 92.9162 207.689 92.304 207.536 91.804C207.385 91.3011 207.168 90.9205 206.884 90.6619C206.602 90.4006 206.267 90.2699 205.878 90.2699C205.29 90.2699 204.828 90.5597 204.493 91.1392C204.158 91.7187 203.989 92.5526 203.986 93.6406C203.986 94.3679 204.061 94.983 204.212 95.4858C204.365 95.9858 204.582 96.3651 204.864 96.6236C205.145 96.8793 205.483 97.0071 205.878 97.0071ZM213.777 89.2727V98H212.456V90.5938H212.405L210.316 91.9574V90.696L212.494 89.2727H213.777ZM219.056 98.1449C218.383 98.142 217.807 97.9645 217.33 97.6122C216.853 97.2599 216.488 96.7472 216.235 96.0739C215.982 95.4006 215.856 94.5895 215.856 93.6406C215.856 92.6946 215.982 91.8864 216.235 91.2159C216.49 90.5455 216.857 90.0341 217.334 89.6818C217.814 89.3295 218.388 89.1534 219.056 89.1534C219.723 89.1534 220.296 89.331 220.773 89.6861C221.25 90.0384 221.615 90.5497 221.868 91.2202C222.124 91.8878 222.252 92.6946 222.252 93.6406C222.252 94.5923 222.125 95.4048 221.873 96.0781C221.62 96.7486 221.255 97.2614 220.777 97.6165C220.3 97.9688 219.726 98.1449 219.056 98.1449ZM219.056 97.0071C219.647 97.0071 220.108 96.7188 220.441 96.142C220.776 95.5653 220.944 94.7315 220.944 93.6406C220.944 92.9162 220.867 92.304 220.713 91.804C220.563 91.3011 220.346 90.9205 220.061 90.6619C219.78 90.4006 219.445 90.2699 219.056 90.2699C218.468 90.2699 218.006 90.5597 217.671 91.1392C217.336 91.7187 217.167 92.5526 217.164 93.6406C217.164 94.3679 217.239 94.983 217.39 95.4858C217.543 95.9858 217.76 96.3651 218.042 96.6236C218.323 96.8793 218.661 97.0071 219.056 97.0071ZM223.644 98V97.0455L226.597 93.9858C226.912 93.6534 227.172 93.3622 227.377 93.1122C227.584 92.8594 227.739 92.6193 227.841 92.392C227.943 92.1648 227.994 91.9233 227.994 91.6676C227.994 91.3778 227.926 91.1278 227.79 90.9176C227.653 90.7045 227.467 90.5412 227.232 90.4276C226.996 90.3111 226.73 90.2528 226.435 90.2528C226.122 90.2528 225.85 90.3168 225.617 90.4446C225.384 90.5724 225.205 90.7528 225.08 90.9858C224.955 91.2187 224.892 91.4915 224.892 91.804H223.635C223.635 91.2727 223.757 90.8082 224.002 90.4105C224.246 90.0128 224.581 89.7045 225.007 89.4858C225.433 89.2642 225.918 89.1534 226.46 89.1534C227.009 89.1534 227.492 89.2628 227.909 89.4815C228.33 89.6974 228.658 89.9929 228.894 90.3679C229.129 90.7401 229.247 91.1605 229.247 91.6293C229.247 91.9531 229.186 92.2699 229.064 92.5795C228.945 92.8892 228.736 93.2344 228.438 93.6151C228.139 93.9929 227.725 94.4517 227.193 94.9915L225.459 96.8068V96.8707H229.388V98H223.644ZM233.921 98.1193C233.336 98.1193 232.813 98.0185 232.353 97.8168C231.896 97.6151 231.533 97.3352 231.266 96.9773C231.002 96.6165 230.86 96.1989 230.84 95.7244H232.178C232.195 95.983 232.282 96.2074 232.438 96.3977C232.597 96.5852 232.805 96.7301 233.06 96.8324C233.316 96.9347 233.6 96.9858 233.913 96.9858C234.257 96.9858 234.56 96.9261 234.825 96.8068C235.092 96.6875 235.301 96.5213 235.451 96.3082C235.602 96.0923 235.677 95.8438 235.677 95.5625C235.677 95.2699 235.602 95.0128 235.451 94.7912C235.303 94.5668 235.086 94.3906 234.799 94.2628C234.515 94.1349 234.171 94.071 233.768 94.071H233.031V92.9972H233.768C234.092 92.9972 234.376 92.9389 234.62 92.8224C234.867 92.706 235.06 92.544 235.2 92.3366C235.339 92.1264 235.408 91.8807 235.408 91.5994C235.408 91.3295 235.347 91.0952 235.225 90.8963C235.106 90.6946 234.935 90.5369 234.714 90.4233C234.495 90.3097 234.237 90.2528 233.938 90.2528C233.654 90.2528 233.389 90.3054 233.141 90.4105C232.897 90.5128 232.698 90.6605 232.545 90.8537C232.391 91.044 232.309 91.2727 232.298 91.5398H231.024C231.038 91.0682 231.177 90.6534 231.441 90.2955C231.708 89.9375 232.06 89.6577 232.498 89.456C232.935 89.2543 233.421 89.1534 233.955 89.1534C234.515 89.1534 234.998 89.2628 235.404 89.4815C235.813 89.6974 236.129 89.9858 236.35 90.3466C236.575 90.7074 236.685 91.1023 236.683 91.5312C236.685 92.0199 236.549 92.4347 236.274 92.7756C236.001 93.1165 235.637 93.3452 235.183 93.4616V93.5298C235.762 93.6179 236.211 93.848 236.529 94.2202C236.85 94.5923 237.009 95.054 237.007 95.6051C237.009 96.0852 236.876 96.5156 236.606 96.8963C236.339 97.277 235.974 97.5767 235.511 97.7955C235.048 98.0114 234.518 98.1193 233.921 98.1193ZM241.446 98.1193C240.835 98.1193 240.296 98.0142 239.827 97.804C239.361 97.5937 238.996 97.304 238.732 96.9347C238.467 96.5653 238.337 96.1449 238.34 95.6733C238.337 95.304 238.412 94.9645 238.565 94.6548C238.722 94.3423 238.933 94.0824 239.2 93.875C239.467 93.6648 239.766 93.5312 240.095 93.4744V93.4233C239.661 93.3182 239.313 93.0852 239.051 92.7244C238.79 92.3636 238.661 91.9489 238.663 91.4801C238.661 91.0341 238.779 90.6364 239.017 90.2869C239.259 89.9347 239.59 89.6577 240.01 89.456C240.431 89.2543 240.909 89.1534 241.446 89.1534C241.977 89.1534 242.452 89.2557 242.869 89.4602C243.29 89.6619 243.621 89.9389 243.862 90.2912C244.104 90.6406 244.226 91.0369 244.229 91.4801C244.226 91.9489 244.092 92.3636 243.828 92.7244C243.564 93.0852 243.22 93.3182 242.797 93.4233V93.4744C243.124 93.5312 243.418 93.6648 243.679 93.875C243.943 94.0824 244.154 94.3423 244.31 94.6548C244.469 94.9645 244.55 95.304 244.553 95.6733C244.55 96.1449 244.416 96.5653 244.152 96.9347C243.888 97.304 243.521 97.5937 243.053 97.804C242.587 98.0142 242.051 98.1193 241.446 98.1193ZM241.446 97.0412C241.807 97.0412 242.119 96.9815 242.384 96.8622C242.648 96.7401 242.852 96.571 242.997 96.3551C243.142 96.1364 243.216 95.8807 243.219 95.5881C243.216 95.2841 243.137 95.0156 242.98 94.7827C242.827 94.5497 242.618 94.3665 242.354 94.233C242.09 94.0994 241.787 94.0327 241.446 94.0327C241.102 94.0327 240.797 94.0994 240.53 94.233C240.263 94.3665 240.053 94.5497 239.899 94.7827C239.746 95.0156 239.671 95.2841 239.673 95.5881C239.671 95.8807 239.74 96.1364 239.882 96.3551C240.027 96.571 240.233 96.7401 240.5 96.8622C240.767 96.9815 241.083 97.0412 241.446 97.0412ZM241.446 92.9801C241.736 92.9801 241.993 92.9219 242.217 92.8054C242.442 92.6889 242.618 92.527 242.746 92.3196C242.877 92.1122 242.943 91.8693 242.946 91.5909C242.943 91.3182 242.878 91.0795 242.75 90.875C242.625 90.6705 242.45 90.5128 242.226 90.402C242.002 90.2884 241.742 90.2315 241.446 90.2315C241.145 90.2315 240.881 90.2884 240.654 90.402C240.429 90.5128 240.254 90.6705 240.129 90.875C240.004 91.0795 239.943 91.3182 239.946 91.5909C239.943 91.8693 240.006 92.1122 240.134 92.3196C240.262 92.527 240.438 92.6889 240.662 92.8054C240.889 92.9219 241.151 92.9801 241.446 92.9801ZM245.776 96.2955V95.2301L249.547 89.2727H250.387V90.8409H249.854L247.157 95.1108V95.179H252.326V96.2955H245.776ZM249.914 98V95.9716L249.922 95.4858V89.2727H251.171V98H249.914ZM256.593 89.1534C256.982 89.1562 257.366 89.2273 257.743 89.3665C258.121 89.5057 258.462 89.733 258.766 90.0483C259.073 90.3636 259.317 90.7898 259.499 91.3267C259.684 91.8608 259.778 92.5256 259.78 93.321C259.78 94.0852 259.704 94.7656 259.55 95.3622C259.397 95.956 259.177 96.4574 258.89 96.8665C258.606 97.2756 258.26 97.5866 257.854 97.7997C257.448 98.0128 256.991 98.1193 256.482 98.1193C255.962 98.1193 255.501 98.017 255.097 97.8125C254.694 97.608 254.366 97.3253 254.113 96.9645C253.86 96.6009 253.702 96.1832 253.64 95.7116H254.939C255.025 96.0866 255.198 96.3906 255.459 96.6236C255.724 96.8537 256.064 96.9688 256.482 96.9688C257.121 96.9688 257.62 96.6903 257.978 96.1335C258.336 95.5739 258.516 94.7926 258.519 93.7898H258.451C258.303 94.0341 258.118 94.2443 257.897 94.4205C257.678 94.5966 257.432 94.733 257.16 94.8295C256.887 94.9261 256.596 94.9744 256.286 94.9744C255.783 94.9744 255.326 94.8509 254.914 94.6037C254.502 94.3565 254.174 94.017 253.93 93.5852C253.685 93.1534 253.563 92.6605 253.563 92.1065C253.563 91.5554 253.688 91.0554 253.938 90.6065C254.191 90.1577 254.543 89.8026 254.995 89.5412C255.449 89.277 255.982 89.1477 256.593 89.1534ZM256.597 90.2614C256.265 90.2614 255.965 90.3437 255.698 90.5085C255.434 90.6705 255.225 90.8906 255.072 91.169C254.918 91.4446 254.841 91.7514 254.841 92.0895C254.841 92.4276 254.915 92.7344 255.063 93.0099C255.214 93.2827 255.418 93.5 255.677 93.6619C255.938 93.821 256.236 93.9006 256.572 93.9006C256.822 93.9006 257.055 93.8523 257.27 93.7557C257.486 93.6591 257.675 93.5256 257.837 93.3551C257.999 93.1818 258.126 92.9858 258.216 92.767C258.307 92.5483 258.353 92.3182 258.353 92.0767C258.353 91.7557 258.276 91.4574 258.123 91.1818C257.972 90.9062 257.765 90.6847 257.501 90.517C257.236 90.3466 256.935 90.2614 256.597 90.2614ZM264.238 98.1193C263.653 98.1193 263.13 98.0185 262.67 97.8168C262.213 97.6151 261.85 97.3352 261.583 96.9773C261.319 96.6165 261.177 96.1989 261.157 95.7244H262.495C262.512 95.983 262.599 96.2074 262.755 96.3977C262.914 96.5852 263.122 96.7301 263.377 96.8324C263.633 96.9347 263.917 96.9858 264.23 96.9858C264.573 96.9858 264.877 96.9261 265.142 96.8068C265.409 96.6875 265.617 96.5213 265.768 96.3082C265.919 96.0923 265.994 95.8438 265.994 95.5625C265.994 95.2699 265.919 95.0128 265.768 94.7912C265.62 94.5668 265.403 94.3906 265.116 94.2628C264.832 94.1349 264.488 94.071 264.085 94.071H263.348V92.9972H264.085C264.409 92.9972 264.693 92.9389 264.937 92.8224C265.184 92.706 265.377 92.544 265.517 92.3366C265.656 92.1264 265.725 91.8807 265.725 91.5994C265.725 91.3295 265.664 91.0952 265.542 90.8963C265.423 90.6946 265.252 90.5369 265.031 90.4233C264.812 90.3097 264.553 90.2528 264.255 90.2528C263.971 90.2528 263.705 90.3054 263.458 90.4105C263.214 90.5128 263.015 90.6605 262.862 90.8537C262.708 91.044 262.626 91.2727 262.615 91.5398H261.34C261.355 91.0682 261.494 90.6534 261.758 90.2955C262.025 89.9375 262.377 89.6577 262.815 89.456C263.252 89.2543 263.738 89.1534 264.272 89.1534C264.832 89.1534 265.315 89.2628 265.721 89.4815C266.13 89.6974 266.446 89.9858 266.667 90.3466C266.892 90.7074 267.002 91.1023 267 91.5312C267.002 92.0199 266.866 92.4347 266.59 92.7756C266.318 93.1165 265.954 93.3452 265.5 93.4616V93.5298C266.079 93.6179 266.528 93.848 266.846 94.2202C267.167 94.5923 267.326 95.054 267.323 95.6051C267.326 96.0852 267.193 96.5156 266.923 96.8963C266.656 97.277 266.291 97.5767 265.828 97.7955C265.365 98.0114 264.835 98.1193 264.238 98.1193ZM268.631 96.2955V95.2301L272.402 89.2727H273.242V90.8409H272.709L270.012 95.1108V95.179H275.181V96.2955H268.631ZM272.769 98V95.9716L272.777 95.4858V89.2727H274.026V98H272.769ZM276.363 96.2955V95.2301L280.134 89.2727H280.973V90.8409H280.441L277.743 95.1108V95.179H282.912V96.2955H276.363ZM280.5 98V95.9716L280.509 95.4858V89.2727H281.757V98H280.5Z"/><rect width="299" height="117" x=".5" y=".5" stroke="#EEEEF0" rx="11.5"/></svg>