<svg xmlns="http://www.w3.org/2000/svg" width="28" height="28" fill="none" viewBox="0 0 28 28"><g clip-path="url(#clip0_3640_52240)"><rect width="28" height="28" fill="#EE1F25" rx="14"/><path fill="#FC0" d="M6.38849 8.63916L7.0419 10.5189L9.03159 10.5595L7.44573 11.7618L8.02202 13.6666L6.38849 12.5299L4.75497 13.6666L5.33125 11.7618L3.74539 10.5595L5.73508 10.5189L6.38849 8.63916Z"/><path fill="#FC0" d="M11.7111 5.41211L12.0639 6.42684L13.1379 6.44872L12.2819 7.09775L12.5929 8.126L11.7111 7.51239L10.8293 8.126L11.1404 7.09775L10.2844 6.44872L11.3584 6.42684L11.7111 5.41211Z"/><path fill="#FC0" d="M11.7107 14.4238L11.358 15.4386L10.284 15.4604L11.14 16.1095L10.8289 17.1377L11.7107 16.5241L12.5925 17.1377L12.2814 16.1095L13.1375 15.4604L12.0635 15.4386L11.7107 14.4238Z"/><path fill="#FC0" d="M15.6248 12.2695L15.2721 13.2843L14.198 13.3061L15.0541 13.9552L14.743 14.9834L15.6248 14.3698L16.5066 14.9834L16.1955 13.9552L17.0516 13.3061L15.9775 13.2843L15.6248 12.2695Z"/><path fill="#FC0" d="M15.6248 7.56543L15.2721 8.58016L14.198 8.60204L15.0541 9.25107L14.743 10.2793L15.6248 9.66571L16.5066 10.2793L16.1955 9.25107L17.0516 8.60204L15.9775 8.58016L15.6248 7.56543Z"/></g><rect width="27.139" height="27.139" x=".431" y=".431" stroke="#EEEEF0" stroke-width=".861" rx="13.569"/><defs><clipPath id="clip0_3640_52240"><rect width="28" height="28" fill="#fff" rx="14"/></clipPath></defs></svg>