<svg xmlns="http://www.w3.org/2000/svg" width="28" height="28" fill="none" viewBox="0 0 28 28"><g clip-path="url(#clip0_3640_52230)"><rect width="28" height="28" fill="#039" rx="14"/><path fill="#FC0" d="M13.9974 3.33887L14.546 4.91712L16.2165 4.95116L14.885 5.96062L15.3689 7.55991L13.9974 6.60553L12.6259 7.55991L13.1097 5.96062L11.7783 4.95116L13.4488 4.91712L13.9974 3.33887Z"/><path fill="#FC0" d="M13.9974 19.9946L14.546 21.5729L16.2165 21.6069L14.885 22.6164L15.3689 24.2157L13.9974 23.2613L12.6259 24.2157L13.1097 22.6164L11.7783 21.6069L13.4488 21.5729L13.9974 19.9946Z"/><path fill="#FC0" d="M7.92708 17.3564L8.47568 18.9347L10.1462 18.9687L8.81474 19.9782L9.29858 21.5775L7.92708 20.6231L6.55558 21.5775L7.03943 19.9782L5.70795 18.9687L7.37848 18.9347L7.92708 17.3564Z"/><path fill="#FC0" d="M20.0807 17.3564L19.5321 18.9347L17.8616 18.9687L19.1931 19.9782L18.7092 21.5775L20.0807 20.6231L21.4522 21.5775L20.9684 19.9782L22.2999 18.9687L20.6293 18.9347L20.0807 17.3564Z"/><path fill="#FC0" d="M5.02083 11.75L5.56943 13.3283L7.23997 13.3623L5.90849 14.3717L6.39233 15.971L5.02083 15.0167L3.64933 15.971L4.13318 14.3717L2.8017 13.3623L4.47223 13.3283L5.02083 11.75Z"/><path fill="#FC0" d="M22.9792 11.75L22.4306 13.3283L20.76 13.3623L22.0915 14.3717L21.6077 15.971L22.9792 15.0167L24.3507 15.971L23.8668 14.3717L25.1983 13.3623L23.5278 13.3283L22.9792 11.75Z"/><path fill="#FC0" d="M7.92708 6.14355L8.47568 7.72181L10.1462 7.75585L8.81474 8.7653L9.29858 10.3646L7.92708 9.41022L6.55558 10.3646L7.03943 8.7653L5.70795 7.75585L7.37848 7.72181L7.92708 6.14355Z"/><path fill="#FC0" d="M20.0807 6.14355L19.5321 7.72181L17.8616 7.75585L19.1931 8.7653L18.7092 10.3646L20.0807 9.41022L21.4522 10.3646L20.9684 8.7653L22.2999 7.75585L20.6293 7.72181L20.0807 6.14355Z"/></g><rect width="27.139" height="27.139" x=".431" y=".431" stroke="#EEEEF0" stroke-width=".861" rx="13.569"/><defs><clipPath id="clip0_3640_52230"><rect width="28" height="28" fill="#fff" rx="14"/></clipPath></defs></svg>