<svg width="44" height="32" viewBox="0 0 44 32" fill="none" xmlns="http://www.w3.org/2000/svg">
<path d="M20.9839 15.5273V16.5346L20.1797 16.031L20.9839 15.5273Z" fill="#8872FD"/>
<path d="M20.7165 8.11721L8.34504 0.387124C7.86922 0.0921671 7.25704 0.431645 7.25704 0.988167V6.41982C7.25704 6.78991 7.15965 7.15721 6.95374 7.4633C6.76174 7.74712 6.50017 7.96138 6.20244 8.09495C5.97704 8.19512 5.72939 8.24799 5.47896 8.24799H0.712348C0.32 8.24799 0 8.56799 0 8.96034V21.7798C0 22.1722 0.32 22.4922 0.712348 22.4922H6.2887C6.68104 22.4922 7.00104 22.1749 7.00104 21.7798C6.99826 18.872 6.99548 9.41669 6.99548 9.41669C6.99548 9.19408 7.07896 8.97982 7.22644 8.81565C7.40452 8.62086 7.64661 8.51791 7.89704 8.51791C8.06122 8.51791 8.22539 8.56243 8.37565 8.65425L19.2167 15.4299C19.6619 15.7082 19.6619 16.3593 19.2167 16.6376L7.52417 23.9447C7.35722 24.0476 7.25704 24.2313 7.25704 24.4261V31.0682C7.25704 31.6247 7.872 31.9669 8.34504 31.6692L20.7165 23.9391C20.8807 23.8362 20.9837 23.6525 20.9837 23.4577V15.5273V8.60138C20.9837 8.40382 20.8835 8.22295 20.7165 8.11721Z" fill="#8872FD"/>
<path d="M23.1031 23.9423L35.4745 31.6723C35.9504 31.9673 36.5625 31.6278 36.5625 31.0713V25.6396C36.5625 25.2696 36.6599 24.9023 36.8659 24.5962C37.0579 24.3123 37.3194 24.0981 37.6172 23.9645C37.8425 23.8643 38.0902 23.8115 38.3406 23.8115H43.1045C43.4968 23.8115 43.8168 23.4915 43.8168 23.0991V10.2824C43.8168 9.89008 43.4968 9.57008 43.1045 9.57008H37.5281C37.1358 9.57008 36.8158 9.8873 36.8158 10.2824C36.8185 13.1903 36.8213 22.6456 36.8213 22.6456C36.8213 22.8682 36.7379 23.0824 36.5904 23.2466C36.4123 23.4414 36.1702 23.5443 35.9198 23.5443C35.7556 23.5443 35.5914 23.4998 35.4412 23.408L24.6057 16.6323C24.1605 16.3541 24.1605 15.703 24.6057 15.4247L36.2954 8.112C36.4624 8.00904 36.5625 7.82539 36.5625 7.6306V0.9913C36.5625 0.434778 35.9476 0.0925174 35.4745 0.390257L23.1031 8.11756C22.9389 8.22052 22.8359 8.40417 22.8359 8.59895V16.5322V23.4581C22.8359 23.6556 22.9361 23.8393 23.1031 23.9423Z" fill="#8872FD"/>
</svg>
