<svg width="184" height="32" viewBox="0 0 184 32" fill="none" xmlns="http://www.w3.org/2000/svg">
<path d="M20.9839 15.5273V16.5346L20.1797 16.031L20.9839 15.5273Z" fill="#8872FD"/>
<path d="M20.7165 8.11721L8.34504 0.387124C7.86922 0.0921671 7.25704 0.431645 7.25704 0.988167V6.41982C7.25704 6.78991 7.15965 7.15721 6.95374 7.4633C6.76174 7.74712 6.50017 7.96138 6.20244 8.09495C5.97704 8.19512 5.72939 8.24799 5.47896 8.24799H0.712348C0.32 8.24799 0 8.56799 0 8.96034V21.7798C0 22.1722 0.32 22.4922 0.712348 22.4922H6.2887C6.68104 22.4922 7.00104 22.1749 7.00104 21.7798C6.99826 18.872 6.99548 9.41669 6.99548 9.41669C6.99548 9.19408 7.07896 8.97982 7.22644 8.81565C7.40452 8.62086 7.64661 8.51791 7.89704 8.51791C8.06122 8.51791 8.22539 8.56243 8.37565 8.65425L19.2167 15.4299C19.6619 15.7082 19.6619 16.3593 19.2167 16.6376L7.52417 23.9447C7.35722 24.0476 7.25704 24.2313 7.25704 24.4261V31.0682C7.25704 31.6247 7.872 31.9669 8.34504 31.6692L20.7165 23.9391C20.8807 23.8362 20.9837 23.6525 20.9837 23.4577V15.5273V8.60138C20.9837 8.40382 20.8835 8.22295 20.7165 8.11721Z" fill="#8872FD"/>
<path d="M23.1031 23.9423L35.4745 31.6723C35.9504 31.9673 36.5625 31.6278 36.5625 31.0713V25.6396C36.5625 25.2696 36.6599 24.9023 36.8659 24.5962C37.0579 24.3123 37.3194 24.0981 37.6172 23.9645C37.8425 23.8643 38.0902 23.8115 38.3406 23.8115H43.1045C43.4968 23.8115 43.8168 23.4915 43.8168 23.0991V10.2824C43.8168 9.89008 43.4968 9.57008 43.1045 9.57008H37.5281C37.1358 9.57008 36.8158 9.8873 36.8158 10.2824C36.8185 13.1903 36.8213 22.6456 36.8213 22.6456C36.8213 22.8682 36.7379 23.0824 36.5904 23.2466C36.4123 23.4414 36.1702 23.5443 35.9198 23.5443C35.7556 23.5443 35.5914 23.4998 35.4412 23.408L24.6057 16.6323C24.1605 16.3541 24.1605 15.703 24.6057 15.4247L36.2954 8.112C36.4624 8.00904 36.5625 7.82539 36.5625 7.6306V0.9913C36.5625 0.434778 35.9476 0.0925174 35.4745 0.390257L23.1031 8.11756C22.9389 8.22052 22.8359 8.40417 22.8359 8.59895V16.5322V23.4581C22.8359 23.6556 22.9361 23.8393 23.1031 23.9423Z" fill="#8872FD"/>
<path d="M50.8203 24.5595V7.52441H54.7104L58.6005 16.8795L60.1003 20.9477H60.3034L61.7782 16.8795L65.5932 7.52441H69.4833V24.5595H66.7619V14.4893L66.8648 11.6427H66.6867L65.6182 14.4893L61.8033 23.5411H58.4975L54.6575 14.4893L53.6419 11.6427H53.4137L53.5667 14.4893V24.5568H50.8203V24.5595Z" fill="#1A1A21"/>
<path d="M71.4922 18.2266C71.4922 14.3114 73.9075 11.668 77.7976 11.668C81.6626 11.668 84 14.3114 84 18.2266C84 22.1668 81.6598 24.813 77.7976 24.813C73.9075 24.813 71.4922 22.1695 71.4922 18.2266ZM81.3565 18.2266C81.3565 15.405 80.4411 14.1083 77.7976 14.1083C75.1291 14.1083 74.1885 15.405 74.1885 18.2266C74.1885 21.0732 75.1291 22.3699 77.7976 22.3699C80.4411 22.3727 81.3565 21.076 81.3565 18.2266Z" fill="#1A1A21"/>
<path d="M86.0625 24.5598V11.9212H88.5808V14.2864H88.6837C89.2681 12.9396 90.6149 11.668 93.083 11.668C96.3637 11.668 97.8385 13.7521 97.8385 16.6266V24.5598H95.0921V17.236C95.0921 14.9737 94.3797 14.0332 92.0674 14.0332C89.8301 14.0332 88.8117 14.8986 88.8117 17.261V24.557H86.0625V24.5598Z" fill="#1A1A21"/>
<path d="M100.298 10.3209L100.273 7.52441H103.02V10.3209H100.298ZM100.298 24.5595V11.8458H103.045V24.5568H100.298V24.5595Z" fill="#1A1A21"/>
<path d="M104.922 18.2266C104.922 14.3114 107.262 11.668 111.024 11.668C114.43 11.668 116.82 13.7021 116.82 17.1608C116.82 17.8231 116.745 18.5076 116.667 18.8888H107.487C107.59 21.2012 108.428 22.3727 111.071 22.3727C113.181 22.3727 113.996 21.6603 113.996 20.5167V20.3135H116.717V20.5417C116.717 23.1351 114.455 24.813 111.046 24.813C106.878 24.813 104.922 22.1695 104.922 18.2266ZM107.512 17.0579H114.199C114.302 14.8958 113.131 13.9803 110.971 13.9803C108.581 13.9831 107.666 15.1017 107.512 17.0579Z" fill="#1A1A21"/>
<path d="M123.74 24.5595L117.281 7.52441H120.359L125.496 21.507H125.699L130.782 7.52441H133.832L127.374 24.5595H123.74Z" fill="#1A1A21"/>
<path d="M133.484 18.2266C133.484 14.3114 135.825 11.668 139.587 11.668C142.993 11.668 145.383 13.7021 145.383 17.1608C145.383 17.8231 145.308 18.5076 145.23 18.8888H136.053C136.156 21.2012 136.993 22.3727 139.637 22.3727C141.746 22.3727 142.561 21.6603 142.561 20.5167V20.3135H145.283V20.5417C145.283 23.1351 143.02 24.813 139.612 24.813C135.441 24.813 133.484 22.1695 133.484 18.2266ZM136.078 17.0579H142.764C142.867 14.8958 141.696 13.9803 139.537 13.9803C137.144 13.9831 136.228 15.1017 136.078 17.0579Z" fill="#1A1A21"/>
<path d="M147.562 24.5598V11.8461H150.078V13.8551H150.206C150.715 12.6864 151.884 11.668 153.74 11.668C156.383 11.668 157.402 13.5991 157.402 15.9643V16.8019H154.655V16.2927C154.655 14.6148 154.171 14.0054 152.571 14.0054C150.918 14.0054 150.309 14.6398 150.309 16.3177V24.5542H147.562V24.5598Z" fill="#1A1A21"/>
<path d="M159.028 20.2883V20.2383H161.671V20.6946C161.671 22.0664 162.281 22.5756 164.696 22.5756C166.73 22.5756 167.111 22.1193 167.111 21.176C167.111 20.1603 166.502 19.8543 164.646 19.5231L162.687 19.192C160.425 18.7857 159 17.7673 159 15.48C159 13.1927 160.881 11.665 164.187 11.665C167.161 11.665 169.399 13.1398 169.399 16.0115V16.2396H166.78V15.9336C166.78 14.7649 166.374 13.9245 164.112 13.9245C162.103 13.9245 161.618 14.4588 161.618 15.4243C161.618 16.3899 162.078 16.671 163.856 17.0271L165.99 17.4334C168.43 17.9176 169.702 19.0111 169.702 21.0953C169.702 23.4355 167.846 24.8073 164.643 24.8073C160.962 24.8129 159.028 23.3631 159.028 20.2883Z" fill="#1A1A21"/>
<path d="M171.414 18.2266C171.414 14.3114 173.754 11.668 177.516 11.668C180.922 11.668 183.312 13.7021 183.312 17.1608C183.312 17.8231 183.237 18.5076 183.159 18.8888H173.982C174.085 21.2012 174.923 22.3727 177.566 22.3727C179.676 22.3727 180.491 21.6603 180.491 20.5167V20.3135H183.212V20.5417C183.212 23.1351 180.95 24.813 177.541 24.813C173.373 24.813 171.414 22.1695 171.414 18.2266ZM174.007 17.0579H180.694C180.797 14.8958 179.626 13.9803 177.466 13.9803C175.076 13.9831 174.16 15.1017 174.007 17.0579Z" fill="#1A1A21"/>
</svg>
