<svg xmlns="http://www.w3.org/2000/svg" width="435" height="536" fill="none" viewBox="0 0 435 536"><mask id="path-1-inside-1_3655_53153" fill="#fff"><path d="M159.32 -172.939L333.823 265.559C340.46 282.411 326.114 299.933 308.399 296.715L135.507 265.301C123.726 263.161 111.472 264.136 100.538 268.92C90.393 273.39 82.0602 280.477 76.0868 289.182C71.5946 295.777 68.4795 303.354 67.0311 311.325L39.4636 463.05C37.1945 475.538 25.1579 483.873 12.6693 481.604L-395.383 407.463C-407.871 405.194 -416.207 393.158 -413.937 380.669L-381.687 203.17C-379.418 190.682 -367.47 182.33 -354.892 184.616C-262.351 201.522 38.6015 256.295 38.6015 256.295C45.6873 257.582 52.9901 256.164 59.0688 252.419C66.2988 247.877 70.9761 240.767 72.4245 232.795C73.374 227.569 72.9063 222.086 70.8525 216.772L-82.122 -167.492C-88.4043 -183.273 -109.13 -187.038 -120.562 -174.476L-420.776 155.444C-425.019 160.163 -431.444 162.289 -437.644 161.163L-649.066 122.748C-666.78 119.53 -674.118 97.9758 -661.905 84.6405L-344.302 -264.445C-340.075 -269.075 -333.634 -271.29 -327.434 -270.164L-75.0029 -224.298L145.453 -184.243C151.742 -183.1 156.92 -178.865 159.32 -172.939Z"/></mask><path fill="url(#paint0_linear_3655_53153)" d="M159.32 -172.939L161.174 -173.69L161.178 -173.679L159.32 -172.939ZM333.823 265.559L335.682 264.82L335.684 264.826L333.823 265.559ZM100.538 268.92L99.7314 267.09L99.7361 267.088L100.538 268.92ZM76.0868 289.182L74.4338 288.056L74.4377 288.05L76.0868 289.182ZM-354.892 184.616L-354.535 182.648L-354.533 182.648L-354.892 184.616ZM38.6015 256.295L38.244 258.262L38.2434 258.262L38.6015 256.295ZM59.0688 252.419L60.1327 254.113L60.1253 254.117L60.1179 254.122L59.0688 252.419ZM70.8525 216.772L72.7106 216.032L72.7144 216.042L72.718 216.051L70.8525 216.772ZM-82.122 -167.492L-83.9802 -166.752L-82.122 -167.492ZM-120.562 -174.476L-122.042 -175.822L-122.042 -175.822L-120.562 -174.476ZM-420.776 155.444L-422.263 154.106L-422.255 154.098L-420.776 155.444ZM-661.905 84.6404L-660.426 85.9864L-660.43 85.9912L-661.905 84.6404ZM-344.302 -264.445L-345.781 -265.791L-345.779 -265.793L-344.302 -264.445ZM161.178 -173.679L335.682 264.82L331.965 266.299L157.462 -172.2L161.178 -173.679ZM335.684 264.826C342.89 283.123 327.313 302.184 308.042 298.683L308.757 294.747C324.915 297.683 338.03 281.699 331.963 266.292L335.684 264.826ZM308.042 298.683L135.149 267.269L135.864 263.333L308.757 294.747L308.042 298.683ZM135.149 267.269C123.705 265.19 111.861 266.149 101.34 270.753L99.7361 267.088C111.082 262.124 123.747 261.132 135.864 263.333L135.149 267.269ZM101.344 270.751C91.5475 275.067 83.5036 281.908 77.7358 290.313L74.4377 288.05C80.6168 279.046 89.2385 271.714 99.7314 267.09L101.344 270.751ZM77.7397 290.308C73.4054 296.671 70.3973 303.986 68.9989 311.683L65.0633 310.968C66.5616 302.722 69.7839 294.883 74.4338 288.056L77.7397 290.308ZM68.9989 311.683L41.4314 463.407L37.4958 462.692L65.0633 310.968L68.9989 311.683ZM41.4314 463.407C38.9648 476.983 25.8872 486.039 12.3117 483.572L13.0268 479.637C24.4287 481.708 35.4242 474.094 37.4958 462.692L41.4314 463.407ZM12.3117 483.572L-395.74 409.431L-395.025 405.496L13.0268 479.637L12.3117 483.572ZM-395.74 409.431C-409.316 406.965 -418.372 393.887 -415.905 380.312L-411.97 381.027C-414.041 392.428 -406.427 403.424 -395.025 405.496L-395.74 409.431ZM-415.905 380.312L-383.655 202.813L-379.719 203.528L-411.97 381.027L-415.905 380.312ZM-383.655 202.813C-381.189 189.242 -368.204 180.164 -354.535 182.648L-355.25 186.583C-366.736 184.497 -377.646 192.121 -379.719 203.528L-383.655 202.813ZM-354.533 182.648C-308.263 191.101 -209.89 209.021 -123.084 224.827C-79.6812 232.73 -39.1703 240.105 -9.51005 245.504C5.32008 248.204 17.4375 250.41 25.8474 251.94C30.0523 252.706 33.3304 253.302 35.5572 253.708C36.6706 253.91 37.5212 254.065 38.0935 254.169C38.3796 254.221 38.5962 254.261 38.7412 254.287C38.8137 254.3 38.8683 254.31 38.9048 254.317C38.923 254.32 38.9367 254.323 38.9459 254.324C38.9505 254.325 38.9539 254.326 38.9562 254.326C38.9585 254.327 38.9597 254.327 38.6015 256.295C38.2434 258.262 38.2423 258.262 38.24 258.262C38.2377 258.261 38.2343 258.261 38.2297 258.26C38.2205 258.258 38.2068 258.256 38.1886 258.252C38.152 258.246 38.0974 258.236 38.0249 258.222C37.8799 258.196 37.6634 258.157 37.3772 258.105C36.805 258 35.9544 257.846 34.841 257.643C32.6141 257.238 29.3361 256.641 25.1311 255.876C16.7212 254.345 4.60374 252.139 -10.2264 249.44C-39.8867 244.041 -80.3976 236.666 -123.801 228.762C-210.606 212.956 -308.98 195.036 -355.252 186.583L-354.533 182.648ZM38.9591 254.327C45.5533 255.525 52.356 254.206 58.0198 250.716L60.1179 254.122C53.6243 258.122 45.8213 259.639 38.244 258.262L38.9591 254.327ZM58.0049 250.726C64.756 246.484 69.108 239.861 70.4567 232.438L74.3923 233.153C72.8442 241.673 67.8417 249.27 60.1327 254.113L58.0049 250.726ZM70.4567 232.438C71.3404 227.574 70.9082 222.464 68.9869 217.493L72.718 216.051C74.9045 221.708 75.4076 227.565 74.3923 233.153L70.4567 232.438ZM68.9943 217.512L-83.9802 -166.752L-80.2639 -168.231L72.7106 216.032L68.9943 217.512ZM-83.9802 -166.752C-89.7158 -181.16 -108.646 -184.599 -119.083 -173.13L-122.042 -175.822C-109.615 -189.478 -87.0928 -185.386 -80.2639 -168.231L-83.9802 -166.752ZM-119.083 -173.13L-419.297 156.79L-422.255 154.098L-122.042 -175.822L-119.083 -173.13ZM-419.289 156.781C-424.005 162.026 -431.132 164.378 -438.002 163.13L-437.287 159.195C-431.756 160.2 -426.033 158.299 -422.263 154.107L-419.289 156.781ZM-438.002 163.13L-649.423 124.716L-648.708 120.781L-437.287 159.195L-438.002 163.13ZM-649.423 124.716C-668.679 121.217 -676.661 97.7909 -663.38 83.2897L-660.43 85.9912C-671.575 98.1606 -664.882 117.842 -648.708 120.781L-649.423 124.716ZM-663.384 83.2945L-345.781 -265.791L-342.822 -263.099L-660.426 85.9864L-663.384 83.2945ZM-345.779 -265.793C-341.093 -270.926 -333.961 -273.382 -327.076 -272.132L-327.791 -268.196C-333.306 -269.198 -339.057 -267.224 -342.824 -263.097L-345.779 -265.793ZM-327.076 -272.132L-74.6454 -226.266L-75.3605 -222.331L-327.791 -268.196L-327.076 -272.132ZM-74.6454 -226.266L145.811 -186.21L145.096 -182.275L-75.3605 -222.331L-74.6454 -226.266ZM145.811 -186.21C152.778 -184.944 158.518 -180.247 161.174 -173.69L157.466 -172.189C155.322 -177.484 150.706 -181.256 145.096 -182.275L145.811 -186.21Z" mask="url(#path-1-inside-1_3655_53153)"/><path fill="url(#paint1_linear_3655_53153)" d="M183.312 -196.94L357.816 241.558C364.452 258.41 350.106 275.932 332.392 272.714L159.499 241.3C147.719 239.16 135.464 240.135 124.53 244.919C114.385 249.389 106.052 256.476 100.079 265.181C95.5868 271.776 92.4717 279.353 91.0233 287.324L63.4558 439.049C61.1866 451.537 49.1501 459.872 36.6615 457.603L-371.391 383.462C-383.879 381.193 -392.214 369.157 -389.945 356.668L-357.695 179.169C-355.426 166.681 -343.478 158.33 -330.9 160.615C-238.358 177.521 62.5937 232.294 62.5937 232.294C69.6795 233.581 76.9823 232.163 83.061 228.418C90.291 223.876 94.9683 216.766 96.4167 208.794C97.3662 203.568 96.8985 198.085 94.8447 192.771L-58.1298 -191.493C-64.4122 -207.274 -85.138 -211.039 -96.5702 -198.477L-396.784 131.443C-401.027 136.162 -407.452 138.288 -413.652 137.162L-625.074 98.7473C-642.788 95.5287 -650.126 73.9748 -637.913 60.6395L-320.309 -288.446C-316.083 -293.076 -309.642 -295.291 -303.441 -294.165L-51.0107 -248.299L169.445 -208.244C175.734 -207.101 180.912 -202.866 183.312 -196.94Z"/><defs><linearGradient id="paint0_linear_3655_53153" x1="-11.659" x2="355.453" y1="77.166" y2="473.201" gradientUnits="userSpaceOnUse"><stop stop-color="#E4E3EC"/><stop offset="1" stop-color="#E8E4FE" stop-opacity="0"/><stop offset="1" stop-color="#E4E3EC" stop-opacity="0"/></linearGradient><linearGradient id="paint1_linear_3655_53153" x1="573.747" x2="112.202" y1="490.798" y2="-12.774" gradientUnits="userSpaceOnUse"><stop stop-color="#F5F6F8"/><stop offset="1" stop-color="#EEEEF0" stop-opacity="0"/></linearGradient></defs></svg>