<svg xmlns="http://www.w3.org/2000/svg" width="346" height="525" fill="none" viewBox="0 0 346 525"><path fill="url(#paint0_linear_24_189)" d="M215.921 698.127L2.74934 277.069C-5.37371 260.881 7.34127 242.141 25.2732 243.756L200.288 259.519C212.213 260.593 224.331 258.521 234.791 252.774C244.493 247.411 252.156 239.605 257.324 230.399C261.206 223.427 263.628 215.601 264.355 207.532L278.187 53.9451C279.326 41.3031 290.565 31.921 303.207 33.0596L716.268 70.2618C728.91 71.4004 738.293 82.6399 737.154 95.2818L720.971 274.959C719.833 287.601 708.683 296.992 695.951 295.845C602.265 287.317 297.611 259.788 297.611 259.788C290.438 259.142 283.292 261.21 277.574 265.485C270.781 270.658 266.761 278.16 266.034 286.229C265.558 291.519 266.516 296.938 269.039 302.046L455.898 671.022C463.572 686.175 484.553 688.065 494.811 674.527L764.188 318.983C767.99 313.903 774.198 311.208 780.474 311.773L994.491 331.048C1012.42 332.663 1021.67 353.471 1010.7 367.85L725.724 744.043C721.931 749.034 715.714 751.818 709.438 751.253L453.909 728.239L230.747 708.14C224.381 707.566 218.844 703.814 215.921 698.127Z"/><mask id="path-2-inside-1_24_189" fill="#fff"><path d="M239.929 666.128L26.7572 245.07C18.6341 228.882 31.3491 210.142 49.281 211.757L224.296 227.52C236.221 228.594 248.339 226.522 258.799 220.775C268.501 215.412 276.164 207.606 281.332 198.4C285.213 191.428 287.636 183.602 288.362 175.533L302.195 21.9461C303.334 9.30412 314.573 -0.0780692 327.215 1.06053L740.276 38.2628C752.918 39.4013 762.3 50.6408 761.162 63.2828L744.979 242.96C743.841 255.602 732.691 264.993 719.959 263.846C626.273 255.318 321.618 227.789 321.618 227.789C314.446 227.143 307.3 229.211 301.582 233.486C294.789 238.659 290.769 246.161 290.042 254.23C289.566 259.52 290.524 264.939 293.046 270.047L479.906 639.023C487.58 654.176 508.561 656.066 518.818 642.528L788.196 286.984C791.998 281.904 798.206 279.209 804.482 279.774L1018.5 299.049C1036.43 300.664 1045.67 321.472 1034.71 335.85L749.732 712.044C745.938 717.035 739.722 719.819 733.446 719.254L477.917 696.24L254.754 676.141C248.389 675.567 242.851 671.815 239.929 666.128Z"/></mask><path fill="url(#paint1_linear_24_189)" d="M239.929 666.128L238.15 667.042L238.145 667.032L239.929 666.128ZM26.7571 245.07L24.9728 245.973L24.9696 245.967L26.7571 245.07ZM258.799 220.775L259.766 222.525L259.762 222.528L258.799 220.775ZM281.332 198.4L283.079 199.373L283.076 199.379L281.332 198.4ZM719.959 263.846L719.78 265.838L719.778 265.838L719.959 263.846ZM321.618 227.789L321.798 225.797L321.798 225.797L321.618 227.789ZM301.582 233.486L300.37 231.895L300.377 231.89L300.384 231.884L301.582 233.486ZM293.046 270.047L291.262 270.951L291.258 270.942L291.253 270.933L293.046 270.047ZM479.906 639.023L481.691 638.12L479.906 639.023ZM518.818 642.528L520.413 643.736L520.413 643.736L518.818 642.528ZM788.196 286.984L789.797 288.183L789.79 288.192L788.196 286.984ZM1034.71 335.85L1033.11 334.643L1033.12 334.638L1034.71 335.85ZM749.732 712.043L751.327 713.251L751.325 713.254L749.732 712.043ZM238.145 667.032L24.9728 245.973L28.5415 244.166L241.713 665.225L238.145 667.032ZM24.9696 245.967C16.15 228.391 29.9528 208.008 49.4604 209.765L49.1016 213.749C32.7454 212.276 21.1182 229.373 28.5447 244.173L24.9696 245.967ZM49.4604 209.765L224.476 225.528L224.117 229.512L49.1016 213.749L49.4604 209.765ZM224.476 225.528C236.06 226.571 247.77 224.552 257.836 219.022L259.762 222.528C248.907 228.491 236.382 230.616 224.117 229.512L224.476 225.528ZM257.831 219.025C267.201 213.846 274.598 206.31 279.588 197.421L283.076 199.379C277.73 208.902 269.801 216.979 259.766 222.525L257.831 219.025ZM279.584 197.427C283.33 190.7 285.669 183.144 286.37 175.353L290.354 175.712C289.603 184.06 287.097 192.156 283.079 199.373L279.584 197.427ZM286.37 175.353L300.203 21.7667L304.187 22.1255L290.354 175.712L286.37 175.353ZM300.203 21.7667C301.441 8.0246 313.653 -2.16909 327.395 -0.93141L327.036 3.05246C315.494 2.01295 305.227 10.5836 304.187 22.1255L300.203 21.7667ZM327.395 -0.93141L740.456 36.2708L740.097 40.2547L327.036 3.05246L327.395 -0.93141ZM740.456 36.2708C754.198 37.5085 764.391 49.7201 763.154 63.4622L759.17 63.1034C760.209 51.5615 751.639 41.2942 740.097 40.2547L740.456 36.2708ZM763.154 63.4622L746.971 243.14L742.987 242.781L759.17 63.1034L763.154 63.4622ZM746.971 243.14C745.734 256.877 733.616 267.084 719.78 265.838L720.138 261.854C731.765 262.901 741.947 254.328 742.987 242.781L746.971 243.14ZM719.778 265.838C672.935 261.574 573.351 252.559 485.476 244.611C441.539 240.637 400.53 236.929 370.504 234.215C355.492 232.858 343.225 231.749 334.712 230.98C330.455 230.595 327.137 230.296 324.883 230.092C323.756 229.99 322.894 229.912 322.315 229.86C322.026 229.834 321.806 229.814 321.66 229.801C321.586 229.794 321.531 229.789 321.494 229.786C321.475 229.784 321.462 229.783 321.452 229.782C321.448 229.781 321.444 229.781 321.442 229.781C321.44 229.781 321.438 229.781 321.618 227.789C321.798 225.797 321.8 225.797 321.802 225.797C321.804 225.797 321.808 225.798 321.812 225.798C321.822 225.799 321.835 225.8 321.854 225.802C321.891 225.805 321.946 225.81 322.02 225.817C322.166 225.83 322.386 225.85 322.675 225.876C323.254 225.928 324.116 226.006 325.243 226.108C327.497 226.312 330.815 226.612 335.072 226.996C343.585 227.766 355.852 228.874 370.865 230.231C400.89 232.946 441.899 236.653 485.837 240.627C573.711 248.576 673.297 257.59 720.14 261.854L719.778 265.838ZM321.439 229.781C314.764 229.179 308.107 231.104 302.779 235.088L300.384 231.884C306.492 227.317 314.127 225.106 321.798 225.797L321.439 229.781ZM302.793 235.077C296.45 239.908 292.711 246.895 292.034 254.409L288.05 254.051C288.827 245.426 293.127 237.411 300.37 231.895L302.793 235.077ZM292.034 254.409C291.591 259.333 292.48 264.383 294.84 269.162L291.253 270.933C288.568 265.495 287.541 259.707 288.05 254.051L292.034 254.409ZM294.831 269.144L481.691 638.12L478.122 639.927L291.262 270.951L294.831 269.144ZM481.691 638.12C488.697 651.954 507.859 653.68 517.224 641.32L520.413 643.736C509.262 658.452 486.464 656.398 478.122 639.927L481.691 638.12ZM517.224 641.32L786.602 285.777L789.79 288.192L520.413 643.736L517.224 641.32ZM786.595 285.786C790.82 280.139 797.708 277.156 804.662 277.782L804.303 281.766C798.704 281.262 793.175 283.668 789.797 288.183L786.595 285.786ZM804.662 277.782L1018.68 297.057L1018.32 301.041L804.303 281.766L804.662 277.782ZM1018.68 297.057C1038.17 298.813 1048.22 321.428 1036.3 337.063L1033.12 334.638C1043.13 321.517 1034.69 302.516 1018.32 301.041L1018.68 297.057ZM1036.3 337.058L751.327 713.251L748.138 710.836L1033.11 334.643L1036.3 337.058ZM751.325 713.254C747.119 718.787 740.236 721.874 733.267 721.246L733.625 717.262C739.208 717.765 744.758 715.282 748.14 710.833L751.325 713.254ZM733.267 721.246L477.737 698.232L478.096 694.248L733.625 717.262L733.267 721.246ZM477.737 698.232L254.575 678.133L254.934 674.149L478.096 694.248L477.737 698.232ZM254.575 678.133C247.522 677.497 241.384 673.334 238.15 667.042L241.708 665.214C244.319 670.295 249.255 673.637 254.934 674.149L254.575 678.133Z" mask="url(#path-2-inside-1_24_189)"/><defs><linearGradient id="paint0_linear_24_189" x1="-234.689" x2="270.208" y1="48.224" y2="508.319" gradientUnits="userSpaceOnUse"><stop stop-color="#F5F6F8"/><stop offset="1" stop-color="#EEEEF0" stop-opacity="0"/></linearGradient><linearGradient id="paint1_linear_24_189" x1="387.76" x2="-13.43" y1="401.681" y2="40.208" gradientUnits="userSpaceOnUse"><stop stop-color="#E4E3EC"/><stop offset="1" stop-color="#E8E4FE" stop-opacity="0"/><stop offset="1" stop-color="#E4E3EC" stop-opacity="0"/></linearGradient></defs></svg>