<svg xmlns="http://www.w3.org/2000/svg" width="28" height="28" fill="none" viewBox="0 0 28 28"><g clip-path="url(#clip0_3640_52226)"><rect width="28" height="28" fill="#EEEEF0" rx="14"/><rect width="11.2" height="10.5" fill="#012169" transform="translate(0 -0.000488281)"/><rect width="11.2" height="2.1" fill="#fff" transform="translate(0 9.09961)"/><rect width="13.186" height="2.1" fill="#fff" transform="translate(0.828125 -0.659668) rotate(45)"/><rect width="2.1" height="10.5" fill="#fff" transform="translate(9.10156 -0.000488281)"/><rect width="11.2" height="10.5" fill="#012169" transform="matrix(-1 0 0 1 28 -0.000488281)"/><rect width="11.2" height="2.1" fill="#fff" transform="matrix(-1 0 0 1 28 9.09961)"/><rect width="13.186" height="2.1" fill="#fff" transform="matrix(-0.707107 0.707107 0.707107 0.707107 27.1797 -0.659668)"/><rect width="2.1" height="10.5" fill="#fff" transform="matrix(-1 0 0 1 18.8984 -0.000488281)"/><rect width="11.2" height="10.5" fill="#012169" transform="matrix(1 0 0 -1 0 28.0005)"/><rect width="11.2" height="2.1" fill="#fff" transform="matrix(1 0 0 -1 0 18.9004)"/><rect width="13.186" height="2.1" fill="#fff" transform="matrix(0.707107 -0.707107 -0.707107 -0.707107 0.828125 28.6597)"/><rect width="2.1" height="10.5" fill="#fff" transform="matrix(1 0 0 -1 9.10156 28.0005)"/><rect width="11.2" height="10.5" fill="#012169" transform="matrix(-1 0 0 -1 28 28.0005)"/><rect width="11.2" height="2.1" fill="#fff" transform="matrix(-1 0 0 -1 28 18.9004)"/><rect width="13.186" height="2.1" fill="#fff" transform="translate(27.1797 28.6597) rotate(-135)"/><rect width="2.1" height="10.5" fill="#fff" transform="matrix(-1 0 0 -1 18.8984 28.0005)"/><rect width="5.6" height="28" fill="#C8102E" transform="translate(11.2031)"/><rect width="28" height="5.6" fill="#C8102E" transform="translate(0 11.2002)"/></g><defs><clipPath id="clip0_3640_52226"><rect width="28" height="28" fill="#fff" rx="14"/></clipPath></defs></svg>