<svg width="336" height="240" viewBox="0 0 336 240" fill="none" xmlns="http://www.w3.org/2000/svg">
<rect width="336" height="240" rx="12" fill="white"/>
<rect x="16" y="16" width="304" height="32" rx="6.88938" fill="#F5F6F8"/>
<g clip-path="url(#clip0_3625_52132)">
<g clip-path="url(#clip1_3625_52132)">
<rect x="29.4844" y="24" width="16" height="16" rx="8" fill="white"/>
<rect width="5.33333" height="16" transform="translate(29.4844 24)" fill="#008753"/>
<rect width="5.33333" height="16" transform="translate(40.1484 24)" fill="#008753"/>
</g>
</g>
<rect x="29.915" y="24.4306" width="15.1388" height="15.1388" rx="7.56939" stroke="#EEEEF0" stroke-width="0.861228"/>
<path d="M56.9347 27.7726V36.4999H55.7244L51.2884 30.0993H51.2074V36.4999H49.8906V27.7726H51.1094L55.5497 34.1817H55.6307V27.7726H56.9347Z" fill="#8C94A6"/>
<path d="M64.5217 30.5297C64.4393 30.2712 64.3285 30.0397 64.1893 29.8351C64.053 29.6278 63.8896 29.4516 63.6993 29.3067C63.5089 29.159 63.2916 29.0468 63.0473 28.9701C62.8058 28.8934 62.5402 28.855 62.2504 28.855C61.7589 28.855 61.3158 28.9814 60.9209 29.2343C60.526 29.4871 60.2135 29.8579 59.9834 30.3465C59.7561 30.8323 59.6425 31.4275 59.6425 32.132C59.6425 32.8394 59.7575 33.4374 59.9876 33.926C60.2177 34.4147 60.5331 34.7854 60.9337 35.0383C61.3342 35.2911 61.7902 35.4175 62.3015 35.4175C62.776 35.4175 63.1893 35.3209 63.5416 35.1278C63.8967 34.9346 64.1709 34.6618 64.364 34.3096C64.5601 33.9545 64.6581 33.5368 64.6581 33.0567L64.999 33.1207H62.5018V32.034H65.9322V33.0269C65.9322 33.7599 65.776 34.3962 65.4635 34.936C65.1538 35.4729 64.7248 35.8877 64.1765 36.1803C63.6311 36.4729 63.0061 36.6192 62.3015 36.6192C61.5118 36.6192 60.8186 36.4374 60.222 36.0738C59.6283 35.7101 59.1652 35.1945 58.8328 34.5269C58.5004 33.8564 58.3342 33.061 58.3342 32.1405C58.3342 31.4445 58.4308 30.8195 58.624 30.2655C58.8172 29.7116 59.0885 29.2414 59.4379 28.855C59.7902 28.4658 60.2035 28.1689 60.678 27.9644C61.1552 27.757 61.6765 27.6533 62.2419 27.6533C62.7135 27.6533 63.1524 27.7229 63.5587 27.8621C63.9677 28.0013 64.3314 28.1988 64.6496 28.4545C64.9706 28.7101 65.2362 29.0141 65.4464 29.3664C65.6567 29.7158 65.7987 30.1036 65.8726 30.5297H64.5217Z" fill="#8C94A6"/>
<path d="M74.4078 27.7726V36.4999H73.1976L68.7615 30.0993H68.6805V36.4999H67.3638V27.7726H68.5825L73.0228 34.1817H73.1038V27.7726H74.4078Z" fill="#8C94A6"/>
<rect x="94.5859" y="17.7222" width="69.9718" height="28.5553" rx="5.16737" fill="white"/>
<g clip-path="url(#clip2_3625_52132)">
<g clip-path="url(#clip3_3625_52132)">
<rect x="107.352" y="24" width="16" height="16" rx="8" fill="#EEEEF0"/>
<g clip-path="url(#clip4_3625_52132)">
<rect width="8" height="8" transform="translate(107.352 24)" fill="#002868"/>
<path d="M109.352 24.3042L109.822 25.657L111.254 25.6862L110.112 26.5514L110.527 27.9222L109.352 27.1042L108.176 27.9222L108.591 26.5514L107.449 25.6862L108.881 25.657L109.352 24.3042Z" fill="white"/>
<path d="M111.352 27.6958L111.822 29.0486L113.254 29.0778L112.112 29.943L112.527 31.3138L111.352 30.4958L110.176 31.3138L110.591 29.943L109.449 29.0778L110.881 29.0486L111.352 27.6958Z" fill="white"/>
<path d="M113.352 24.3042L113.822 25.657L115.254 25.6862L114.112 26.5514L114.527 27.9222L113.352 27.1042L112.176 27.9222L112.591 26.5514L111.449 25.6862L112.881 25.657L113.352 24.3042Z" fill="white"/>
</g>
<rect width="8" height="2.66667" transform="translate(115.352 24)" fill="#BF0A30"/>
<rect width="8" height="2.66667" transform="translate(115.352 26.667)" fill="white"/>
<rect width="8" height="2.66667" transform="translate(115.352 29.333)" fill="#BF0A30"/>
<rect width="16" height="4" transform="translate(107.352 32)" fill="white"/>
<rect width="16" height="4" transform="translate(107.352 36)" fill="#BF0A30"/>
</g>
</g>
<rect x="107.782" y="24.4306" width="15.1388" height="15.1388" rx="7.56939" stroke="#EEEEF0" stroke-width="0.861228"/>
<path d="M133.37 27.7726H134.691V33.5127C134.691 34.1235 134.548 34.6647 134.261 35.1363C133.974 35.605 133.57 35.9743 133.05 36.2442C132.531 36.5113 131.921 36.6448 131.222 36.6448C130.526 36.6448 129.918 36.5113 129.398 36.2442C128.879 35.9743 128.475 35.605 128.188 35.1363C127.901 34.6647 127.758 34.1235 127.758 33.5127V27.7726H129.075V33.4062C129.075 33.801 129.161 34.1519 129.335 34.4587C129.511 34.7655 129.759 35.007 130.08 35.1832C130.401 35.3564 130.782 35.4431 131.222 35.4431C131.665 35.4431 132.048 35.3564 132.369 35.1832C132.692 35.007 132.94 34.7655 133.11 34.4587C133.283 34.1519 133.37 33.801 133.37 33.4062V27.7726Z" fill="#1A1A21"/>
<path d="M141.125 30.0653C141.08 29.6618 140.892 29.3493 140.563 29.1278C140.233 28.9033 139.819 28.7911 139.319 28.7911C138.961 28.7911 138.651 28.8479 138.39 28.9616C138.128 29.0724 137.925 29.2258 137.78 29.4218C137.638 29.615 137.567 29.8351 137.567 30.0823C137.567 30.2897 137.615 30.4687 137.712 30.6192C137.811 30.7698 137.941 30.8962 138.1 30.9985C138.262 31.0979 138.435 31.1817 138.62 31.2499C138.804 31.3153 138.982 31.3692 139.152 31.4118L140.005 31.6334C140.283 31.7016 140.569 31.7939 140.861 31.9104C141.154 32.0269 141.425 32.1803 141.675 32.3707C141.925 32.561 142.127 32.7968 142.28 33.078C142.436 33.3593 142.515 33.6959 142.515 34.088C142.515 34.5823 142.387 35.0212 142.131 35.4047C141.878 35.7883 141.51 36.0908 141.027 36.3124C140.547 36.534 139.966 36.6448 139.285 36.6448C138.631 36.6448 138.066 36.5411 137.588 36.3337C137.111 36.1263 136.738 35.8323 136.468 35.4516C136.198 35.0681 136.049 34.6135 136.02 34.088H137.341C137.367 34.4033 137.469 34.6661 137.648 34.8763C137.83 35.0837 138.061 35.2385 138.343 35.3408C138.627 35.4403 138.938 35.49 139.276 35.49C139.648 35.49 139.979 35.4317 140.269 35.3153C140.561 35.1959 140.792 35.0312 140.959 34.8209C141.127 34.6079 141.211 34.3593 141.211 34.0752C141.211 33.8167 141.137 33.605 140.989 33.4403C140.844 33.2755 140.647 33.1391 140.397 33.0312C140.15 32.9232 139.87 32.828 139.557 32.7457L138.526 32.4644C137.827 32.2741 137.273 31.9942 136.864 31.6249C136.458 31.2556 136.255 30.767 136.255 30.159C136.255 29.6562 136.391 29.2172 136.664 28.8422C136.936 28.4672 137.306 28.176 137.772 27.9687C138.238 27.7584 138.763 27.6533 139.348 27.6533C139.939 27.6533 140.461 27.757 140.912 27.9644C141.367 28.1718 141.725 28.4573 141.986 28.8209C142.248 29.1817 142.384 29.5965 142.395 30.0653H141.125Z" fill="#1A1A21"/>
<path d="M146.673 36.4999H143.848V27.7726H146.763C147.618 27.7726 148.352 27.9474 148.966 28.2968C149.58 28.6434 150.05 29.142 150.377 29.7925C150.706 30.4403 150.871 31.2172 150.871 32.1235C150.871 33.0326 150.705 33.8138 150.372 34.4672C150.043 35.1207 149.565 35.6235 148.94 35.9758C148.315 36.3252 147.56 36.4999 146.673 36.4999ZM145.165 35.3493H146.601C147.266 35.3493 147.818 35.2243 148.259 34.9743C148.699 34.7215 149.029 34.3564 149.247 33.8792C149.466 33.3991 149.575 32.8138 149.575 32.1235C149.575 31.4388 149.466 30.8579 149.247 30.3806C149.031 29.9033 148.709 29.5411 148.28 29.2939C147.851 29.0468 147.318 28.9232 146.682 28.9232H145.165V35.3493Z" fill="#1A1A21"/>
<g clip-path="url(#clip5_3625_52132)">
<g clip-path="url(#clip6_3625_52132)">
<rect x="184.211" y="24" width="16" height="16" rx="8" fill="#EEEEF0"/>
<rect width="6.4" height="6" transform="translate(184.211 24)" fill="#012169"/>
<rect width="6.4" height="1.2" transform="translate(184.211 29.2002)" fill="white"/>
<rect width="7.53496" height="1.2" transform="translate(184.688 23.623) rotate(45)" fill="white"/>
<rect width="1.2" height="6" transform="translate(189.414 24)" fill="white"/>
<rect width="6.4" height="6" transform="matrix(-1 0 0 1 200.211 24)" fill="#012169"/>
<rect width="6.4" height="1.2" transform="matrix(-1 0 0 1 200.211 29.2002)" fill="white"/>
<rect width="7.53496" height="1.2" transform="matrix(-0.707107 0.707107 0.707107 0.707107 199.734 23.623)" fill="white"/>
<rect width="1.2" height="6" transform="matrix(-1 0 0 1 195.008 24)" fill="white"/>
<rect width="6.4" height="6" transform="matrix(1 0 0 -1 184.211 40)" fill="#012169"/>
<rect width="6.4" height="1.2" transform="matrix(1 0 0 -1 184.211 34.7998)" fill="white"/>
<rect width="7.53496" height="1.2" transform="matrix(0.707107 -0.707107 -0.707107 -0.707107 184.688 40.377)" fill="white"/>
<rect width="1.2" height="6" transform="matrix(1 0 0 -1 189.414 40)" fill="white"/>
<rect width="6.4" height="6" transform="matrix(-1 0 0 -1 200.211 40)" fill="#012169"/>
<rect width="6.4" height="1.2" transform="matrix(-1 0 0 -1 200.211 34.7998)" fill="white"/>
<rect width="7.53496" height="1.2" transform="translate(199.734 40.377) rotate(-135)" fill="white"/>
<rect width="1.2" height="6" transform="matrix(-1 0 0 -1 195.008 40)" fill="white"/>
<rect width="3.2" height="16" transform="translate(190.609 24)" fill="#C8102E"/>
<rect width="16" height="3.2" transform="translate(184.211 30.3999)" fill="#C8102E"/>
</g>
</g>
<rect x="184.642" y="24.4306" width="15.1388" height="15.1388" rx="7.56939" stroke="#EEEEF0" stroke-width="0.861228"/>
<path d="M210.523 30.5297C210.441 30.2712 210.33 30.0397 210.191 29.8351C210.055 29.6278 209.891 29.4516 209.701 29.3067C209.511 29.159 209.293 29.0468 209.049 28.9701C208.808 28.8934 208.542 28.855 208.252 28.855C207.761 28.855 207.317 28.9814 206.923 29.2343C206.528 29.4871 206.215 29.8579 205.985 30.3465C205.758 30.8323 205.644 31.4275 205.644 32.132C205.644 32.8394 205.759 33.4374 205.989 33.926C206.219 34.4147 206.535 34.7854 206.935 35.0383C207.336 35.2911 207.792 35.4175 208.303 35.4175C208.778 35.4175 209.191 35.3209 209.543 35.1278C209.898 34.9346 210.173 34.6618 210.366 34.3096C210.562 33.9545 210.66 33.5368 210.66 33.0567L211.001 33.1207H208.504V32.034H211.934V33.0269C211.934 33.7599 211.778 34.3962 211.465 34.936C211.156 35.4729 210.727 35.8877 210.178 36.1803C209.633 36.4729 209.008 36.6192 208.303 36.6192C207.513 36.6192 206.82 36.4374 206.224 36.0738C205.63 35.7101 205.167 35.1945 204.835 34.5269C204.502 33.8564 204.336 33.061 204.336 32.1405C204.336 31.4445 204.433 30.8195 204.626 30.2655C204.819 29.7116 205.09 29.2414 205.44 28.855C205.792 28.4658 206.205 28.1689 206.68 27.9644C207.157 27.757 207.678 27.6533 208.244 27.6533C208.715 27.6533 209.154 27.7229 209.56 27.8621C209.969 28.0013 210.333 28.1988 210.651 28.4545C210.972 28.7101 211.238 29.0141 211.448 29.3664C211.658 29.7158 211.8 30.1036 211.874 30.5297H210.523Z" fill="#8C94A6"/>
<path d="M213.365 36.4999V27.7726H216.561C217.181 27.7726 217.694 27.8749 218.1 28.0795C218.506 28.2812 218.81 28.5553 219.012 28.9019C219.213 29.2456 219.314 29.6334 219.314 30.0653C219.314 30.4289 219.248 30.7357 219.114 30.9857C218.981 31.2329 218.802 31.4317 218.577 31.5823C218.356 31.73 218.111 31.838 217.844 31.9062V31.9914C218.134 32.0056 218.417 32.0993 218.692 32.2726C218.971 32.4431 219.201 32.686 219.383 33.0013C219.564 33.3167 219.655 33.7002 219.655 34.1519C219.655 34.5979 219.55 34.9985 219.34 35.3536C219.133 35.7059 218.811 35.9857 218.377 36.1931C217.942 36.3976 217.387 36.4999 216.711 36.4999H213.365ZM214.682 35.3707H216.583C217.213 35.3707 217.665 35.2485 217.938 35.0042C218.211 34.7599 218.347 34.4545 218.347 34.088C218.347 33.8124 218.277 33.5596 218.138 33.3295C217.999 33.0993 217.8 32.9161 217.542 32.7797C217.286 32.6434 216.982 32.5752 216.63 32.5752H214.682V35.3707ZM214.682 31.5482H216.446C216.742 31.5482 217.008 31.4914 217.243 31.3778C217.482 31.2641 217.671 31.105 217.81 30.9005C217.952 30.6931 218.023 30.4488 218.023 30.1675C218.023 29.8067 217.897 29.5042 217.644 29.2599C217.391 29.0155 217.003 28.8934 216.481 28.8934H214.682V31.5482Z" fill="#8C94A6"/>
<path d="M220.977 36.4999V27.7726H224.088C224.767 27.7726 225.329 27.8962 225.775 28.1434C226.221 28.3905 226.555 28.7286 226.777 29.1576C226.998 29.5837 227.109 30.0638 227.109 30.5979C227.109 31.1349 226.997 31.6178 226.772 32.0468C226.551 32.4729 226.216 32.811 225.767 33.061C225.321 33.3081 224.76 33.4317 224.084 33.4317H221.944V32.3153H223.964C224.393 32.3153 224.741 32.2414 225.008 32.0937C225.275 31.9431 225.471 31.7385 225.596 31.48C225.721 31.2215 225.784 30.9275 225.784 30.5979C225.784 30.2684 225.721 29.9758 225.596 29.7201C225.471 29.4644 225.274 29.2641 225.004 29.1192C224.737 28.9743 224.385 28.9019 223.947 28.9019H222.294V36.4999H220.977Z" fill="#8C94A6"/>
<g clip-path="url(#clip7_3625_52132)">
<rect x="260.57" y="24" width="16" height="16" rx="8" fill="#EE1F25"/>
<path d="M264.221 28.9365L264.594 30.0107L265.731 30.0339L264.825 30.7209L265.154 31.8094L264.221 31.1598L263.287 31.8094L263.617 30.7209L262.711 30.0339L263.848 30.0107L264.221 28.9365Z" fill="#FFCC00"/>
<path d="M267.256 27.0928L267.457 27.6726L268.071 27.6851L267.582 28.056L267.76 28.6436L267.256 28.2929L266.752 28.6436L266.93 28.056L266.44 27.6851L267.054 27.6726L267.256 27.0928Z" fill="#FFCC00"/>
<path d="M267.26 32.2427L267.058 32.8225L266.445 32.835L266.934 33.2059L266.756 33.7935L267.26 33.4428L267.764 33.7935L267.586 33.2059L268.075 32.835L267.461 32.8225L267.26 32.2427Z" fill="#FFCC00"/>
<path d="M269.502 31.0112L269.301 31.5911L268.687 31.6036L269.176 31.9745L268.998 32.562L269.502 32.2114L270.006 32.562L269.828 31.9745L270.317 31.6036L269.704 31.5911L269.502 31.0112Z" fill="#FFCC00"/>
<path d="M269.502 28.3232L269.301 28.9031L268.687 28.9156L269.176 29.2865L268.998 29.874L269.502 29.5234L270.006 29.874L269.828 29.2865L270.317 28.9156L269.704 28.9031L269.502 28.3232Z" fill="#FFCC00"/>
</g>
<rect x="261.001" y="24.4306" width="15.1388" height="15.1388" rx="7.56939" stroke="#EEEEF0" stroke-width="0.861228"/>
<path d="M288.225 30.6107H286.896C286.844 30.3266 286.749 30.0766 286.61 29.8607C286.471 29.6448 286.3 29.4616 286.099 29.311C285.897 29.1604 285.671 29.0468 285.421 28.9701C285.174 28.8934 284.911 28.855 284.633 28.855C284.13 28.855 283.68 28.9814 283.282 29.2343C282.887 29.4871 282.575 29.8579 282.344 30.3465C282.117 30.8351 282.004 31.4317 282.004 32.1363C282.004 32.8465 282.117 33.4459 282.344 33.9346C282.575 34.4232 282.888 34.7925 283.286 35.0425C283.684 35.2925 284.131 35.4175 284.629 35.4175C284.904 35.4175 285.165 35.3806 285.413 35.3067C285.663 35.23 285.888 35.1178 286.09 34.9701C286.292 34.8224 286.462 34.642 286.602 34.4289C286.744 34.213 286.842 33.9658 286.896 33.6874L288.225 33.6917C288.154 34.1206 288.016 34.5155 287.812 34.8763C287.61 35.2343 287.35 35.5439 287.032 35.8053C286.717 36.0638 286.356 36.2641 285.95 36.4062C285.543 36.5482 285.1 36.6192 284.62 36.6192C283.864 36.6192 283.191 36.4403 282.6 36.0823C282.009 35.7215 281.543 35.2059 281.202 34.5354C280.864 33.865 280.695 33.0653 280.695 32.1363C280.695 31.2045 280.866 30.4047 281.207 29.7371C281.548 29.0667 282.013 28.5525 282.604 28.1945C283.195 27.8337 283.867 27.6533 284.62 27.6533C285.083 27.6533 285.515 27.7201 285.915 27.8536C286.319 27.9843 286.681 28.1775 287.002 28.4331C287.323 28.686 287.589 28.9956 287.799 29.3621C288.009 29.7258 288.151 30.142 288.225 30.6107Z" fill="#8C94A6"/>
<path d="M296.605 27.7726V36.4999H295.395L290.959 30.0993H290.878V36.4999H289.561V27.7726H290.78L295.22 34.1817H295.301V27.7726H296.605Z" fill="#8C94A6"/>
<path d="M297.612 27.7726H299.108L301.388 31.74H301.482L303.761 27.7726H305.257L302.091 33.0738V36.4999H300.779V33.0738L297.612 27.7726Z" fill="#8C94A6"/>
<path d="M17.3203 88.9998H16.1953L18.2436 83.1816H19.5447L21.5959 88.9998H20.4709L18.9169 84.3748H18.8714L17.3203 88.9998ZM17.3572 86.7185H20.4254V87.5651H17.3572V86.7185Z" fill="#8C94A6"/>
<path d="M23.5966 83.1816L25.1108 87.7611H25.1704L26.6818 83.1816H27.8409L25.7897 88.9998H24.4886L22.4403 83.1816H23.5966Z" fill="#8C94A6"/>
<path d="M29.7947 88.9998H28.6697L30.718 83.1816H32.0191L34.0703 88.9998H32.9453L31.3913 84.3748H31.3458L29.7947 88.9998ZM29.8316 86.7185H32.8998V87.5651H29.8316V86.7185Z" fill="#8C94A6"/>
<path d="M37.0106 83.1816V88.9998H35.9566V83.1816H37.0106Z" fill="#8C94A6"/>
<path d="M39.2719 88.9998V83.1816H40.3259V88.1163H42.8884V88.9998H39.2719Z" fill="#8C94A6"/>
<path d="M45.8891 88.9998H44.7641L46.8124 83.1816H48.1135L50.1646 88.9998H49.0396L47.4857 84.3748H47.4402L45.8891 88.9998ZM45.926 86.7185H48.9942V87.5651H45.926V86.7185Z" fill="#8C94A6"/>
<path d="M52.051 88.9998V83.1816H54.2782C54.6987 83.1816 55.0481 83.2479 55.3265 83.3805C55.6068 83.5111 55.8161 83.6901 55.9544 83.9174C56.0945 84.1447 56.1646 84.4022 56.1646 84.6901C56.1646 84.9269 56.1191 85.1295 56.0282 85.2981C55.9373 85.4647 55.8152 85.6002 55.6618 85.7043C55.5084 85.8085 55.337 85.8833 55.1476 85.9288V85.9856C55.354 85.9969 55.5519 86.0604 55.7413 86.1759C55.9326 86.2896 56.0888 86.4505 56.2101 86.6589C56.3313 86.8672 56.3919 87.1191 56.3919 87.4146C56.3919 87.7157 56.319 87.9865 56.1731 88.2271C56.0273 88.4657 55.8076 88.6541 55.514 88.7924C55.2205 88.9306 54.8512 88.9998 54.4061 88.9998H52.051ZM53.1049 88.1191H54.2385C54.621 88.1191 54.8966 88.0462 55.0652 87.9003C55.2356 87.7526 55.3209 87.5632 55.3209 87.3322C55.3209 87.1598 55.2782 87.0045 55.193 86.8663C55.1078 86.7261 54.9866 86.6163 54.8294 86.5367C54.6722 86.4553 54.4847 86.4146 54.2669 86.4146H53.1049V88.1191ZM53.1049 85.656H54.1476C54.3294 85.656 54.4932 85.6229 54.639 85.5566C54.7849 85.4884 54.8995 85.3928 54.9828 85.2697C55.068 85.1447 55.1106 84.9969 55.1106 84.8265C55.1106 84.6011 55.0311 84.4155 54.872 84.2697C54.7148 84.1238 54.4809 84.0509 54.1703 84.0509H53.1049V85.656Z" fill="#8C94A6"/>
<path d="M58.4288 88.9998V83.1816H59.4828V88.1163H62.0453V88.9998H58.4288Z" fill="#8C94A6"/>
<path d="M64.08 88.9998V83.1816H67.8641V84.0651H65.134V85.6447H67.6681V86.5282H65.134V88.1163H67.8868V88.9998H64.08Z" fill="#8C94A6"/>
<path d="M73.1638 88.9998V83.1816H75.3911C75.8115 83.1816 76.1609 83.2479 76.4393 83.3805C76.7197 83.5111 76.9289 83.6901 77.0672 83.9174C77.2073 84.1447 77.2774 84.4022 77.2774 84.6901C77.2774 84.9269 77.232 85.1295 77.1411 85.2981C77.0501 85.4647 76.928 85.6002 76.7746 85.7043C76.6212 85.8085 76.4498 85.8833 76.2604 85.9288V85.9856C76.4668 85.9969 76.6647 86.0604 76.8541 86.1759C77.0454 86.2896 77.2017 86.4505 77.3229 86.6589C77.4441 86.8672 77.5047 87.1191 77.5047 87.4146C77.5047 87.7157 77.4318 87.9865 77.2859 88.2271C77.1401 88.4657 76.9204 88.6541 76.6268 88.7924C76.3333 88.9306 75.964 88.9998 75.5189 88.9998H73.1638ZM74.2178 88.1191H75.3513C75.7339 88.1191 76.0094 88.0462 76.178 87.9003C76.3484 87.7526 76.4337 87.5632 76.4337 87.3322C76.4337 87.1598 76.3911 87.0045 76.3058 86.8663C76.2206 86.7261 76.0994 86.6163 75.9422 86.5367C75.785 86.4553 75.5975 86.4146 75.3797 86.4146H74.2178V88.1191ZM74.2178 85.656H75.2604C75.4422 85.656 75.606 85.6229 75.7518 85.5566C75.8977 85.4884 76.0123 85.3928 76.0956 85.2697C76.1808 85.1447 76.2234 84.9969 76.2234 84.8265C76.2234 84.6011 76.1439 84.4155 75.9848 84.2697C75.8276 84.1238 75.5937 84.0509 75.2831 84.0509H74.2178V85.656Z" fill="#8C94A6"/>
<path d="M80.2887 88.9998H79.1637L81.212 83.1816H82.5132L84.5643 88.9998H83.4393L81.8853 84.3748H81.8399L80.2887 88.9998ZM80.3257 86.7185H83.3939V87.5651H80.3257V86.7185Z" fill="#8C94A6"/>
<path d="M86.4507 88.9998V83.1816H87.5046V88.1163H90.0671V88.9998H86.4507Z" fill="#8C94A6"/>
<path d="M93.0678 88.9998H91.9428L93.9911 83.1816H95.2922L97.3434 88.9998H96.2184L94.6644 84.3748H94.6189L93.0678 88.9998ZM93.1047 86.7185H96.1729V87.5651H93.1047V86.7185Z" fill="#8C94A6"/>
<path d="M104.011 83.1816V88.9998H103.073L100.332 85.0367H100.284V88.9998H99.2297V83.1816H100.173L102.912 87.1475H102.963V83.1816H104.011Z" fill="#8C94A6"/>
<path d="M111.26 85.1447H110.197C110.167 84.9704 110.111 84.8161 110.029 84.6816C109.948 84.5452 109.847 84.4297 109.725 84.335C109.604 84.2403 109.466 84.1693 109.311 84.1219C109.157 84.0727 108.992 84.0481 108.813 84.0481C108.497 84.0481 108.217 84.1276 107.973 84.2867C107.728 84.4439 107.537 84.675 107.399 84.9799C107.26 85.2829 107.191 85.6532 107.191 86.0907C107.191 86.5358 107.26 86.9108 107.399 87.2157C107.539 87.5187 107.73 87.7479 107.973 87.9032C108.217 88.0566 108.496 88.1333 108.811 88.1333C108.985 88.1333 109.148 88.1106 109.299 88.0651C109.453 88.0178 109.59 87.9486 109.711 87.8577C109.834 87.7668 109.938 87.6551 110.021 87.5225C110.106 87.3899 110.165 87.2384 110.197 87.068L111.26 87.0736C111.22 87.3502 111.134 87.6096 111.001 87.8521C110.87 88.0945 110.699 88.3085 110.487 88.4941C110.275 88.6778 110.027 88.8217 109.742 88.9259C109.458 89.0282 109.143 89.0793 108.796 89.0793C108.285 89.0793 107.829 88.961 107.427 88.7242C107.026 88.4875 106.709 88.1456 106.478 87.6986C106.247 87.2517 106.132 86.7157 106.132 86.0907C106.132 85.4638 106.248 84.9278 106.481 84.4827C106.714 84.0358 107.031 83.6939 107.433 83.4572C107.834 83.2204 108.289 83.1021 108.796 83.1021C109.12 83.1021 109.421 83.1475 109.7 83.2384C109.978 83.3293 110.226 83.4628 110.444 83.639C110.662 83.8132 110.841 84.0272 110.981 84.281C111.123 84.5329 111.216 84.8208 111.26 85.1447Z" fill="#8C94A6"/>
<path d="M113.345 88.9998V83.1816H117.129V84.0651H114.399V85.6447H116.933V86.5282H114.399V88.1163H117.152V88.9998H113.345Z" fill="#8C94A6"/>
<path d="M130.125 82.5625H123.875C123.709 82.5625 123.55 82.6283 123.433 82.7456C123.316 82.8628 123.25 83.0217 123.25 83.1875V85.4836C123.25 88.984 126.212 90.1453 126.805 90.3426C126.931 90.3856 127.069 90.3856 127.195 90.3426C127.789 90.1453 130.75 88.984 130.75 85.4836V83.1875C130.75 83.0217 130.684 82.8628 130.567 82.7456C130.45 82.6283 130.291 82.5625 130.125 82.5625ZM130.125 85.484C130.125 88.5473 127.533 89.5707 127 89.7488C126.471 89.5727 123.875 88.55 123.875 85.484V83.1875H130.125V85.484ZM125.216 86.5336C125.158 86.475 125.125 86.3954 125.125 86.3125C125.125 86.2296 125.158 86.15 125.216 86.0914C125.275 86.0328 125.355 85.9998 125.438 85.9998C125.52 85.9998 125.6 86.0328 125.659 86.0914L126.375 86.8078L128.341 84.8414C128.37 84.8124 128.405 84.7893 128.443 84.7736C128.481 84.7579 128.521 84.7498 128.562 84.7498C128.604 84.7498 128.644 84.7579 128.682 84.7736C128.72 84.7893 128.755 84.8124 128.784 84.8414C128.813 84.8704 128.836 84.9049 128.851 84.9428C128.867 84.9808 128.875 85.0214 128.875 85.0625C128.875 85.1036 128.867 85.1442 128.851 85.1822C128.836 85.2201 128.813 85.2546 128.784 85.2836L126.596 87.4711C126.567 87.5001 126.533 87.5232 126.495 87.5389C126.457 87.5547 126.416 87.5627 126.375 87.5627C126.334 87.5627 126.293 87.5547 126.255 87.5389C126.217 87.5232 126.183 87.5001 126.154 87.4711L125.216 86.5336Z" fill="#339969"/>
<path d="M24.6911 128.4H22.2911V126.144C18.7631 125.712 17.2031 123.72 17.2031 121.008V120.6H19.7471V120.864C19.7471 122.856 20.5871 123.864 23.9471 123.864C26.3231 123.864 27.1871 123.216 27.1871 121.728C27.1871 120.264 26.7071 119.736 24.2351 119.232L21.4991 118.68C18.7391 118.152 17.2511 116.808 17.2511 114.264C17.2511 112.08 18.8111 110.04 22.2911 109.728V107.52H24.6911V109.776C28.0751 110.256 29.4671 112.512 29.4671 115.032V115.32H26.9231V115.056C26.9231 113.088 26.0591 112.056 23.1791 112.056C20.8031 112.056 19.8431 112.728 19.8431 114.144C19.8431 115.608 20.4911 116.016 22.6991 116.496L25.4351 117.072C28.4591 117.696 29.7791 119.208 29.7791 121.632C29.7791 123.984 28.1951 125.952 24.6911 126.216V128.4Z" fill="#8C94A6"/>
<path d="M46.0515 130.36C39.8595 130.36 36.1875 128.02 36.1875 123.412C36.1875 119.992 38.3475 118.12 41.0115 117.364V117.22C38.4555 116.788 36.9075 114.736 36.9075 111.964C36.9075 108.22 39.9675 105.52 46.0515 105.52C52.1355 105.52 55.1955 108.22 55.1955 111.964C55.1955 114.736 53.6475 116.788 51.1275 117.22V117.364C53.7555 118.12 55.9515 119.992 55.9515 123.412C55.9515 128.02 52.2435 130.36 46.0515 130.36ZM46.0515 116.14C50.0115 116.14 51.3075 114.988 51.3075 112.576C51.3075 110.308 50.1195 109.084 46.0515 109.084C42.0195 109.084 40.7955 110.308 40.7955 112.576C40.7955 114.988 42.1275 116.14 46.0515 116.14ZM46.0515 126.796C50.8035 126.796 52.0275 125.464 52.0275 122.8C52.0275 120.172 50.7315 118.804 46.0515 118.804C41.3715 118.804 40.1115 120.172 40.1115 122.8C40.1115 125.464 41.3355 126.796 46.0515 126.796Z" fill="#1A1A21"/>
<path d="M69.2431 130.36C63.9511 130.36 60.5311 127.48 60.5311 122.836V122.62H64.6351V122.836C64.6351 125.104 65.7151 126.616 69.5311 126.616C74.0671 126.616 75.0391 124.456 75.0391 119.128V117.148H74.8591C73.8151 119.2 71.7271 120.82 67.6591 120.82C62.3311 120.82 59.5591 117.94 59.5591 113.368C59.5591 108.58 62.8711 105.52 69.0271 105.52C76.3711 105.52 79.0351 109.336 79.0351 117.94C79.0351 125.752 76.1551 130.36 69.2431 130.36ZM68.9191 117.544C72.9871 117.544 74.4991 116.212 74.4991 113.404C74.4991 110.56 72.9511 109.264 68.9191 109.264C64.7431 109.264 63.3391 110.56 63.3391 113.44C63.3391 116.248 64.7071 117.544 68.9191 117.544Z" fill="#1A1A21"/>
<path d="M93.63 130.36C87.15 130.36 83.226 125.572 83.226 117.94C83.226 110.308 87.15 105.52 93.63 105.52C100.11 105.52 104.07 110.308 104.07 117.94C104.07 125.572 100.11 130.36 93.63 130.36ZM93.63 126.616C97.914 126.616 99.93 124.312 99.93 117.94C99.93 111.568 97.914 109.264 93.63 109.264C89.346 109.264 87.366 111.568 87.366 117.94C87.366 124.312 89.346 126.616 93.63 126.616Z" fill="#1A1A21"/>
<path d="M108.841 134.248H107.545V131.692H108.733C109.345 131.692 109.669 131.548 109.669 130.756V130H107.473V124.42H112.405V130.684C112.405 133.096 111.109 134.248 108.841 134.248Z" fill="#1A1A21"/>
<path d="M133.832 130H116.048V127.588C116.048 123.016 119.144 120.928 122.528 119.2L126.236 117.292C128.828 115.924 129.872 114.844 129.872 112.792C129.872 110.56 129.044 109.084 125.048 109.084C120.656 109.084 119.756 110.524 119.756 113.836V114.34H115.868V113.764C115.868 109.264 118.676 105.52 125.336 105.52C131.276 105.52 133.76 108.652 133.76 112.648C133.76 116.608 131.06 118.732 127.964 120.316L124.436 122.116C121.988 123.376 120.116 124.528 120.116 126.508H133.832V130Z" fill="#1A1A21"/>
<path d="M148.218 130.36C141.738 130.36 137.814 125.572 137.814 117.94C137.814 110.308 141.738 105.52 148.218 105.52C154.698 105.52 158.658 110.308 158.658 117.94C158.658 125.572 154.698 130.36 148.218 130.36ZM148.218 126.616C152.502 126.616 154.518 124.312 154.518 117.94C154.518 111.568 152.502 109.264 148.218 109.264C143.934 109.264 141.954 111.568 141.954 117.94C141.954 124.312 143.934 126.616 148.218 126.616Z" fill="#1A1A21"/>
<path d="M173.855 130.36C167.375 130.36 163.451 125.572 163.451 117.94C163.451 110.308 167.375 105.52 173.855 105.52C180.335 105.52 184.295 110.308 184.295 117.94C184.295 125.572 180.335 130.36 173.855 130.36ZM173.855 126.616C178.139 126.616 180.155 124.312 180.155 117.94C180.155 111.568 178.139 109.264 173.855 109.264C169.571 109.264 167.591 111.568 167.591 117.94C167.591 124.312 169.571 126.616 173.855 126.616Z" fill="#1A1A21"/>
<rect x="16" y="172" width="304" height="52" rx="8" fill="#8872FD"/>
<path d="M124.579 191.464C124.579 191.464 124.579 191.472 124.579 191.476L120.032 206.471C119.963 206.715 119.822 206.931 119.626 207.092C119.431 207.253 119.191 207.35 118.938 207.37C118.902 207.373 118.867 207.375 118.831 207.375C118.594 207.376 118.363 207.309 118.163 207.182C117.963 207.056 117.804 206.874 117.704 206.66L114.914 200.77C114.887 200.712 114.878 200.647 114.889 200.583C114.9 200.52 114.93 200.461 114.976 200.416L119.449 195.941C119.562 195.823 119.623 195.666 119.621 195.503C119.619 195.34 119.553 195.184 119.438 195.069C119.323 194.954 119.167 194.888 119.004 194.886C118.841 194.884 118.684 194.946 118.566 195.058L114.085 199.531C114.04 199.577 113.981 199.607 113.918 199.618C113.854 199.629 113.789 199.621 113.731 199.593L107.871 196.817C107.641 196.712 107.447 196.54 107.315 196.325C107.182 196.109 107.116 195.859 107.126 195.606C107.139 195.346 107.233 195.097 107.395 194.893C107.557 194.69 107.779 194.542 108.03 194.472L123.025 189.925H123.037C123.25 189.865 123.476 189.863 123.691 189.919C123.905 189.975 124.101 190.087 124.258 190.244C124.415 190.4 124.527 190.596 124.584 190.81C124.64 191.025 124.639 191.25 124.579 191.464Z" fill="white"/>
<path d="M135.781 192.364H137.912L141.616 201.409H141.753L145.457 192.364H147.588V204H145.918V195.58H145.81L142.378 203.983H140.991L137.56 195.574H137.452V204H135.781V192.364Z" fill="white"/>
<path d="M153.36 204.176C152.542 204.176 151.828 203.989 151.218 203.614C150.609 203.239 150.135 202.714 149.798 202.04C149.461 201.366 149.292 200.578 149.292 199.676C149.292 198.771 149.461 197.979 149.798 197.301C150.135 196.623 150.609 196.097 151.218 195.722C151.828 195.347 152.542 195.159 153.36 195.159C154.179 195.159 154.893 195.347 155.502 195.722C156.112 196.097 156.586 196.623 156.923 197.301C157.26 197.979 157.429 198.771 157.429 199.676C157.429 200.578 157.26 201.366 156.923 202.04C156.586 202.714 156.112 203.239 155.502 203.614C154.893 203.989 154.179 204.176 153.36 204.176ZM153.366 202.75C153.896 202.75 154.336 202.61 154.684 202.33C155.033 202.049 155.29 201.676 155.457 201.21C155.627 200.744 155.713 200.231 155.713 199.671C155.713 199.114 155.627 198.602 155.457 198.136C155.29 197.667 155.033 197.29 154.684 197.006C154.336 196.722 153.896 196.58 153.366 196.58C152.832 196.58 152.389 196.722 152.037 197.006C151.688 197.29 151.429 197.667 151.258 198.136C151.091 198.602 151.008 199.114 151.008 199.671C151.008 200.231 151.091 200.744 151.258 201.21C151.429 201.676 151.688 202.049 152.037 202.33C152.389 202.61 152.832 202.75 153.366 202.75Z" fill="white"/>
<path d="M166.174 195.273L163.009 204H161.191L158.021 195.273H159.844L162.055 201.989H162.146L164.35 195.273H166.174Z" fill="white"/>
<path d="M170.915 204.176C170.055 204.176 169.315 203.993 168.693 203.625C168.076 203.254 167.599 202.733 167.262 202.063C166.928 201.388 166.762 200.599 166.762 199.693C166.762 198.799 166.928 198.011 167.262 197.33C167.599 196.648 168.068 196.116 168.671 195.733C169.277 195.351 169.985 195.159 170.796 195.159C171.288 195.159 171.765 195.241 172.228 195.404C172.69 195.566 173.104 195.822 173.472 196.171C173.839 196.519 174.129 196.972 174.341 197.529C174.553 198.082 174.659 198.754 174.659 199.546V200.148H167.722V198.875H172.995C172.995 198.428 172.904 198.032 172.722 197.688C172.54 197.339 172.284 197.065 171.955 196.864C171.629 196.663 171.246 196.563 170.807 196.563C170.33 196.563 169.913 196.68 169.557 196.915C169.205 197.146 168.932 197.449 168.739 197.824C168.549 198.195 168.455 198.599 168.455 199.034V200.029C168.455 200.612 168.557 201.108 168.762 201.517C168.97 201.926 169.26 202.239 169.631 202.455C170.002 202.667 170.436 202.773 170.932 202.773C171.254 202.773 171.548 202.727 171.813 202.636C172.078 202.542 172.307 202.402 172.5 202.216C172.693 202.03 172.841 201.801 172.943 201.529L174.551 201.818C174.423 202.292 174.192 202.707 173.858 203.063C173.529 203.415 173.114 203.69 172.614 203.886C172.118 204.08 171.551 204.176 170.915 204.176Z" fill="white"/>
<path d="M180.275 192.364H182.406L186.11 201.409H186.247L189.951 192.364H192.082V204H190.411V195.58H190.303L186.872 203.983H185.485L182.053 195.574H181.945V204H180.275V192.364Z" fill="white"/>
<path d="M197.854 204.176C197.036 204.176 196.322 203.989 195.712 203.614C195.102 203.239 194.629 202.714 194.292 202.04C193.955 201.366 193.786 200.578 193.786 199.676C193.786 198.771 193.955 197.979 194.292 197.301C194.629 196.623 195.102 196.097 195.712 195.722C196.322 195.347 197.036 195.159 197.854 195.159C198.672 195.159 199.386 195.347 199.996 195.722C200.606 196.097 201.08 196.623 201.417 197.301C201.754 197.979 201.922 198.771 201.922 199.676C201.922 200.578 201.754 201.366 201.417 202.04C201.08 202.714 200.606 203.239 199.996 203.614C199.386 203.989 198.672 204.176 197.854 204.176ZM197.86 202.75C198.39 202.75 198.83 202.61 199.178 202.33C199.526 202.049 199.784 201.676 199.951 201.21C200.121 200.744 200.206 200.231 200.206 199.671C200.206 199.114 200.121 198.602 199.951 198.136C199.784 197.667 199.526 197.29 199.178 197.006C198.83 196.722 198.39 196.58 197.86 196.58C197.326 196.58 196.883 196.722 196.53 197.006C196.182 197.29 195.922 197.667 195.752 198.136C195.585 198.602 195.502 199.114 195.502 199.671C195.502 200.231 195.585 200.744 195.752 201.21C195.922 201.676 196.182 202.049 196.53 202.33C196.883 202.61 197.326 202.75 197.86 202.75Z" fill="white"/>
<path d="M205.198 198.818V204H203.499V195.273H205.129V196.693H205.237C205.438 196.231 205.752 195.86 206.18 195.58C206.612 195.299 207.156 195.159 207.811 195.159C208.406 195.159 208.927 195.284 209.374 195.534C209.821 195.78 210.167 196.148 210.413 196.636C210.66 197.125 210.783 197.729 210.783 198.449V204H209.084V198.654C209.084 198.021 208.919 197.527 208.59 197.171C208.26 196.811 207.807 196.631 207.232 196.631C206.838 196.631 206.487 196.716 206.18 196.886C205.877 197.057 205.637 197.307 205.459 197.636C205.285 197.962 205.198 198.356 205.198 198.818Z" fill="white"/>
<path d="M216.503 204.176C215.643 204.176 214.902 203.993 214.281 203.625C213.663 203.254 213.186 202.733 212.849 202.063C212.516 201.388 212.349 200.599 212.349 199.693C212.349 198.799 212.516 198.011 212.849 197.33C213.186 196.648 213.656 196.116 214.258 195.733C214.864 195.351 215.573 195.159 216.383 195.159C216.876 195.159 217.353 195.241 217.815 195.404C218.277 195.566 218.692 195.822 219.059 196.171C219.427 196.519 219.717 196.972 219.929 197.529C220.141 198.082 220.247 198.754 220.247 199.546V200.148H213.309V198.875H218.582C218.582 198.428 218.491 198.032 218.309 197.688C218.128 197.339 217.872 197.065 217.542 196.864C217.217 196.663 216.834 196.563 216.395 196.563C215.917 196.563 215.501 196.68 215.145 196.915C214.792 197.146 214.52 197.449 214.326 197.824C214.137 198.195 214.042 198.599 214.042 199.034V200.029C214.042 200.612 214.145 201.108 214.349 201.517C214.557 201.926 214.847 202.239 215.218 202.455C215.59 202.667 216.023 202.773 216.52 202.773C216.842 202.773 217.135 202.727 217.4 202.636C217.665 202.542 217.895 202.402 218.088 202.216C218.281 202.03 218.429 201.801 218.531 201.529L220.139 201.818C220.01 202.292 219.779 202.707 219.446 203.063C219.116 203.415 218.701 203.69 218.201 203.886C217.705 204.08 217.139 204.176 216.503 204.176Z" fill="white"/>
<path d="M222.636 207.273C222.382 207.273 222.151 207.252 221.942 207.21C221.734 207.172 221.579 207.131 221.477 207.085L221.886 205.693C222.196 205.777 222.473 205.813 222.715 205.801C222.958 205.79 223.172 205.699 223.357 205.529C223.547 205.358 223.713 205.08 223.857 204.693L224.067 204.114L220.874 195.273H222.692L224.903 202.046H224.994L227.204 195.273H229.028L225.431 205.165C225.264 205.619 225.052 206.004 224.795 206.318C224.537 206.636 224.23 206.875 223.874 207.034C223.518 207.193 223.105 207.273 222.636 207.273Z" fill="white"/>
<defs>
<clipPath id="clip0_3625_52132">
<rect x="29.4844" y="24" width="16" height="16" rx="8" fill="white"/>
</clipPath>
<clipPath id="clip1_3625_52132">
<rect x="29.4844" y="24" width="16" height="16" rx="8" fill="white"/>
</clipPath>
<clipPath id="clip2_3625_52132">
<rect x="107.352" y="24" width="16" height="16" rx="8" fill="white"/>
</clipPath>
<clipPath id="clip3_3625_52132">
<rect x="107.352" y="24" width="16" height="16" rx="8" fill="white"/>
</clipPath>
<clipPath id="clip4_3625_52132">
<rect width="8" height="8" fill="white" transform="translate(107.352 24)"/>
</clipPath>
<clipPath id="clip5_3625_52132">
<rect x="184.211" y="24" width="16" height="16" rx="8" fill="white"/>
</clipPath>
<clipPath id="clip6_3625_52132">
<rect x="184.211" y="24" width="16" height="16" rx="8" fill="white"/>
</clipPath>
<clipPath id="clip7_3625_52132">
<rect x="260.57" y="24" width="16" height="16" rx="8" fill="white"/>
</clipPath>
</defs>
</svg>
