<svg width="712" height="442" viewBox="0 0 712 442" fill="none" xmlns="http://www.w3.org/2000/svg">
<g clip-path="url(#clip0_124_20)">
<path d="M360 12C360 5.37258 365.373 0 372 0H712V442H372C365.373 442 360 436.627 360 430V12Z" fill="#B6AAF9"/>
<path d="M324 0H12C5.37258 0 0 5.37258 0 12V228C0 234.627 5.37258 240 12 240H324C330.627 240 336 234.627 336 228V12C336 5.37258 330.627 0 324 0Z" fill="white"/>
<path d="M313.111 16H22.8894C19.0845 16 16 19.0845 16 22.8894V41.1106C16 44.9155 19.0845 48 22.8894 48H313.111C316.916 48 320 44.9155 320 41.1106V22.8894C320 19.0845 316.916 16 313.111 16Z" fill="#F5F6F8"/>
<mask id="mask0_124_20" style="mask-type:luminance" maskUnits="userSpaceOnUse" x="29" y="24" width="17" height="16">
<path d="M45.4844 32C45.4844 27.5817 41.9027 24 37.4844 24C33.0661 24 29.4844 27.5817 29.4844 32C29.4844 36.4183 33.0661 40 37.4844 40C41.9027 40 45.4844 36.4183 45.4844 32Z" fill="white"/>
</mask>
<g mask="url(#mask0_124_20)">
<mask id="mask1_124_20" style="mask-type:luminance" maskUnits="userSpaceOnUse" x="29" y="24" width="17" height="16">
<path d="M45.4844 32C45.4844 27.5817 41.9027 24 37.4844 24C33.0661 24 29.4844 27.5817 29.4844 32C29.4844 36.4183 33.0661 40 37.4844 40C41.9027 40 45.4844 36.4183 45.4844 32Z" fill="white"/>
</mask>
<g mask="url(#mask1_124_20)">
<path d="M45.4844 32C45.4844 27.5817 41.9027 24 37.4844 24C33.0661 24 29.4844 27.5817 29.4844 32C29.4844 36.4183 33.0661 40 37.4844 40C41.9027 40 45.4844 36.4183 45.4844 32Z" fill="white"/>
<path d="M34.8177 24H29.4844V40H34.8177V24Z" fill="#008753"/>
<path d="M45.4818 24H40.1484V40H45.4818V24Z" fill="#008753"/>
</g>
</g>
<path d="M37.4835 24.4307H37.4835C33.303 24.4307 29.9141 27.8196 29.9141 32.0001V32.0001C29.9141 36.1805 33.303 39.5695 37.4835 39.5695H37.4835C41.6639 39.5695 45.0529 36.1805 45.0529 32.0001V32.0001C45.0529 27.8196 41.6639 24.4307 37.4835 24.4307Z" stroke="#EEEEF0" stroke-width="0.861228"/>
<path d="M56.9347 27.7725V36.4998H55.7244L51.2884 30.0992H51.2074V36.4998H49.8906V27.7725H51.1094L55.5497 34.1816H55.6307V27.7725H56.9347Z" fill="#8C94A6"/>
<path d="M64.5215 30.5297C64.4391 30.2712 64.3283 30.0397 64.1891 29.8351C64.0528 29.6278 63.8894 29.4516 63.6991 29.3067C63.5087 29.159 63.2914 29.0468 63.0471 28.9701C62.8056 28.8934 62.54 28.855 62.2502 28.855C61.7587 28.855 61.3156 28.9814 60.9207 29.2343C60.5258 29.4871 60.2133 29.8579 59.9832 30.3465C59.7559 30.8323 59.6423 31.4275 59.6423 32.132C59.6423 32.8394 59.7573 33.4374 59.9874 33.926C60.2175 34.4147 60.5329 34.7854 60.9335 35.0383C61.334 35.2911 61.79 35.4175 62.3013 35.4175C62.7758 35.4175 63.1891 35.3209 63.5414 35.1278C63.8965 34.9346 64.1707 34.6618 64.3638 34.3096C64.5599 33.9545 64.6579 33.5368 64.6579 33.0567L64.9988 33.1207H62.5016V32.034H65.932V33.0269C65.932 33.7599 65.7758 34.3962 65.4633 34.936C65.1536 35.4729 64.7246 35.8877 64.1763 36.1803C63.6309 36.4729 63.0059 36.6192 62.3013 36.6192C61.5116 36.6192 60.8184 36.4374 60.2218 36.0738C59.6281 35.7101 59.165 35.1945 58.8326 34.5269C58.5002 33.8564 58.334 33.061 58.334 32.1405C58.334 31.4445 58.4306 30.8195 58.6238 30.2655C58.817 29.7116 59.0883 29.2414 59.4377 28.855C59.79 28.4658 60.2033 28.1689 60.6778 27.9644C61.155 27.757 61.6763 27.6533 62.2417 27.6533C62.7133 27.6533 63.1522 27.7229 63.5585 27.8621C63.9675 28.0013 64.3312 28.1988 64.6494 28.4545C64.9704 28.7101 65.236 29.0141 65.4462 29.3664C65.6565 29.7158 65.7985 30.1036 65.8724 30.5297H64.5215Z" fill="#8C94A6"/>
<path d="M74.4073 27.7725V36.4998H73.1971L68.761 30.0992H68.68V36.4998H67.3633V27.7725H68.582L73.0223 34.1816H73.1033V27.7725H74.4073Z" fill="#8C94A6"/>
<path d="M159.39 17.7227H99.7533C96.8995 17.7227 94.5859 20.0362 94.5859 22.89V41.1106C94.5859 43.9644 96.8995 46.278 99.7533 46.278H159.39C162.244 46.278 164.558 43.9644 164.558 41.1106V22.89C164.558 20.0362 162.244 17.7227 159.39 17.7227Z" fill="white"/>
<mask id="mask2_124_20" style="mask-type:luminance" maskUnits="userSpaceOnUse" x="107" y="24" width="17" height="16">
<path d="M123.352 32C123.352 27.5817 119.77 24 115.352 24C110.933 24 107.352 27.5817 107.352 32C107.352 36.4183 110.933 40 115.352 40C119.77 40 123.352 36.4183 123.352 32Z" fill="white"/>
</mask>
<g mask="url(#mask2_124_20)">
<mask id="mask3_124_20" style="mask-type:luminance" maskUnits="userSpaceOnUse" x="107" y="24" width="17" height="16">
<path d="M123.352 32C123.352 27.5817 119.77 24 115.352 24C110.933 24 107.352 27.5817 107.352 32C107.352 36.4183 110.933 40 115.352 40C119.77 40 123.352 36.4183 123.352 32Z" fill="white"/>
</mask>
<g mask="url(#mask3_124_20)">
<path d="M123.352 32C123.352 27.5817 119.77 24 115.352 24C110.933 24 107.352 27.5817 107.352 32C107.352 36.4183 110.933 40 115.352 40C119.77 40 123.352 36.4183 123.352 32Z" fill="#EEEEF0"/>
<mask id="mask4_124_20" style="mask-type:luminance" maskUnits="userSpaceOnUse" x="107" y="24" width="9" height="8">
<path d="M115.352 24H107.352V32H115.352V24Z" fill="white"/>
</mask>
<g mask="url(#mask4_124_20)">
<path d="M115.352 24H107.352V32H115.352V24Z" fill="#002868"/>
<path d="M109.352 24.3047L109.822 25.6575L111.254 25.6867L110.112 26.5519L110.527 27.9227L109.352 27.1047L108.176 27.9227L108.591 26.5519L107.449 25.6867L108.881 25.6575L109.352 24.3047Z" fill="white"/>
<path d="M111.352 27.6953L111.822 29.0481L113.254 29.0773L112.112 29.9425L112.527 31.3133L111.352 30.4953L110.176 31.3133L110.591 29.9425L109.449 29.0773L110.881 29.0481L111.352 27.6953Z" fill="white"/>
<path d="M113.352 24.3047L113.822 25.6575L115.254 25.6867L114.112 26.5519L114.527 27.9227L113.352 27.1047L112.176 27.9227L112.591 26.5519L111.449 25.6867L112.881 25.6575L113.352 24.3047Z" fill="white"/>
</g>
<path d="M123.352 24H115.352V26.6667H123.352V24Z" fill="#BF0A30"/>
<path d="M123.352 26.667H115.352V29.3337H123.352V26.667Z" fill="white"/>
<path d="M123.352 29.333H115.352V31.9997H123.352V29.333Z" fill="#BF0A30"/>
<path d="M123.352 32H107.352V36H123.352V32Z" fill="white"/>
<path d="M123.352 36H107.352V40H123.352V36Z" fill="#BF0A30"/>
</g>
</g>
<path d="M115.351 24.4307H115.351C111.17 24.4307 107.781 27.8196 107.781 32.0001V32.0001C107.781 36.1805 111.17 39.5695 115.351 39.5695H115.351C119.531 39.5695 122.92 36.1805 122.92 32.0001V32.0001C122.92 27.8196 119.531 24.4307 115.351 24.4307Z" stroke="#EEEEF0" stroke-width="0.861228"/>
<path d="M133.37 27.7725H134.691V33.5126C134.691 34.1234 134.548 34.6646 134.261 35.1362C133.974 35.6049 133.57 35.9742 133.05 36.2441C132.531 36.5112 131.921 36.6447 131.222 36.6447C130.526 36.6447 129.918 36.5112 129.398 36.2441C128.879 35.9742 128.475 35.6049 128.188 35.1362C127.901 34.6646 127.758 34.1234 127.758 33.5126V27.7725H129.075V33.4061C129.075 33.8009 129.161 34.1518 129.335 34.4586C129.511 34.7654 129.759 35.0069 130.08 35.1831C130.401 35.3563 130.782 35.443 131.222 35.443C131.665 35.443 132.048 35.3563 132.369 35.1831C132.692 35.0069 132.94 34.7654 133.11 34.4586C133.283 34.1518 133.37 33.8009 133.37 33.4061V27.7725Z" fill="#1A1A21"/>
<path d="M141.125 30.0653C141.08 29.6618 140.892 29.3493 140.563 29.1278C140.233 28.9033 139.819 28.7911 139.319 28.7911C138.961 28.7911 138.651 28.8479 138.39 28.9616C138.128 29.0724 137.925 29.2258 137.78 29.4218C137.638 29.615 137.567 29.8351 137.567 30.0823C137.567 30.2897 137.615 30.4687 137.712 30.6192C137.811 30.7698 137.941 30.8962 138.1 30.9985C138.262 31.0979 138.435 31.1817 138.62 31.2499C138.804 31.3153 138.982 31.3692 139.152 31.4118L140.005 31.6334C140.283 31.7016 140.569 31.7939 140.861 31.9104C141.154 32.0269 141.425 32.1803 141.675 32.3707C141.925 32.561 142.127 32.7968 142.28 33.078C142.436 33.3593 142.515 33.6959 142.515 34.088C142.515 34.5823 142.387 35.0212 142.131 35.4047C141.878 35.7883 141.51 36.0908 141.027 36.3124C140.547 36.534 139.966 36.6448 139.285 36.6448C138.631 36.6448 138.066 36.5411 137.588 36.3337C137.111 36.1263 136.738 35.8323 136.468 35.4516C136.198 35.0681 136.049 34.6135 136.02 34.088H137.341C137.367 34.4033 137.469 34.6661 137.648 34.8763C137.83 35.0837 138.061 35.2385 138.343 35.3408C138.627 35.4403 138.938 35.49 139.276 35.49C139.648 35.49 139.979 35.4317 140.269 35.3153C140.561 35.1959 140.792 35.0312 140.959 34.8209C141.127 34.6079 141.211 34.3593 141.211 34.0752C141.211 33.8167 141.137 33.605 140.989 33.4403C140.844 33.2755 140.647 33.1391 140.397 33.0312C140.15 32.9232 139.87 32.828 139.557 32.7457L138.526 32.4644C137.827 32.2741 137.273 31.9942 136.864 31.6249C136.458 31.2556 136.255 30.767 136.255 30.159C136.255 29.6562 136.391 29.2172 136.664 28.8422C136.936 28.4672 137.306 28.176 137.772 27.9687C138.238 27.7584 138.763 27.6533 139.348 27.6533C139.939 27.6533 140.461 27.757 140.912 27.9644C141.367 28.1718 141.725 28.4573 141.986 28.8209C142.248 29.1817 142.384 29.5965 142.395 30.0653H141.125Z" fill="#1A1A21"/>
<path d="M146.673 36.4998H143.848V27.7725H146.763C147.618 27.7725 148.352 27.9473 148.966 28.2967C149.58 28.6433 150.05 29.1419 150.377 29.7924C150.706 30.4402 150.871 31.2171 150.871 32.1234C150.871 33.0325 150.705 33.8137 150.372 34.4671C150.043 35.1206 149.565 35.6234 148.94 35.9757C148.315 36.3251 147.56 36.4998 146.673 36.4998ZM145.165 35.3492H146.601C147.266 35.3492 147.818 35.2242 148.259 34.9742C148.699 34.7214 149.029 34.3563 149.247 33.8791C149.466 33.399 149.575 32.8137 149.575 32.1234C149.575 31.4387 149.466 30.8578 149.247 30.3805C149.031 29.9032 148.709 29.541 148.28 29.2938C147.851 29.0467 147.318 28.9231 146.682 28.9231H145.165V35.3492Z" fill="#1A1A21"/>
<mask id="mask5_124_20" style="mask-type:luminance" maskUnits="userSpaceOnUse" x="184" y="24" width="17" height="16">
<path d="M200.211 32C200.211 27.5817 196.629 24 192.211 24C187.793 24 184.211 27.5817 184.211 32C184.211 36.4183 187.793 40 192.211 40C196.629 40 200.211 36.4183 200.211 32Z" fill="white"/>
</mask>
<g mask="url(#mask5_124_20)">
<mask id="mask6_124_20" style="mask-type:luminance" maskUnits="userSpaceOnUse" x="184" y="24" width="17" height="16">
<path d="M200.211 32C200.211 27.5817 196.629 24 192.211 24C187.793 24 184.211 27.5817 184.211 32C184.211 36.4183 187.793 40 192.211 40C196.629 40 200.211 36.4183 200.211 32Z" fill="white"/>
</mask>
<g mask="url(#mask6_124_20)">
<path d="M200.211 32C200.211 27.5817 196.629 24 192.211 24C187.793 24 184.211 27.5817 184.211 32C184.211 36.4183 187.793 40 192.211 40C196.629 40 200.211 36.4183 200.211 32Z" fill="#EEEEF0"/>
<path d="M190.611 24H184.211V30H190.611V24Z" fill="#012169"/>
<path d="M190.611 29.2002H184.211V30.4002H190.611V29.2002Z" fill="white"/>
<path d="M190.016 28.9511L184.688 23.623L183.839 24.4716L189.167 29.7996L190.016 28.9511Z" fill="white"/>
<path d="M190.614 24H189.414V30H190.614V24Z" fill="white"/>
<path d="M193.811 24H200.211V30H193.811V24Z" fill="#012169"/>
<path d="M193.811 29.2002H200.211V30.4002H193.811V29.2002Z" fill="white"/>
<path d="M194.406 28.9511L199.734 23.623L200.583 24.4716L195.255 29.7996L194.406 28.9511Z" fill="white"/>
<path d="M193.808 24H195.008V30H193.808V24Z" fill="white"/>
<path d="M190.611 40H184.211V34H190.611V40Z" fill="#012169"/>
<path d="M190.611 34.7998H184.211V33.5998H190.611V34.7998Z" fill="white"/>
<path d="M190.016 35.0489L184.688 40.377L183.839 39.5284L189.167 34.2004L190.016 35.0489Z" fill="white"/>
<path d="M190.614 40H189.414V34H190.614V40Z" fill="white"/>
<path d="M193.811 40H200.211V34H193.811V40Z" fill="#012169"/>
<path d="M193.811 34.7998H200.211V33.5998H193.811V34.7998Z" fill="white"/>
<path d="M194.406 35.0489L199.734 40.377L200.583 39.5284L195.255 34.2004L194.406 35.0489Z" fill="white"/>
<path d="M193.808 40H195.008V34H193.808V40Z" fill="white"/>
<path d="M193.809 24H190.609V40H193.809V24Z" fill="#C8102E"/>
<path d="M200.211 30.4004H184.211V33.6004H200.211V30.4004Z" fill="#C8102E"/>
</g>
</g>
<path d="M192.212 24.4307H192.212C188.032 24.4307 184.643 27.8196 184.643 32.0001V32.0001C184.643 36.1805 188.032 39.5695 192.212 39.5695H192.212C196.392 39.5695 199.781 36.1805 199.781 32.0001V32.0001C199.781 27.8196 196.392 24.4307 192.212 24.4307Z" stroke="#EEEEF0" stroke-width="0.861228"/>
<path d="M210.523 30.5297C210.441 30.2712 210.33 30.0397 210.191 29.8351C210.055 29.6278 209.891 29.4516 209.701 29.3067C209.511 29.159 209.293 29.0468 209.049 28.9701C208.808 28.8934 208.542 28.855 208.252 28.855C207.761 28.855 207.317 28.9814 206.923 29.2343C206.528 29.4871 206.215 29.8579 205.985 30.3465C205.758 30.8323 205.644 31.4275 205.644 32.132C205.644 32.8394 205.759 33.4374 205.989 33.926C206.219 34.4147 206.535 34.7854 206.935 35.0383C207.336 35.2911 207.792 35.4175 208.303 35.4175C208.778 35.4175 209.191 35.3209 209.543 35.1278C209.898 34.9346 210.173 34.6618 210.366 34.3096C210.562 33.9545 210.66 33.5368 210.66 33.0567L211.001 33.1207H208.504V32.034H211.934V33.0269C211.934 33.7599 211.778 34.3962 211.465 34.936C211.156 35.4729 210.727 35.8877 210.178 36.1803C209.633 36.4729 209.008 36.6192 208.303 36.6192C207.513 36.6192 206.82 36.4374 206.224 36.0738C205.63 35.7101 205.167 35.1945 204.835 34.5269C204.502 33.8564 204.336 33.061 204.336 32.1405C204.336 31.4445 204.433 30.8195 204.626 30.2655C204.819 29.7116 205.09 29.2414 205.44 28.855C205.792 28.4658 206.205 28.1689 206.68 27.9644C207.157 27.757 207.678 27.6533 208.244 27.6533C208.715 27.6533 209.154 27.7229 209.56 27.8621C209.969 28.0013 210.333 28.1988 210.651 28.4545C210.972 28.7101 211.238 29.0141 211.448 29.3664C211.658 29.7158 211.8 30.1036 211.874 30.5297H210.523Z" fill="#8C94A6"/>
<path d="M213.365 36.4998V27.7725H216.561C217.181 27.7725 217.694 27.8748 218.1 28.0794C218.506 28.2811 218.81 28.5552 219.012 28.9018C219.213 29.2455 219.314 29.6333 219.314 30.0652C219.314 30.4288 219.248 30.7356 219.114 30.9856C218.981 31.2328 218.802 31.4316 218.577 31.5822C218.356 31.7299 218.111 31.8379 217.844 31.9061V31.9913C218.134 32.0055 218.417 32.0992 218.692 32.2725C218.971 32.443 219.201 32.6859 219.383 33.0012C219.564 33.3166 219.655 33.7001 219.655 34.1518C219.655 34.5978 219.55 34.9984 219.34 35.3535C219.133 35.7058 218.811 35.9856 218.377 36.193C217.942 36.3975 217.387 36.4998 216.711 36.4998H213.365ZM214.682 35.3706H216.583C217.213 35.3706 217.665 35.2484 217.938 35.0041C218.211 34.7598 218.347 34.4544 218.347 34.0879C218.347 33.8123 218.277 33.5595 218.138 33.3294C217.999 33.0992 217.8 32.916 217.542 32.7796C217.286 32.6433 216.982 32.5751 216.63 32.5751H214.682V35.3706ZM214.682 31.5481H216.446C216.742 31.5481 217.008 31.4913 217.243 31.3777C217.482 31.264 217.671 31.1049 217.81 30.9004C217.952 30.693 218.023 30.4487 218.023 30.1674C218.023 29.8066 217.897 29.5041 217.644 29.2598C217.391 29.0154 217.003 28.8933 216.481 28.8933H214.682V31.5481Z" fill="#8C94A6"/>
<path d="M220.977 36.4998V27.7725H224.088C224.767 27.7725 225.329 27.8961 225.775 28.1433C226.221 28.3904 226.555 28.7285 226.777 29.1575C226.998 29.5836 227.109 30.0637 227.109 30.5978C227.109 31.1348 226.997 31.6177 226.772 32.0467C226.551 32.4728 226.216 32.8109 225.767 33.0609C225.321 33.308 224.76 33.4316 224.084 33.4316H221.944V32.3152H223.964C224.393 32.3152 224.741 32.2413 225.008 32.0936C225.275 31.943 225.471 31.7384 225.596 31.4799C225.721 31.2214 225.784 30.9274 225.784 30.5978C225.784 30.2683 225.721 29.9757 225.596 29.72C225.471 29.4643 225.274 29.264 225.004 29.1191C224.737 28.9742 224.385 28.9018 223.947 28.9018H222.294V36.4998H220.977Z" fill="#8C94A6"/>
<mask id="mask7_124_20" style="mask-type:luminance" maskUnits="userSpaceOnUse" x="260" y="24" width="17" height="16">
<path d="M276.57 32C276.57 27.5817 272.989 24 268.57 24C264.152 24 260.57 27.5817 260.57 32C260.57 36.4183 264.152 40 268.57 40C272.989 40 276.57 36.4183 276.57 32Z" fill="white"/>
</mask>
<g mask="url(#mask7_124_20)">
<path d="M276.57 32C276.57 27.5817 272.989 24 268.57 24C264.152 24 260.57 27.5817 260.57 32C260.57 36.4183 264.152 40 268.57 40C272.989 40 276.57 36.4183 276.57 32Z" fill="#EE1F25"/>
<path d="M264.221 28.9365L264.594 30.0107L265.731 30.0339L264.825 30.7209L265.154 31.8094L264.221 31.1598L263.287 31.8094L263.617 30.7209L262.711 30.0339L263.848 30.0107L264.221 28.9365Z" fill="#FFCC00"/>
<path d="M267.255 27.0928L267.456 27.6726L268.07 27.6851L267.581 28.056L267.759 28.6436L267.255 28.2929L266.751 28.6436L266.929 28.056L266.439 27.6851L267.053 27.6726L267.255 27.0928Z" fill="#FFCC00"/>
<path d="M267.26 32.2432L267.058 32.823L266.445 32.8355L266.934 33.2064L266.756 33.794L267.26 33.4433L267.764 33.794L267.586 33.2064L268.075 32.8355L267.461 32.823L267.26 32.2432Z" fill="#FFCC00"/>
<path d="M269.503 31.0107L269.301 31.5906L268.688 31.6031L269.176 31.974L268.998 32.5615L269.503 32.2109L270.007 32.5615L269.828 31.974L270.317 31.6031L269.704 31.5906L269.503 31.0107Z" fill="#FFCC00"/>
<path d="M269.503 28.3232L269.301 28.9031L268.688 28.9156L269.176 29.2865L268.998 29.874L269.503 29.5234L270.007 29.874L269.828 29.2865L270.317 28.9156L269.704 28.9031L269.503 28.3232Z" fill="#FFCC00"/>
</g>
<path d="M276.141 32.0001C276.141 27.8196 272.752 24.4307 268.571 24.4307C264.391 24.4307 261.002 27.8196 261.002 32.0001V32.0001C261.002 36.1805 264.391 39.5695 268.571 39.5695C272.752 39.5695 276.141 36.1805 276.141 32.0001V32.0001Z" stroke="#EEEEF0" stroke-width="0.861228"/>
<path d="M288.225 30.6107H286.896C286.844 30.3266 286.749 30.0766 286.61 29.8607C286.471 29.6448 286.3 29.4616 286.099 29.311C285.897 29.1604 285.671 29.0468 285.421 28.9701C285.174 28.8934 284.911 28.855 284.633 28.855C284.13 28.855 283.68 28.9814 283.282 29.2343C282.887 29.4871 282.575 29.8579 282.344 30.3465C282.117 30.8351 282.004 31.4317 282.004 32.1363C282.004 32.8465 282.117 33.4459 282.344 33.9346C282.575 34.4232 282.888 34.7925 283.286 35.0425C283.684 35.2925 284.131 35.4175 284.629 35.4175C284.904 35.4175 285.165 35.3806 285.413 35.3067C285.663 35.23 285.888 35.1178 286.09 34.9701C286.292 34.8224 286.462 34.642 286.602 34.4289C286.744 34.213 286.842 33.9658 286.896 33.6874L288.225 33.6917C288.154 34.1206 288.016 34.5155 287.812 34.8763C287.61 35.2343 287.35 35.5439 287.032 35.8053C286.717 36.0638 286.356 36.2641 285.95 36.4062C285.543 36.5482 285.1 36.6192 284.62 36.6192C283.864 36.6192 283.191 36.4403 282.6 36.0823C282.009 35.7215 281.543 35.2059 281.202 34.5354C280.864 33.865 280.695 33.0653 280.695 32.1363C280.695 31.2045 280.866 30.4047 281.207 29.7371C281.548 29.0667 282.013 28.5525 282.604 28.1945C283.195 27.8337 283.867 27.6533 284.62 27.6533C285.083 27.6533 285.515 27.7201 285.915 27.8536C286.319 27.9843 286.681 28.1775 287.002 28.4331C287.323 28.686 287.589 28.9956 287.799 29.3621C288.009 29.7258 288.151 30.142 288.225 30.6107Z" fill="#8C94A6"/>
<path d="M296.605 27.7725V36.4998H295.395L290.959 30.0992H290.878V36.4998H289.561V27.7725H290.78L295.22 34.1816H295.301V27.7725H296.605Z" fill="#8C94A6"/>
<path d="M297.611 27.7725H299.107L301.387 31.7399H301.481L303.76 27.7725H305.256L302.09 33.0737V36.4998H300.778V33.0737L297.611 27.7725Z" fill="#8C94A6"/>
<path d="M17.3203 88.9998H16.1953L18.2436 83.1816H19.5447L21.5959 88.9998H20.4709L18.9169 84.3748H18.8714L17.3203 88.9998ZM17.3572 86.7185H20.4254V87.5651H17.3572V86.7185Z" fill="#8C94A6"/>
<path d="M23.5958 83.1816L25.11 87.7611H25.1696L26.681 83.1816H27.8401L25.7889 88.9998H24.4878L22.4395 83.1816H23.5958Z" fill="#8C94A6"/>
<path d="M29.7949 88.9998H28.6699L30.7182 83.1816H32.0193L34.0705 88.9998H32.9455L31.3915 84.3748H31.346L29.7949 88.9998ZM29.8318 86.7185H32.9V87.5651H29.8318V86.7185Z" fill="#8C94A6"/>
<path d="M37.011 83.1816V88.9998H35.957V83.1816H37.011Z" fill="#8C94A6"/>
<path d="M39.2715 88.9998V83.1816H40.3255V88.1163H42.888V88.9998H39.2715Z" fill="#8C94A6"/>
<path d="M45.8887 88.9998H44.7637L46.812 83.1816H48.1131L50.1642 88.9998H49.0392L47.4853 84.3748H47.4398L45.8887 88.9998ZM45.9256 86.7185H48.9938V87.5651H45.9256V86.7185Z" fill="#8C94A6"/>
<path d="M52.0508 88.9998V83.1816H54.278C54.6985 83.1816 55.0479 83.2479 55.3263 83.3805C55.6066 83.5111 55.8159 83.6901 55.9542 83.9174C56.0943 84.1447 56.1644 84.4022 56.1644 84.6901C56.1644 84.9269 56.1189 85.1295 56.028 85.2981C55.9371 85.4647 55.815 85.6002 55.6616 85.7043C55.5082 85.8085 55.3368 85.8833 55.1474 85.9288V85.9856C55.3538 85.9969 55.5517 86.0604 55.7411 86.1759C55.9324 86.2896 56.0886 86.4505 56.2099 86.6589C56.3311 86.8672 56.3917 87.1191 56.3917 87.4146C56.3917 87.7157 56.3188 87.9865 56.1729 88.2271C56.0271 88.4657 55.8074 88.6541 55.5138 88.7924C55.2203 88.9306 54.851 88.9998 54.4059 88.9998H52.0508ZM53.1047 88.1191H54.2383C54.6208 88.1191 54.8964 88.0462 55.065 87.9003C55.2354 87.7526 55.3207 87.5632 55.3207 87.3322C55.3207 87.1598 55.278 87.0045 55.1928 86.8663C55.1076 86.7261 54.9864 86.6163 54.8292 86.5367C54.672 86.4553 54.4845 86.4146 54.2667 86.4146H53.1047V88.1191ZM53.1047 85.656H54.1474C54.3292 85.656 54.493 85.6229 54.6388 85.5566C54.7847 85.4884 54.8993 85.3928 54.9826 85.2697C55.0678 85.1447 55.1104 84.9969 55.1104 84.8265C55.1104 84.6011 55.0309 84.4155 54.8718 84.2697C54.7146 84.1238 54.4807 84.0509 54.1701 84.0509H53.1047V85.656Z" fill="#8C94A6"/>
<path d="M58.4297 88.9998V83.1816H59.4837V88.1163H62.0462V88.9998H58.4297Z" fill="#8C94A6"/>
<path d="M64.0801 88.9998V83.1816H67.8642V84.0651H65.1341V85.6447H67.6682V86.5282H65.1341V88.1163H67.8869V88.9998H64.0801Z" fill="#8C94A6"/>
<path d="M73.1641 88.9998V83.1816H75.3914C75.8118 83.1816 76.1612 83.2479 76.4396 83.3805C76.72 83.5111 76.9292 83.6901 77.0675 83.9174C77.2076 84.1447 77.2777 84.4022 77.2777 84.6901C77.2777 84.9269 77.2323 85.1295 77.1414 85.2981C77.0504 85.4647 76.9283 85.6002 76.7749 85.7043C76.6215 85.8085 76.4501 85.8833 76.2607 85.9288V85.9856C76.4671 85.9969 76.665 86.0604 76.8544 86.1759C77.0457 86.2896 77.202 86.4505 77.3232 86.6589C77.4444 86.8672 77.505 87.1191 77.505 87.4146C77.505 87.7157 77.4321 87.9865 77.2862 88.2271C77.1404 88.4657 76.9207 88.6541 76.6271 88.7924C76.3336 88.9306 75.9643 88.9998 75.5192 88.9998H73.1641ZM74.2181 88.1191H75.3516C75.7342 88.1191 76.0097 88.0462 76.1783 87.9003C76.3487 87.7526 76.434 87.5632 76.434 87.3322C76.434 87.1598 76.3914 87.0045 76.3061 86.8663C76.2209 86.7261 76.0997 86.6163 75.9425 86.5367C75.7853 86.4553 75.5978 86.4146 75.38 86.4146H74.2181V88.1191ZM74.2181 85.656H75.2607C75.4425 85.656 75.6063 85.6229 75.7521 85.5566C75.898 85.4884 76.0126 85.3928 76.0959 85.2697C76.1811 85.1447 76.2237 84.9969 76.2237 84.8265C76.2237 84.6011 76.1442 84.4155 75.9851 84.2697C75.8279 84.1238 75.594 84.0509 75.2834 84.0509H74.2181V85.656Z" fill="#8C94A6"/>
<path d="M80.2891 88.9998H79.1641L81.2124 83.1816H82.5136L84.5647 88.9998H83.4397L81.8857 84.3748H81.8403L80.2891 88.9998ZM80.3261 86.7185H83.3943V87.5651H80.3261V86.7185Z" fill="#8C94A6"/>
<path d="M86.4512 88.9998V83.1816H87.5051V88.1163H90.0676V88.9998H86.4512Z" fill="#8C94A6"/>
<path d="M93.0684 88.9998H91.9434L93.9917 83.1816H95.2928L97.344 88.9998H96.219L94.665 84.3748H94.6195L93.0684 88.9998ZM93.1053 86.7185H96.1735V87.5651H93.1053V86.7185Z" fill="#8C94A6"/>
<path d="M104.012 83.1816V88.9998H103.074L100.333 85.0367H100.285V88.9998H99.2305V83.1816H100.174L102.913 87.1475H102.964V83.1816H104.012Z" fill="#8C94A6"/>
<path d="M111.261 85.1451H110.198C110.168 84.9708 110.112 84.8165 110.03 84.682C109.949 84.5456 109.848 84.4301 109.726 84.3354C109.605 84.2407 109.467 84.1697 109.312 84.1223C109.158 84.0731 108.993 84.0485 108.814 84.0485C108.498 84.0485 108.218 84.128 107.974 84.2871C107.729 84.4443 107.538 84.6754 107.4 84.9803C107.261 85.2833 107.192 85.6536 107.192 86.0911C107.192 86.5362 107.261 86.9112 107.4 87.2161C107.54 87.5191 107.731 87.7483 107.974 87.9036C108.218 88.057 108.497 88.1337 108.812 88.1337C108.986 88.1337 109.149 88.111 109.3 88.0655C109.454 88.0182 109.591 87.949 109.712 87.8581C109.835 87.7672 109.939 87.6555 110.022 87.5229C110.107 87.3903 110.166 87.2388 110.198 87.0684L111.261 87.074C111.221 87.3506 111.135 87.61 111.002 87.8525C110.871 88.0949 110.7 88.3089 110.488 88.4945C110.276 88.6782 110.028 88.8221 109.743 88.9263C109.459 89.0286 109.144 89.0797 108.797 89.0797C108.286 89.0797 107.83 88.9614 107.428 88.7246C107.027 88.4879 106.71 88.146 106.479 87.699C106.248 87.2521 106.133 86.7161 106.133 86.0911C106.133 85.4642 106.249 84.9282 106.482 84.4831C106.715 84.0362 107.032 83.6943 107.434 83.4576C107.835 83.2208 108.29 83.1025 108.797 83.1025C109.121 83.1025 109.422 83.1479 109.701 83.2388C109.979 83.3297 110.227 83.4632 110.445 83.6394C110.663 83.8136 110.842 84.0276 110.982 84.2814C111.124 84.5333 111.217 84.8212 111.261 85.1451Z" fill="#8C94A6"/>
<path d="M113.346 88.9998V83.1816H117.13V84.0651H114.4V85.6447H116.934V86.5282H114.4V88.1163H117.153V88.9998H113.346Z" fill="#8C94A6"/>
<path d="M130.125 82.5625H123.875C123.709 82.5625 123.55 82.6283 123.433 82.7456C123.316 82.8628 123.25 83.0217 123.25 83.1875V85.4836C123.25 88.984 126.212 90.1453 126.805 90.3426C126.931 90.3856 127.069 90.3856 127.195 90.3426C127.789 90.1453 130.75 88.984 130.75 85.4836V83.1875C130.75 83.0217 130.684 82.8628 130.567 82.7456C130.45 82.6283 130.291 82.5625 130.125 82.5625ZM130.125 85.484C130.125 88.5473 127.533 89.5707 127 89.7488C126.471 89.5727 123.875 88.55 123.875 85.484V83.1875H130.125V85.484ZM125.216 86.5336C125.158 86.475 125.125 86.3954 125.125 86.3125C125.125 86.2296 125.158 86.15 125.216 86.0914C125.275 86.0328 125.355 85.9998 125.438 85.9998C125.52 85.9998 125.6 86.0328 125.659 86.0914L126.375 86.8078L128.341 84.8414C128.37 84.8124 128.405 84.7893 128.443 84.7736C128.481 84.7579 128.521 84.7498 128.562 84.7498C128.604 84.7498 128.644 84.7579 128.682 84.7736C128.72 84.7893 128.755 84.8124 128.784 84.8414C128.813 84.8704 128.836 84.9049 128.851 84.9428C128.867 84.9808 128.875 85.0214 128.875 85.0625C128.875 85.1036 128.867 85.1442 128.851 85.1822C128.836 85.2201 128.813 85.2546 128.784 85.2836L126.596 87.4711C126.567 87.5001 126.533 87.5232 126.495 87.5389C126.457 87.5547 126.416 87.5627 126.375 87.5627C126.334 87.5627 126.293 87.5547 126.255 87.5389C126.217 87.5232 126.183 87.5001 126.154 87.4711L125.216 86.5336Z" fill="#339969"/>
<path d="M24.6911 128.4H22.2911V126.144C18.7631 125.712 17.2031 123.72 17.2031 121.008V120.6H19.7471V120.864C19.7471 122.856 20.5871 123.864 23.9471 123.864C26.3231 123.864 27.1871 123.216 27.1871 121.728C27.1871 120.264 26.7071 119.736 24.2351 119.232L21.4991 118.68C18.7391 118.152 17.2511 116.808 17.2511 114.264C17.2511 112.08 18.8111 110.04 22.2911 109.728V107.52H24.6911V109.776C28.0751 110.256 29.4671 112.512 29.4671 115.032V115.32H26.9231V115.056C26.9231 113.088 26.0591 112.056 23.1791 112.056C20.8031 112.056 19.8431 112.728 19.8431 114.144C19.8431 115.608 20.4911 116.016 22.6991 116.496L25.4351 117.072C28.4591 117.696 29.7791 119.208 29.7791 121.632C29.7791 123.984 28.1951 125.952 24.6911 126.216V128.4Z" fill="#8C94A6"/>
<path d="M46.0515 130.36C39.8595 130.36 36.1875 128.02 36.1875 123.412C36.1875 119.992 38.3475 118.12 41.0115 117.364V117.22C38.4555 116.788 36.9075 114.736 36.9075 111.964C36.9075 108.22 39.9675 105.52 46.0515 105.52C52.1355 105.52 55.1955 108.22 55.1955 111.964C55.1955 114.736 53.6475 116.788 51.1275 117.22V117.364C53.7555 118.12 55.9515 119.992 55.9515 123.412C55.9515 128.02 52.2435 130.36 46.0515 130.36ZM46.0515 116.14C50.0115 116.14 51.3075 114.988 51.3075 112.576C51.3075 110.308 50.1195 109.084 46.0515 109.084C42.0195 109.084 40.7955 110.308 40.7955 112.576C40.7955 114.988 42.1275 116.14 46.0515 116.14ZM46.0515 126.796C50.8035 126.796 52.0275 125.464 52.0275 122.8C52.0275 120.172 50.7315 118.804 46.0515 118.804C41.3715 118.804 40.1115 120.172 40.1115 122.8C40.1115 125.464 41.3355 126.796 46.0515 126.796Z" fill="#1A1A21"/>
<path d="M69.2426 130.36C63.9506 130.36 60.5306 127.48 60.5306 122.836V122.62H64.6346V122.836C64.6346 125.104 65.7146 126.616 69.5306 126.616C74.0666 126.616 75.0386 124.456 75.0386 119.128V117.148H74.8586C73.8146 119.2 71.7266 120.82 67.6586 120.82C62.3306 120.82 59.5586 117.94 59.5586 113.368C59.5586 108.58 62.8706 105.52 69.0266 105.52C76.3706 105.52 79.0346 109.336 79.0346 117.94C79.0346 125.752 76.1546 130.36 69.2426 130.36ZM68.9186 117.544C72.9866 117.544 74.4986 116.212 74.4986 113.404C74.4986 110.56 72.9506 109.264 68.9186 109.264C64.7426 109.264 63.3386 110.56 63.3386 113.44C63.3386 116.248 64.7066 117.544 68.9186 117.544Z" fill="#1A1A21"/>
<path d="M93.6306 130.36C87.1506 130.36 83.2266 125.572 83.2266 117.94C83.2266 110.308 87.1506 105.52 93.6306 105.52C100.111 105.52 104.071 110.308 104.071 117.94C104.071 125.572 100.111 130.36 93.6306 130.36ZM93.6306 126.616C97.9146 126.616 99.9306 124.312 99.9306 117.94C99.9306 111.568 97.9146 109.264 93.6306 109.264C89.3466 109.264 87.3666 111.568 87.3666 117.94C87.3666 124.312 89.3466 126.616 93.6306 126.616Z" fill="#1A1A21"/>
<path d="M108.841 134.248H107.545V131.692H108.733C109.345 131.692 109.669 131.548 109.669 130.756V130H107.473V124.42H112.405V130.684C112.405 133.096 111.109 134.248 108.841 134.248Z" fill="#1A1A21"/>
<path d="M133.831 130H116.047V127.588C116.047 123.016 119.143 120.928 122.527 119.2L126.235 117.292C128.827 115.924 129.871 114.844 129.871 112.792C129.871 110.56 129.043 109.084 125.047 109.084C120.655 109.084 119.755 110.524 119.755 113.836V114.34H115.867V113.764C115.867 109.264 118.675 105.52 125.335 105.52C131.275 105.52 133.759 108.652 133.759 112.648C133.759 116.608 131.059 118.732 127.963 120.316L124.435 122.116C121.987 123.376 120.115 124.528 120.115 126.508H133.831V130Z" fill="#1A1A21"/>
<path d="M148.218 130.36C141.738 130.36 137.814 125.572 137.814 117.94C137.814 110.308 141.738 105.52 148.218 105.52C154.698 105.52 158.658 110.308 158.658 117.94C158.658 125.572 154.698 130.36 148.218 130.36ZM148.218 126.616C152.502 126.616 154.518 124.312 154.518 117.94C154.518 111.568 152.502 109.264 148.218 109.264C143.934 109.264 141.954 111.568 141.954 117.94C141.954 124.312 143.934 126.616 148.218 126.616Z" fill="#1A1A21"/>
<path d="M173.855 130.36C167.375 130.36 163.451 125.572 163.451 117.94C163.451 110.308 167.375 105.52 173.855 105.52C180.335 105.52 184.295 110.308 184.295 117.94C184.295 125.572 180.335 130.36 173.855 130.36ZM173.855 126.616C178.139 126.616 180.155 124.312 180.155 117.94C180.155 111.568 178.139 109.264 173.855 109.264C169.571 109.264 167.591 111.568 167.591 117.94C167.591 124.312 169.571 126.616 173.855 126.616Z" fill="#1A1A21"/>
<path d="M312 172H24C19.5817 172 16 175.582 16 180V216C16 220.418 19.5817 224 24 224H312C316.418 224 320 220.418 320 216V180C320 175.582 316.418 172 312 172Z" fill="#8872FD"/>
<path d="M124.579 191.464C124.579 191.464 124.579 191.472 124.579 191.476L120.032 206.471C119.963 206.715 119.822 206.931 119.626 207.092C119.431 207.253 119.191 207.35 118.938 207.37C118.902 207.373 118.867 207.375 118.831 207.375C118.594 207.376 118.363 207.309 118.163 207.182C117.963 207.056 117.804 206.874 117.704 206.66L114.914 200.77C114.887 200.712 114.878 200.647 114.889 200.583C114.9 200.52 114.93 200.461 114.976 200.416L119.449 195.941C119.562 195.823 119.623 195.666 119.621 195.503C119.619 195.34 119.553 195.184 119.438 195.069C119.323 194.954 119.167 194.888 119.004 194.886C118.841 194.884 118.684 194.946 118.566 195.058L114.085 199.531C114.04 199.577 113.981 199.607 113.918 199.618C113.854 199.629 113.789 199.621 113.731 199.593L107.871 196.817C107.641 196.712 107.447 196.54 107.315 196.325C107.182 196.109 107.116 195.859 107.126 195.606C107.139 195.346 107.233 195.097 107.395 194.893C107.557 194.69 107.779 194.542 108.03 194.472L123.025 189.925H123.037C123.25 189.865 123.476 189.863 123.691 189.919C123.905 189.975 124.101 190.087 124.258 190.244C124.415 190.4 124.527 190.596 124.584 190.81C124.64 191.025 124.639 191.25 124.579 191.464Z" fill="white"/>
<path d="M135.781 192.364H137.912L141.616 201.409H141.753L145.457 192.364H147.588V204H145.918V195.58H145.81L142.378 203.983H140.991L137.56 195.574H137.452V204H135.781V192.364Z" fill="white"/>
<path d="M153.361 204.176C152.543 204.176 151.829 203.989 151.219 203.614C150.61 203.239 150.136 202.714 149.799 202.04C149.462 201.366 149.293 200.578 149.293 199.676C149.293 198.771 149.462 197.979 149.799 197.301C150.136 196.623 150.61 196.097 151.219 195.722C151.829 195.347 152.543 195.159 153.361 195.159C154.18 195.159 154.894 195.347 155.503 195.722C156.113 196.097 156.587 196.623 156.924 197.301C157.261 197.979 157.43 198.771 157.43 199.676C157.43 200.578 157.261 201.366 156.924 202.04C156.587 202.714 156.113 203.239 155.503 203.614C154.894 203.989 154.18 204.176 153.361 204.176ZM153.367 202.75C153.897 202.75 154.337 202.61 154.685 202.33C155.034 202.049 155.291 201.676 155.458 201.21C155.628 200.744 155.714 200.231 155.714 199.671C155.714 199.114 155.628 198.602 155.458 198.136C155.291 197.667 155.034 197.29 154.685 197.006C154.337 196.722 153.897 196.58 153.367 196.58C152.833 196.58 152.39 196.722 152.038 197.006C151.689 197.29 151.43 197.667 151.259 198.136C151.092 198.602 151.009 199.114 151.009 199.671C151.009 200.231 151.092 200.744 151.259 201.21C151.43 201.676 151.689 202.049 152.038 202.33C152.39 202.61 152.833 202.75 153.367 202.75Z" fill="white"/>
<path d="M166.174 195.273L163.009 204H161.191L158.021 195.273H159.844L162.055 201.989H162.146L164.35 195.273H166.174Z" fill="white"/>
<path d="M170.915 204.176C170.055 204.176 169.315 203.993 168.693 203.625C168.076 203.254 167.599 202.733 167.262 202.063C166.928 201.388 166.762 200.599 166.762 199.693C166.762 198.799 166.928 198.011 167.262 197.33C167.599 196.648 168.068 196.116 168.671 195.733C169.277 195.351 169.985 195.159 170.796 195.159C171.288 195.159 171.765 195.241 172.228 195.404C172.69 195.566 173.104 195.822 173.472 196.171C173.839 196.519 174.129 196.972 174.341 197.529C174.553 198.082 174.659 198.754 174.659 199.546V200.148H167.722V198.875H172.995C172.995 198.428 172.904 198.032 172.722 197.688C172.54 197.339 172.284 197.065 171.955 196.864C171.629 196.663 171.246 196.563 170.807 196.563C170.33 196.563 169.913 196.68 169.557 196.915C169.205 197.146 168.932 197.449 168.739 197.824C168.549 198.195 168.455 198.599 168.455 199.034V200.029C168.455 200.612 168.557 201.108 168.762 201.517C168.97 201.926 169.26 202.239 169.631 202.455C170.002 202.667 170.436 202.773 170.932 202.773C171.254 202.773 171.548 202.727 171.813 202.636C172.078 202.542 172.307 202.402 172.5 202.216C172.693 202.03 172.841 201.801 172.943 201.529L174.551 201.818C174.423 202.292 174.192 202.707 173.858 203.063C173.529 203.415 173.114 203.69 172.614 203.886C172.118 204.08 171.551 204.176 170.915 204.176Z" fill="white"/>
<path d="M180.275 192.364H182.406L186.11 201.409H186.247L189.951 192.364H192.082V204H190.411V195.58H190.303L186.872 203.983H185.485L182.053 195.574H181.945V204H180.275V192.364Z" fill="white"/>
<path d="M197.853 204.176C197.035 204.176 196.321 203.989 195.711 203.614C195.101 203.239 194.628 202.714 194.291 202.04C193.954 201.366 193.785 200.578 193.785 199.676C193.785 198.771 193.954 197.979 194.291 197.301C194.628 196.623 195.101 196.097 195.711 195.722C196.321 195.347 197.035 195.159 197.853 195.159C198.671 195.159 199.385 195.347 199.995 195.722C200.605 196.097 201.079 196.623 201.416 197.301C201.753 197.979 201.921 198.771 201.921 199.676C201.921 200.578 201.753 201.366 201.416 202.04C201.079 202.714 200.605 203.239 199.995 203.614C199.385 203.989 198.671 204.176 197.853 204.176ZM197.859 202.75C198.389 202.75 198.829 202.61 199.177 202.33C199.525 202.049 199.783 201.676 199.95 201.21C200.12 200.744 200.205 200.231 200.205 199.671C200.205 199.114 200.12 198.602 199.95 198.136C199.783 197.667 199.525 197.29 199.177 197.006C198.829 196.722 198.389 196.58 197.859 196.58C197.325 196.58 196.882 196.722 196.529 197.006C196.181 197.29 195.921 197.667 195.751 198.136C195.584 198.602 195.501 199.114 195.501 199.671C195.501 200.231 195.584 200.744 195.751 201.21C195.921 201.676 196.181 202.049 196.529 202.33C196.882 202.61 197.325 202.75 197.859 202.75Z" fill="white"/>
<path d="M205.197 198.818V204H203.498V195.273H205.128V196.693H205.236C205.437 196.231 205.751 195.86 206.179 195.58C206.611 195.299 207.155 195.159 207.81 195.159C208.405 195.159 208.926 195.284 209.373 195.534C209.82 195.78 210.166 196.148 210.412 196.636C210.659 197.125 210.782 197.729 210.782 198.449V204H209.083V198.654C209.083 198.021 208.918 197.527 208.589 197.171C208.259 196.811 207.806 196.631 207.231 196.631C206.837 196.631 206.486 196.716 206.179 196.886C205.876 197.057 205.636 197.307 205.458 197.636C205.284 197.962 205.197 198.356 205.197 198.818Z" fill="white"/>
<path d="M216.504 204.176C215.644 204.176 214.903 203.993 214.282 203.625C213.664 203.254 213.187 202.733 212.85 202.063C212.517 201.388 212.35 200.599 212.35 199.693C212.35 198.799 212.517 198.011 212.85 197.33C213.187 196.648 213.657 196.116 214.259 195.733C214.865 195.351 215.574 195.159 216.384 195.159C216.877 195.159 217.354 195.241 217.816 195.404C218.278 195.566 218.693 195.822 219.06 196.171C219.428 196.519 219.718 196.972 219.93 197.529C220.142 198.082 220.248 198.754 220.248 199.546V200.148H213.31V198.875H218.583C218.583 198.428 218.492 198.032 218.31 197.688C218.129 197.339 217.873 197.065 217.543 196.864C217.218 196.663 216.835 196.563 216.396 196.563C215.918 196.563 215.502 196.68 215.146 196.915C214.793 197.146 214.521 197.449 214.327 197.824C214.138 198.195 214.043 198.599 214.043 199.034V200.029C214.043 200.612 214.146 201.108 214.35 201.517C214.558 201.926 214.848 202.239 215.219 202.455C215.591 202.667 216.024 202.773 216.521 202.773C216.843 202.773 217.136 202.727 217.401 202.636C217.666 202.542 217.896 202.402 218.089 202.216C218.282 202.03 218.43 201.801 218.532 201.529L220.14 201.818C220.011 202.292 219.78 202.707 219.447 203.063C219.117 203.415 218.702 203.69 218.202 203.886C217.706 204.08 217.14 204.176 216.504 204.176Z" fill="white"/>
<path d="M222.635 207.273C222.381 207.273 222.15 207.252 221.941 207.21C221.733 207.172 221.578 207.131 221.476 207.085L221.885 205.693C222.195 205.777 222.472 205.813 222.714 205.801C222.957 205.79 223.171 205.699 223.356 205.529C223.546 205.358 223.712 205.08 223.856 204.693L224.066 204.114L220.873 195.273H222.691L224.902 202.046H224.993L227.203 195.273H229.027L225.43 205.165C225.263 205.619 225.051 206.004 224.794 206.318C224.536 206.636 224.229 206.875 223.873 207.034C223.517 207.193 223.104 207.273 222.635 207.273Z" fill="white"/>
<path d="M328 260H12C5.37258 260 0 265.373 0 272V430C0 436.627 5.37258 442 12 442H328C334.627 442 340 436.627 340 430V272C340 265.373 334.627 260 328 260Z" fill="white"/>
<path d="M22 277.125C21.0358 277.125 20.0933 277.411 19.2916 277.947C18.4899 278.482 17.8651 279.244 17.4961 280.134C17.1271 281.025 17.0306 282.005 17.2187 282.951C17.4068 283.897 17.8711 284.765 18.5529 285.447C19.2346 286.129 20.1033 286.593 21.0489 286.781C21.9946 286.969 22.9748 286.873 23.8656 286.504C24.7564 286.135 25.5177 285.51 26.0534 284.708C26.5891 283.907 26.875 282.964 26.875 282C26.8736 280.707 26.3596 279.468 25.4456 278.554C24.5317 277.64 23.2925 277.126 22 277.125ZM19.4725 285.258C19.7438 284.834 20.1175 284.484 20.5592 284.243C21.0009 284.001 21.4964 283.874 22 283.874C22.5036 283.874 22.9991 284.001 23.4408 284.243C23.8825 284.484 24.2562 284.834 24.5275 285.258C23.8048 285.82 22.9155 286.125 22 286.125C21.0845 286.125 20.1952 285.82 19.4725 285.258ZM20.5 281.625C20.5 281.328 20.588 281.038 20.7528 280.792C20.9176 280.545 21.1519 280.353 21.426 280.239C21.7001 280.126 22.0017 280.096 22.2926 280.154C22.5836 280.212 22.8509 280.355 23.0607 280.564C23.2704 280.774 23.4133 281.041 23.4712 281.332C23.5291 281.623 23.4994 281.925 23.3858 282.199C23.2723 282.473 23.08 282.707 22.8334 282.872C22.5867 283.037 22.2967 283.125 22 283.125C21.6022 283.125 21.2206 282.967 20.9393 282.686C20.658 282.404 20.5 282.023 20.5 281.625ZM25.0825 284.738C24.6643 284.132 24.0762 283.663 23.3922 283.39C23.7596 283.101 24.0277 282.704 24.1592 282.255C24.2907 281.807 24.2791 281.328 24.126 280.886C23.9728 280.444 23.6858 280.061 23.3048 279.79C22.9238 279.518 22.4677 279.373 22 279.373C21.5323 279.373 21.0762 279.518 20.6952 279.79C20.3142 280.061 20.0272 280.444 19.874 280.886C19.7209 281.328 19.7093 281.807 19.8408 282.255C19.9723 282.704 20.2404 283.101 20.6078 283.39C19.9238 283.663 19.3357 284.132 18.9175 284.738C18.389 284.144 18.0436 283.409 17.9228 282.623C17.8021 281.837 17.9111 281.033 18.2368 280.307C18.5626 279.582 19.0911 278.966 19.7587 278.534C20.4264 278.102 21.2047 277.872 22 277.872C22.7953 277.872 23.5736 278.102 24.2413 278.534C24.9089 278.966 25.4374 279.582 25.7632 280.307C26.0889 281.033 26.1979 281.837 26.0772 282.623C25.9564 283.409 25.611 284.144 25.0825 284.738Z" fill="#8C94A6"/>
<path d="M33.3203 285H32.1953L34.2436 279.182H35.5447L37.5959 285H36.4709L34.9169 280.375H34.8714L33.3203 285ZM33.3572 282.719H36.4254V283.565H33.3572V282.719Z" fill="#8C94A6"/>
<path d="M44.1883 281.145H43.1258C43.0955 280.97 43.0396 280.816 42.9582 280.682C42.8767 280.545 42.7754 280.43 42.6542 280.335C42.533 280.24 42.3947 280.169 42.2394 280.122C42.086 280.073 41.9203 280.048 41.7423 280.048C41.426 280.048 41.1457 280.128 40.9014 280.287C40.657 280.444 40.4658 280.675 40.3275 280.98C40.1892 281.283 40.1201 281.653 40.1201 282.091C40.1201 282.536 40.1892 282.911 40.3275 283.216C40.4676 283.519 40.6589 283.748 40.9014 283.903C41.1457 284.057 41.425 284.133 41.7394 284.133C41.9137 284.133 42.0765 284.111 42.2281 284.065C42.3815 284.018 42.5188 283.949 42.64 283.858C42.7631 283.767 42.8663 283.655 42.9497 283.523C43.0349 283.39 43.0936 283.238 43.1258 283.068L44.1883 283.074C44.1485 283.35 44.0623 283.61 43.9298 283.852C43.7991 284.094 43.6277 284.308 43.4156 284.494C43.2034 284.678 42.9553 284.822 42.6712 284.926C42.3872 285.028 42.0718 285.079 41.7252 285.079C41.2139 285.079 40.7574 284.961 40.3559 284.724C39.9544 284.487 39.6381 284.146 39.407 283.699C39.176 283.252 39.0605 282.716 39.0605 282.091C39.0605 281.464 39.1769 280.928 39.4099 280.483C39.6428 280.036 39.9601 279.694 40.3616 279.457C40.7631 279.22 41.2176 279.102 41.7252 279.102C42.0491 279.102 42.3502 279.148 42.6286 279.238C42.907 279.329 43.1551 279.463 43.373 279.639C43.5908 279.813 43.7697 280.027 43.9099 280.281C44.0519 280.533 44.1447 280.821 44.1883 281.145Z" fill="#8C94A6"/>
<path d="M51.2548 281.145H50.1923C50.162 280.97 50.1061 280.816 50.0247 280.682C49.9433 280.545 49.8419 280.43 49.7207 280.335C49.5995 280.24 49.4612 280.169 49.3059 280.122C49.1525 280.073 48.9868 280.048 48.8088 280.048C48.4925 280.048 48.2122 280.128 47.9679 280.287C47.7236 280.444 47.5323 280.675 47.394 280.98C47.2558 281.283 47.1866 281.653 47.1866 282.091C47.1866 282.536 47.2558 282.911 47.394 283.216C47.5342 283.519 47.7254 283.748 47.9679 283.903C48.2122 284.057 48.4915 284.133 48.8059 284.133C48.9802 284.133 49.1431 284.111 49.2946 284.065C49.448 284.018 49.5853 283.949 49.7065 283.858C49.8296 283.767 49.9328 283.655 50.0162 283.523C50.1014 283.39 50.1601 283.238 50.1923 283.068L51.2548 283.074C51.215 283.35 51.1289 283.61 50.9963 283.852C50.8656 284.094 50.6942 284.308 50.4821 284.494C50.27 284.678 50.0219 284.822 49.7378 284.926C49.4537 285.028 49.1383 285.079 48.7917 285.079C48.2804 285.079 47.8239 284.961 47.4224 284.724C47.0209 284.487 46.7046 284.146 46.4736 283.699C46.2425 283.252 46.127 282.716 46.127 282.091C46.127 281.464 46.2434 280.928 46.4764 280.483C46.7093 280.036 47.0266 279.694 47.4281 279.457C47.8296 279.22 48.2842 279.102 48.7917 279.102C49.1156 279.102 49.4167 279.148 49.6951 279.238C49.9736 279.329 50.2217 279.463 50.4395 279.639C50.6573 279.813 50.8362 280.027 50.9764 280.281C51.1184 280.533 51.2112 280.821 51.2548 281.145Z" fill="#8C94A6"/>
<path d="M58.538 282.091C58.538 282.718 58.4205 283.255 58.1857 283.701C57.9527 284.147 57.6346 284.487 57.2311 284.724C56.8296 284.961 56.3741 285.079 55.8647 285.079C55.3552 285.079 54.8988 284.961 54.4954 284.724C54.0938 284.486 53.7757 284.144 53.5408 283.699C53.3079 283.252 53.1914 282.716 53.1914 282.091C53.1914 281.464 53.3079 280.928 53.5408 280.483C53.7757 280.036 54.0938 279.694 54.4954 279.457C54.8988 279.22 55.3552 279.102 55.8647 279.102C56.3741 279.102 56.8296 279.22 57.2311 279.457C57.6346 279.694 57.9527 280.036 58.1857 280.483C58.4205 280.928 58.538 281.464 58.538 282.091ZM57.4783 282.091C57.4783 281.649 57.4092 281.277 57.2709 280.974C57.1346 280.669 56.9452 280.439 56.7027 280.284C56.4603 280.127 56.181 280.048 55.8647 280.048C55.5484 280.048 55.269 280.127 55.0266 280.284C54.7842 280.439 54.5938 280.669 54.4556 280.974C54.3192 281.277 54.251 281.649 54.251 282.091C54.251 282.532 54.3192 282.905 54.4556 283.21C54.5938 283.513 54.7842 283.743 55.0266 283.9C55.269 284.056 55.5484 284.133 55.8647 284.133C56.181 284.133 56.4603 284.056 56.7027 283.9C56.9452 283.743 57.1346 283.513 57.2709 283.21C57.4092 282.905 57.4783 282.532 57.4783 282.091Z" fill="#8C94A6"/>
<path d="M64.3219 279.182H65.3759V282.983C65.3759 283.399 65.2774 283.766 65.0805 284.082C64.8854 284.398 64.6108 284.646 64.2566 284.824C63.9024 285 63.4886 285.088 63.0151 285.088C62.5397 285.088 62.125 285 61.7708 284.824C61.4166 284.646 61.142 284.398 60.9469 284.082C60.7519 283.766 60.6543 283.399 60.6543 282.983V279.182H61.7083V282.895C61.7083 283.137 61.7613 283.353 61.8674 283.542C61.9753 283.732 62.1269 283.88 62.3219 283.988C62.517 284.094 62.7481 284.148 63.0151 284.148C63.2822 284.148 63.5132 284.094 63.7083 283.988C63.9053 283.88 64.0568 283.732 64.1628 283.542C64.2689 283.353 64.3219 283.137 64.3219 282.895V279.182Z" fill="#8C94A6"/>
<path d="M72.4239 279.182V285H71.4864L68.7449 281.037H68.6966V285H67.6426V279.182H68.5858L71.3244 283.148H71.3756V279.182H72.4239Z" fill="#8C94A6"/>
<path d="M74.4355 280.065V279.182H79.0777V280.065H77.2794V285H76.2338V280.065H74.4355Z" fill="#8C94A6"/>
<path d="M86.1689 285H84.1973V279.182H86.2087C86.7863 279.182 87.2825 279.298 87.6973 279.531C88.114 279.762 88.4341 280.094 88.6575 280.528C88.881 280.962 88.9928 281.481 88.9928 282.085C88.9928 282.691 88.8801 283.212 88.6547 283.648C88.4312 284.083 88.1083 284.417 87.686 284.65C87.2655 284.883 86.7598 285 86.1689 285ZM85.2513 284.088H86.1178C86.5231 284.088 86.8611 284.014 87.132 283.866C87.4028 283.717 87.6064 283.494 87.7428 283.199C87.8791 282.901 87.9473 282.53 87.9473 282.085C87.9473 281.64 87.8791 281.271 87.7428 280.977C87.6064 280.682 87.4047 280.461 87.1377 280.315C86.8725 280.167 86.543 280.094 86.149 280.094H85.2513V284.088Z" fill="#8C94A6"/>
<path d="M91.1133 285V279.182H94.8974V280.065H92.1673V281.645H94.7014V282.528H92.1673V284.116H94.9201V285H91.1133Z" fill="#8C94A6"/>
<path d="M96.8379 280.065V279.182H101.48V280.065H99.6816V285H98.6362V280.065H96.8379Z" fill="#8C94A6"/>
<path d="M103.539 285H102.414L104.462 279.182H105.763L107.814 285H106.689L105.135 280.375H105.09L103.539 285ZM103.576 282.719H106.644V283.565H103.576V282.719Z" fill="#8C94A6"/>
<path d="M110.755 279.182V285H109.701V279.182H110.755Z" fill="#8C94A6"/>
<path d="M113.016 285V279.182H114.07V284.116H116.632V285H113.016Z" fill="#8C94A6"/>
<path d="M121.829 280.781C121.803 280.533 121.691 280.34 121.494 280.201C121.299 280.063 121.045 279.994 120.733 279.994C120.513 279.994 120.324 280.027 120.167 280.094C120.01 280.16 119.89 280.25 119.806 280.363C119.723 280.477 119.68 280.607 119.679 280.753C119.679 280.874 119.706 280.979 119.761 281.068C119.818 281.157 119.894 281.233 119.991 281.295C120.088 281.356 120.195 281.407 120.312 281.449C120.43 281.49 120.548 281.525 120.667 281.554L121.213 281.69C121.432 281.741 121.644 281.81 121.846 281.898C122.051 281.985 122.234 282.094 122.394 282.227C122.557 282.36 122.686 282.52 122.781 282.707C122.876 282.895 122.923 283.114 122.923 283.366C122.923 283.707 122.836 284.007 122.662 284.267C122.487 284.524 122.235 284.726 121.906 284.872C121.578 285.016 121.181 285.088 120.716 285.088C120.263 285.088 119.87 285.018 119.537 284.878C119.205 284.737 118.946 284.533 118.758 284.264C118.573 283.995 118.472 283.667 118.457 283.281H119.494C119.509 283.484 119.572 283.652 119.681 283.787C119.791 283.921 119.934 284.022 120.11 284.088C120.288 284.154 120.487 284.187 120.707 284.187C120.936 284.187 121.137 284.153 121.309 284.085C121.484 284.015 121.62 283.918 121.718 283.795C121.817 283.67 121.867 283.524 121.869 283.358C121.867 283.206 121.823 283.081 121.735 282.983C121.648 282.882 121.526 282.799 121.369 282.733C121.214 282.665 121.032 282.604 120.823 282.551L120.162 282.38C119.682 282.257 119.304 282.071 119.025 281.821C118.749 281.569 118.61 281.235 118.61 280.818C118.61 280.475 118.703 280.175 118.889 279.917C119.076 279.66 119.331 279.46 119.653 279.318C119.975 279.174 120.34 279.102 120.747 279.102C121.16 279.102 121.521 279.174 121.832 279.318C122.144 279.46 122.39 279.658 122.568 279.912C122.746 280.164 122.838 280.453 122.843 280.781H121.829Z" fill="#8C94A6"/>
<path d="M16 323H0V325H16V323Z" fill="#EEEEF0"/>
<path d="M64.2777 304.273V313H62.9609V304.273H64.2777Z" fill="#5F4CC8"/>
<path d="M67.2469 309.114V313H65.9727V306.455H67.1958V307.52H67.2767C67.4273 307.173 67.6631 306.895 67.9841 306.685C68.308 306.474 68.7156 306.369 69.2071 306.369C69.6531 306.369 70.0438 306.463 70.379 306.651C70.7142 306.835 70.9742 307.111 71.1588 307.477C71.3435 307.844 71.4358 308.297 71.4358 308.837V313H70.1617V308.99C70.1617 308.516 70.0381 308.145 69.7909 307.878C69.5438 307.608 69.2043 307.473 68.7725 307.473C68.477 307.473 68.2142 307.537 67.9841 307.665C67.7568 307.793 67.5764 307.98 67.4429 308.227C67.3122 308.472 67.2469 308.767 67.2469 309.114Z" fill="#5F4CC8"/>
<path d="M77.929 308.053L76.7742 308.257C76.7259 308.109 76.6492 307.969 76.5441 307.835C76.4418 307.702 76.3026 307.592 76.1265 307.507C75.9504 307.422 75.7302 307.379 75.466 307.379C75.1052 307.379 74.804 307.46 74.5626 307.622C74.3211 307.781 74.2004 307.987 74.2004 308.24C74.2004 308.459 74.2813 308.635 74.4432 308.769C74.6052 308.902 74.8665 309.011 75.2273 309.097L76.2671 309.335C76.8694 309.474 77.3182 309.689 77.6137 309.979C77.9092 310.269 78.0569 310.645 78.0569 311.108C78.0569 311.5 77.9432 311.849 77.716 312.156C77.4915 312.46 77.1776 312.699 76.7742 312.872C76.3736 313.045 75.9092 313.132 75.3807 313.132C74.6478 313.132 74.0498 312.976 73.5867 312.663C73.1236 312.348 72.8396 311.901 72.7344 311.321L73.966 311.134C74.0427 311.455 74.2004 311.697 74.439 311.862C74.6776 312.024 74.9887 312.105 75.3722 312.105C75.7898 312.105 76.1236 312.019 76.3736 311.845C76.6236 311.669 76.7486 311.455 76.7486 311.202C76.7486 310.997 76.6719 310.825 76.5185 310.686C76.368 310.547 76.1364 310.442 75.8239 310.371L74.716 310.128C74.1052 309.989 73.6535 309.767 73.3609 309.463C73.0711 309.159 72.9262 308.774 72.9262 308.308C72.9262 307.922 73.0342 307.584 73.2501 307.294C73.466 307.004 73.7643 306.778 74.145 306.617C74.5256 306.452 74.9617 306.369 75.4532 306.369C76.1606 306.369 76.7174 306.523 77.1236 306.83C77.5299 307.134 77.7984 307.541 77.929 308.053Z" fill="#5F4CC8"/>
<path d="M79.3377 313V306.455H80.6119V313H79.3377ZM79.9812 305.445C79.7596 305.445 79.5692 305.371 79.4102 305.223C79.2539 305.072 79.1758 304.894 79.1758 304.686C79.1758 304.476 79.2539 304.297 79.4102 304.149C79.5692 303.999 79.7596 303.923 79.9812 303.923C80.2028 303.923 80.3917 303.999 80.5479 304.149C80.707 304.297 80.7866 304.476 80.7866 304.686C80.7866 304.894 80.707 305.072 80.5479 305.223C80.3917 305.371 80.2028 305.445 79.9812 305.445Z" fill="#5F4CC8"/>
<path d="M84.6577 313.128C84.1293 313.128 83.6577 312.993 83.2429 312.723C82.831 312.45 82.5071 312.063 82.2713 311.56C82.0384 311.054 81.9219 310.447 81.9219 309.74C81.9219 309.033 82.0398 308.428 82.2756 307.925C82.5142 307.422 82.8409 307.037 83.2557 306.77C83.6705 306.503 84.1406 306.369 84.6662 306.369C85.0724 306.369 85.3992 306.438 85.6463 306.574C85.8963 306.707 86.0895 306.864 86.2259 307.043C86.3651 307.222 86.473 307.379 86.5497 307.516H86.6264V304.273H87.9006V313H86.6563V311.982H86.5497C86.473 312.121 86.3622 312.28 86.2173 312.459C86.0753 312.638 85.8793 312.794 85.6293 312.928C85.3793 313.061 85.0554 313.128 84.6577 313.128ZM84.9389 312.041C85.3054 312.041 85.6151 311.945 85.8679 311.751C86.1236 311.555 86.3168 311.284 86.4474 310.938C86.581 310.591 86.6477 310.188 86.6477 309.727C86.6477 309.273 86.5824 308.875 86.4517 308.534C86.321 308.193 86.1293 307.928 85.8764 307.737C85.6236 307.547 85.3111 307.452 84.9389 307.452C84.5554 307.452 84.2358 307.551 83.9801 307.75C83.7244 307.949 83.5313 308.22 83.4006 308.564C83.2727 308.908 83.2088 309.295 83.2088 309.727C83.2088 310.165 83.2742 310.558 83.4048 310.908C83.5355 311.257 83.7287 311.534 83.9844 311.739C84.2429 311.94 84.5611 312.041 84.9389 312.041Z" fill="#5F4CC8"/>
<path d="M92.4197 313.132C91.7748 313.132 91.2194 312.994 90.7535 312.719C90.2905 312.44 89.9325 312.05 89.6797 311.547C89.4297 311.041 89.3047 310.449 89.3047 309.77C89.3047 309.099 89.4297 308.509 89.6797 307.997C89.9325 307.486 90.2848 307.087 90.7365 306.8C91.191 306.513 91.7223 306.369 92.3302 306.369C92.6996 306.369 93.0575 306.43 93.4041 306.553C93.7507 306.675 94.0618 306.867 94.3373 307.128C94.6129 307.389 94.8302 307.729 94.9893 308.146C95.1484 308.561 95.228 309.065 95.228 309.659V310.111H90.0248V309.156H93.9794C93.9794 308.821 93.9112 308.524 93.7748 308.266C93.6385 308.004 93.4467 307.798 93.1996 307.648C92.9552 307.497 92.6683 307.422 92.3388 307.422C91.9808 307.422 91.6683 307.51 91.4013 307.686C91.1371 307.859 90.9325 308.087 90.7876 308.368C90.6456 308.646 90.5746 308.949 90.5746 309.276V310.021C90.5746 310.459 90.6513 310.831 90.8047 311.138C90.9609 311.445 91.1783 311.679 91.4567 311.841C91.7351 312 92.0604 312.08 92.4325 312.08C92.674 312.08 92.8942 312.045 93.093 311.977C93.2919 311.906 93.4638 311.801 93.6087 311.662C93.7535 311.523 93.8643 311.351 93.941 311.146L95.147 311.364C95.0504 311.719 94.8771 312.03 94.6271 312.297C94.38 312.561 94.0689 312.767 93.6939 312.915C93.3217 313.06 92.897 313.132 92.4197 313.132Z" fill="#5F4CC8"/>
<path d="M105.292 304.273H106.613V310.013C106.613 310.624 106.469 311.165 106.182 311.636C105.895 312.105 105.492 312.474 104.972 312.744C104.452 313.011 103.843 313.145 103.144 313.145C102.448 313.145 101.84 313.011 101.32 312.744C100.8 312.474 100.397 312.105 100.11 311.636C99.8232 311.165 99.6797 310.624 99.6797 310.013V304.273H100.996V309.906C100.996 310.301 101.083 310.652 101.256 310.959C101.432 311.266 101.681 311.507 102.002 311.683C102.323 311.857 102.704 311.943 103.144 311.943C103.587 311.943 103.969 311.857 104.29 311.683C104.614 311.507 104.861 311.266 105.032 310.959C105.205 310.652 105.292 310.301 105.292 309.906V304.273Z" fill="#5F4CC8"/>
<path d="M113.168 306.565C113.123 306.162 112.935 305.849 112.606 305.628C112.276 305.403 111.861 305.291 111.361 305.291C111.003 305.291 110.694 305.348 110.432 305.462C110.171 305.572 109.968 305.726 109.823 305.922C109.681 306.115 109.61 306.335 109.61 306.582C109.61 306.79 109.658 306.969 109.755 307.119C109.854 307.27 109.983 307.396 110.143 307.499C110.304 307.598 110.478 307.682 110.662 307.75C110.847 307.815 111.025 307.869 111.195 307.912L112.047 308.134C112.326 308.202 112.611 308.294 112.904 308.411C113.197 308.527 113.468 308.68 113.718 308.871C113.968 309.061 114.17 309.297 114.323 309.578C114.479 309.859 114.557 310.196 114.557 310.588C114.557 311.082 114.429 311.521 114.174 311.905C113.921 312.288 113.553 312.591 113.07 312.813C112.59 313.034 112.008 313.145 111.326 313.145C110.673 313.145 110.108 313.041 109.631 312.834C109.154 312.626 108.78 312.332 108.51 311.952C108.241 311.568 108.091 311.114 108.062 310.588H109.384C109.41 310.903 109.512 311.166 109.691 311.376C109.873 311.584 110.104 311.739 110.385 311.841C110.67 311.94 110.981 311.99 111.319 311.99C111.691 311.99 112.022 311.932 112.312 311.815C112.604 311.696 112.834 311.531 113.002 311.321C113.17 311.108 113.253 310.859 113.253 310.575C113.253 310.317 113.179 310.105 113.032 309.94C112.887 309.776 112.689 309.639 112.439 309.531C112.192 309.423 111.912 309.328 111.6 309.246L110.569 308.965C109.87 308.774 109.316 308.494 108.907 308.125C108.501 307.756 108.297 307.267 108.297 306.659C108.297 306.156 108.434 305.717 108.706 305.342C108.979 304.967 109.349 304.676 109.814 304.469C110.28 304.259 110.806 304.153 111.391 304.153C111.982 304.153 112.503 304.257 112.955 304.465C113.41 304.672 113.768 304.957 114.029 305.321C114.29 305.682 114.427 306.097 114.438 306.565H113.168Z" fill="#5F4CC8"/>
<path d="M116.677 313H115.279L118.42 304.273H119.941L123.082 313H121.684L119.217 305.858H119.148L116.677 313ZM116.911 309.582H121.445V310.69H116.911V309.582Z" fill="#5F4CC8"/>
<path d="M170 323H16V325H170V323Z" fill="#5F4CC8"/>
<path d="M219.923 308.636C219.923 309.557 219.757 310.352 219.425 311.023C219.092 311.693 218.636 312.21 218.057 312.574C217.477 312.938 216.815 313.119 216.071 313.119C215.327 313.119 214.665 312.938 214.085 312.574C213.506 312.21 213.05 311.693 212.717 311.023C212.385 310.352 212.219 309.557 212.219 308.636C212.219 307.716 212.385 306.92 212.717 306.25C213.05 305.58 213.506 305.062 214.085 304.699C214.665 304.335 215.327 304.153 216.071 304.153C216.815 304.153 217.477 304.335 218.057 304.699C218.636 305.062 219.092 305.58 219.425 306.25C219.757 306.92 219.923 307.716 219.923 308.636ZM218.901 308.636C218.901 307.881 218.774 307.243 218.521 306.723C218.271 306.203 217.932 305.81 217.503 305.543C217.077 305.276 216.599 305.142 216.071 305.142C215.543 305.142 215.064 305.276 214.635 305.543C214.209 305.81 213.869 306.203 213.616 306.723C213.366 307.243 213.241 307.881 213.241 308.636C213.241 309.392 213.366 310.03 213.616 310.55C213.869 311.07 214.209 311.463 214.635 311.73C215.064 311.997 215.543 312.131 216.071 312.131C216.599 312.131 217.077 311.997 217.503 311.73C217.932 311.463 218.271 311.07 218.521 310.55C218.774 310.03 218.901 309.392 218.901 308.636Z" fill="#8C94A6"/>
<path d="M225.568 310.324V306.455H226.574V313H225.568V311.892H225.5C225.346 312.224 225.108 312.507 224.784 312.74C224.46 312.97 224.051 313.085 223.557 313.085C223.147 313.085 222.784 312.996 222.466 312.817C222.147 312.635 221.897 312.362 221.716 311.999C221.534 311.632 221.443 311.17 221.443 310.614V306.455H222.449V310.545C222.449 311.023 222.582 311.403 222.849 311.688C223.119 311.972 223.463 312.114 223.88 312.114C224.13 312.114 224.385 312.05 224.643 311.922C224.905 311.794 225.123 311.598 225.299 311.334C225.478 311.07 225.568 310.733 225.568 310.324Z" fill="#8C94A6"/>
<path d="M231.144 306.455V307.307H227.752V306.455H231.144ZM228.741 304.886H229.746V311.125C229.746 311.409 229.788 311.622 229.87 311.764C229.955 311.903 230.063 311.997 230.194 312.045C230.327 312.091 230.468 312.114 230.616 312.114C230.727 312.114 230.817 312.108 230.888 312.097C230.96 312.082 231.016 312.071 231.059 312.062L231.263 312.966C231.195 312.991 231.1 313.017 230.978 313.043C230.856 313.071 230.701 313.085 230.513 313.085C230.229 313.085 229.951 313.024 229.678 312.902C229.408 312.78 229.184 312.594 229.005 312.344C228.829 312.094 228.741 311.778 228.741 311.398V304.886Z" fill="#8C94A6"/>
<path d="M237.055 307.92L236.152 308.176C236.095 308.026 236.011 307.879 235.9 307.737C235.792 307.592 235.645 307.473 235.457 307.379C235.27 307.286 235.03 307.239 234.737 307.239C234.336 307.239 234.003 307.331 233.736 307.516C233.471 307.697 233.339 307.929 233.339 308.21C233.339 308.46 233.43 308.658 233.612 308.803C233.794 308.947 234.078 309.068 234.464 309.165L235.436 309.403C236.021 309.545 236.457 309.763 236.744 310.055C237.031 310.345 237.174 310.719 237.174 311.176C237.174 311.551 237.066 311.886 236.851 312.182C236.638 312.477 236.339 312.71 235.956 312.881C235.572 313.051 235.126 313.136 234.618 313.136C233.95 313.136 233.397 312.991 232.96 312.702C232.522 312.412 232.245 311.989 232.129 311.432L233.084 311.193C233.174 311.545 233.346 311.81 233.599 311.986C233.855 312.162 234.189 312.25 234.601 312.25C235.069 312.25 235.441 312.151 235.717 311.952C235.995 311.75 236.135 311.509 236.135 311.227C236.135 311 236.055 310.81 235.896 310.656C235.737 310.5 235.493 310.384 235.163 310.307L234.072 310.051C233.473 309.909 233.032 309.689 232.751 309.391C232.473 309.089 232.334 308.713 232.334 308.261C232.334 307.892 232.437 307.565 232.645 307.281C232.855 306.997 233.14 306.774 233.501 306.612C233.865 306.45 234.277 306.369 234.737 306.369C235.385 306.369 235.893 306.511 236.263 306.795C236.635 307.08 236.899 307.455 237.055 307.92Z" fill="#8C94A6"/>
<path d="M238.567 313V306.455H239.573V313H238.567ZM239.079 305.364C238.883 305.364 238.714 305.297 238.572 305.163C238.432 305.03 238.363 304.869 238.363 304.682C238.363 304.494 238.432 304.334 238.572 304.2C238.714 304.067 238.883 304 239.079 304C239.275 304 239.442 304.067 239.582 304.2C239.724 304.334 239.795 304.494 239.795 304.682C239.795 304.869 239.724 305.03 239.582 305.163C239.442 305.297 239.275 305.364 239.079 305.364Z" fill="#8C94A6"/>
<path d="M243.767 313.136C243.221 313.136 242.74 312.999 242.322 312.723C241.904 312.445 241.578 312.053 241.342 311.547C241.106 311.038 240.988 310.438 240.988 309.744C240.988 309.057 241.106 308.46 241.342 307.955C241.578 307.449 241.906 307.058 242.326 306.783C242.747 306.507 243.232 306.369 243.784 306.369C244.21 306.369 244.546 306.44 244.794 306.582C245.044 306.722 245.234 306.881 245.365 307.06C245.498 307.236 245.602 307.381 245.676 307.494H245.761V304.273H246.767V313H245.795V311.994H245.676C245.602 312.114 245.497 312.264 245.36 312.446C245.224 312.625 245.029 312.786 244.776 312.928C244.524 313.067 244.187 313.136 243.767 313.136ZM243.903 312.233C244.306 312.233 244.647 312.128 244.926 311.918C245.204 311.705 245.416 311.411 245.561 311.036C245.705 310.658 245.778 310.222 245.778 309.727C245.778 309.239 245.707 308.811 245.565 308.445C245.423 308.075 245.213 307.788 244.934 307.584C244.656 307.376 244.312 307.273 243.903 307.273C243.477 307.273 243.122 307.382 242.838 307.601C242.556 307.817 242.345 308.111 242.203 308.483C242.063 308.852 241.994 309.267 241.994 309.727C241.994 310.193 242.065 310.616 242.207 310.997C242.352 311.375 242.565 311.676 242.846 311.901C243.13 312.122 243.482 312.233 243.903 312.233Z" fill="#8C94A6"/>
<path d="M251.373 313.136C250.743 313.136 250.199 312.997 249.741 312.719C249.287 312.438 248.936 312.045 248.689 311.543C248.444 311.037 248.322 310.449 248.322 309.778C248.322 309.108 248.444 308.517 248.689 308.006C248.936 307.491 249.28 307.091 249.72 306.804C250.163 306.514 250.68 306.369 251.271 306.369C251.612 306.369 251.949 306.426 252.281 306.54C252.613 306.653 252.916 306.838 253.189 307.094C253.461 307.347 253.679 307.682 253.841 308.099C254.003 308.517 254.084 309.031 254.084 309.642V310.068H249.038V309.199H253.061C253.061 308.83 252.987 308.5 252.839 308.21C252.694 307.92 252.487 307.692 252.217 307.524C251.95 307.357 251.635 307.273 251.271 307.273C250.871 307.273 250.524 307.372 250.231 307.571C249.942 307.767 249.719 308.023 249.562 308.338C249.406 308.653 249.328 308.991 249.328 309.352V309.932C249.328 310.426 249.413 310.845 249.584 311.189C249.757 311.53 249.997 311.79 250.304 311.969C250.611 312.145 250.967 312.233 251.373 312.233C251.638 312.233 251.876 312.196 252.089 312.122C252.305 312.045 252.491 311.932 252.648 311.781C252.804 311.628 252.925 311.438 253.01 311.21L253.981 311.483C253.879 311.813 253.707 312.102 253.466 312.352C253.224 312.599 252.926 312.793 252.571 312.932C252.216 313.068 251.817 313.136 251.373 313.136Z" fill="#8C94A6"/>
<path d="M264.612 304.273H265.669V310.051C265.669 310.648 265.528 311.18 265.247 311.649C264.969 312.115 264.575 312.483 264.067 312.753C263.558 313.02 262.962 313.153 262.277 313.153C261.592 313.153 260.996 313.02 260.487 312.753C259.979 312.483 259.584 312.115 259.302 311.649C259.024 311.18 258.885 310.648 258.885 310.051V304.273H259.942V309.966C259.942 310.392 260.035 310.771 260.223 311.104C260.41 311.433 260.677 311.693 261.024 311.884C261.373 312.071 261.791 312.165 262.277 312.165C262.763 312.165 263.18 312.071 263.53 311.884C263.879 311.693 264.146 311.433 264.331 311.104C264.518 310.771 264.612 310.392 264.612 309.966V304.273Z" fill="#8C94A6"/>
<path d="M272.431 306.455C272.38 306.023 272.173 305.688 271.809 305.449C271.445 305.21 270.999 305.091 270.471 305.091C270.084 305.091 269.746 305.153 269.457 305.278C269.17 305.403 268.945 305.575 268.783 305.794C268.624 306.013 268.545 306.261 268.545 306.54C268.545 306.773 268.6 306.973 268.711 307.141C268.825 307.305 268.969 307.443 269.146 307.554C269.322 307.662 269.506 307.751 269.7 307.822C269.893 307.891 270.07 307.946 270.232 307.989L271.119 308.227C271.346 308.287 271.599 308.369 271.877 308.474C272.158 308.58 272.427 308.723 272.682 308.905C272.941 309.084 273.154 309.314 273.322 309.595C273.489 309.876 273.573 310.222 273.573 310.631C273.573 311.102 273.45 311.528 273.202 311.909C272.958 312.29 272.6 312.592 272.129 312.817C271.66 313.041 271.09 313.153 270.42 313.153C269.795 313.153 269.254 313.053 268.796 312.851C268.342 312.649 267.984 312.368 267.722 312.007C267.464 311.646 267.317 311.227 267.283 310.75H268.374C268.403 311.08 268.513 311.352 268.707 311.568C268.903 311.781 269.15 311.94 269.448 312.045C269.749 312.148 270.073 312.199 270.42 312.199C270.823 312.199 271.185 312.134 271.506 312.003C271.827 311.869 272.082 311.685 272.269 311.449C272.457 311.21 272.55 310.932 272.55 310.614C272.55 310.324 272.469 310.088 272.307 309.906C272.146 309.724 271.932 309.577 271.668 309.463C271.404 309.349 271.119 309.25 270.812 309.165L269.738 308.858C269.056 308.662 268.516 308.382 268.119 308.018C267.721 307.655 267.522 307.179 267.522 306.591C267.522 306.102 267.654 305.676 267.918 305.312C268.185 304.946 268.543 304.662 268.992 304.46C269.444 304.256 269.948 304.153 270.505 304.153C271.067 304.153 271.567 304.254 272.005 304.456C272.442 304.655 272.789 304.928 273.045 305.274C273.303 305.621 273.44 306.014 273.454 306.455H272.431Z" fill="#8C94A6"/>
<path d="M275.549 313H274.441L277.645 304.273H278.736L281.941 313H280.833L278.225 305.653H278.157L275.549 313ZM275.958 309.591H280.424V310.528H275.958V309.591Z" fill="#8C94A6"/>
<path d="M324 323H170V325H324V323Z" fill="#EEEEF0"/>
<path d="M340 323H324V325H340V323Z" fill="#EEEEF0"/>
<path d="M33.0547 369V360.273H36.0036C36.6882 360.273 37.2479 360.397 37.6825 360.644C38.12 360.888 38.4439 361.219 38.6541 361.637C38.8643 362.054 38.9695 362.52 38.9695 363.034C38.9695 363.549 38.8643 364.016 38.6541 364.436C38.4467 364.857 38.1257 365.192 37.6911 365.442C37.2564 365.689 36.6996 365.813 36.0206 365.813H33.907V364.875H35.9865C36.4553 364.875 36.8317 364.794 37.1158 364.632C37.3999 364.47 37.6058 364.252 37.7337 363.976C37.8643 363.698 37.9297 363.384 37.9297 363.034C37.9297 362.685 37.8643 362.372 37.7337 362.097C37.6058 361.821 37.3984 361.605 37.1115 361.449C36.8246 361.29 36.4439 361.21 35.9695 361.21H34.1115V369H33.0547Z" fill="black"/>
<path d="M42.3423 369.154C41.9276 369.154 41.5512 369.076 41.2131 368.919C40.875 368.76 40.6066 368.531 40.4077 368.233C40.2088 367.932 40.1094 367.568 40.1094 367.142C40.1094 366.767 40.1833 366.463 40.331 366.23C40.4787 365.995 40.6762 365.81 40.9233 365.676C41.1705 365.543 41.4432 365.443 41.7415 365.378C42.0426 365.31 42.3452 365.256 42.6492 365.216C43.0469 365.165 43.3693 365.127 43.6165 365.101C43.8665 365.073 44.0483 365.026 44.162 364.96C44.2784 364.895 44.3367 364.781 44.3367 364.62V364.585C44.3367 364.165 44.2216 363.838 43.9915 363.605C43.7642 363.372 43.4191 363.256 42.956 363.256C42.4759 363.256 42.0995 363.361 41.8267 363.571C41.554 363.781 41.3622 364.006 41.2514 364.245L40.2969 363.904C40.4673 363.506 40.6946 363.196 40.9787 362.975C41.2656 362.75 41.5781 362.594 41.9162 362.506C42.2571 362.415 42.5923 362.37 42.9219 362.37C43.1321 362.37 43.3736 362.395 43.6463 362.446C43.9219 362.495 44.1875 362.595 44.4432 362.749C44.7017 362.902 44.9162 363.134 45.0867 363.443C45.2571 363.753 45.3423 364.168 45.3423 364.688V369H44.3367V368.114H44.2855C44.2173 368.256 44.1037 368.408 43.9446 368.57C43.7855 368.732 43.5739 368.87 43.3097 368.983C43.0455 369.097 42.723 369.154 42.3423 369.154ZM42.4958 368.25C42.8935 368.25 43.2287 368.172 43.5014 368.016C43.777 367.86 43.9844 367.658 44.1236 367.411C44.2656 367.164 44.3367 366.904 44.3367 366.631V365.71C44.2941 365.762 44.2003 365.808 44.0554 365.851C43.9134 365.891 43.7486 365.926 43.5611 365.958C43.3764 365.986 43.196 366.012 43.0199 366.034C42.8466 366.054 42.706 366.071 42.598 366.085C42.3367 366.12 42.0923 366.175 41.8651 366.252C41.6406 366.326 41.4588 366.438 41.3196 366.588C41.1833 366.736 41.1151 366.938 41.1151 367.193C41.1151 367.543 41.2443 367.807 41.5029 367.986C41.7642 368.162 42.0952 368.25 42.4958 368.25Z" fill="black"/>
<path d="M47.4696 371.455C47.2991 371.455 47.1471 371.441 47.0136 371.412C46.8801 371.387 46.7878 371.361 46.7366 371.335L46.9923 370.449C47.2366 370.512 47.4525 370.534 47.64 370.517C47.8275 370.5 47.9937 370.416 48.1386 370.266C48.2863 370.118 48.4213 369.878 48.5434 369.546L48.7309 369.034L46.3105 362.455H47.4014L49.2082 367.671H49.2764L51.0832 362.455H52.1741L49.3957 369.955C49.2707 370.293 49.1159 370.573 48.9312 370.794C48.7466 371.019 48.5321 371.185 48.2878 371.293C48.0463 371.401 47.7736 371.455 47.4696 371.455Z" fill="black"/>
<path d="M53.3828 369V362.455H54.3544V363.477H54.4397C54.576 363.128 54.7962 362.857 55.1002 362.664C55.4042 362.468 55.7692 362.37 56.1953 362.37C56.6272 362.37 56.9865 362.468 57.2735 362.664C57.5632 362.857 57.7891 363.128 57.951 363.477H58.0192C58.1868 363.139 58.4382 362.871 58.7735 362.672C59.1087 362.47 59.5107 362.37 59.9794 362.37C60.5647 362.37 61.0434 362.553 61.4155 362.919C61.7877 363.283 61.9738 363.85 61.9738 364.62V369H60.9681V364.62C60.9681 364.137 60.836 363.791 60.5718 363.584C60.3076 363.377 59.9965 363.273 59.6385 363.273C59.1783 363.273 58.8218 363.412 58.5689 363.691C58.3161 363.966 58.1897 364.316 58.1897 364.739V369H57.1669V364.517C57.1669 364.145 57.0462 363.845 56.8047 363.618C56.5632 363.388 56.2522 363.273 55.8715 363.273C55.6101 363.273 55.3658 363.343 55.1385 363.482C54.9141 363.621 54.7323 363.814 54.5931 364.061C54.4567 364.306 54.3885 364.588 54.3885 364.909V369H53.3828Z" fill="black"/>
<path d="M66.4359 369.137C65.8053 369.137 65.2612 368.997 64.8038 368.719C64.3493 368.438 63.9985 368.046 63.7513 367.543C63.507 367.037 63.3848 366.449 63.3848 365.779C63.3848 365.108 63.507 364.517 63.7513 364.006C63.9985 363.492 64.3422 363.091 64.7825 362.804C65.2257 362.514 65.7428 362.37 66.3337 362.37C66.6746 362.37 67.0112 362.426 67.3436 362.54C67.676 362.654 67.9786 362.838 68.2513 363.094C68.524 363.347 68.7413 363.682 68.9033 364.1C69.0652 364.517 69.1462 365.031 69.1462 365.642V366.068H64.1007V365.199H68.1234C68.1234 364.83 68.0496 364.5 67.9019 364.21C67.757 363.921 67.5496 363.692 67.2797 363.524C67.0127 363.357 66.6973 363.273 66.3337 363.273C65.9331 363.273 65.5865 363.372 65.2939 363.571C65.0041 363.767 64.7811 364.023 64.6249 364.338C64.4686 364.654 64.3905 364.992 64.3905 365.352V365.932C64.3905 366.426 64.4757 366.845 64.6462 367.189C64.8195 367.53 65.0595 367.79 65.3663 367.969C65.6732 368.145 66.0297 368.233 66.4359 368.233C66.7002 368.233 66.9388 368.196 67.1519 368.122C67.3678 368.046 67.5538 367.932 67.7101 367.781C67.8663 367.628 67.9871 367.438 68.0723 367.21L69.0439 367.483C68.9416 367.813 68.7698 368.102 68.5283 368.352C68.2868 368.6 67.9885 368.793 67.6334 368.932C67.2783 369.068 66.8791 369.137 66.4359 369.137Z" fill="black"/>
<path d="M71.5623 365.063V369H70.5566V362.455H71.5282V363.477H71.6134C71.7668 363.145 71.9998 362.878 72.3123 362.676C72.6248 362.472 73.0282 362.37 73.5225 362.37C73.9657 362.37 74.3535 362.46 74.6859 362.642C75.0183 362.821 75.2768 363.094 75.4614 363.46C75.6461 363.824 75.7384 364.284 75.7384 364.841V369H74.7327V364.909C74.7327 364.395 74.5992 363.995 74.3322 363.708C74.0651 363.418 73.6987 363.273 73.2327 363.273C72.9117 363.273 72.6248 363.343 72.3719 363.482C72.1219 363.621 71.9245 363.824 71.7796 364.091C71.6347 364.358 71.5623 364.682 71.5623 365.063Z" fill="black"/>
<path d="M80.3022 362.455V363.307H76.9102V362.455H80.3022ZM77.8988 360.887H78.9045V367.125C78.9045 367.409 78.9457 367.622 79.0281 367.764C79.1133 367.904 79.2213 367.997 79.3519 368.046C79.4855 368.091 79.6261 368.114 79.7738 368.114C79.8846 368.114 79.9755 368.108 80.0465 368.097C80.1176 368.083 80.1744 368.071 80.217 368.063L80.4215 368.966C80.3534 368.992 80.2582 369.017 80.136 369.043C80.0139 369.071 79.859 369.085 79.6715 369.085C79.3875 369.085 79.109 369.024 78.8363 368.902C78.5664 368.78 78.342 368.594 78.163 368.344C77.9869 368.094 77.8988 367.779 77.8988 367.398V360.887Z" fill="black"/>
<path d="M92.0063 360.273V369H90.9836L86.2279 362.148H86.1427V369H85.0859V360.273H86.1086L90.8813 367.142H90.9666V360.273H92.0063Z" fill="black"/>
<path d="M96.6098 369.137C95.9791 369.137 95.4351 368.997 94.9777 368.719C94.5231 368.438 94.1723 368.046 93.9251 367.543C93.6808 367.037 93.5586 366.449 93.5586 365.779C93.5586 365.108 93.6808 364.517 93.9251 364.006C94.1723 363.492 94.516 363.091 94.9564 362.804C95.3996 362.514 95.9166 362.37 96.5075 362.37C96.8484 362.37 97.1851 362.426 97.5175 362.54C97.8498 362.654 98.1524 362.838 98.4251 363.094C98.6979 363.347 98.9152 363.682 99.0771 364.1C99.2391 364.517 99.32 365.031 99.32 365.642V366.068H94.2746V365.199H98.2973C98.2973 364.83 98.2234 364.5 98.0757 364.21C97.9308 363.921 97.7234 363.692 97.4535 363.524C97.1865 363.357 96.8711 363.273 96.5075 363.273C96.1069 363.273 95.7604 363.372 95.4677 363.571C95.178 363.767 94.955 364.023 94.7987 364.338C94.6425 364.654 94.5643 364.992 94.5643 365.352V365.932C94.5643 366.426 94.6496 366.845 94.82 367.189C94.9933 367.53 95.2334 367.79 95.5402 367.969C95.847 368.145 96.2035 368.233 96.6098 368.233C96.874 368.233 97.1126 368.196 97.3257 368.122C97.5416 368.046 97.7277 367.932 97.8839 367.781C98.0402 367.628 98.1609 367.438 98.2462 367.21L99.2177 367.483C99.1155 367.813 98.9436 368.102 98.7021 368.352C98.4606 368.6 98.1623 368.793 97.8072 368.932C97.4521 369.068 97.053 369.137 96.6098 369.137Z" fill="black"/>
<path d="M103.578 362.455V363.307H100.186V362.455H103.578ZM101.174 360.887H102.18V367.125C102.18 367.409 102.221 367.622 102.303 367.764C102.389 367.904 102.497 367.997 102.627 368.046C102.761 368.091 102.902 368.114 103.049 368.114C103.16 368.114 103.251 368.108 103.322 368.097C103.393 368.083 103.45 368.071 103.492 368.063L103.697 368.966C103.629 368.992 103.534 369.017 103.411 369.043C103.289 369.071 103.134 369.085 102.947 369.085C102.663 369.085 102.384 369.024 102.112 368.902C101.842 368.78 101.617 368.594 101.438 368.344C101.262 368.094 101.174 367.779 101.174 367.398V360.887Z" fill="black"/>
<path d="M106.451 369L104.457 362.455H105.514L106.929 367.466H106.997L108.395 362.455H109.468L110.849 367.449H110.917L112.332 362.455H113.389L111.395 369H110.406L108.974 363.972H108.872L107.44 369H106.451Z" fill="black"/>
<path d="M117.036 369.137C116.445 369.137 115.926 368.996 115.48 368.715C115.037 368.433 114.691 368.04 114.441 367.534C114.194 367.029 114.07 366.438 114.07 365.762C114.07 365.08 114.194 364.485 114.441 363.976C114.691 363.468 115.037 363.073 115.48 362.791C115.926 362.51 116.445 362.37 117.036 362.37C117.627 362.37 118.144 362.51 118.587 362.791C119.033 363.073 119.38 363.468 119.627 363.976C119.877 364.485 120.002 365.08 120.002 365.762C120.002 366.438 119.877 367.029 119.627 367.534C119.38 368.04 119.033 368.433 118.587 368.715C118.144 368.996 117.627 369.137 117.036 369.137ZM117.036 368.233C117.485 368.233 117.854 368.118 118.144 367.888C118.434 367.658 118.648 367.355 118.787 366.98C118.926 366.605 118.996 366.199 118.996 365.762C118.996 365.324 118.926 364.916 118.787 364.539C118.648 364.161 118.434 363.855 118.144 363.622C117.854 363.389 117.485 363.273 117.036 363.273C116.587 363.273 116.218 363.389 115.928 363.622C115.638 363.855 115.424 364.161 115.284 364.539C115.145 364.916 115.076 365.324 115.076 365.762C115.076 366.199 115.145 366.605 115.284 366.98C115.424 367.355 115.638 367.658 115.928 367.888C116.218 368.118 116.587 368.233 117.036 368.233Z" fill="black"/>
<path d="M121.418 369V362.455H122.39V363.443H122.458C122.577 363.12 122.793 362.857 123.105 362.655C123.418 362.453 123.77 362.352 124.162 362.352C124.236 362.352 124.328 362.354 124.439 362.357C124.55 362.36 124.634 362.364 124.691 362.37V363.392C124.657 363.384 124.578 363.371 124.456 363.354C124.337 363.334 124.211 363.324 124.077 363.324C123.759 363.324 123.475 363.391 123.225 363.524C122.978 363.655 122.782 363.837 122.637 364.07C122.495 364.3 122.424 364.563 122.424 364.858V369H121.418Z" fill="black"/>
<path d="M126.699 366.614L126.682 365.37H126.887L129.75 362.455H130.995L127.944 365.54H127.858L126.699 366.614ZM125.762 369V360.273H126.767V369H125.762ZM129.921 369L127.364 365.762L128.08 365.063L131.199 369H129.921Z" fill="black"/>
<path d="M142.563 367.438C142.563 367.549 142.53 367.658 142.468 367.75C142.406 367.843 142.318 367.915 142.215 367.957C142.112 368 141.999 368.011 141.89 367.989C141.781 367.967 141.681 367.914 141.602 367.835C141.524 367.757 141.47 367.656 141.448 367.547C141.427 367.438 141.438 367.325 141.48 367.222C141.523 367.119 141.595 367.032 141.687 366.97C141.78 366.908 141.889 366.875 142 366.875C142.149 366.875 142.292 366.934 142.398 367.04C142.503 367.145 142.563 367.288 142.563 367.438ZM142 362.375C140.966 362.375 140.125 363.132 140.125 364.062V364.25C140.125 364.349 140.165 364.445 140.235 364.515C140.305 364.585 140.401 364.625 140.5 364.625C140.599 364.625 140.695 364.585 140.765 364.515C140.835 364.445 140.875 364.349 140.875 364.25V364.062C140.875 363.547 141.38 363.125 142 363.125C142.62 363.125 143.125 363.547 143.125 364.062C143.125 364.578 142.62 365 142 365C141.901 365 141.805 365.04 141.735 365.11C141.665 365.18 141.625 365.276 141.625 365.375V365.75C141.625 365.849 141.665 365.945 141.735 366.015C141.805 366.085 141.901 366.125 142 366.125C142.099 366.125 142.195 366.085 142.265 366.015C142.335 365.945 142.375 365.849 142.375 365.75V365.716C143.23 365.559 143.875 364.877 143.875 364.062C143.875 363.132 143.034 362.375 142 362.375ZM146.875 365C146.875 365.964 146.589 366.907 146.053 367.708C145.518 368.51 144.756 369.135 143.866 369.504C142.975 369.873 141.995 369.969 141.049 369.781C140.103 369.593 139.235 369.129 138.553 368.447C137.871 367.765 137.407 366.897 137.219 365.951C137.031 365.005 137.127 364.025 137.496 363.134C137.865 362.244 138.49 361.482 139.292 360.947C140.093 360.411 141.036 360.125 142 360.125C143.293 360.126 144.532 360.64 145.446 361.554C146.36 362.468 146.874 363.707 146.875 365ZM146.125 365C146.125 364.184 145.883 363.387 145.43 362.708C144.977 362.03 144.332 361.501 143.579 361.189C142.825 360.877 141.995 360.795 141.195 360.954C140.395 361.113 139.66 361.506 139.083 362.083C138.506 362.66 138.113 363.395 137.954 364.195C137.795 364.995 137.877 365.825 138.189 366.579C138.501 367.332 139.03 367.977 139.708 368.43C140.387 368.883 141.184 369.125 142 369.125C143.094 369.124 144.142 368.689 144.915 367.915C145.689 367.142 146.124 366.094 146.125 365Z" fill="#8C94A6"/>
<path fill-rule="evenodd" clip-rule="evenodd" d="M308 426H32V425H308V426Z" fill="#EEEEF0"/>
<path d="M62 386H34C32.8954 386 32 386.895 32 388V406C32 407.105 32.8954 408 34 408H62C63.1046 408 64 407.105 64 406V388C64 386.895 63.1046 386 62 386Z" fill="#F5F6F8"/>
<mask id="mask8_124_20" style="mask-type:luminance" maskUnits="userSpaceOnUse" x="40" y="390" width="16" height="14">
<path d="M55.6365 390.5H40.3594V403.5H55.6365V390.5Z" fill="white"/>
</mask>
<g mask="url(#mask8_124_20)">
<path fill-rule="evenodd" clip-rule="evenodd" d="M42.7031 403.5V397.424H47.8551V398.824H44.3705V399.774H47.7718V401.15H44.3705V402.084H47.8551V403.5H42.7031Z" fill="#016FD0"/>
<path fill-rule="evenodd" clip-rule="evenodd" d="M47.8281 403.5L50.6788 400.458L47.8281 397.424H50.034L51.7763 399.35L53.5234 397.424H55.6351V397.471L52.8448 400.458L55.6351 403.414V403.5H53.5017L51.7292 401.555L49.9749 403.5H47.8281Z" fill="#016FD0"/>
<path fill-rule="evenodd" clip-rule="evenodd" d="M43.0555 390.5L40.3594 396.572H42.2091L42.7174 395.356H45.4739L45.9822 396.572H47.8778L45.1926 390.5H43.0555ZM43.2873 393.993L44.0963 392.06L44.904 393.993H43.2873Z" fill="#016FD0"/>
<path fill-rule="evenodd" clip-rule="evenodd" d="M47.8516 396.572V390.5L50.4511 390.508L51.7889 394.242L53.1351 390.5H55.6368V396.572L54.0274 396.585V392.415L52.5073 396.572H51.0379L49.4876 392.4V396.572H47.8516Z" fill="#016FD0"/>
</g>
<path d="M71.9822 402H70.3516L74.0156 391.818H75.7905L79.4545 402H77.8239L74.9453 393.668H74.8658L71.9822 402ZM72.2557 398.013H77.5455V399.306H72.2557V398.013Z" fill="#1A1A21"/>
<path d="M80.666 402V394.364H82.0928V395.607H82.1873C82.3464 395.186 82.6066 394.858 82.9678 394.622C83.3291 394.384 83.7616 394.264 84.2654 394.264C84.7758 394.264 85.2034 394.384 85.5481 394.622C85.8961 394.861 86.153 395.189 86.3187 395.607H86.3982C86.5805 395.199 86.8705 394.874 87.2682 394.632C87.666 394.387 88.1399 394.264 88.6901 394.264C89.3828 394.264 89.9479 394.481 90.3854 394.916C90.8263 395.35 91.0467 396.004 91.0467 396.879V402H89.5602V397.019C89.5602 396.502 89.4193 396.127 89.1376 395.895C88.8558 395.663 88.5194 395.547 88.1283 395.547C87.6444 395.547 87.2682 395.696 86.9998 395.994C86.7313 396.289 86.5971 396.669 86.5971 397.133V402H85.1155V396.924C85.1155 396.51 84.9863 396.177 84.7278 395.925C84.4692 395.673 84.1328 395.547 83.7185 395.547C83.4368 395.547 83.1766 395.622 82.938 395.771C82.7027 395.917 82.5121 396.12 82.3663 396.382C82.2237 396.644 82.1525 396.947 82.1525 397.292V402H80.666Z" fill="#1A1A21"/>
<path d="M96.1889 402.154C95.4365 402.154 94.7886 401.994 94.245 401.672C93.7048 401.347 93.2872 400.891 92.9922 400.305C92.7005 399.715 92.5547 399.024 92.5547 398.232C92.5547 397.449 92.7005 396.76 92.9922 396.163C93.2872 395.567 93.6981 395.101 94.2251 394.766C94.7554 394.432 95.3752 394.264 96.0845 394.264C96.5154 394.264 96.933 394.336 97.3374 394.478C97.7417 394.621 98.1046 394.844 98.4261 395.149C98.7476 395.454 99.0012 395.85 99.1868 396.337C99.3724 396.821 99.4652 397.41 99.4652 398.102V398.629H93.3949V397.516H98.0085C98.0085 397.125 97.929 396.778 97.7699 396.477C97.6108 396.172 97.3871 395.931 97.0987 395.756C96.8137 395.58 96.4789 395.492 96.0945 395.492C95.6768 395.492 95.3123 395.595 95.0007 395.801C94.6925 396.003 94.4538 396.268 94.2848 396.596C94.1191 396.921 94.0362 397.274 94.0362 397.655V398.525C94.0362 399.035 94.1257 399.47 94.3047 399.828C94.487 400.186 94.7405 400.459 95.0653 400.648C95.3901 400.833 95.7696 400.926 96.2038 400.926C96.4856 400.926 96.7424 400.886 96.9744 400.807C97.2064 400.724 97.407 400.601 97.576 400.439C97.745 400.277 97.8743 400.076 97.9638 399.837L99.3707 400.091C99.258 400.505 99.0559 400.868 98.7642 401.18C98.4758 401.488 98.1129 401.728 97.6754 401.901C97.2412 402.07 96.7457 402.154 96.1889 402.154Z" fill="#1A1A21"/>
<path d="M100.975 402V394.364H102.412V395.577H102.492C102.631 395.166 102.876 394.843 103.228 394.607C103.582 394.369 103.983 394.249 104.431 394.249C104.523 394.249 104.633 394.253 104.759 394.259C104.888 394.266 104.989 394.274 105.062 394.284V395.706C105.002 395.69 104.896 395.671 104.744 395.651C104.591 395.628 104.439 395.617 104.286 395.617C103.935 395.617 103.622 395.691 103.347 395.84C103.075 395.986 102.86 396.19 102.701 396.452C102.541 396.71 102.462 397.005 102.462 397.337V402H100.975Z" fill="#1A1A21"/>
<path d="M106.208 402V394.364H107.695V402H106.208ZM106.959 393.186C106.701 393.186 106.479 393.099 106.293 392.927C106.111 392.751 106.02 392.543 106.02 392.301C106.02 392.055 106.111 391.846 106.293 391.674C106.479 391.498 106.701 391.411 106.959 391.411C107.218 391.411 107.438 391.498 107.62 391.674C107.806 391.846 107.899 392.055 107.899 392.301C107.899 392.543 107.806 392.751 107.62 392.927C107.438 393.099 107.218 393.186 106.959 393.186Z" fill="#1A1A21"/>
<path d="M112.772 402.154C112.033 402.154 111.397 401.987 110.863 401.652C110.333 401.314 109.925 400.848 109.64 400.255C109.355 399.662 109.213 398.982 109.213 398.217C109.213 397.441 109.359 396.757 109.65 396.163C109.942 395.567 110.353 395.101 110.883 394.766C111.414 394.432 112.038 394.264 112.757 394.264C113.338 394.264 113.855 394.372 114.309 394.587C114.763 394.8 115.129 395.098 115.407 395.482C115.689 395.867 115.856 396.316 115.909 396.83H114.463C114.383 396.472 114.201 396.163 113.916 395.905C113.634 395.646 113.256 395.517 112.782 395.517C112.368 395.517 112.005 395.627 111.694 395.845C111.385 396.061 111.145 396.369 110.973 396.77C110.8 397.168 110.714 397.638 110.714 398.182C110.714 398.739 110.799 399.219 110.968 399.624C111.137 400.028 111.375 400.341 111.684 400.563C111.995 400.785 112.361 400.896 112.782 400.896C113.064 400.896 113.319 400.845 113.548 400.742C113.78 400.636 113.974 400.485 114.13 400.29C114.289 400.094 114.4 399.859 114.463 399.584H115.909C115.856 400.078 115.696 400.519 115.427 400.906C115.159 401.294 114.799 401.599 114.348 401.821C113.901 402.043 113.376 402.154 112.772 402.154Z" fill="#1A1A21"/>
<path d="M119.58 402.169C119.097 402.169 118.659 402.08 118.268 401.901C117.877 401.718 117.567 401.455 117.338 401.11C117.113 400.766 117 400.343 117 399.842C117 399.412 117.083 399.057 117.249 398.779C117.414 398.5 117.638 398.28 117.92 398.117C118.202 397.955 118.517 397.832 118.865 397.749C119.213 397.667 119.567 397.604 119.928 397.561C120.386 397.507 120.757 397.464 121.042 397.431C121.327 397.395 121.534 397.337 121.664 397.257C121.793 397.178 121.857 397.048 121.857 396.869V396.835C121.857 396.4 121.735 396.064 121.49 395.825C121.248 395.587 120.886 395.467 120.406 395.467C119.905 395.467 119.511 395.578 119.222 395.801C118.937 396.019 118.74 396.263 118.631 396.531L117.234 396.213C117.4 395.749 117.642 395.375 117.96 395.09C118.281 394.801 118.651 394.592 119.068 394.463C119.486 394.331 119.925 394.264 120.386 394.264C120.691 394.264 121.014 394.301 121.355 394.374C121.7 394.443 122.022 394.573 122.32 394.761C122.621 394.95 122.868 395.221 123.061 395.572C123.253 395.92 123.349 396.372 123.349 396.929V402H121.897V400.956H121.838C121.741 401.148 121.597 401.337 121.405 401.523C121.213 401.708 120.966 401.863 120.664 401.985C120.363 402.108 120.001 402.169 119.58 402.169ZM119.904 400.976C120.315 400.976 120.666 400.895 120.958 400.732C121.253 400.57 121.476 400.358 121.629 400.096C121.785 399.831 121.862 399.547 121.862 399.246V398.261C121.809 398.315 121.707 398.364 121.554 398.411C121.405 398.454 121.234 398.492 121.042 398.525C120.85 398.555 120.663 398.583 120.48 398.61C120.298 398.633 120.146 398.653 120.023 398.669C119.735 398.706 119.471 398.767 119.232 398.853C118.997 398.939 118.808 399.064 118.666 399.226C118.526 399.385 118.457 399.597 118.457 399.862C118.457 400.23 118.593 400.509 118.865 400.698C119.136 400.883 119.483 400.976 119.904 400.976Z" fill="#1A1A21"/>
<path d="M126.675 397.466V402H125.189V394.364H126.616V395.607H126.71C126.886 395.202 127.161 394.878 127.535 394.632C127.913 394.387 128.389 394.264 128.962 394.264C129.483 394.264 129.938 394.374 130.329 394.592C130.721 394.808 131.024 395.129 131.239 395.557C131.455 395.985 131.562 396.513 131.562 397.143V402H130.076V397.322C130.076 396.768 129.932 396.336 129.643 396.024C129.355 395.709 128.959 395.552 128.455 395.552C128.11 395.552 127.804 395.627 127.535 395.776C127.27 395.925 127.06 396.144 126.904 396.432C126.752 396.717 126.675 397.062 126.675 397.466Z" fill="#1A1A21"/>
<path d="M137.1 402V391.818H143.484V393.141H138.637V396.243H143.151V397.561H138.637V400.678H143.544V402H137.1Z" fill="#1A1A21"/>
<path d="M146.45 394.364L148.135 397.337L149.836 394.364H151.461L149.08 398.182L151.481 402H149.855L148.135 399.146L146.42 402H144.789L147.166 398.182L144.819 394.364H146.45Z" fill="#1A1A21"/>
<path d="M152.848 404.864V394.364H154.299V395.602H154.424C154.51 395.443 154.634 395.259 154.796 395.05C154.959 394.841 155.184 394.659 155.473 394.503C155.761 394.344 156.142 394.264 156.616 394.264C157.233 394.264 157.783 394.42 158.267 394.732C158.751 395.043 159.13 395.492 159.405 396.079C159.684 396.666 159.823 397.372 159.823 398.197C159.823 399.022 159.685 399.73 159.41 400.32C159.135 400.906 158.757 401.359 158.277 401.677C157.796 401.992 157.247 402.149 156.631 402.149C156.167 402.149 155.787 402.071 155.492 401.916C155.201 401.76 154.972 401.578 154.806 401.369C154.641 401.16 154.513 400.974 154.424 400.812H154.334V404.864H152.848ZM154.304 398.182C154.304 398.719 154.382 399.19 154.538 399.594C154.694 399.998 154.919 400.315 155.214 400.543C155.509 400.769 155.87 400.882 156.298 400.882C156.742 400.882 157.113 400.764 157.412 400.529C157.71 400.29 157.935 399.967 158.088 399.559C158.243 399.151 158.321 398.692 158.321 398.182C158.321 397.678 158.245 397.226 158.093 396.825C157.943 396.424 157.718 396.107 157.416 395.875C157.118 395.643 156.745 395.527 156.298 395.527C155.867 395.527 155.502 395.638 155.204 395.86C154.909 396.082 154.685 396.392 154.533 396.79C154.381 397.188 154.304 397.652 154.304 398.182Z" fill="#1A1A21"/>
<path d="M161.348 402V394.364H162.785V395.577H162.865C163.004 395.166 163.249 394.843 163.6 394.607C163.955 394.369 164.356 394.249 164.803 394.249C164.896 394.249 165.006 394.253 165.132 394.259C165.261 394.266 165.362 394.274 165.435 394.284V395.706C165.375 395.69 165.269 395.671 165.117 395.651C164.964 395.628 164.812 395.617 164.659 395.617C164.308 395.617 163.995 395.691 163.72 395.84C163.448 395.986 163.232 396.19 163.073 396.452C162.914 396.71 162.835 397.005 162.835 397.337V402H161.348Z" fill="#1A1A21"/>
<path d="M169.599 402.154C168.847 402.154 168.199 401.994 167.655 401.672C167.115 401.347 166.697 400.891 166.402 400.305C166.111 399.715 165.965 399.024 165.965 398.232C165.965 397.449 166.111 396.76 166.402 396.163C166.697 395.567 167.108 395.101 167.635 394.766C168.166 394.432 168.785 394.264 169.495 394.264C169.925 394.264 170.343 394.336 170.747 394.478C171.152 394.621 171.515 394.844 171.836 395.149C172.158 395.454 172.411 395.85 172.597 396.337C172.783 396.821 172.875 397.41 172.875 398.102V398.629H166.805V397.516H171.419C171.419 397.125 171.339 396.778 171.18 396.477C171.021 396.172 170.797 395.931 170.509 395.756C170.224 395.58 169.889 395.492 169.505 395.492C169.087 395.492 168.722 395.595 168.411 395.801C168.103 396.003 167.864 396.268 167.695 396.596C167.529 396.921 167.446 397.274 167.446 397.655V398.525C167.446 399.035 167.536 399.47 167.715 399.828C167.897 400.186 168.151 400.459 168.475 400.648C168.8 400.833 169.18 400.926 169.614 400.926C169.896 400.926 170.153 400.886 170.385 400.807C170.617 400.724 170.817 400.601 170.986 400.439C171.155 400.277 171.284 400.076 171.374 399.837L172.781 400.091C172.668 400.505 172.466 400.868 172.174 401.18C171.886 401.488 171.523 401.728 171.086 401.901C170.651 402.07 170.156 402.154 169.599 402.154Z" fill="#1A1A21"/>
<path d="M180.107 396.228L178.76 396.467C178.703 396.294 178.614 396.13 178.491 395.975C178.372 395.819 178.209 395.691 178.004 395.592C177.798 395.492 177.542 395.443 177.233 395.443C176.812 395.443 176.461 395.537 176.179 395.726C175.898 395.912 175.757 396.152 175.757 396.447C175.757 396.702 175.851 396.908 176.04 397.063C176.229 397.219 176.534 397.347 176.955 397.446L178.168 397.725C178.871 397.887 179.394 398.137 179.739 398.475C180.084 398.813 180.256 399.253 180.256 399.793C180.256 400.25 180.124 400.658 179.858 401.016C179.597 401.37 179.23 401.649 178.76 401.851C178.292 402.053 177.75 402.154 177.134 402.154C176.279 402.154 175.581 401.972 175.041 401.607C174.501 401.239 174.169 400.717 174.047 400.041L175.483 399.823C175.573 400.197 175.757 400.48 176.035 400.673C176.314 400.862 176.677 400.956 177.124 400.956C177.611 400.956 178.001 400.855 178.292 400.653C178.584 400.447 178.73 400.197 178.73 399.902C178.73 399.663 178.64 399.463 178.461 399.301C178.286 399.138 178.016 399.016 177.651 398.933L176.358 398.649C175.646 398.487 175.119 398.228 174.777 397.874C174.439 397.519 174.27 397.07 174.27 396.526C174.27 396.076 174.396 395.681 174.648 395.343C174.9 395.005 175.248 394.742 175.692 394.553C176.136 394.36 176.645 394.264 177.218 394.264C178.044 394.264 178.693 394.443 179.167 394.801C179.641 395.156 179.954 395.632 180.107 396.228Z" fill="#1A1A21"/>
<path d="M187.473 396.228L186.125 396.467C186.069 396.294 185.98 396.13 185.857 395.975C185.738 395.819 185.575 395.691 185.37 395.592C185.164 395.492 184.907 395.443 184.599 395.443C184.178 395.443 183.827 395.537 183.545 395.726C183.264 395.912 183.123 396.152 183.123 396.447C183.123 396.702 183.217 396.908 183.406 397.063C183.595 397.219 183.9 397.347 184.321 397.446L185.534 397.725C186.237 397.887 186.76 398.137 187.105 398.475C187.45 398.813 187.622 399.253 187.622 399.793C187.622 400.25 187.489 400.658 187.224 401.016C186.962 401.37 186.596 401.649 186.125 401.851C185.658 402.053 185.116 402.154 184.5 402.154C183.645 402.154 182.947 401.972 182.407 401.607C181.867 401.239 181.535 400.717 181.412 400.041L182.849 399.823C182.939 400.197 183.123 400.48 183.401 400.673C183.679 400.862 184.042 400.956 184.49 400.956C184.977 400.956 185.367 400.855 185.658 400.653C185.95 400.447 186.096 400.197 186.096 399.902C186.096 399.663 186.006 399.463 185.827 399.301C185.652 399.138 185.381 399.016 185.017 398.933L183.724 398.649C183.012 398.487 182.485 398.228 182.143 397.874C181.805 397.519 181.636 397.07 181.636 396.526C181.636 396.076 181.762 395.681 182.014 395.343C182.266 395.005 182.614 394.742 183.058 394.553C183.502 394.36 184.011 394.264 184.584 394.264C185.41 394.264 186.059 394.443 186.533 394.801C187.007 395.156 187.32 395.632 187.473 396.228Z" fill="#1A1A21"/>
<path d="M15 348C15 343.029 19.0294 339 24 339H316C320.971 339 325 343.029 325 348H323C323 344.134 319.866 341 316 341H24C20.134 341 17 344.134 17 348H15ZM15 442V348C15 343.029 19.0294 339 24 339V341C20.134 341 17 344.134 17 348V442H15ZM316 339C320.971 339 325 343.029 325 348V442H323V348C323 344.134 319.866 341 316 341V339Z" fill="#EEEEF0"/>
</g>
<defs>
<clipPath id="clip0_124_20">
<rect width="712" height="442" fill="white"/>
</clipPath>
</defs>
</svg>
