<svg width="340" height="182" viewBox="0 0 340 182" fill="none" xmlns="http://www.w3.org/2000/svg">
<rect width="340" height="182" rx="12" fill="white"/>
<path d="M22 17.125C21.0358 17.125 20.0933 17.4109 19.2916 17.9466C18.4899 18.4823 17.8651 19.2436 17.4961 20.1344C17.1271 21.0252 17.0306 22.0054 17.2187 22.9511C17.4068 23.8967 17.8711 24.7654 18.5529 25.4471C19.2346 26.1289 20.1033 26.5932 21.0489 26.7813C21.9946 26.9694 22.9748 26.8729 23.8656 26.5039C24.7564 26.1349 25.5177 25.5101 26.0534 24.7084C26.5891 23.9067 26.875 22.9642 26.875 22C26.8736 20.7075 26.3596 19.4683 25.4456 18.5544C24.5317 17.6404 23.2925 17.1264 22 17.125ZM19.4725 25.2578C19.7438 24.8335 20.1175 24.4844 20.5592 24.2425C21.0009 24.0007 21.4964 23.8739 22 23.8739C22.5036 23.8739 22.9991 24.0007 23.4408 24.2425C23.8825 24.4844 24.2562 24.8335 24.5275 25.2578C23.8048 25.8198 22.9155 26.125 22 26.125C21.0845 26.125 20.1952 25.8198 19.4725 25.2578ZM20.5 21.625C20.5 21.3283 20.588 21.0383 20.7528 20.7916C20.9176 20.545 21.1519 20.3527 21.426 20.2392C21.7001 20.1256 22.0017 20.0959 22.2926 20.1538C22.5836 20.2117 22.8509 20.3546 23.0607 20.5643C23.2704 20.7741 23.4133 21.0414 23.4712 21.3324C23.5291 21.6233 23.4994 21.9249 23.3858 22.199C23.2723 22.4731 23.08 22.7074 22.8334 22.8722C22.5867 23.037 22.2967 23.125 22 23.125C21.6022 23.125 21.2206 22.967 20.9393 22.6857C20.658 22.4044 20.5 22.0228 20.5 21.625ZM25.0825 24.738C24.6643 24.1319 24.0762 23.663 23.3922 23.3903C23.7596 23.1009 24.0277 22.7042 24.1592 22.2554C24.2907 21.8066 24.2791 21.3279 24.126 20.886C23.9728 20.4441 23.6858 20.0609 23.3048 19.7897C22.9238 19.5185 22.4677 19.3727 22 19.3727C21.5323 19.3727 21.0762 19.5185 20.6952 19.7897C20.3142 20.0609 20.0272 20.4441 19.874 20.886C19.7209 21.3279 19.7093 21.8066 19.8408 22.2554C19.9723 22.7042 20.2404 23.1009 20.6078 23.3903C19.9238 23.663 19.3357 24.1319 18.9175 24.738C18.389 24.1437 18.0436 23.4093 17.9228 22.6232C17.8021 21.8371 17.9111 21.0329 18.2368 20.3074C18.5626 19.5819 19.0911 18.966 19.7587 18.5338C20.4264 18.1017 21.2047 17.8718 22 17.8718C22.7953 17.8718 23.5736 18.1017 24.2413 18.5338C24.9089 18.966 25.4374 19.5819 25.7632 20.3074C26.0889 21.0329 26.1979 21.8371 26.0772 22.6232C25.9564 23.4093 25.611 24.1437 25.0825 24.738Z" fill="#8C94A6"/>
<path d="M33.3203 24.9998H32.1953L34.2436 19.1816H35.5447L37.5959 24.9998H36.4709L34.9169 20.3748H34.8714L33.3203 24.9998ZM33.3572 22.7185H36.4254V23.5651H33.3572V22.7185Z" fill="#8C94A6"/>
<path d="M44.1889 21.1447H43.1264C43.0961 20.9704 43.0402 20.8161 42.9588 20.6816C42.8773 20.5452 42.776 20.4297 42.6548 20.335C42.5336 20.2403 42.3953 20.1693 42.24 20.1219C42.0866 20.0727 41.9209 20.0481 41.7429 20.0481C41.4266 20.0481 41.1463 20.1276 40.902 20.2867C40.6576 20.4439 40.4664 20.675 40.3281 20.9799C40.1898 21.2829 40.1207 21.6532 40.1207 22.0907C40.1207 22.5358 40.1898 22.9108 40.3281 23.2157C40.4682 23.5187 40.6595 23.7479 40.902 23.9032C41.1463 24.0566 41.4256 24.1333 41.74 24.1333C41.9143 24.1333 42.0771 24.1106 42.2287 24.0651C42.3821 24.0178 42.5194 23.9486 42.6406 23.8577C42.7637 23.7668 42.8669 23.6551 42.9503 23.5225C43.0355 23.3899 43.0942 23.2384 43.1264 23.068L44.1889 23.0736C44.1491 23.3502 44.0629 23.6096 43.9304 23.8521C43.7997 24.0945 43.6283 24.3085 43.4162 24.4941C43.204 24.6778 42.9559 24.8217 42.6718 24.9259C42.3878 25.0282 42.0724 25.0793 41.7258 25.0793C41.2145 25.0793 40.758 24.961 40.3565 24.7242C39.955 24.4875 39.6387 24.1456 39.4076 23.6986C39.1766 23.2517 39.0611 22.7157 39.0611 22.0907C39.0611 21.4638 39.1775 20.9278 39.4105 20.4827C39.6434 20.0358 39.9607 19.6939 40.3622 19.4572C40.7637 19.2204 41.2182 19.1021 41.7258 19.1021C42.0497 19.1021 42.3508 19.1475 42.6292 19.2384C42.9076 19.3293 43.1557 19.4628 43.3736 19.639C43.5914 19.8132 43.7703 20.0272 43.9105 20.281C44.0525 20.5329 44.1453 20.8208 44.1889 21.1447Z" fill="#8C94A6"/>
<path d="M51.2542 21.1447H50.1917C50.1614 20.9704 50.1055 20.8161 50.0241 20.6816C49.9427 20.5452 49.8413 20.4297 49.7201 20.335C49.5989 20.2403 49.4606 20.1693 49.3053 20.1219C49.1519 20.0727 48.9862 20.0481 48.8082 20.0481C48.4919 20.0481 48.2116 20.1276 47.9673 20.2867C47.723 20.4439 47.5317 20.675 47.3934 20.9799C47.2552 21.2829 47.186 21.6532 47.186 22.0907C47.186 22.5358 47.2552 22.9108 47.3934 23.2157C47.5336 23.5187 47.7248 23.7479 47.9673 23.9032C48.2116 24.0566 48.4909 24.1333 48.8053 24.1333C48.9796 24.1333 49.1425 24.1106 49.294 24.0651C49.4474 24.0178 49.5847 23.9486 49.7059 23.8577C49.829 23.7668 49.9322 23.6551 50.0156 23.5225C50.1008 23.3899 50.1595 23.2384 50.1917 23.068L51.2542 23.0736C51.2144 23.3502 51.1283 23.6096 50.9957 23.8521C50.865 24.0945 50.6936 24.3085 50.4815 24.4941C50.2694 24.6778 50.0213 24.8217 49.7372 24.9259C49.4531 25.0282 49.1377 25.0793 48.7911 25.0793C48.2798 25.0793 47.8233 24.961 47.4218 24.7242C47.0203 24.4875 46.704 24.1456 46.473 23.6986C46.2419 23.2517 46.1264 22.7157 46.1264 22.0907C46.1264 21.4638 46.2428 20.9278 46.4758 20.4827C46.7087 20.0358 47.026 19.6939 47.4275 19.4572C47.829 19.2204 48.2836 19.1021 48.7911 19.1021C49.115 19.1021 49.4161 19.1475 49.6945 19.2384C49.973 19.3293 50.2211 19.4628 50.4389 19.639C50.6567 19.8132 50.8356 20.0272 50.9758 20.281C51.1178 20.5329 51.2106 20.8208 51.2542 21.1447Z" fill="#8C94A6"/>
<path d="M58.5383 22.0907C58.5383 22.7176 58.4208 23.2545 58.186 23.7015C57.953 24.1466 57.6349 24.4875 57.2314 24.7242C56.8299 24.961 56.3744 25.0793 55.865 25.0793C55.3555 25.0793 54.8991 24.961 54.4957 24.7242C54.0941 24.4856 53.776 24.1437 53.5411 23.6986C53.3082 23.2517 53.1917 22.7157 53.1917 22.0907C53.1917 21.4638 53.3082 20.9278 53.5411 20.4827C53.776 20.0358 54.0941 19.6939 54.4957 19.4572C54.8991 19.2204 55.3555 19.1021 55.865 19.1021C56.3744 19.1021 56.8299 19.2204 57.2314 19.4572C57.6349 19.6939 57.953 20.0358 58.186 20.4827C58.4208 20.9278 58.5383 21.4638 58.5383 22.0907ZM57.4786 22.0907C57.4786 21.6494 57.4095 21.2772 57.2712 20.9742C57.1349 20.6693 56.9455 20.4392 56.703 20.2839C56.4606 20.1267 56.1813 20.0481 55.865 20.0481C55.5487 20.0481 55.2693 20.1267 55.0269 20.2839C54.7845 20.4392 54.5941 20.6693 54.4559 20.9742C54.3195 21.2772 54.2513 21.6494 54.2513 22.0907C54.2513 22.532 54.3195 22.9051 54.4559 23.21C54.5941 23.513 54.7845 23.7431 55.0269 23.9003C55.2693 24.0556 55.5487 24.1333 55.865 24.1333C56.1813 24.1333 56.4606 24.0556 56.703 23.9003C56.9455 23.7431 57.1349 23.513 57.2712 23.21C57.4095 22.9051 57.4786 22.532 57.4786 22.0907Z" fill="#8C94A6"/>
<path d="M64.3223 19.1816H65.3763V22.9827C65.3763 23.3994 65.2778 23.7659 65.0809 24.0822C64.8858 24.3985 64.6112 24.6456 64.257 24.8236C63.9028 24.9998 63.489 25.0878 63.0155 25.0878C62.5401 25.0878 62.1254 24.9998 61.7712 24.8236C61.417 24.6456 61.1424 24.3985 60.9473 24.0822C60.7523 23.7659 60.6547 23.3994 60.6547 22.9827V19.1816H61.7087V22.8947C61.7087 23.1371 61.7617 23.353 61.8678 23.5424C61.9757 23.7318 62.1273 23.8805 62.3223 23.9884C62.5174 24.0945 62.7485 24.1475 63.0155 24.1475C63.2826 24.1475 63.5136 24.0945 63.7087 23.9884C63.9057 23.8805 64.0572 23.7318 64.1632 23.5424C64.2693 23.353 64.3223 23.1371 64.3223 22.8947V19.1816Z" fill="#8C94A6"/>
<path d="M72.4232 19.1816V24.9998H71.4857L68.7442 21.0367H68.6959V24.9998H67.6419V19.1816H68.5851L71.3237 23.1475H71.3749V19.1816H72.4232Z" fill="#8C94A6"/>
<path d="M74.4359 20.0651V19.1816H79.078V20.0651H77.2797V24.9998H76.2342V20.0651H74.4359Z" fill="#8C94A6"/>
<path d="M86.1688 24.9998H84.1972V19.1816H86.2086C86.7862 19.1816 87.2824 19.2981 87.6972 19.531C88.1139 19.7621 88.434 20.0945 88.6574 20.5282C88.8809 20.9619 88.9927 21.4808 88.9927 22.085C88.9927 22.6911 88.88 23.2119 88.6546 23.6475C88.4311 24.0831 88.1082 24.4174 87.6859 24.6503C87.2654 24.8833 86.7597 24.9998 86.1688 24.9998ZM85.2512 24.0878H86.1177C86.523 24.0878 86.861 24.014 87.1319 23.8663C87.4027 23.7166 87.6063 23.4941 87.7427 23.1986C87.879 22.9013 87.9472 22.5301 87.9472 22.085C87.9472 21.6399 87.879 21.2706 87.7427 20.9771C87.6063 20.6816 87.4046 20.461 87.1376 20.3151C86.8724 20.1674 86.5429 20.0935 86.1489 20.0935H85.2512V24.0878Z" fill="#8C94A6"/>
<path d="M91.1141 24.9998V19.1816H94.8982V20.0651H92.1681V21.6447H94.7022V22.5282H92.1681V24.1163H94.9209V24.9998H91.1141Z" fill="#8C94A6"/>
<path d="M96.8378 20.0651V19.1816H101.48V20.0651H99.6815V24.9998H98.6361V20.0651H96.8378Z" fill="#8C94A6"/>
<path d="M103.539 24.9998H102.414L104.462 19.1816H105.763L107.814 24.9998H106.689L105.135 20.3748H105.09L103.539 24.9998ZM103.576 22.7185H106.644V23.5651H103.576V22.7185Z" fill="#8C94A6"/>
<path d="M110.755 19.1816V24.9998H109.701V19.1816H110.755Z" fill="#8C94A6"/>
<path d="M113.016 24.9998V19.1816H114.07V24.1163H116.632V24.9998H113.016Z" fill="#8C94A6"/>
<path d="M121.829 20.781C121.803 20.5329 121.691 20.3397 121.494 20.2015C121.299 20.0632 121.045 19.9941 120.733 19.9941C120.513 19.9941 120.324 20.0272 120.167 20.0935C120.01 20.1598 119.89 20.2498 119.806 20.3634C119.723 20.4771 119.68 20.6068 119.679 20.7526C119.679 20.8738 119.706 20.9789 119.761 21.068C119.818 21.157 119.894 21.2327 119.991 21.2952C120.088 21.3558 120.195 21.407 120.312 21.4486C120.43 21.4903 120.548 21.5253 120.667 21.5538L121.213 21.6901C121.432 21.7413 121.644 21.8104 121.846 21.8975C122.051 21.9846 122.234 22.0945 122.394 22.2271C122.557 22.3596 122.686 22.5197 122.781 22.7072C122.876 22.8947 122.923 23.1144 122.923 23.3663C122.923 23.7072 122.836 24.0074 122.662 24.2668C122.487 24.5244 122.235 24.7261 121.906 24.8719C121.578 25.0159 121.181 25.0878 120.716 25.0878C120.263 25.0878 119.87 25.0178 119.537 24.8776C119.205 24.7375 118.946 24.5329 118.758 24.264C118.573 23.995 118.472 23.6674 118.457 23.281H119.494C119.509 23.4837 119.572 23.6522 119.681 23.7867C119.791 23.9212 119.934 24.0216 120.11 24.0878C120.288 24.1541 120.487 24.1873 120.707 24.1873C120.936 24.1873 121.137 24.1532 121.309 24.085C121.484 24.0149 121.62 23.9183 121.718 23.7952C121.817 23.6702 121.867 23.5244 121.869 23.3577C121.867 23.2062 121.823 23.0812 121.735 22.9827C121.648 22.8824 121.526 22.799 121.369 22.7327C121.214 22.6646 121.032 22.6039 120.823 22.5509L120.162 22.3805C119.682 22.2574 119.304 22.0708 119.025 21.8208C118.749 21.5689 118.61 21.2346 118.61 20.818C118.61 20.4752 118.703 20.175 118.889 19.9174C119.076 19.6598 119.331 19.46 119.653 19.318C119.975 19.174 120.34 19.1021 120.747 19.1021C121.16 19.1021 121.521 19.174 121.832 19.318C122.144 19.46 122.39 19.6579 122.568 19.9117C122.746 20.1636 122.838 20.4534 122.843 20.781H121.829Z" fill="#8C94A6"/>
<path d="M16 63H0V65H16V63Z" fill="#EEEEF0" mask="url(#path-4-inside-1_3627_52135)"/>
<path d="M64.2777 44.2728V53H62.9609V44.2728H64.2777Z" fill="#5F4CC8"/>
<path d="M67.2472 49.1137V53H65.973V46.4546H67.1961V47.5199H67.277C67.4276 47.1733 67.6634 46.8949 67.9844 46.6847C68.3083 46.4745 68.7159 46.3694 69.2074 46.3694C69.6534 46.3694 70.0441 46.4631 70.3793 46.6506C70.7145 46.8353 70.9745 47.1108 71.1591 47.4773C71.3438 47.8438 71.4361 48.2969 71.4361 48.8367V53H70.162V48.9901C70.162 48.5157 70.0384 48.1449 69.7912 47.8779C69.5441 47.608 69.2046 47.4731 68.7728 47.4731C68.4773 47.4731 68.2145 47.537 67.9844 47.6648C67.7571 47.7927 67.5767 47.9802 67.4432 48.2273C67.3125 48.4716 67.2472 48.7671 67.2472 49.1137Z" fill="#5F4CC8"/>
<path d="M77.9297 48.0526L76.7749 48.2571C76.7266 48.1094 76.6499 47.9688 76.5448 47.8353C76.4425 47.7017 76.3033 47.5924 76.1272 47.5071C75.9511 47.4219 75.7309 47.3793 75.4667 47.3793C75.1059 47.3793 74.8047 47.4603 74.5633 47.6222C74.3218 47.7813 74.2011 47.9873 74.2011 48.2401C74.2011 48.4589 74.282 48.635 74.4439 48.7685C74.6059 48.902 74.8672 49.0114 75.228 49.0966L76.2678 49.3353C76.8701 49.4745 77.3189 49.689 77.6144 49.9787C77.9099 50.2685 78.0576 50.6449 78.0576 51.108C78.0576 51.5 77.9439 51.8495 77.7167 52.1563C77.4922 52.4603 77.1783 52.6989 76.7749 52.8722C76.3743 53.0455 75.9099 53.1321 75.3814 53.1321C74.6485 53.1321 74.0505 52.9759 73.5874 52.6634C73.1243 52.3481 72.8403 51.9006 72.7351 51.3211L73.9667 51.1336C74.0434 51.4546 74.2011 51.6975 74.4397 51.8623C74.6783 52.0242 74.9894 52.1052 75.3729 52.1052C75.7905 52.1052 76.1243 52.0185 76.3743 51.8452C76.6243 51.6691 76.7493 51.4546 76.7493 51.2017C76.7493 50.9972 76.6726 50.8253 76.5192 50.6861C76.3687 50.5469 76.1371 50.4418 75.8246 50.3708L74.7167 50.1279C74.1059 49.9887 73.6542 49.7671 73.3616 49.4631C73.0718 49.1591 72.9269 48.7742 72.9269 48.3083C72.9269 47.9219 73.0349 47.5839 73.2508 47.2941C73.4667 47.0043 73.765 46.7785 74.1457 46.6165C74.5263 46.4517 74.9624 46.3694 75.4539 46.3694C76.1613 46.3694 76.7181 46.5228 77.1243 46.8296C77.5306 47.1336 77.7991 47.5412 77.9297 48.0526Z" fill="#5F4CC8"/>
<path d="M79.3385 53V46.4546H80.6127V53H79.3385ZM79.982 45.4446C79.7604 45.4446 79.57 45.3708 79.411 45.2231C79.2547 45.0725 79.1766 44.8935 79.1766 44.6861C79.1766 44.4759 79.2547 44.2969 79.411 44.1492C79.57 43.9986 79.7604 43.9233 79.982 43.9233C80.2036 43.9233 80.3925 43.9986 80.5487 44.1492C80.7078 44.2969 80.7874 44.4759 80.7874 44.6861C80.7874 44.8935 80.7078 45.0725 80.5487 45.2231C80.3925 45.3708 80.2036 45.4446 79.982 45.4446Z" fill="#5F4CC8"/>
<path d="M84.6571 53.1279C84.1287 53.1279 83.6571 52.9929 83.2423 52.7231C82.8304 52.4503 82.5065 52.0625 82.2707 51.5597C82.0378 51.054 81.9213 50.4475 81.9213 49.7401C81.9213 49.0327 82.0392 48.4276 82.275 47.9248C82.5136 47.4219 82.8403 47.037 83.2551 46.7699C83.6699 46.5029 84.14 46.3694 84.6656 46.3694C85.0718 46.3694 85.3986 46.4375 85.6457 46.5739C85.8957 46.7074 86.0889 46.8637 86.2253 47.0427C86.3645 47.2216 86.4724 47.3793 86.5491 47.5157H86.6258V44.2728H87.9V53H86.6557V51.9816H86.5491C86.4724 52.1208 86.3616 52.2799 86.2167 52.4589C86.0747 52.6378 85.8787 52.7941 85.6287 52.9276C85.3787 53.0611 85.0548 53.1279 84.6571 53.1279ZM84.9383 52.0412C85.3048 52.0412 85.6145 51.9446 85.8673 51.7515C86.123 51.5554 86.3162 51.2841 86.4468 50.9375C86.5804 50.591 86.6471 50.1875 86.6471 49.7273C86.6471 49.2728 86.5818 48.875 86.4511 48.5341C86.3204 48.1932 86.1287 47.9276 85.8758 47.7373C85.623 47.5469 85.3105 47.4517 84.9383 47.4517C84.5548 47.4517 84.2352 47.5512 83.9795 47.75C83.7238 47.9489 83.5307 48.2202 83.4 48.564C83.2721 48.9077 83.2082 49.2955 83.2082 49.7273C83.2082 50.1648 83.2736 50.5583 83.4042 50.9077C83.5349 51.2571 83.7281 51.5341 83.9838 51.7387C84.2423 51.9404 84.5605 52.0412 84.9383 52.0412Z" fill="#5F4CC8"/>
<path d="M92.4195 53.1321C91.7746 53.1321 91.2192 52.9944 90.7533 52.7188C90.2903 52.4404 89.9323 52.0498 89.6795 51.5469C89.4295 51.0412 89.3045 50.4489 89.3045 49.7699C89.3045 49.0995 89.4295 48.5086 89.6795 47.9972C89.9323 47.4858 90.2846 47.0867 90.7363 46.7998C91.1908 46.5128 91.7221 46.3694 92.33 46.3694C92.6994 46.3694 93.0573 46.4304 93.4039 46.5526C93.7505 46.6748 94.0616 46.8665 94.3371 47.1279C94.6127 47.3892 94.83 47.7287 94.9891 48.1464C95.1482 48.5611 95.2278 49.0654 95.2278 49.6591V50.1108H90.0246V49.1563H93.9792C93.9792 48.8211 93.911 48.5242 93.7746 48.2657C93.6383 48.0043 93.4465 47.7983 93.1994 47.6478C92.955 47.4972 92.6681 47.4219 92.3386 47.4219C91.9806 47.4219 91.6681 47.51 91.4011 47.6861C91.1369 47.8594 90.9323 48.0867 90.7874 48.3679C90.6454 48.6464 90.5744 48.9489 90.5744 49.2756V50.0214C90.5744 50.4589 90.6511 50.831 90.8045 51.1378C90.9607 51.4446 91.1781 51.679 91.4565 51.841C91.7349 52 92.0602 52.0796 92.4323 52.0796C92.6738 52.0796 92.894 52.0455 93.0928 51.9773C93.2917 51.9063 93.4636 51.8012 93.6085 51.662C93.7533 51.5228 93.8641 51.3509 93.9408 51.1464L95.1468 51.3637C95.0502 51.7188 94.8769 52.0299 94.6269 52.2969C94.3798 52.5611 94.0687 52.7671 93.6937 52.9148C93.3215 53.0597 92.8968 53.1321 92.4195 53.1321Z" fill="#5F4CC8"/>
<path d="M105.292 44.2728H106.613V50.0128C106.613 50.6236 106.469 51.1648 106.182 51.6364C105.895 52.1052 105.492 52.4745 104.972 52.7444C104.452 53.0114 103.843 53.1449 103.144 53.1449C102.448 53.1449 101.84 53.0114 101.32 52.7444C100.8 52.4745 100.397 52.1052 100.11 51.6364C99.823 51.1648 99.6795 50.6236 99.6795 50.0128V44.2728H100.996V49.9063C100.996 50.3012 101.083 50.652 101.256 50.9589C101.432 51.2657 101.681 51.5071 102.002 51.6833C102.323 51.8566 102.704 51.9432 103.144 51.9432C103.587 51.9432 103.969 51.8566 104.29 51.6833C104.614 51.5071 104.861 51.2657 105.032 50.9589C105.205 50.652 105.292 50.3012 105.292 49.9063V44.2728Z" fill="#5F4CC8"/>
<path d="M113.167 46.5654C113.122 46.162 112.934 45.8495 112.605 45.6279C112.275 45.4035 111.86 45.2912 111.36 45.2912C111.002 45.2912 110.693 45.3481 110.431 45.4617C110.17 45.5725 109.967 45.7259 109.822 45.9219C109.68 46.1151 109.609 46.3353 109.609 46.5824C109.609 46.7898 109.657 46.9688 109.754 47.1194C109.853 47.2699 109.982 47.3964 110.142 47.4986C110.303 47.5981 110.477 47.6819 110.661 47.75C110.846 47.8154 111.024 47.8694 111.194 47.912L112.046 48.1336C112.325 48.2017 112.61 48.2941 112.903 48.4106C113.196 48.527 113.467 48.6804 113.717 48.8708C113.967 49.0611 114.169 49.2969 114.322 49.5782C114.478 49.8594 114.556 50.1961 114.556 50.5881C114.556 51.0824 114.428 51.5214 114.173 51.9049C113.92 52.2884 113.552 52.591 113.069 52.8125C112.589 53.0341 112.008 53.1449 111.326 53.1449C110.673 53.1449 110.107 53.0412 109.63 52.8339C109.153 52.6265 108.779 52.3324 108.509 51.9517C108.24 51.5682 108.09 51.1137 108.062 50.5881H109.383C109.409 50.9035 109.511 51.1662 109.69 51.3765C109.872 51.5839 110.103 51.7387 110.384 51.841C110.669 51.9404 110.98 51.9901 111.318 51.9901C111.69 51.9901 112.021 51.9319 112.311 51.8154C112.603 51.6961 112.833 51.5313 113.001 51.3211C113.169 51.108 113.252 50.8594 113.252 50.5753C113.252 50.3168 113.178 50.1052 113.031 49.9404C112.886 49.7756 112.688 49.6392 112.438 49.5313C112.191 49.4233 111.911 49.3282 111.599 49.2458L110.568 48.9645C109.869 48.7742 109.315 48.4944 108.906 48.125C108.5 47.7557 108.296 47.2671 108.296 46.6591C108.296 46.1563 108.433 45.7174 108.705 45.3424C108.978 44.9674 109.348 44.6762 109.813 44.4688C110.279 44.2586 110.805 44.1535 111.39 44.1535C111.981 44.1535 112.502 44.2571 112.954 44.4645C113.409 44.6719 113.767 44.9574 114.028 45.3211C114.289 45.6819 114.426 46.0966 114.437 46.5654H113.167Z" fill="#5F4CC8"/>
<path d="M116.677 53H115.279L118.42 44.2728H119.941L123.082 53H121.684L119.217 45.858H119.148L116.677 53ZM116.911 49.5824H121.445V50.6904H116.911V49.5824Z" fill="#5F4CC8"/>
<path d="M170 63H16V65H170V63Z" fill="#5F4CC8" mask="url(#path-6-inside-2_3627_52135)"/>
<path d="M219.923 48.6364C219.923 49.5568 219.757 50.3523 219.425 51.0227C219.092 51.6932 218.636 52.2102 218.057 52.5739C217.477 52.9375 216.815 53.1193 216.071 53.1193C215.327 53.1193 214.665 52.9375 214.085 52.5739C213.506 52.2102 213.05 51.6932 212.717 51.0227C212.385 50.3523 212.219 49.5568 212.219 48.6364C212.219 47.7159 212.385 46.9205 212.717 46.25C213.05 45.5795 213.506 45.0625 214.085 44.6989C214.665 44.3352 215.327 44.1534 216.071 44.1534C216.815 44.1534 217.477 44.3352 218.057 44.6989C218.636 45.0625 219.092 45.5795 219.425 46.25C219.757 46.9205 219.923 47.7159 219.923 48.6364ZM218.901 48.6364C218.901 47.8807 218.774 47.2429 218.521 46.723C218.271 46.2031 217.932 45.8097 217.503 45.5426C217.077 45.2756 216.599 45.142 216.071 45.142C215.543 45.142 215.064 45.2756 214.635 45.5426C214.209 45.8097 213.869 46.2031 213.616 46.723C213.366 47.2429 213.241 47.8807 213.241 48.6364C213.241 49.392 213.366 50.0298 213.616 50.5497C213.869 51.0696 214.209 51.4631 214.635 51.7301C215.064 51.9972 215.543 52.1307 216.071 52.1307C216.599 52.1307 217.077 51.9972 217.503 51.7301C217.932 51.4631 218.271 51.0696 218.521 50.5497C218.774 50.0298 218.901 49.392 218.901 48.6364Z" fill="#8C94A6"/>
<path d="M225.569 50.3239V46.4545H226.575V53H225.569V51.892H225.501C225.347 52.2244 225.109 52.5071 224.785 52.7401C224.461 52.9702 224.052 53.0852 223.558 53.0852C223.148 53.0852 222.785 52.9957 222.467 52.8168C222.148 52.6349 221.898 52.3622 221.717 51.9986C221.535 51.6321 221.444 51.1705 221.444 50.6136V46.4545H222.45V50.5455C222.45 51.0227 222.583 51.4034 222.85 51.6875C223.12 51.9716 223.464 52.1136 223.881 52.1136C224.131 52.1136 224.386 52.0497 224.644 51.9219C224.906 51.794 225.124 51.598 225.3 51.3338C225.479 51.0696 225.569 50.733 225.569 50.3239Z" fill="#8C94A6"/>
<path d="M231.143 46.4545V47.3068H227.751V46.4545H231.143ZM228.74 44.8864H229.745V51.125C229.745 51.4091 229.787 51.6222 229.869 51.7642C229.954 51.9034 230.062 51.9972 230.193 52.0455C230.326 52.0909 230.467 52.1136 230.615 52.1136C230.726 52.1136 230.816 52.108 230.887 52.0966C230.959 52.0824 231.015 52.071 231.058 52.0625L231.262 52.9659C231.194 52.9915 231.099 53.017 230.977 53.0426C230.855 53.071 230.7 53.0852 230.512 53.0852C230.228 53.0852 229.95 53.0241 229.677 52.902C229.407 52.7798 229.183 52.5938 229.004 52.3438C228.828 52.0938 228.74 51.7784 228.74 51.3977V44.8864Z" fill="#8C94A6"/>
<path d="M237.055 47.9205L236.152 48.1761C236.095 48.0256 236.011 47.8793 235.9 47.7372C235.792 47.5923 235.645 47.473 235.457 47.3793C235.27 47.2855 235.03 47.2386 234.737 47.2386C234.336 47.2386 234.003 47.331 233.736 47.5156C233.471 47.6974 233.339 47.929 233.339 48.2102C233.339 48.4602 233.43 48.6577 233.612 48.8026C233.794 48.9474 234.078 49.0682 234.464 49.1648L235.436 49.4034C236.021 49.5455 236.457 49.7628 236.744 50.0554C237.031 50.3452 237.174 50.7187 237.174 51.1761C237.174 51.5511 237.066 51.8864 236.851 52.1818C236.638 52.4773 236.339 52.7102 235.956 52.8807C235.572 53.0511 235.126 53.1364 234.618 53.1364C233.95 53.1364 233.397 52.9915 232.96 52.7017C232.522 52.4119 232.245 51.9886 232.129 51.4318L233.084 51.1932C233.174 51.5455 233.346 51.8097 233.599 51.9858C233.855 52.1619 234.189 52.25 234.601 52.25C235.069 52.25 235.441 52.1506 235.717 51.9517C235.995 51.75 236.135 51.5085 236.135 51.2273C236.135 51 236.055 50.8097 235.896 50.6562C235.737 50.5 235.493 50.3835 235.163 50.3068L234.072 50.0511C233.473 49.9091 233.032 49.6889 232.751 49.3906C232.473 49.0895 232.334 48.7131 232.334 48.2614C232.334 47.892 232.437 47.5653 232.645 47.2812C232.855 46.9972 233.14 46.7741 233.501 46.6122C233.865 46.4503 234.277 46.3693 234.737 46.3693C235.385 46.3693 235.893 46.5114 236.263 46.7955C236.635 47.0795 236.899 47.4545 237.055 47.9205Z" fill="#8C94A6"/>
<path d="M238.568 53V46.4545H239.574V53H238.568ZM239.08 45.3636C238.884 45.3636 238.715 45.2969 238.573 45.1634C238.433 45.0298 238.364 44.8693 238.364 44.6818C238.364 44.4943 238.433 44.3338 238.573 44.2003C238.715 44.0668 238.884 44 239.08 44C239.276 44 239.443 44.0668 239.583 44.2003C239.725 44.3338 239.796 44.4943 239.796 44.6818C239.796 44.8693 239.725 45.0298 239.583 45.1634C239.443 45.2969 239.276 45.3636 239.08 45.3636Z" fill="#8C94A6"/>
<path d="M243.768 53.1364C243.222 53.1364 242.741 52.9986 242.323 52.723C241.905 52.4446 241.579 52.0526 241.343 51.5469C241.107 51.0384 240.989 50.4375 240.989 49.7443C240.989 49.0568 241.107 48.4602 241.343 47.9545C241.579 47.4489 241.907 47.0582 242.327 46.7827C242.748 46.5071 243.233 46.3693 243.785 46.3693C244.211 46.3693 244.547 46.4403 244.795 46.5824C245.045 46.7216 245.235 46.8807 245.366 47.0597C245.499 47.2358 245.603 47.3807 245.677 47.4943H245.762V44.2727H246.768V53H245.796V51.9943H245.677C245.603 52.1136 245.498 52.2642 245.361 52.446C245.225 52.625 245.03 52.7855 244.777 52.9276C244.525 53.0668 244.188 53.1364 243.768 53.1364ZM243.904 52.233C244.307 52.233 244.648 52.1278 244.927 51.9176C245.205 51.7045 245.417 51.4105 245.562 51.0355C245.706 50.6577 245.779 50.2216 245.779 49.7273C245.779 49.2386 245.708 48.8111 245.566 48.4446C245.424 48.0753 245.214 47.7884 244.935 47.5838C244.657 47.3764 244.313 47.2727 243.904 47.2727C243.478 47.2727 243.123 47.3821 242.839 47.6009C242.557 47.8168 242.346 48.1108 242.204 48.483C242.064 48.8523 241.995 49.267 241.995 49.7273C241.995 50.1932 242.066 50.6165 242.208 50.9972C242.353 51.375 242.566 51.6761 242.847 51.9006C243.131 52.1222 243.483 52.233 243.904 52.233Z" fill="#8C94A6"/>
<path d="M251.373 53.1364C250.743 53.1364 250.199 52.9972 249.741 52.7188C249.287 52.4375 248.936 52.0455 248.689 51.5426C248.444 51.0369 248.322 50.4489 248.322 49.7784C248.322 49.108 248.444 48.517 248.689 48.0057C248.936 47.4915 249.28 47.0909 249.72 46.804C250.163 46.5142 250.68 46.3693 251.271 46.3693C251.612 46.3693 251.949 46.4261 252.281 46.5398C252.613 46.6534 252.916 46.8381 253.189 47.0938C253.461 47.3466 253.679 47.6818 253.841 48.0994C254.003 48.517 254.084 49.0312 254.084 49.642V50.0682H249.038V49.1989H253.061C253.061 48.8295 252.987 48.5 252.839 48.2102C252.694 47.9205 252.487 47.6918 252.217 47.5241C251.95 47.3565 251.635 47.2727 251.271 47.2727C250.871 47.2727 250.524 47.3722 250.231 47.571C249.942 47.767 249.719 48.0227 249.562 48.3381C249.406 48.6534 249.328 48.9915 249.328 49.3523V49.9318C249.328 50.4261 249.413 50.8452 249.584 51.1889C249.757 51.5298 249.997 51.7898 250.304 51.9688C250.611 52.1449 250.967 52.233 251.373 52.233C251.638 52.233 251.876 52.196 252.089 52.1222C252.305 52.0455 252.491 51.9318 252.648 51.7812C252.804 51.6278 252.925 51.4375 253.01 51.2102L253.981 51.483C253.879 51.8125 253.707 52.1023 253.466 52.3523C253.224 52.5994 252.926 52.7926 252.571 52.9318C252.216 53.0682 251.817 53.1364 251.373 53.1364Z" fill="#8C94A6"/>
<path d="M264.612 44.2727H265.669V50.0511C265.669 50.6477 265.528 51.1804 265.247 51.6491C264.969 52.1151 264.575 52.483 264.067 52.7528C263.558 53.0199 262.962 53.1534 262.277 53.1534C261.592 53.1534 260.996 53.0199 260.487 52.7528C259.979 52.483 259.584 52.1151 259.302 51.6491C259.024 51.1804 258.885 50.6477 258.885 50.0511V44.2727H259.942V49.9659C259.942 50.392 260.035 50.7713 260.223 51.1037C260.41 51.4332 260.677 51.6932 261.024 51.8835C261.373 52.071 261.791 52.1648 262.277 52.1648C262.763 52.1648 263.18 52.071 263.53 51.8835C263.879 51.6932 264.146 51.4332 264.331 51.1037C264.518 50.7713 264.612 50.392 264.612 49.9659V44.2727Z" fill="#8C94A6"/>
<path d="M272.432 46.4545C272.381 46.0227 272.174 45.6875 271.81 45.4489C271.446 45.2102 271 45.0909 270.472 45.0909C270.085 45.0909 269.747 45.1534 269.458 45.2784C269.171 45.4034 268.946 45.5753 268.784 45.794C268.625 46.0128 268.546 46.2614 268.546 46.5398C268.546 46.7727 268.601 46.973 268.712 47.1406C268.826 47.3054 268.97 47.4432 269.147 47.554C269.323 47.6619 269.507 47.7514 269.701 47.8224C269.894 47.8906 270.071 47.946 270.233 47.9886L271.12 48.2273C271.347 48.2869 271.6 48.3693 271.878 48.4744C272.159 48.5795 272.428 48.723 272.683 48.9048C272.942 49.0838 273.155 49.3139 273.323 49.5952C273.49 49.8764 273.574 50.2216 273.574 50.6307C273.574 51.1023 273.451 51.5284 273.203 51.9091C272.959 52.2898 272.601 52.5923 272.13 52.8168C271.661 53.0412 271.091 53.1534 270.421 53.1534C269.796 53.1534 269.255 53.0526 268.797 52.8509C268.343 52.6491 267.985 52.3679 267.723 52.0071C267.465 51.6463 267.318 51.2273 267.284 50.75H268.375C268.404 51.0795 268.514 51.3523 268.708 51.5682C268.904 51.7813 269.151 51.9403 269.449 52.0455C269.75 52.1477 270.074 52.1989 270.421 52.1989C270.824 52.1989 271.186 52.1335 271.507 52.0028C271.828 51.8693 272.083 51.6847 272.27 51.4489C272.458 51.2102 272.551 50.9318 272.551 50.6136C272.551 50.3239 272.47 50.0881 272.308 49.9062C272.147 49.7244 271.933 49.5767 271.669 49.4631C271.405 49.3494 271.12 49.25 270.813 49.1648L269.739 48.858C269.057 48.6619 268.517 48.3821 268.12 48.0185C267.722 47.6548 267.523 47.179 267.523 46.5909C267.523 46.1023 267.655 45.6761 267.919 45.3125C268.186 44.946 268.544 44.6619 268.993 44.4602C269.445 44.2557 269.949 44.1534 270.506 44.1534C271.068 44.1534 271.568 44.2543 272.006 44.456C272.443 44.6548 272.79 44.9276 273.046 45.2741C273.304 45.6207 273.441 46.0142 273.455 46.4545H272.432Z" fill="#8C94A6"/>
<path d="M275.55 53H274.442L277.646 44.2727H278.737L281.942 53H280.834L278.226 45.6534H278.158L275.55 53ZM275.959 49.5909H280.425V50.5284H275.959V49.5909Z" fill="#8C94A6"/>
<path d="M324 63H170V65H324V63Z" fill="#EEEEF0" mask="url(#path-9-inside-3_3627_52135)"/>
<path d="M340 63H324V65H340V63Z" fill="#EEEEF0" mask="url(#path-12-inside-4_3627_52135)"/>
<path d="M33.0547 109V100.273H36.0036C36.6882 100.273 37.2479 100.397 37.6825 100.644C38.12 100.888 38.4439 101.219 38.6541 101.637C38.8643 102.054 38.9695 102.52 38.9695 103.034C38.9695 103.549 38.8643 104.016 38.6541 104.436C38.4467 104.857 38.1257 105.192 37.6911 105.442C37.2564 105.689 36.6996 105.813 36.0206 105.813H33.907V104.875H35.9865C36.4553 104.875 36.8317 104.794 37.1158 104.632C37.3999 104.47 37.6058 104.252 37.7337 103.976C37.8643 103.698 37.9297 103.384 37.9297 103.034C37.9297 102.685 37.8643 102.372 37.7337 102.097C37.6058 101.821 37.3984 101.605 37.1115 101.449C36.8246 101.29 36.4439 101.21 35.9695 101.21H34.1115V109H33.0547Z" fill="black"/>
<path d="M42.3416 109.154C41.9269 109.154 41.5505 109.076 41.2124 108.919C40.8743 108.76 40.6059 108.531 40.407 108.233C40.2081 107.932 40.1087 107.568 40.1087 107.142C40.1087 106.767 40.1826 106.463 40.3303 106.23C40.478 105.995 40.6755 105.81 40.9226 105.676C41.1698 105.543 41.4425 105.443 41.7408 105.378C42.0419 105.31 42.3445 105.256 42.6485 105.216C43.0462 105.165 43.3686 105.127 43.6158 105.101C43.8658 105.073 44.0476 105.026 44.1613 104.96C44.2777 104.895 44.336 104.781 44.336 104.62V104.585C44.336 104.165 44.2209 103.838 43.9908 103.605C43.7635 103.372 43.4184 103.256 42.9553 103.256C42.4752 103.256 42.0988 103.361 41.826 103.571C41.5533 103.781 41.3615 104.006 41.2507 104.245L40.2962 103.904C40.4666 103.506 40.6939 103.196 40.978 102.975C41.2649 102.75 41.5774 102.594 41.9155 102.506C42.2564 102.415 42.5916 102.37 42.9212 102.37C43.1314 102.37 43.3729 102.395 43.6456 102.446C43.9212 102.495 44.1868 102.595 44.4425 102.749C44.701 102.902 44.9155 103.134 45.086 103.443C45.2564 103.753 45.3416 104.168 45.3416 104.688V109H44.336V108.114H44.2848C44.2166 108.256 44.103 108.408 43.9439 108.57C43.7848 108.732 43.5732 108.87 43.309 108.983C43.0448 109.097 42.7223 109.154 42.3416 109.154ZM42.4951 108.25C42.8928 108.25 43.228 108.172 43.5007 108.016C43.7763 107.86 43.9837 107.658 44.1229 107.411C44.2649 107.164 44.336 106.904 44.336 106.631V105.71C44.2934 105.762 44.1996 105.808 44.0547 105.851C43.9127 105.891 43.7479 105.926 43.5604 105.958C43.3757 105.986 43.1953 106.012 43.0192 106.034C42.8459 106.054 42.7053 106.071 42.5973 106.085C42.336 106.12 42.0916 106.175 41.8644 106.252C41.6399 106.326 41.4581 106.438 41.3189 106.588C41.1826 106.736 41.1144 106.938 41.1144 107.193C41.1144 107.543 41.2436 107.807 41.5022 107.986C41.7635 108.162 42.0945 108.25 42.4951 108.25Z" fill="black"/>
<path d="M47.4706 111.455C47.3001 111.455 47.1481 111.441 47.0146 111.412C46.8811 111.387 46.7888 111.361 46.7376 111.335L46.9933 110.449C47.2376 110.512 47.4535 110.534 47.641 110.517C47.8285 110.5 47.9947 110.416 48.1396 110.266C48.2873 110.118 48.4223 109.878 48.5444 109.546L48.7319 109.034L46.3115 102.455H47.4024L49.2092 107.671H49.2774L51.0842 102.455H52.1751L49.3967 109.955C49.2717 110.293 49.1169 110.573 48.9322 110.794C48.7476 111.019 48.5331 111.185 48.2888 111.293C48.0473 111.401 47.7746 111.455 47.4706 111.455Z" fill="black"/>
<path d="M53.3825 109V102.455H54.3541V103.477H54.4394C54.5757 103.128 54.7959 102.857 55.0999 102.664C55.4038 102.468 55.7689 102.37 56.195 102.37C56.6269 102.37 56.9862 102.468 57.2732 102.664C57.5629 102.857 57.7888 103.128 57.9507 103.477H58.0189C58.1865 103.139 58.4379 102.871 58.7732 102.672C59.1084 102.47 59.5104 102.37 59.9791 102.37C60.5644 102.37 61.0431 102.553 61.4152 102.919C61.7874 103.283 61.9735 103.85 61.9735 104.62V109H60.9678V104.62C60.9678 104.137 60.8357 103.791 60.5715 103.584C60.3073 103.377 59.9962 103.273 59.6382 103.273C59.178 103.273 58.8215 103.412 58.5686 103.691C58.3158 103.966 58.1894 104.316 58.1894 104.739V109H57.1666V104.517C57.1666 104.145 57.0459 103.845 56.8044 103.618C56.5629 103.388 56.2519 103.273 55.8712 103.273C55.6098 103.273 55.3655 103.343 55.1382 103.482C54.9138 103.621 54.732 103.814 54.5928 104.061C54.4564 104.306 54.3882 104.588 54.3882 104.909V109H53.3825Z" fill="black"/>
<path d="M66.4365 109.137C65.8059 109.137 65.2618 108.997 64.8044 108.719C64.3499 108.438 63.999 108.046 63.7519 107.543C63.5076 107.037 63.3854 106.449 63.3854 105.779C63.3854 105.108 63.5076 104.517 63.7519 104.006C63.999 103.492 64.3428 103.091 64.7831 102.804C65.2263 102.514 65.7434 102.37 66.3343 102.37C66.6752 102.37 67.0118 102.426 67.3442 102.54C67.6766 102.654 67.9792 102.838 68.2519 103.094C68.5246 103.347 68.7419 103.682 68.9039 104.1C69.0658 104.517 69.1468 105.031 69.1468 105.642V106.068H64.1013V105.199H68.124C68.124 104.83 68.0502 104.5 67.9025 104.21C67.7576 103.921 67.5502 103.692 67.2803 103.524C67.0133 103.357 66.6979 103.273 66.3343 103.273C65.9337 103.273 65.5871 103.372 65.2945 103.571C65.0047 103.767 64.7817 104.023 64.6255 104.338C64.4692 104.654 64.3911 104.992 64.3911 105.352V105.932C64.3911 106.426 64.4763 106.845 64.6468 107.189C64.8201 107.53 65.0601 107.79 65.3669 107.969C65.6738 108.145 66.0303 108.233 66.4365 108.233C66.7008 108.233 66.9394 108.196 67.1525 108.122C67.3684 108.046 67.5544 107.932 67.7107 107.781C67.8669 107.628 67.9877 107.438 68.0729 107.21L69.0445 107.483C68.9422 107.813 68.7704 108.102 68.5289 108.352C68.2874 108.6 67.9891 108.793 67.634 108.932C67.2789 109.068 66.8797 109.137 66.4365 109.137Z" fill="black"/>
<path d="M71.5623 105.063V109H70.5566V102.455H71.5282V103.477H71.6134C71.7668 103.145 71.9998 102.878 72.3123 102.676C72.6248 102.472 73.0282 102.37 73.5225 102.37C73.9657 102.37 74.3535 102.46 74.6859 102.642C75.0183 102.821 75.2768 103.094 75.4614 103.46C75.6461 103.824 75.7384 104.284 75.7384 104.841V109H74.7327V104.909C74.7327 104.395 74.5992 103.995 74.3322 103.708C74.0651 103.418 73.6987 103.273 73.2327 103.273C72.9117 103.273 72.6248 103.343 72.3719 103.482C72.1219 103.621 71.9245 103.824 71.7796 104.091C71.6347 104.358 71.5623 104.682 71.5623 105.063Z" fill="black"/>
<path d="M80.3027 102.455V103.307H76.9107V102.455H80.3027ZM77.8993 100.887H78.905V107.125C78.905 107.409 78.9462 107.622 79.0286 107.764C79.1138 107.904 79.2218 107.997 79.3524 108.046C79.486 108.091 79.6266 108.114 79.7743 108.114C79.8851 108.114 79.976 108.108 80.047 108.097C80.1181 108.083 80.1749 108.071 80.2175 108.063L80.422 108.966C80.3539 108.992 80.2587 109.017 80.1365 109.043C80.0144 109.071 79.8595 109.085 79.672 109.085C79.388 109.085 79.1095 109.024 78.8368 108.902C78.5669 108.78 78.3425 108.594 78.1635 108.344C77.9874 108.094 77.8993 107.779 77.8993 107.398V100.887Z" fill="black"/>
<path d="M92.0073 100.273V109H90.9846L86.2289 102.148H86.1437V109H85.0869V100.273H86.1096L90.8823 107.142H90.9676V100.273H92.0073Z" fill="black"/>
<path d="M96.61 109.137C95.9793 109.137 95.4353 108.997 94.9779 108.719C94.5233 108.438 94.1725 108.046 93.9253 107.543C93.681 107.037 93.5588 106.449 93.5588 105.779C93.5588 105.108 93.681 104.517 93.9253 104.006C94.1725 103.492 94.5162 103.091 94.9566 102.804C95.3998 102.514 95.9168 102.37 96.5077 102.37C96.8486 102.37 97.1853 102.426 97.5177 102.54C97.85 102.654 98.1526 102.838 98.4253 103.094C98.6981 103.347 98.9154 103.682 99.0773 104.1C99.2392 104.517 99.3202 105.031 99.3202 105.642V106.068H94.2748V105.199H98.2975C98.2975 104.83 98.2236 104.5 98.0759 104.21C97.931 103.921 97.7236 103.692 97.4537 103.524C97.1867 103.357 96.8713 103.273 96.5077 103.273C96.1071 103.273 95.7606 103.372 95.4679 103.571C95.1782 103.767 94.9552 104.023 94.7989 104.338C94.6427 104.654 94.5645 104.992 94.5645 105.352V105.932C94.5645 106.426 94.6498 106.845 94.8202 107.189C94.9935 107.53 95.2336 107.79 95.5404 107.969C95.8472 108.145 96.2037 108.233 96.61 108.233C96.8742 108.233 97.1128 108.196 97.3259 108.122C97.5418 108.046 97.7279 107.932 97.8841 107.781C98.0404 107.628 98.1611 107.438 98.2464 107.21L99.2179 107.483C99.1157 107.813 98.9438 108.102 98.7023 108.352C98.4608 108.6 98.1625 108.793 97.8074 108.932C97.4523 109.068 97.0532 109.137 96.61 109.137Z" fill="black"/>
<path d="M103.577 102.455V103.307H100.185V102.455H103.577ZM101.173 100.887H102.179V107.125C102.179 107.409 102.22 107.622 102.302 107.764C102.388 107.904 102.496 107.997 102.626 108.046C102.76 108.091 102.901 108.114 103.048 108.114C103.159 108.114 103.25 108.108 103.321 108.097C103.392 108.083 103.449 108.071 103.491 108.063L103.696 108.966C103.628 108.992 103.533 109.017 103.41 109.043C103.288 109.071 103.133 109.085 102.946 109.085C102.662 109.085 102.383 109.024 102.111 108.902C101.841 108.78 101.616 108.594 101.437 108.344C101.261 108.094 101.173 107.779 101.173 107.398V100.887Z" fill="black"/>
<path d="M106.452 109L104.458 102.455H105.515L106.93 107.466H106.998L108.396 102.455H109.469L110.85 107.449H110.918L112.333 102.455H113.39L111.396 109H110.407L108.975 103.972H108.873L107.441 109H106.452Z" fill="black"/>
<path d="M117.036 109.137C116.445 109.137 115.926 108.996 115.48 108.715C115.037 108.433 114.691 108.04 114.441 107.534C114.194 107.029 114.07 106.438 114.07 105.762C114.07 105.08 114.194 104.485 114.441 103.976C114.691 103.468 115.037 103.073 115.48 102.791C115.926 102.51 116.445 102.37 117.036 102.37C117.627 102.37 118.144 102.51 118.587 102.791C119.033 103.073 119.38 103.468 119.627 103.976C119.877 104.485 120.002 105.08 120.002 105.762C120.002 106.438 119.877 107.029 119.627 107.534C119.38 108.04 119.033 108.433 118.587 108.715C118.144 108.996 117.627 109.137 117.036 109.137ZM117.036 108.233C117.485 108.233 117.854 108.118 118.144 107.888C118.434 107.658 118.648 107.355 118.787 106.98C118.926 106.605 118.996 106.199 118.996 105.762C118.996 105.324 118.926 104.916 118.787 104.539C118.648 104.161 118.434 103.855 118.144 103.622C117.854 103.389 117.485 103.273 117.036 103.273C116.587 103.273 116.218 103.389 115.928 103.622C115.638 103.855 115.424 104.161 115.284 104.539C115.145 104.916 115.076 105.324 115.076 105.762C115.076 106.199 115.145 106.605 115.284 106.98C115.424 107.355 115.638 107.658 115.928 107.888C116.218 108.118 116.587 108.233 117.036 108.233Z" fill="black"/>
<path d="M121.417 109V102.455H122.389V103.443H122.457C122.576 103.12 122.792 102.857 123.104 102.655C123.417 102.453 123.769 102.352 124.161 102.352C124.235 102.352 124.327 102.354 124.438 102.357C124.549 102.36 124.633 102.364 124.69 102.37V103.392C124.656 103.384 124.577 103.371 124.455 103.354C124.336 103.334 124.21 103.324 124.076 103.324C123.758 103.324 123.474 103.391 123.224 103.524C122.977 103.655 122.781 103.837 122.636 104.07C122.494 104.3 122.423 104.563 122.423 104.858V109H121.417Z" fill="black"/>
<path d="M126.699 106.614L126.682 105.37H126.887L129.75 102.455H130.995L127.944 105.54H127.858L126.699 106.614ZM125.762 109V100.273H126.767V109H125.762ZM129.921 109L127.364 105.762L128.08 105.063L131.199 109H129.921Z" fill="black"/>
<path d="M142.563 107.438C142.563 107.549 142.53 107.658 142.468 107.75C142.406 107.843 142.318 107.915 142.215 107.957C142.112 108 141.999 108.011 141.89 107.989C141.781 107.967 141.681 107.914 141.602 107.835C141.524 107.757 141.47 107.656 141.448 107.547C141.427 107.438 141.438 107.325 141.48 107.222C141.523 107.119 141.595 107.032 141.687 106.97C141.78 106.908 141.889 106.875 142 106.875C142.149 106.875 142.292 106.934 142.398 107.04C142.503 107.145 142.563 107.288 142.563 107.438ZM142 102.375C140.966 102.375 140.125 103.132 140.125 104.062V104.25C140.125 104.349 140.165 104.445 140.235 104.515C140.305 104.585 140.401 104.625 140.5 104.625C140.599 104.625 140.695 104.585 140.765 104.515C140.835 104.445 140.875 104.349 140.875 104.25V104.062C140.875 103.547 141.38 103.125 142 103.125C142.62 103.125 143.125 103.547 143.125 104.062C143.125 104.578 142.62 105 142 105C141.901 105 141.805 105.04 141.735 105.11C141.665 105.18 141.625 105.276 141.625 105.375V105.75C141.625 105.849 141.665 105.945 141.735 106.015C141.805 106.085 141.901 106.125 142 106.125C142.099 106.125 142.195 106.085 142.265 106.015C142.335 105.945 142.375 105.849 142.375 105.75V105.716C143.23 105.559 143.875 104.877 143.875 104.062C143.875 103.132 143.034 102.375 142 102.375ZM146.875 105C146.875 105.964 146.589 106.907 146.053 107.708C145.518 108.51 144.756 109.135 143.866 109.504C142.975 109.873 141.995 109.969 141.049 109.781C140.103 109.593 139.235 109.129 138.553 108.447C137.871 107.765 137.407 106.897 137.219 105.951C137.031 105.005 137.127 104.025 137.496 103.134C137.865 102.244 138.49 101.482 139.292 100.947C140.093 100.411 141.036 100.125 142 100.125C143.293 100.126 144.532 100.64 145.446 101.554C146.36 102.468 146.874 103.707 146.875 105ZM146.125 105C146.125 104.184 145.883 103.387 145.43 102.708C144.977 102.03 144.332 101.501 143.579 101.189C142.825 100.877 141.995 100.795 141.195 100.954C140.395 101.113 139.66 101.506 139.083 102.083C138.506 102.66 138.113 103.395 137.954 104.195C137.795 104.995 137.877 105.825 138.189 106.579C138.501 107.332 139.03 107.977 139.708 108.43C140.387 108.883 141.184 109.125 142 109.125C143.094 109.124 144.142 108.689 144.915 107.915C145.689 107.142 146.124 106.094 146.125 105Z" fill="#8C94A6"/>
<path fill-rule="evenodd" clip-rule="evenodd" d="M308 166L32 166L32 165L308 165L308 166Z" fill="#EEEEF0"/>
<rect x="32" y="126" width="32" height="22" rx="2" fill="#F5F6F8"/>
<g clip-path="url(#clip0_3627_52135)">
<path fill-rule="evenodd" clip-rule="evenodd" d="M42.7031 143.5V137.424H47.8551V138.824H44.3705V139.774H47.7718V141.15H44.3705V142.084H47.8551V143.5H42.7031Z" fill="#016FD0"/>
<path fill-rule="evenodd" clip-rule="evenodd" d="M47.8281 143.5L50.6788 140.458L47.8281 137.424H50.034L51.7763 139.35L53.5234 137.424H55.6351V137.471L52.8448 140.458L55.6351 143.414V143.5H53.5017L51.7292 141.555L49.9749 143.5H47.8281Z" fill="#016FD0"/>
<path fill-rule="evenodd" clip-rule="evenodd" d="M43.0555 130.5L40.3594 136.572H42.2091L42.7174 135.356H45.4739L45.9822 136.572H47.8778L45.1926 130.5H43.0555ZM43.2873 133.993L44.0963 132.06L44.904 133.993H43.2873Z" fill="#016FD0"/>
<path fill-rule="evenodd" clip-rule="evenodd" d="M47.8516 136.572V130.5L50.4511 130.508L51.7889 134.242L53.1351 130.5H55.6368V136.572L54.0274 136.585V132.415L52.5073 136.572H51.0379L49.4876 132.4V136.572H47.8516Z" fill="#016FD0"/>
</g>
<path d="M71.9822 142H70.3516L74.0156 131.818H75.7905L79.4545 142H77.8239L74.9453 133.668H74.8658L71.9822 142ZM72.2557 138.013H77.5455V139.306H72.2557V138.013Z" fill="#1A1A21"/>
<path d="M80.6656 142V134.364H82.0924V135.607H82.1869C82.346 135.186 82.6062 134.858 82.9674 134.622C83.3287 134.384 83.7612 134.264 84.265 134.264C84.7754 134.264 85.203 134.384 85.5477 134.622C85.8957 134.861 86.1526 135.189 86.3183 135.607H86.3978C86.5801 135.199 86.8701 134.874 87.2678 134.632C87.6656 134.387 88.1395 134.264 88.6897 134.264C89.3824 134.264 89.9475 134.481 90.385 134.916C90.8259 135.35 91.0463 136.004 91.0463 136.879V142H89.5598V137.019C89.5598 136.502 89.4189 136.127 89.1372 135.895C88.8554 135.663 88.519 135.547 88.1279 135.547C87.644 135.547 87.2678 135.696 86.9994 135.994C86.7309 136.289 86.5967 136.669 86.5967 137.133V142H85.1151V136.924C85.1151 136.51 84.9859 136.177 84.7274 135.925C84.4688 135.673 84.1324 135.547 83.7181 135.547C83.4364 135.547 83.1762 135.622 82.9376 135.771C82.7023 135.917 82.5117 136.12 82.3659 136.382C82.2233 136.644 82.1521 136.947 82.1521 137.292V142H80.6656Z" fill="#1A1A21"/>
<path d="M96.1898 142.154C95.4374 142.154 94.7895 141.994 94.2459 141.672C93.7057 141.347 93.2881 140.891 92.9931 140.305C92.7014 139.715 92.5556 139.024 92.5556 138.232C92.5556 137.449 92.7014 136.76 92.9931 136.163C93.2881 135.567 93.699 135.101 94.226 134.766C94.7563 134.432 95.3761 134.264 96.0854 134.264C96.5163 134.264 96.9339 134.336 97.3383 134.478C97.7426 134.621 98.1055 134.844 98.427 135.149C98.7485 135.454 99.0021 135.85 99.1877 136.337C99.3733 136.821 99.4661 137.41 99.4661 138.102V138.629H93.3958V137.516H98.0094C98.0094 137.125 97.9299 136.778 97.7708 136.477C97.6117 136.172 97.388 135.931 97.0996 135.756C96.8146 135.58 96.4798 135.492 96.0954 135.492C95.6777 135.492 95.3132 135.595 95.0016 135.801C94.6934 136.003 94.4547 136.268 94.2857 136.596C94.12 136.921 94.0371 137.274 94.0371 137.655V138.525C94.0371 139.035 94.1266 139.47 94.3056 139.828C94.4879 140.186 94.7414 140.459 95.0662 140.648C95.391 140.833 95.7705 140.926 96.2047 140.926C96.4865 140.926 96.7433 140.886 96.9753 140.807C97.2073 140.724 97.4079 140.601 97.5769 140.439C97.7459 140.277 97.8752 140.076 97.9647 139.837L99.3716 140.091C99.2589 140.505 99.0568 140.868 98.7651 141.18C98.4767 141.488 98.1138 141.728 97.6763 141.901C97.2421 142.07 96.7466 142.154 96.1898 142.154Z" fill="#1A1A21"/>
<path d="M100.975 142V134.364H102.412V135.577H102.492C102.631 135.166 102.876 134.843 103.228 134.607C103.582 134.369 103.983 134.249 104.431 134.249C104.523 134.249 104.633 134.253 104.759 134.259C104.888 134.266 104.989 134.274 105.062 134.284V135.706C105.002 135.69 104.896 135.671 104.744 135.651C104.591 135.628 104.439 135.617 104.286 135.617C103.935 135.617 103.622 135.691 103.347 135.84C103.075 135.986 102.86 136.19 102.701 136.452C102.541 136.71 102.462 137.005 102.462 137.337V142H100.975Z" fill="#1A1A21"/>
<path d="M106.208 142V134.364H107.695V142H106.208ZM106.959 133.186C106.701 133.186 106.479 133.099 106.293 132.927C106.111 132.751 106.02 132.543 106.02 132.301C106.02 132.055 106.111 131.846 106.293 131.674C106.479 131.498 106.701 131.411 106.959 131.411C107.218 131.411 107.438 131.498 107.62 131.674C107.806 131.846 107.899 132.055 107.899 132.301C107.899 132.543 107.806 132.751 107.62 132.927C107.438 133.099 107.218 133.186 106.959 133.186Z" fill="#1A1A21"/>
<path d="M112.771 142.154C112.032 142.154 111.396 141.987 110.862 141.652C110.332 141.314 109.924 140.848 109.639 140.255C109.354 139.662 109.212 138.982 109.212 138.217C109.212 137.441 109.358 136.757 109.649 136.163C109.941 135.567 110.352 135.101 110.882 134.766C111.413 134.432 112.037 134.264 112.756 134.264C113.337 134.264 113.854 134.372 114.308 134.587C114.762 134.8 115.128 135.098 115.406 135.482C115.688 135.867 115.855 136.316 115.908 136.83H114.462C114.382 136.472 114.2 136.163 113.915 135.905C113.633 135.646 113.255 135.517 112.781 135.517C112.367 135.517 112.004 135.627 111.693 135.845C111.384 136.061 111.144 136.369 110.972 136.77C110.799 137.168 110.713 137.638 110.713 138.182C110.713 138.739 110.798 139.219 110.967 139.624C111.136 140.028 111.374 140.341 111.683 140.563C111.994 140.785 112.36 140.896 112.781 140.896C113.063 140.896 113.318 140.845 113.547 140.742C113.779 140.636 113.973 140.485 114.129 140.29C114.288 140.094 114.399 139.859 114.462 139.584H115.908C115.855 140.078 115.695 140.519 115.426 140.906C115.158 141.294 114.798 141.599 114.347 141.821C113.9 142.043 113.375 142.154 112.771 142.154Z" fill="#1A1A21"/>
<path d="M119.58 142.169C119.097 142.169 118.659 142.08 118.268 141.901C117.877 141.718 117.567 141.455 117.338 141.11C117.113 140.766 117 140.343 117 139.842C117 139.412 117.083 139.057 117.249 138.779C117.414 138.5 117.638 138.28 117.92 138.117C118.202 137.955 118.517 137.832 118.865 137.749C119.213 137.667 119.567 137.604 119.928 137.561C120.386 137.507 120.757 137.464 121.042 137.431C121.327 137.395 121.534 137.337 121.664 137.257C121.793 137.178 121.857 137.048 121.857 136.869V136.835C121.857 136.4 121.735 136.064 121.49 135.825C121.248 135.587 120.886 135.467 120.406 135.467C119.905 135.467 119.511 135.578 119.222 135.801C118.937 136.019 118.74 136.263 118.631 136.531L117.234 136.213C117.4 135.749 117.642 135.375 117.96 135.09C118.281 134.801 118.651 134.592 119.068 134.463C119.486 134.331 119.925 134.264 120.386 134.264C120.691 134.264 121.014 134.301 121.355 134.374C121.7 134.443 122.022 134.573 122.32 134.761C122.621 134.95 122.868 135.221 123.061 135.572C123.253 135.92 123.349 136.372 123.349 136.929V142H121.897V140.956H121.838C121.741 141.148 121.597 141.337 121.405 141.523C121.213 141.708 120.966 141.863 120.664 141.985C120.363 142.108 120.001 142.169 119.58 142.169ZM119.904 140.976C120.315 140.976 120.666 140.895 120.958 140.732C121.253 140.57 121.476 140.358 121.629 140.096C121.785 139.831 121.862 139.547 121.862 139.246V138.261C121.809 138.315 121.707 138.364 121.554 138.411C121.405 138.454 121.234 138.492 121.042 138.525C120.85 138.555 120.663 138.583 120.48 138.61C120.298 138.633 120.146 138.653 120.023 138.669C119.735 138.706 119.471 138.767 119.232 138.853C118.997 138.939 118.808 139.064 118.666 139.226C118.526 139.385 118.457 139.597 118.457 139.862C118.457 140.23 118.593 140.509 118.865 140.698C119.136 140.883 119.483 140.976 119.904 140.976Z" fill="#1A1A21"/>
<path d="M126.675 137.466V142H125.189V134.364H126.616V135.607H126.71C126.886 135.202 127.161 134.878 127.535 134.632C127.913 134.387 128.389 134.264 128.962 134.264C129.483 134.264 129.938 134.374 130.329 134.592C130.721 134.808 131.024 135.129 131.239 135.557C131.455 135.985 131.562 136.513 131.562 137.143V142H130.076V137.322C130.076 136.768 129.932 136.336 129.643 136.024C129.355 135.709 128.959 135.552 128.455 135.552C128.11 135.552 127.804 135.627 127.535 135.776C127.27 135.925 127.06 136.144 126.904 136.432C126.752 136.717 126.675 137.062 126.675 137.466Z" fill="#1A1A21"/>
<path d="M137.1 142V131.818H143.484V133.141H138.637V136.243H143.151V137.561H138.637V140.678H143.544V142H137.1Z" fill="#1A1A21"/>
<path d="M146.45 134.364L148.135 137.337L149.836 134.364H151.461L149.08 138.182L151.481 142H149.855L148.135 139.146L146.42 142H144.789L147.166 138.182L144.819 134.364H146.45Z" fill="#1A1A21"/>
<path d="M152.848 144.864V134.364H154.299V135.602H154.424C154.51 135.443 154.634 135.259 154.796 135.05C154.959 134.841 155.184 134.659 155.473 134.503C155.761 134.344 156.142 134.264 156.616 134.264C157.233 134.264 157.783 134.42 158.267 134.732C158.751 135.043 159.13 135.492 159.405 136.079C159.684 136.666 159.823 137.372 159.823 138.197C159.823 139.022 159.685 139.73 159.41 140.32C159.135 140.906 158.757 141.359 158.277 141.677C157.796 141.992 157.247 142.149 156.631 142.149C156.167 142.149 155.787 142.071 155.492 141.916C155.201 141.76 154.972 141.578 154.806 141.369C154.641 141.16 154.513 140.974 154.424 140.812H154.334V144.864H152.848ZM154.304 138.182C154.304 138.719 154.382 139.19 154.538 139.594C154.694 139.998 154.919 140.315 155.214 140.543C155.509 140.769 155.87 140.882 156.298 140.882C156.742 140.882 157.113 140.764 157.412 140.529C157.71 140.29 157.935 139.967 158.088 139.559C158.243 139.151 158.321 138.692 158.321 138.182C158.321 137.678 158.245 137.226 158.093 136.825C157.943 136.424 157.718 136.107 157.416 135.875C157.118 135.643 156.745 135.527 156.298 135.527C155.867 135.527 155.502 135.638 155.204 135.86C154.909 136.082 154.685 136.392 154.533 136.79C154.381 137.188 154.304 137.652 154.304 138.182Z" fill="#1A1A21"/>
<path d="M161.348 142V134.364H162.785V135.577H162.865C163.004 135.166 163.249 134.843 163.6 134.607C163.955 134.369 164.356 134.249 164.803 134.249C164.896 134.249 165.006 134.253 165.132 134.259C165.261 134.266 165.362 134.274 165.435 134.284V135.706C165.375 135.69 165.269 135.671 165.117 135.651C164.964 135.628 164.812 135.617 164.659 135.617C164.308 135.617 163.995 135.691 163.72 135.84C163.448 135.986 163.232 136.19 163.073 136.452C162.914 136.71 162.835 137.005 162.835 137.337V142H161.348Z" fill="#1A1A21"/>
<path d="M169.599 142.154C168.847 142.154 168.199 141.994 167.655 141.672C167.115 141.347 166.697 140.891 166.402 140.305C166.111 139.715 165.965 139.024 165.965 138.232C165.965 137.449 166.111 136.76 166.402 136.163C166.697 135.567 167.108 135.101 167.635 134.766C168.166 134.432 168.785 134.264 169.495 134.264C169.925 134.264 170.343 134.336 170.747 134.478C171.152 134.621 171.515 134.844 171.836 135.149C172.158 135.454 172.411 135.85 172.597 136.337C172.783 136.821 172.875 137.41 172.875 138.102V138.629H166.805V137.516H171.419C171.419 137.125 171.339 136.778 171.18 136.477C171.021 136.172 170.797 135.931 170.509 135.756C170.224 135.58 169.889 135.492 169.505 135.492C169.087 135.492 168.722 135.595 168.411 135.801C168.103 136.003 167.864 136.268 167.695 136.596C167.529 136.921 167.446 137.274 167.446 137.655V138.525C167.446 139.035 167.536 139.47 167.715 139.828C167.897 140.186 168.151 140.459 168.475 140.648C168.8 140.833 169.18 140.926 169.614 140.926C169.896 140.926 170.153 140.886 170.385 140.807C170.617 140.724 170.817 140.601 170.986 140.439C171.155 140.277 171.284 140.076 171.374 139.837L172.781 140.091C172.668 140.505 172.466 140.868 172.174 141.18C171.886 141.488 171.523 141.728 171.086 141.901C170.651 142.07 170.156 142.154 169.599 142.154Z" fill="#1A1A21"/>
<path d="M180.107 136.228L178.76 136.467C178.703 136.294 178.614 136.13 178.491 135.975C178.372 135.819 178.209 135.691 178.004 135.592C177.798 135.492 177.542 135.443 177.233 135.443C176.812 135.443 176.461 135.537 176.179 135.726C175.898 135.912 175.757 136.152 175.757 136.447C175.757 136.702 175.851 136.908 176.04 137.063C176.229 137.219 176.534 137.347 176.955 137.446L178.168 137.725C178.871 137.887 179.394 138.137 179.739 138.475C180.084 138.813 180.256 139.253 180.256 139.793C180.256 140.25 180.124 140.658 179.858 141.016C179.597 141.37 179.23 141.649 178.76 141.851C178.292 142.053 177.75 142.154 177.134 142.154C176.279 142.154 175.581 141.972 175.041 141.607C174.501 141.239 174.169 140.717 174.047 140.041L175.483 139.823C175.573 140.197 175.757 140.48 176.035 140.673C176.314 140.862 176.677 140.956 177.124 140.956C177.611 140.956 178.001 140.855 178.292 140.653C178.584 140.447 178.73 140.197 178.73 139.902C178.73 139.663 178.64 139.463 178.461 139.301C178.286 139.138 178.016 139.016 177.651 138.933L176.358 138.649C175.646 138.487 175.119 138.228 174.777 137.874C174.439 137.519 174.27 137.07 174.27 136.526C174.27 136.076 174.396 135.681 174.648 135.343C174.9 135.005 175.248 134.742 175.692 134.553C176.136 134.36 176.645 134.264 177.218 134.264C178.044 134.264 178.693 134.443 179.167 134.801C179.641 135.156 179.954 135.632 180.107 136.228Z" fill="#1A1A21"/>
<path d="M187.473 136.228L186.125 136.467C186.069 136.294 185.98 136.13 185.857 135.975C185.738 135.819 185.575 135.691 185.37 135.592C185.164 135.492 184.907 135.443 184.599 135.443C184.178 135.443 183.827 135.537 183.545 135.726C183.264 135.912 183.123 136.152 183.123 136.447C183.123 136.702 183.217 136.908 183.406 137.063C183.595 137.219 183.9 137.347 184.321 137.446L185.534 137.725C186.237 137.887 186.76 138.137 187.105 138.475C187.45 138.813 187.622 139.253 187.622 139.793C187.622 140.25 187.489 140.658 187.224 141.016C186.962 141.37 186.596 141.649 186.125 141.851C185.658 142.053 185.116 142.154 184.5 142.154C183.645 142.154 182.947 141.972 182.407 141.607C181.867 141.239 181.535 140.717 181.412 140.041L182.849 139.823C182.939 140.197 183.123 140.48 183.401 140.673C183.679 140.862 184.042 140.956 184.49 140.956C184.977 140.956 185.367 140.855 185.658 140.653C185.95 140.447 186.096 140.197 186.096 139.902C186.096 139.663 186.006 139.463 185.827 139.301C185.652 139.138 185.381 139.016 185.017 138.933L183.724 138.649C183.012 138.487 182.485 138.228 182.143 137.874C181.805 137.519 181.636 137.07 181.636 136.526C181.636 136.076 181.762 135.681 182.014 135.343C182.266 135.005 182.614 134.742 183.058 134.553C183.502 134.36 184.011 134.264 184.584 134.264C185.41 134.264 186.059 134.443 186.533 134.801C187.007 135.156 187.32 135.632 187.473 136.228Z" fill="#1A1A21"/>
<path d="M15 88C15 83.0294 19.0294 79 24 79H316C320.971 79 325 83.0294 325 88H323C323 84.134 319.866 81 316 81H24C20.134 81 17 84.134 17 88H15ZM324 182H16H324ZM15 182V88C15 83.0294 19.0294 79 24 79V81C20.134 81 17 84.134 17 88V182H15ZM316 79C320.971 79 325 83.0294 325 88V182H323V88C323 84.134 319.866 81 316 81V79Z" fill="#EEEEF0" mask="url(#path-14-inside-5_3627_52135)"/>
<defs>
<clipPath id="clip0_3627_52135">
<rect width="15.2771" height="13" fill="white" transform="translate(40.3594 130.5)"/>
</clipPath>
</defs>
</svg>
