<svg xmlns="http://www.w3.org/2000/svg" width="768" height="554" fill="none" viewBox="0 0 768 554"><g clip-path="url(#clip0_119_13590)"><mask id="mask0_119_13590" style="mask-type:luminance" width="768" height="554" x="0" y="0" maskUnits="userSpaceOnUse"><path fill="#fff" d="M752 0H16C7.16344 0 0 7.16344 0 16V538C0 546.837 7.16344 554 16 554H752C760.837 554 768 546.837 768 538V16C768 7.16344 760.837 0 752 0Z"/></mask><g mask="url(#mask0_119_13590)"><path fill="#E8E4FE" d="M752 0H16C7.16344 0 0 7.16344 0 16V538C0 546.837 7.16344 554 16 554H752C760.837 554 768 546.837 768 538V16C768 7.16344 760.837 0 752 0Z"/><path fill="#B6AAF9" d="M761.672 214.958L167.474 33.3116C144.646 26.422 123.203 47.1372 129.338 70.0334L189.216 293.5C193.295 308.726 193.338 324.911 188.24 339.774C183.47 353.568 175.071 365.266 164.294 374.043C156.125 380.649 146.519 385.555 136.216 388.315L-59.8902 440.862C-76.032 445.187 -85.6697 461.88 -81.3445 478.022L59.9755 1005.44C64.3007 1021.58 80.9937 1031.21 97.1355 1026.89L326.556 965.417C342.697 961.092 352.366 944.513 348.01 928.257C315.84 808.655 211.492 419.679 211.492 419.679C209.038 410.521 210.11 400.786 214.368 392.406C219.547 382.429 228.372 375.524 238.675 372.763C245.43 370.954 252.675 370.975 259.869 373.097L780.581 532.348C801.965 538.888 809.143 565.676 793.894 582.033L393.398 1011.56C387.664 1017.63 385.567 1026.29 387.714 1034.31L460.936 1307.57C467.071 1330.47 496.144 1337.77 512.323 1320.31L936.09 865.897C941.71 859.851 943.921 851.16 941.774 843.147L854.35 516.876L778 231.933C775.822 223.805 769.706 217.468 761.672 214.958Z" opacity=".4"/></g></g><defs><clipPath id="clip0_119_13590"><rect width="768" height="554" fill="#fff"/></clipPath></defs></svg>