<svg width="768" height="554" viewBox="0 0 768 554" fill="none" xmlns="http://www.w3.org/2000/svg">
<g clip-path="url(#clip0_120_13803)">
<mask id="mask0_120_13803" style="mask-type:luminance" maskUnits="userSpaceOnUse" x="0" y="0" width="768" height="554">
<path d="M752 0H16C7.16344 0 0 7.16344 0 16V538C0 546.837 7.16344 554 16 554H752C760.837 554 768 546.837 768 538V16C768 7.16344 760.837 0 752 0Z" fill="white"/>
</mask>
<g mask="url(#mask0_120_13803)">
<path d="M752 0H16C7.16344 0 0 7.16344 0 16V538C0 546.837 7.16344 554 16 554H752C760.837 554 768 546.837 768 538V16C768 7.16344 760.837 0 752 0Z" fill="#DFFBEE"/>
<path opacity="0.4" d="M-154.142 101.539L137.575 650.144C148.845 671.158 178.656 671.672 190.508 651.144L306.183 450.789C314.065 437.138 325.479 425.664 339.593 418.758C352.72 412.378 366.931 410.045 380.758 411.459C391.205 412.564 401.466 415.888 410.704 421.221L586.528 522.733C601 531.089 619.619 526.1 627.974 511.628L900.984 38.7613C909.339 24.289 904.351 5.67035 889.878 -2.68527L684.186 -121.441C669.714 -129.797 651.154 -124.911 642.739 -110.336C580.916 -3.01721 379.654 345.816 379.654 345.816C374.913 354.027 367.271 360.153 358.335 363.068C347.617 366.46 336.495 365.102 327.257 359.769C321.202 356.272 316.094 351.134 312.507 344.546L56.9153 -136.26C46.4188 -156.005 60.2856 -180.023 82.634 -180.806L669.547 -201.331C677.898 -201.573 685.504 -206.214 689.653 -213.399L831.105 -458.403C842.957 -478.931 827.563 -504.652 803.773 -503.744L182.808 -482.076C174.56 -481.775 166.851 -477.193 162.703 -470.008L-6.18761 -177.482L-153.685 77.9907C-157.892 85.2782 -158.049 94.0833 -154.142 101.539Z" fill="#93E9C1"/>
</g>
</g>
<defs>
<clipPath id="clip0_120_13803">
<rect width="768" height="554" fill="white"/>
</clipPath>
</defs>
</svg>
