<svg xmlns="http://www.w3.org/2000/svg" width="768" height="554" fill="none" viewBox="0 0 768 554"><g clip-path="url(#clip0_120_14279)"><mask id="mask0_120_14279" style="mask-type:luminance" width="768" height="554" x="0" y="0" maskUnits="userSpaceOnUse"><path fill="#fff" d="M752 0H16C7.16344 0 0 7.16344 0 16V538C0 546.837 7.16344 554 16 554H752C760.837 554 768 546.837 768 538V16C768 7.16344 760.837 0 752 0Z"/></mask><g mask="url(#mask0_120_14279)"><path fill="#FED5C8" d="M752 0H16C7.16344 0 0 7.16344 0 16V538C0 546.837 7.16344 554 16 554H752C760.837 554 768 546.837 768 538V16C768 7.16344 760.837 0 752 0Z"/><path fill="#FDAC91" d="M-134.017 537.08L157.7 1085.68C168.97 1106.7 198.781 1107.21 210.633 1086.68L326.308 886.33C334.19 872.679 345.604 861.204 359.718 854.299C372.845 847.919 387.056 845.586 400.883 847C411.33 848.105 421.591 851.429 430.829 856.762L606.653 958.274C621.125 966.629 639.744 961.641 648.099 947.168L921.109 474.302C929.464 459.83 924.476 441.211 910.003 432.855L704.311 314.099C689.839 305.743 671.279 310.63 662.864 325.205C601.041 432.524 399.779 781.356 399.779 781.356C395.038 789.568 387.396 795.693 378.46 798.608C367.742 802 356.62 800.642 347.382 795.309C341.327 791.813 336.219 786.674 332.632 780.087L77.0403 299.281C66.5438 279.535 80.4106 255.517 102.759 254.735L689.672 234.209C698.023 233.967 705.629 229.326 709.778 222.141L851.23 -22.8622C863.082 -43.3904 847.688 -69.1116 823.898 -68.2032L202.933 -46.5356C194.685 -46.2343 186.976 -41.6526 182.828 -34.4678L13.9374 258.058L-133.56 513.531C-137.767 520.819 -137.924 529.624 -134.017 537.08Z" opacity=".4"/></g></g><defs><clipPath id="clip0_120_14279"><rect width="768" height="554" fill="#fff"/></clipPath></defs></svg>