<svg width="768" height="554" viewBox="0 0 768 554" fill="none" xmlns="http://www.w3.org/2000/svg">
<mask id="mask0_121_3" style="mask-type:luminance" maskUnits="userSpaceOnUse" x="0" y="0" width="768" height="554">
<path d="M752 0H16C7.16344 0 0 7.16344 0 16V538C0 546.837 7.16344 554 16 554H752C760.837 554 768 546.837 768 538V16C768 7.16344 760.837 0 752 0Z" fill="white"/>
</mask>
<g mask="url(#mask0_121_3)">
<path d="M752 0H16C7.16344 0 0 7.16344 0 16V538C0 546.837 7.16344 554 16 554H752C760.837 554 768 546.837 768 538V16C768 7.16344 760.837 0 752 0Z" fill="#B9E6FE"/>
<path opacity="0.4" d="M-17.338 591.492L274.38 1140.1C285.65 1161.11 315.461 1161.63 327.313 1141.1L442.988 940.743C450.869 927.091 462.284 915.617 476.398 908.712C489.525 902.331 503.736 899.998 517.563 901.412C528.01 902.517 538.271 905.841 547.509 911.175L723.333 1012.69C737.805 1021.04 756.423 1016.05 764.779 1001.58L1037.79 528.715C1046.14 514.242 1041.16 495.624 1026.68 487.268L820.991 368.512C806.518 360.156 787.959 365.042 779.544 379.617C717.72 486.936 516.459 835.769 516.459 835.769C511.718 843.98 504.076 850.106 495.139 853.021C484.422 856.413 473.3 855.055 464.062 849.722C458.006 846.225 452.899 841.087 449.312 834.5L193.72 353.693C183.224 333.948 197.091 309.93 219.439 309.147L806.352 288.622C814.703 288.38 822.309 283.739 826.457 276.554L967.91 31.5499C979.762 11.0217 964.367 -14.6995 940.578 -13.7911L319.613 7.8765C311.365 8.17788 303.656 12.7595 299.508 19.9443L130.617 312.471L-16.8804 567.944C-21.0878 575.232 -21.2445 584.037 -17.338 591.492Z" fill="#7CD4FD"/>
</g>
</svg>
