<svg width="253" height="148" viewBox="0 0 253 148" fill="none" xmlns="http://www.w3.org/2000/svg">
<rect width="253" height="148" rx="16" fill="#F9F9FB"/>
<path d="M25.4844 88.0002H24.2188L26.5231 81.4547H27.9869L30.2944 88.0002H29.0288L27.2805 82.7971H27.2294L25.4844 88.0002ZM25.5259 85.4338H28.9776V86.3862H25.5259V85.4338Z" fill="#8C94A6"/>
<path d="M32.4552 81.4547L34.1586 86.6067H34.2258L35.926 81.4547H37.23L34.9225 88.0002H33.4587L31.1544 81.4547H32.4552Z" fill="#8C94A6"/>
<path d="M39.338 88.0002H38.0724L40.3768 81.4547H41.8405L44.1481 88.0002H42.8824L41.1342 82.7971H41.0831L39.338 88.0002ZM39.3796 85.4338H42.8313V86.3862H39.3796V85.4338Z" fill="#8C94A6"/>
<path d="M47.3659 81.4547V88.0002H46.1802V81.4547H47.3659Z" fill="#8C94A6"/>
<path d="M49.8199 88.0002V81.4547H51.0056V87.0062H53.8885V88.0002H49.8199Z" fill="#8C94A6"/>
<path d="M57.1742 88.0002H55.9086L58.2129 81.4547H59.6767L61.9842 88.0002H60.7186L58.9704 82.7971H58.9193L57.1742 88.0002ZM57.2158 85.4338H60.6675V86.3862H57.2158V85.4338Z" fill="#8C94A6"/>
<path d="M64.0164 88.0002V81.4547H66.522C66.9951 81.4547 67.3882 81.5293 67.7014 81.6784C68.0167 81.8255 68.2522 82.0268 68.4077 82.2825C68.5654 82.5382 68.6442 82.8279 68.6442 83.1518C68.6442 83.4181 68.5931 83.6461 68.4908 83.8358C68.3885 84.0233 68.2511 84.1756 68.0785 84.2928C67.9059 84.41 67.7131 84.4941 67.5 84.5453V84.6092C67.7323 84.622 67.9549 84.6934 68.168 84.8233C68.3832 84.9512 68.559 85.1323 68.6953 85.3667C68.8317 85.601 68.8999 85.8844 68.8999 86.2168C68.8999 86.5556 68.8179 86.8603 68.6538 87.1309C68.4897 87.3993 68.2426 87.6113 67.9123 87.7669C67.5821 87.9224 67.1666 88.0002 66.6659 88.0002H64.0164ZM65.2021 87.0094H66.4773C66.9077 87.0094 67.2177 86.9274 67.4073 86.7633C67.5991 86.5971 67.695 86.3841 67.695 86.1241C67.695 85.9302 67.647 85.7555 67.5512 85.6C67.4553 85.4423 67.3189 85.3187 67.1421 85.2292C66.9652 85.1376 66.7543 85.0918 66.5093 85.0918H65.2021V87.0094ZM65.2021 84.2385H66.375C66.5796 84.2385 66.7639 84.2012 66.9279 84.1266C67.092 84.0499 67.2209 83.9423 67.3147 83.8038C67.4105 83.6632 67.4585 83.497 67.4585 83.3052C67.4585 83.0517 67.369 82.8429 67.19 82.6788C67.0132 82.5147 66.75 82.4327 66.4006 82.4327H65.2021V84.2385Z" fill="#8C94A6"/>
<path d="M71.1014 88.0002V81.4547H72.2871V87.0062H75.1699V88.0002H71.1014Z" fill="#8C94A6"/>
<path d="M77.3691 88.0002V81.4547H81.6262V82.4487H78.5548V84.2257H81.4056V85.2196H78.5548V87.0062H81.6517V88.0002H77.3691Z" fill="#8C94A6"/>
<path d="M87.4083 88.0002V81.4547H89.914C90.387 81.4547 90.7801 81.5293 91.0933 81.6784C91.4086 81.8255 91.6441 82.0268 91.7996 82.2825C91.9573 82.5382 92.0361 82.8279 92.0361 83.1518C92.0361 83.4181 91.985 83.6461 91.8827 83.8358C91.7804 84.0233 91.643 84.1756 91.4704 84.2928C91.2978 84.41 91.105 84.4941 90.8919 84.5453V84.6092C91.1242 84.622 91.3468 84.6934 91.5599 84.8233C91.7751 84.9512 91.9509 85.1323 92.0872 85.3667C92.2236 85.601 92.2918 85.8844 92.2918 86.2168C92.2918 86.5556 92.2098 86.8603 92.0457 87.1309C91.8816 87.3993 91.6345 87.6113 91.3042 87.7669C90.974 87.9224 90.5585 88.0002 90.0578 88.0002H87.4083ZM88.594 87.0094H89.8692C90.2996 87.0094 90.6096 86.9274 90.7993 86.7633C90.991 86.5971 91.0869 86.3841 91.0869 86.1241C91.0869 85.9302 91.039 85.7555 90.9431 85.6C90.8472 85.4423 90.7108 85.3187 90.534 85.2292C90.3571 85.1376 90.1462 85.0918 89.9012 85.0918H88.594V87.0094ZM88.594 84.2385H89.7669C89.9715 84.2385 90.1558 84.2012 90.3198 84.1266C90.4839 84.0499 90.6128 83.9423 90.7066 83.8038C90.8024 83.6632 90.8504 83.497 90.8504 83.3052C90.8504 83.0517 90.7609 82.8429 90.5819 82.6788C90.4051 82.5147 90.1419 82.4327 89.7925 82.4327H88.594V84.2385Z" fill="#8C94A6"/>
<path d="M95.3339 88.0002H94.0682L96.3726 81.4547H97.8364L100.144 88.0002H98.8783L97.13 82.7971H97.0789L95.3339 88.0002ZM95.3754 85.4338H98.8271V86.3862H95.3754V85.4338Z" fill="#8C94A6"/>
<path d="M102.176 88.0002V81.4547H103.362V87.0062H106.245V88.0002H102.176Z" fill="#8C94A6"/>
<path d="M109.53 88.0002H108.265L110.569 81.4547H112.033L114.34 88.0002H113.075L111.326 82.7971H111.275L109.53 88.0002ZM109.572 85.4338H113.024V86.3862H109.572V85.4338Z" fill="#8C94A6"/>
<path d="M121.751 81.4547V88.0002H120.697L117.613 83.5417H117.558V88.0002H116.372V81.4547H117.434L120.514 85.9164H120.572V81.4547H121.751Z" fill="#8C94A6"/>
<path d="M129.816 83.6632H128.621C128.587 83.4672 128.524 83.2935 128.432 83.1422C128.34 82.9888 128.226 82.8588 128.09 82.7523C127.954 82.6458 127.798 82.5659 127.624 82.5126C127.451 82.4572 127.264 82.4295 127.064 82.4295C126.708 82.4295 126.393 82.519 126.118 82.698C125.843 82.8748 125.628 83.1348 125.473 83.4778C125.317 83.8187 125.239 84.2353 125.239 84.7275C125.239 85.2282 125.317 85.65 125.473 85.9931C125.63 86.334 125.845 86.5918 126.118 86.7665C126.393 86.9391 126.707 87.0254 127.061 87.0254C127.257 87.0254 127.44 86.9998 127.611 86.9487C127.783 86.8954 127.938 86.8176 128.074 86.7154C128.213 86.6131 128.329 86.4874 128.423 86.3382C128.518 86.1891 128.584 86.0186 128.621 85.8269L129.816 85.8333C129.771 86.1444 129.674 86.4363 129.525 86.709C129.378 86.9817 129.185 87.2225 128.947 87.4313C128.708 87.638 128.429 87.7999 128.109 87.9171C127.79 88.0321 127.435 88.0897 127.045 88.0897C126.47 88.0897 125.956 87.9565 125.505 87.6902C125.053 87.4238 124.697 87.0392 124.437 86.5364C124.177 86.0336 124.047 85.4306 124.047 84.7275C124.047 84.0222 124.178 83.4192 124.44 82.9185C124.702 82.4157 125.059 82.0311 125.511 81.7647C125.963 81.4984 126.474 81.3652 127.045 81.3652C127.409 81.3652 127.748 81.4164 128.061 81.5186C128.375 81.6209 128.654 81.7711 128.899 81.9693C129.144 82.1653 129.345 82.4061 129.503 82.6916C129.663 82.975 129.767 83.2988 129.816 83.6632Z" fill="#8C94A6"/>
<path d="M132.072 88.0002V81.4547H136.329V82.4487H133.258V84.2257H136.108V85.2196H133.258V87.0062H136.354V88.0002H132.072Z" fill="#8C94A6"/>
<path d="M35.3343 112.656H29.5623V119H27.2483V112.656H24.5703V110.992H27.2483V108.262H24.5703V106.598H27.2483V100.514H30.1343L33.9823 106.598H39.8063V100.514H42.1203V106.598H44.3823V108.262H42.1203V110.992H44.3823V112.656H42.1203V119H39.3383L35.3343 112.656ZM29.5623 106.598H31.4863L29.9263 104.128L29.4583 103.062L29.5623 104.518V106.598ZM32.5523 108.262H29.5623V110.992H34.2683L32.5523 108.262ZM39.8063 108.262H35.0223L36.7383 110.992H39.8063V108.262ZM39.9103 116.374L39.8063 114.684V112.656H37.8043L39.3383 115.1L39.9103 116.374Z" fill="#1A1A21"/>
<path d="M59.3744 119H46.5304V117.258C46.5304 113.956 48.7664 112.448 51.2104 111.2L53.8884 109.822C55.7604 108.834 56.5144 108.054 56.5144 106.572C56.5144 104.96 55.9164 103.894 53.0304 103.894C49.8584 103.894 49.2084 104.934 49.2084 107.326V107.69H46.4004V107.274C46.4004 104.024 48.4284 101.32 53.2384 101.32C57.5284 101.32 59.3224 103.582 59.3224 106.468C59.3224 109.328 57.3724 110.862 55.1364 112.006L52.5884 113.306C50.8204 114.216 49.4684 115.048 49.4684 116.478H59.3744V119Z" fill="#1A1A21"/>
<path d="M69.5042 119.26C64.8242 119.26 61.9902 115.802 61.9902 110.29C61.9902 104.778 64.8242 101.32 69.5042 101.32C74.1842 101.32 77.0442 104.778 77.0442 110.29C77.0442 115.802 74.1842 119.26 69.5042 119.26ZM69.5042 116.556C72.5982 116.556 74.0542 114.892 74.0542 110.29C74.0542 105.688 72.5982 104.024 69.5042 104.024C66.4102 104.024 64.9802 105.688 64.9802 110.29C64.9802 114.892 66.4102 116.556 69.5042 116.556Z" fill="#1A1A21"/>
<path d="M80.2298 122.068H79.2938V120.222H80.1518C80.5938 120.222 80.8278 120.118 80.8278 119.546V119H79.2418V114.97H82.8038V119.494C82.8038 121.236 81.8678 122.068 80.2298 122.068Z" fill="#1A1A21"/>
<path d="M91.8006 119.26C87.3286 119.26 84.6766 117.57 84.6766 114.242C84.6766 111.772 86.2366 110.42 88.1606 109.874V109.77C86.3146 109.458 85.1966 107.976 85.1966 105.974C85.1966 103.27 87.4066 101.32 91.8006 101.32C96.1946 101.32 98.4046 103.27 98.4046 105.974C98.4046 107.976 97.2866 109.458 95.4666 109.77V109.874C97.3646 110.42 98.9506 111.772 98.9506 114.242C98.9506 117.57 96.2726 119.26 91.8006 119.26ZM91.8006 108.99C94.6606 108.99 95.5966 108.158 95.5966 106.416C95.5966 104.778 94.7386 103.894 91.8006 103.894C88.8886 103.894 88.0046 104.778 88.0046 106.416C88.0046 108.158 88.9666 108.99 91.8006 108.99ZM91.8006 116.686C95.2326 116.686 96.1166 115.724 96.1166 113.8C96.1166 111.902 95.1806 110.914 91.8006 110.914C88.4206 110.914 87.5106 111.902 87.5106 113.8C87.5106 115.724 88.3946 116.686 91.8006 116.686Z" fill="#1A1A21"/>
<path d="M108.29 119.26C104.468 119.26 101.998 117.18 101.998 113.826V113.67H104.962V113.826C104.962 115.464 105.742 116.556 108.498 116.556C111.774 116.556 112.476 114.996 112.476 111.148V109.718H112.346C111.592 111.2 110.084 112.37 107.146 112.37C103.298 112.37 101.296 110.29 101.296 106.988C101.296 103.53 103.688 101.32 108.134 101.32C113.438 101.32 115.362 104.076 115.362 110.29C115.362 115.932 113.282 119.26 108.29 119.26ZM108.056 110.004C110.994 110.004 112.086 109.042 112.086 107.014C112.086 104.96 110.968 104.024 108.056 104.024C105.04 104.024 104.026 104.96 104.026 107.04C104.026 109.068 105.014 110.004 108.056 110.004Z" fill="#1A1A21"/>
<path d="M125.149 119.26C121.327 119.26 118.857 117.18 118.857 113.826V113.67H121.821V113.826C121.821 115.464 122.601 116.556 125.357 116.556C128.633 116.556 129.335 114.996 129.335 111.148V109.718H129.205C128.451 111.2 126.943 112.37 124.005 112.37C120.157 112.37 118.155 110.29 118.155 106.988C118.155 103.53 120.547 101.32 124.993 101.32C130.297 101.32 132.221 104.076 132.221 110.29C132.221 115.932 130.141 119.26 125.149 119.26ZM124.915 110.004C127.853 110.004 128.945 109.042 128.945 107.014C128.945 104.96 127.827 104.024 124.915 104.024C121.899 104.024 120.885 104.96 120.885 107.04C120.885 109.068 121.873 110.004 124.915 110.004Z" fill="#1A1A21"/>
<path d="M135.175 122.068H134.239V120.222H135.097C135.539 120.222 135.773 120.118 135.773 119.546V119H134.187V114.97H137.749V119.494C137.749 121.236 136.813 122.068 135.175 122.068Z" fill="#1A1A21"/>
<path d="M147.036 119.26C143.214 119.26 140.744 117.18 140.744 113.826V113.67H143.708V113.826C143.708 115.464 144.488 116.556 147.244 116.556C150.52 116.556 151.222 114.996 151.222 111.148V109.718H151.092C150.338 111.2 148.83 112.37 145.892 112.37C142.044 112.37 140.042 110.29 140.042 106.988C140.042 103.53 142.434 101.32 146.88 101.32C152.184 101.32 154.108 104.076 154.108 110.29C154.108 115.932 152.028 119.26 147.036 119.26ZM146.802 110.004C149.74 110.004 150.832 109.042 150.832 107.014C150.832 104.96 149.714 104.024 146.802 104.024C143.786 104.024 142.772 104.96 142.772 107.04C142.772 109.068 143.76 110.004 146.802 110.004Z" fill="#1A1A21"/>
<path d="M163.896 119.26C160.074 119.26 157.604 117.18 157.604 113.826V113.67H160.568V113.826C160.568 115.464 161.348 116.556 164.104 116.556C167.38 116.556 168.082 114.996 168.082 111.148V109.718H167.952C167.198 111.2 165.69 112.37 162.752 112.37C158.904 112.37 156.902 110.29 156.902 106.988C156.902 103.53 159.294 101.32 163.74 101.32C169.044 101.32 170.968 104.076 170.968 110.29C170.968 115.932 168.888 119.26 163.896 119.26ZM163.662 110.004C166.6 110.004 167.692 109.042 167.692 107.014C167.692 104.96 166.574 104.024 163.662 104.024C160.646 104.024 159.632 104.96 159.632 107.04C159.632 109.068 160.62 110.004 163.662 110.004Z" fill="#1A1A21"/>
<path d="M181.248 119.26C176.568 119.26 173.734 115.802 173.734 110.29C173.734 104.778 176.568 101.32 181.248 101.32C185.928 101.32 188.788 104.778 188.788 110.29C188.788 115.802 185.928 119.26 181.248 119.26ZM181.248 116.556C184.342 116.556 185.798 114.892 185.798 110.29C185.798 105.688 184.342 104.024 181.248 104.024C178.154 104.024 176.724 105.688 176.724 110.29C176.724 114.892 178.154 116.556 181.248 116.556Z" fill="#1A1A21"/>
<path d="M194.021 119H191.555V116.21H194.021V119Z" fill="#8C94A6"/>
<path d="M198.973 119H197.029V109.82H194.491V108.434H194.959C196.093 108.434 196.759 108.02 197.263 106.94H198.973V119Z" fill="#8C94A6"/>
<path d="M206.777 119.18C203.537 119.18 201.575 116.786 201.575 112.97C201.575 109.154 203.537 106.76 206.777 106.76C210.017 106.76 211.997 109.154 211.997 112.97C211.997 116.786 210.017 119.18 206.777 119.18ZM206.777 117.308C208.919 117.308 209.927 116.156 209.927 112.97C209.927 109.784 208.919 108.632 206.777 108.632C204.635 108.632 203.645 109.784 203.645 112.97C203.645 116.156 204.635 117.308 206.777 117.308Z" fill="#8C94A6"/>
<g clip-path="url(#clip0_3651_52617)">
<g clip-path="url(#clip1_3651_52617)">
<rect x="24" y="26" width="20" height="20" rx="10" fill="white"/>
<rect width="6.66667" height="20" transform="translate(24 26)" fill="#008753"/>
<rect width="6.66667" height="20" transform="translate(37.3359 26)" fill="#008753"/>
</g>
</g>
<rect x="24.5" y="26.5" width="19" height="19" rx="9.5" stroke="#EEEEF0"/>
<path d="M60.005 31.2728V40H58.7947L54.3587 33.5995H54.2777V40H52.9609V31.2728H54.1797L58.62 37.6819H58.701V31.2728H60.005Z" fill="#49576D"/>
<path d="M61.8235 40V33.4546H63.0977V40H61.8235ZM62.467 32.4446C62.2454 32.4446 62.055 32.3708 61.896 32.2231C61.7397 32.0725 61.6616 31.8935 61.6616 31.6861C61.6616 31.4759 61.7397 31.2969 61.896 31.1492C62.055 30.9986 62.2454 30.9233 62.467 30.9233C62.6886 30.9233 62.8775 30.9986 63.0337 31.1492C63.1928 31.2969 63.2724 31.4759 63.2724 31.6861C63.2724 31.8935 63.1928 32.0725 63.0337 32.2231C62.8775 32.3708 62.6886 32.4446 62.467 32.4446Z" fill="#49576D"/>
<path d="M67.5561 42.591C67.0362 42.591 66.5888 42.5228 66.2138 42.3864C65.8416 42.25 65.5376 42.0696 65.3018 41.8452C65.0661 41.6208 64.8899 41.375 64.7734 41.108L65.8686 40.6563C65.9453 40.7813 66.0476 40.9134 66.1754 41.0526C66.3061 41.1946 66.4822 41.3154 66.7038 41.4148C66.9283 41.5142 67.2166 41.564 67.5689 41.564C68.0518 41.564 68.451 41.4461 68.7663 41.2103C69.0817 40.9773 69.2393 40.6052 69.2393 40.0938V38.8069H69.1584C69.0817 38.9461 68.9709 39.1009 68.826 39.2714C68.6839 39.4418 68.4879 39.5895 68.2379 39.7145C67.9879 39.8395 67.6626 39.902 67.2621 39.902C66.745 39.902 66.2791 39.7813 65.8643 39.5398C65.4524 39.2955 65.1257 38.9361 64.8842 38.4617C64.6456 37.9844 64.5263 37.3978 64.5263 36.7017C64.5263 36.0057 64.6442 35.4091 64.88 34.912C65.1186 34.4148 65.4453 34.0341 65.8601 33.7699C66.2749 33.5029 66.745 33.3694 67.2706 33.3694C67.6768 33.3694 68.005 33.4375 68.255 33.5739C68.505 33.7074 68.6996 33.8637 68.8388 34.0427C68.9808 34.2216 69.0902 34.3793 69.1669 34.5157H69.2607V33.4546H70.5092V40.1449C70.5092 40.7074 70.3786 41.1691 70.1172 41.5299C69.8558 41.8907 69.5021 42.1577 69.0561 42.331C68.6129 42.5043 68.1129 42.591 67.5561 42.591ZM67.5433 38.8452C67.9098 38.8452 68.2195 38.76 68.4723 38.5895C68.728 38.4162 68.9212 38.1691 69.0518 37.8481C69.1854 37.5242 69.2521 37.1364 69.2521 36.6847C69.2521 36.2444 69.1868 35.8566 69.0561 35.5214C68.9254 35.1861 68.7337 34.9248 68.4808 34.7373C68.228 34.5469 67.9155 34.4517 67.5433 34.4517C67.1598 34.4517 66.8402 34.5512 66.5845 34.75C66.3288 34.9461 66.1357 35.2131 66.005 35.5512C65.8771 35.8892 65.8132 36.2671 65.8132 36.6847C65.8132 37.1137 65.8786 37.4901 66.0092 37.814C66.1399 38.1378 66.3331 38.3907 66.5888 38.5725C66.8473 38.7543 67.1655 38.8452 67.5433 38.8452Z" fill="#49576D"/>
<path d="M75.0391 40.1321C74.3942 40.1321 73.8388 39.9944 73.3729 39.7188C72.9098 39.4404 72.5518 39.0498 72.299 38.5469C72.049 38.0412 71.924 37.4489 71.924 36.7699C71.924 36.0995 72.049 35.5086 72.299 34.9972C72.5518 34.4858 72.9041 34.0867 73.3558 33.7998C73.8104 33.5128 74.3416 33.3694 74.9496 33.3694C75.3189 33.3694 75.6768 33.4304 76.0234 33.5526C76.37 33.6748 76.6811 33.8665 76.9567 34.1279C77.2322 34.3892 77.4496 34.7287 77.6087 35.1464C77.7678 35.5611 77.8473 36.0654 77.8473 36.6591V37.1108H72.6442V36.1563H76.5987C76.5987 35.8211 76.5305 35.5242 76.3942 35.2657C76.2578 35.0043 76.0661 34.7983 75.8189 34.6478C75.5746 34.4972 75.2876 34.4219 74.9581 34.4219C74.6001 34.4219 74.2876 34.51 74.0206 34.6861C73.7564 34.8594 73.5518 35.0867 73.407 35.3679C73.2649 35.6464 73.1939 35.9489 73.1939 36.2756V37.0214C73.1939 37.4589 73.2706 37.831 73.424 38.1378C73.5803 38.4446 73.7976 38.679 74.076 38.841C74.3544 39 74.6797 39.0796 75.0518 39.0796C75.2933 39.0796 75.5135 39.0455 75.7124 38.9773C75.9112 38.9063 76.0831 38.8012 76.228 38.662C76.3729 38.5228 76.4837 38.3509 76.5604 38.1464L77.7663 38.3637C77.6697 38.7188 77.4964 39.0299 77.2464 39.2969C76.9993 39.5611 76.6882 39.7671 76.3132 39.9148C75.941 40.0597 75.5163 40.1321 75.0391 40.1321Z" fill="#49576D"/>
<path d="M79.261 40V33.4546H80.4925V34.4944H80.5607C80.68 34.1421 80.8903 33.8651 81.1914 33.6634C81.4954 33.4589 81.8391 33.3566 82.2227 33.3566C82.3022 33.3566 82.396 33.3594 82.5039 33.3651C82.6147 33.3708 82.7013 33.3779 82.7638 33.3864V34.6052C82.7127 34.591 82.6218 34.5753 82.4911 34.5583C82.3604 34.5384 82.2298 34.5285 82.0991 34.5285C81.7979 34.5285 81.5295 34.5924 81.2937 34.7202C81.0607 34.8452 80.8761 35.0199 80.7397 35.2444C80.6033 35.466 80.5352 35.7188 80.5352 36.0029V40H79.261Z" fill="#49576D"/>
<path d="M83.8665 40V33.4546H85.1406V40H83.8665ZM84.5099 32.4446C84.2884 32.4446 84.098 32.3708 83.9389 32.2231C83.7827 32.0725 83.7045 31.8935 83.7045 31.6861C83.7045 31.4759 83.7827 31.2969 83.9389 31.1492C84.098 30.9986 84.2884 30.9233 84.5099 30.9233C84.7315 30.9233 84.9205 30.9986 85.0767 31.1492C85.2358 31.2969 85.3153 31.4759 85.3153 31.6861C85.3153 31.8935 85.2358 32.0725 85.0767 32.2231C84.9205 32.3708 84.7315 32.4446 84.5099 32.4446Z" fill="#49576D"/>
<path d="M88.7596 40.1449C88.3448 40.1449 87.9698 40.0682 87.6346 39.9148C87.2994 39.7586 87.0337 39.5327 86.8377 39.2373C86.6445 38.9418 86.5479 38.5796 86.5479 38.1506C86.5479 37.7813 86.619 37.4773 86.761 37.2387C86.9031 37 87.0948 36.8111 87.3363 36.6719C87.5778 36.5327 87.8477 36.4276 88.146 36.3566C88.4442 36.2856 88.7482 36.2316 89.0579 36.1946C89.4499 36.1492 89.7681 36.1123 90.0124 36.0839C90.2568 36.0526 90.4343 36.0029 90.5451 35.9347C90.6559 35.8665 90.7113 35.7557 90.7113 35.6023V35.5725C90.7113 35.2003 90.6062 34.912 90.396 34.7074C90.1886 34.5029 89.8789 34.4006 89.467 34.4006C89.038 34.4006 88.6999 34.4958 88.4528 34.6861C88.2085 34.8736 88.0394 35.0824 87.9457 35.3125L86.7482 35.0398C86.8903 34.6421 87.0977 34.3211 87.3704 34.0767C87.646 33.8296 87.9627 33.6506 88.3207 33.5398C88.6786 33.4262 89.055 33.3694 89.4499 33.3694C89.7113 33.3694 89.9883 33.4006 90.2809 33.4631C90.5764 33.5228 90.8519 33.6336 91.1076 33.7955C91.3661 33.9574 91.5778 34.189 91.7425 34.4901C91.9073 34.7884 91.9897 35.1762 91.9897 35.6535V40H90.7454V39.1052H90.6942C90.6119 39.2699 90.4883 39.4319 90.3235 39.591C90.1587 39.75 89.9471 39.8821 89.6886 39.9873C89.43 40.0924 89.1204 40.1449 88.7596 40.1449ZM89.0366 39.1222C89.3889 39.1222 89.69 39.0526 89.94 38.9134C90.1928 38.7742 90.3846 38.5924 90.5153 38.3679C90.6488 38.1407 90.7156 37.8978 90.7156 37.6392V36.7955C90.6701 36.841 90.582 36.8836 90.4514 36.9233C90.3235 36.9603 90.1772 36.9929 90.0124 37.0214C89.8477 37.0469 89.6871 37.0711 89.5309 37.0938C89.3746 37.1137 89.244 37.1307 89.1389 37.1449C88.8917 37.1762 88.6658 37.2287 88.4613 37.3026C88.2596 37.3765 88.0977 37.483 87.9755 37.6222C87.8562 37.7586 87.7965 37.9404 87.7965 38.1677C87.7965 38.483 87.913 38.7216 88.146 38.8836C88.3789 39.0427 88.6758 39.1222 89.0366 39.1222Z" fill="#49576D"/>
<path d="M94.9609 36.1137V40H93.6868V33.4546H94.9098V34.5199H94.9908C95.1413 34.1733 95.3771 33.8949 95.6982 33.6847C96.022 33.4745 96.4297 33.3694 96.9212 33.3694C97.3672 33.3694 97.7578 33.4631 98.093 33.6506C98.4283 33.8353 98.6882 34.1108 98.8729 34.4773C99.0575 34.8438 99.1499 35.2969 99.1499 35.8367V40H97.8757V35.9901C97.8757 35.5157 97.7521 35.1449 97.505 34.8779C97.2578 34.608 96.9183 34.4731 96.4865 34.4731C96.1911 34.4731 95.9283 34.537 95.6982 34.6648C95.4709 34.7927 95.2905 34.9802 95.157 35.2273C95.0263 35.4716 94.9609 35.7671 94.9609 36.1137Z" fill="#49576D"/>
<path d="M111.181 31.2728V40H109.971L105.534 33.5995H105.453V40H104.137V31.2728H105.355L109.796 37.6819H109.877V31.2728H111.181Z" fill="#49576D"/>
<path d="M114.904 40.1449C114.489 40.1449 114.114 40.0682 113.779 39.9148C113.444 39.7586 113.178 39.5327 112.982 39.2373C112.789 38.9418 112.692 38.5796 112.692 38.1506C112.692 37.7813 112.763 37.4773 112.906 37.2387C113.048 37 113.239 36.8111 113.481 36.6719C113.722 36.5327 113.992 36.4276 114.29 36.3566C114.589 36.2856 114.893 36.2316 115.202 36.1946C115.594 36.1492 115.913 36.1123 116.157 36.0839C116.401 36.0526 116.579 36.0029 116.69 35.9347C116.8 35.8665 116.856 35.7557 116.856 35.6023V35.5725C116.856 35.2003 116.751 34.912 116.54 34.7074C116.333 34.5029 116.023 34.4006 115.612 34.4006C115.183 34.4006 114.844 34.4958 114.597 34.6861C114.353 34.8736 114.184 35.0824 114.09 35.3125L112.893 35.0398C113.035 34.6421 113.242 34.3211 113.515 34.0767C113.79 33.8296 114.107 33.6506 114.465 33.5398C114.823 33.4262 115.2 33.3694 115.594 33.3694C115.856 33.3694 116.133 33.4006 116.425 33.4631C116.721 33.5228 116.996 33.6336 117.252 33.7955C117.511 33.9574 117.722 34.189 117.887 34.4901C118.052 34.7884 118.134 35.1762 118.134 35.6535V40H116.89V39.1052H116.839C116.756 39.2699 116.633 39.4319 116.468 39.591C116.303 39.75 116.092 39.8821 115.833 39.9873C115.575 40.0924 115.265 40.1449 114.904 40.1449ZM115.181 39.1222C115.533 39.1222 115.835 39.0526 116.085 38.9134C116.337 38.7742 116.529 38.5924 116.66 38.3679C116.793 38.1407 116.86 37.8978 116.86 37.6392V36.7955C116.815 36.841 116.727 36.8836 116.596 36.9233C116.468 36.9603 116.322 36.9929 116.157 37.0214C115.992 37.0469 115.832 37.0711 115.675 37.0938C115.519 37.1137 115.388 37.1307 115.283 37.1449C115.036 37.1762 114.81 37.2287 114.606 37.3026C114.404 37.3765 114.242 37.483 114.12 37.6222C114.001 37.7586 113.941 37.9404 113.941 38.1677C113.941 38.483 114.058 38.7216 114.29 38.8836C114.523 39.0427 114.82 39.1222 115.181 39.1222Z" fill="#49576D"/>
<path d="M119.831 40V33.4546H121.105V40H119.831ZM120.475 32.4446C120.253 32.4446 120.063 32.3708 119.904 32.2231C119.748 32.0725 119.669 31.8935 119.669 31.6861C119.669 31.4759 119.748 31.2969 119.904 31.1492C120.063 30.9986 120.253 30.9233 120.475 30.9233C120.696 30.9233 120.885 30.9986 121.042 31.1492C121.201 31.2969 121.28 31.4759 121.28 31.6861C121.28 31.8935 121.201 32.0725 121.042 32.2231C120.885 32.3708 120.696 32.4446 120.475 32.4446Z" fill="#49576D"/>
<path d="M122.82 40V33.4546H124.051V34.4944H124.119C124.239 34.1421 124.449 33.8651 124.75 33.6634C125.054 33.4589 125.398 33.3566 125.781 33.3566C125.861 33.3566 125.955 33.3594 126.062 33.3651C126.173 33.3708 126.26 33.3779 126.322 33.3864V34.6052C126.271 34.591 126.18 34.5753 126.05 34.5583C125.919 34.5384 125.788 34.5285 125.658 34.5285C125.357 34.5285 125.088 34.5924 124.852 34.7202C124.619 34.8452 124.435 35.0199 124.298 35.2444C124.162 35.466 124.094 35.7188 124.094 36.0029V40H122.82Z" fill="#49576D"/>
<path d="M129.271 40.1449C128.857 40.1449 128.482 40.0682 128.146 39.9148C127.811 39.7586 127.545 39.5327 127.349 39.2373C127.156 38.9418 127.06 38.5796 127.06 38.1506C127.06 37.7813 127.131 37.4773 127.273 37.2387C127.415 37 127.607 36.8111 127.848 36.6719C128.089 36.5327 128.359 36.4276 128.658 36.3566C128.956 36.2856 129.26 36.2316 129.57 36.1946C129.962 36.1492 130.28 36.1123 130.524 36.0839C130.768 36.0526 130.946 36.0029 131.057 35.9347C131.168 35.8665 131.223 35.7557 131.223 35.6023V35.5725C131.223 35.2003 131.118 34.912 130.908 34.7074C130.7 34.5029 130.391 34.4006 129.979 34.4006C129.55 34.4006 129.212 34.4958 128.964 34.6861C128.72 34.8736 128.551 35.0824 128.457 35.3125L127.26 35.0398C127.402 34.6421 127.609 34.3211 127.882 34.0767C128.158 33.8296 128.474 33.6506 128.832 33.5398C129.19 33.4262 129.567 33.3694 129.962 33.3694C130.223 33.3694 130.5 33.4006 130.793 33.4631C131.088 33.5228 131.364 33.6336 131.619 33.7955C131.878 33.9574 132.089 34.189 132.254 34.4901C132.419 34.7884 132.501 35.1762 132.501 35.6535V40H131.257V39.1052H131.206C131.124 39.2699 131 39.4319 130.835 39.591C130.67 39.75 130.459 39.8821 130.2 39.9873C129.942 40.0924 129.632 40.1449 129.271 40.1449ZM129.548 39.1222C129.901 39.1222 130.202 39.0526 130.452 38.9134C130.705 38.7742 130.896 38.5924 131.027 38.3679C131.161 38.1407 131.227 37.8978 131.227 37.6392V36.7955C131.182 36.841 131.094 36.8836 130.963 36.9233C130.835 36.9603 130.689 36.9929 130.524 37.0214C130.359 37.0469 130.199 37.0711 130.043 37.0938C129.886 37.1137 129.756 37.1307 129.651 37.1449C129.403 37.1762 129.178 37.2287 128.973 37.3026C128.771 37.3765 128.609 37.483 128.487 37.6222C128.368 37.7586 128.308 37.9404 128.308 38.1677C128.308 38.483 128.425 38.7216 128.658 38.8836C128.891 39.0427 129.188 39.1222 129.548 39.1222Z" fill="#49576D"/>
<defs>
<clipPath id="clip0_3651_52617">
<rect x="24" y="26" width="20" height="20" rx="10" fill="white"/>
</clipPath>
<clipPath id="clip1_3651_52617">
<rect x="24" y="26" width="20" height="20" rx="10" fill="white"/>
</clipPath>
</defs>
</svg>
