<svg xmlns="http://www.w3.org/2000/svg" width="253" height="148" fill="none" viewBox="0 0 253 148"><rect width="253" height="148" fill="#F9F9FB" rx="16"/><path fill="#8C94A6" d="M25.4844 88.0002H24.2188L26.5231 81.4547H27.9869L30.2944 88.0002H29.0288L27.2805 82.7971H27.2294L25.4844 88.0002ZM25.5259 85.4338H28.9776V86.3862H25.5259V85.4338Z"/><path fill="#8C94A6" d="M32.4552 81.4547L34.1586 86.6067H34.2258L35.926 81.4547H37.23L34.9225 88.0002H33.4587L31.1544 81.4547H32.4552Z"/><path fill="#8C94A6" d="M39.338 88.0002H38.0724L40.3768 81.4547H41.8405L44.1481 88.0002H42.8824L41.1342 82.7971H41.0831L39.338 88.0002ZM39.3796 85.4338H42.8313V86.3862H39.3796V85.4338Z"/><path fill="#8C94A6" d="M47.3659 81.4547V88.0002H46.1802V81.4547H47.3659Z"/><path fill="#8C94A6" d="M49.8199 88.0002V81.4547H51.0056V87.0062H53.8885V88.0002H49.8199Z"/><path fill="#8C94A6" d="M57.1742 88.0002H55.9086L58.2129 81.4547H59.6767L61.9842 88.0002H60.7186L58.9704 82.7971H58.9193L57.1742 88.0002ZM57.2158 85.4338H60.6675V86.3862H57.2158V85.4338Z"/><path fill="#8C94A6" d="M64.0164 88.0002V81.4547H66.522C66.9951 81.4547 67.3882 81.5293 67.7014 81.6784C68.0167 81.8255 68.2522 82.0268 68.4077 82.2825C68.5654 82.5382 68.6442 82.8279 68.6442 83.1518C68.6442 83.4181 68.5931 83.6461 68.4908 83.8358C68.3885 84.0233 68.2511 84.1756 68.0785 84.2928C67.9059 84.41 67.7131 84.4941 67.5 84.5453V84.6092C67.7323 84.622 67.9549 84.6934 68.168 84.8233C68.3832 84.9512 68.559 85.1323 68.6953 85.3667C68.8317 85.601 68.8999 85.8844 68.8999 86.2168C68.8999 86.5556 68.8179 86.8603 68.6538 87.1309C68.4897 87.3993 68.2426 87.6113 67.9123 87.7669C67.5821 87.9224 67.1666 88.0002 66.6659 88.0002H64.0164ZM65.2021 87.0094H66.4773C66.9077 87.0094 67.2177 86.9274 67.4073 86.7633C67.5991 86.5971 67.695 86.3841 67.695 86.1241C67.695 85.9302 67.647 85.7555 67.5512 85.6C67.4553 85.4423 67.3189 85.3187 67.1421 85.2292C66.9652 85.1376 66.7543 85.0918 66.5093 85.0918H65.2021V87.0094ZM65.2021 84.2385H66.375C66.5796 84.2385 66.7639 84.2012 66.9279 84.1266C67.092 84.0499 67.2209 83.9423 67.3147 83.8038C67.4105 83.6632 67.4585 83.497 67.4585 83.3052C67.4585 83.0517 67.369 82.8429 67.19 82.6788C67.0132 82.5147 66.75 82.4327 66.4006 82.4327H65.2021V84.2385Z"/><path fill="#8C94A6" d="M71.1014 88.0002V81.4547H72.2871V87.0062H75.1699V88.0002H71.1014Z"/><path fill="#8C94A6" d="M77.3691 88.0002V81.4547H81.6262V82.4487H78.5548V84.2257H81.4056V85.2196H78.5548V87.0062H81.6517V88.0002H77.3691Z"/><path fill="#8C94A6" d="M87.4083 88.0002V81.4547H89.914C90.387 81.4547 90.7801 81.5293 91.0933 81.6784C91.4086 81.8255 91.6441 82.0268 91.7996 82.2825C91.9573 82.5382 92.0361 82.8279 92.0361 83.1518C92.0361 83.4181 91.985 83.6461 91.8827 83.8358C91.7804 84.0233 91.643 84.1756 91.4704 84.2928C91.2978 84.41 91.105 84.4941 90.8919 84.5453V84.6092C91.1242 84.622 91.3468 84.6934 91.5599 84.8233C91.7751 84.9512 91.9509 85.1323 92.0872 85.3667C92.2236 85.601 92.2918 85.8844 92.2918 86.2168C92.2918 86.5556 92.2098 86.8603 92.0457 87.1309C91.8816 87.3993 91.6345 87.6113 91.3042 87.7669C90.974 87.9224 90.5585 88.0002 90.0578 88.0002H87.4083ZM88.594 87.0094H89.8692C90.2996 87.0094 90.6096 86.9274 90.7993 86.7633C90.991 86.5971 91.0869 86.3841 91.0869 86.1241C91.0869 85.9302 91.039 85.7555 90.9431 85.6C90.8472 85.4423 90.7108 85.3187 90.534 85.2292C90.3571 85.1376 90.1462 85.0918 89.9012 85.0918H88.594V87.0094ZM88.594 84.2385H89.7669C89.9715 84.2385 90.1558 84.2012 90.3198 84.1266C90.4839 84.0499 90.6128 83.9423 90.7066 83.8038C90.8024 83.6632 90.8504 83.497 90.8504 83.3052C90.8504 83.0517 90.7609 82.8429 90.5819 82.6788C90.4051 82.5147 90.1419 82.4327 89.7925 82.4327H88.594V84.2385Z"/><path fill="#8C94A6" d="M95.3339 88.0002H94.0682L96.3726 81.4547H97.8364L100.144 88.0002H98.8783L97.13 82.7971H97.0789L95.3339 88.0002ZM95.3754 85.4338H98.8271V86.3862H95.3754V85.4338Z"/><path fill="#8C94A6" d="M102.176 88.0002V81.4547H103.362V87.0062H106.245V88.0002H102.176Z"/><path fill="#8C94A6" d="M109.53 88.0002H108.265L110.569 81.4547H112.033L114.34 88.0002H113.075L111.326 82.7971H111.275L109.53 88.0002ZM109.572 85.4338H113.024V86.3862H109.572V85.4338Z"/><path fill="#8C94A6" d="M121.751 81.4547V88.0002H120.697L117.613 83.5417H117.558V88.0002H116.372V81.4547H117.434L120.514 85.9164H120.572V81.4547H121.751Z"/><path fill="#8C94A6" d="M129.816 83.6632H128.621C128.587 83.4672 128.524 83.2935 128.432 83.1422C128.34 82.9888 128.226 82.8588 128.09 82.7523C127.954 82.6458 127.798 82.5659 127.624 82.5126C127.451 82.4572 127.264 82.4295 127.064 82.4295C126.708 82.4295 126.393 82.519 126.118 82.698C125.843 82.8748 125.628 83.1348 125.473 83.4778C125.317 83.8187 125.239 84.2353 125.239 84.7275C125.239 85.2282 125.317 85.65 125.473 85.9931C125.63 86.334 125.845 86.5918 126.118 86.7665C126.393 86.9391 126.707 87.0254 127.061 87.0254C127.257 87.0254 127.44 86.9998 127.611 86.9487C127.783 86.8954 127.938 86.8176 128.074 86.7154C128.213 86.6131 128.329 86.4874 128.423 86.3382C128.518 86.1891 128.584 86.0186 128.621 85.8269L129.816 85.8333C129.771 86.1444 129.674 86.4363 129.525 86.709C129.378 86.9817 129.185 87.2225 128.947 87.4313C128.708 87.638 128.429 87.7999 128.109 87.9171C127.79 88.0321 127.435 88.0897 127.045 88.0897C126.47 88.0897 125.956 87.9565 125.505 87.6902C125.053 87.4238 124.697 87.0392 124.437 86.5364C124.177 86.0336 124.047 85.4306 124.047 84.7275C124.047 84.0222 124.178 83.4192 124.44 82.9185C124.702 82.4157 125.059 82.0311 125.511 81.7647C125.963 81.4984 126.474 81.3652 127.045 81.3652C127.409 81.3652 127.748 81.4164 128.061 81.5186C128.375 81.6209 128.654 81.7711 128.899 81.9693C129.144 82.1653 129.345 82.4061 129.503 82.6916C129.663 82.975 129.767 83.2988 129.816 83.6632Z"/><path fill="#8C94A6" d="M132.072 88.0002V81.4547H136.329V82.4487H133.258V84.2257H136.108V85.2196H133.258V87.0062H136.354V88.0002H132.072Z"/><path fill="#1A1A21" d="M33.4089 121.6H30.8089V119.156C26.9869 118.688 25.2969 116.53 25.2969 113.592V113.15H28.0529V113.436C28.0529 115.594 28.9629 116.686 32.6029 116.686C35.1769 116.686 36.1129 115.984 36.1129 114.372C36.1129 112.786 35.5929 112.214 32.9149 111.668L29.9509 111.07C26.9609 110.498 25.3489 109.042 25.3489 106.286C25.3489 103.92 27.0389 101.71 30.8089 101.372V98.98H33.4089V101.424C37.0749 101.944 38.5829 104.388 38.5829 107.118V107.43H35.8269V107.144C35.8269 105.012 34.8909 103.894 31.7709 103.894C29.1969 103.894 28.1569 104.622 28.1569 106.156C28.1569 107.742 28.8589 108.184 31.2509 108.704L34.2149 109.328C37.4909 110.004 38.9209 111.642 38.9209 114.268C38.9209 116.816 37.2049 118.948 33.4089 119.234V121.6Z"/><path fill="#1A1A21" d="M47.5923 119.26C42.6263 119.26 40.7283 116.998 40.7283 113.67V113.254H43.4843V113.644C43.4843 115.828 44.2123 116.686 47.6443 116.686C50.4003 116.686 51.4923 116.01 51.4923 113.982C51.4923 111.798 50.5303 111.148 48.1123 111.148H44.6283V108.808H47.7223C50.0103 108.808 50.8943 108.236 50.8943 106.416C50.8943 104.596 49.8543 103.894 47.4103 103.894C44.3943 103.894 43.4843 104.752 43.4843 106.936V107.144H40.7283V106.91C40.7283 103.582 43.0683 101.32 47.4363 101.32C51.3623 101.32 53.7023 102.932 53.7023 105.974C53.7023 107.976 52.6883 109.458 50.4783 109.77V109.874C52.8703 110.212 54.3263 111.772 54.3263 114.268C54.3263 117.622 51.6223 119.26 47.5923 119.26Z"/><path fill="#1A1A21" d="M69.6815 119H56.8375V117.258C56.8375 113.956 59.0735 112.448 61.5175 111.2L64.1955 109.822C66.0675 108.834 66.8215 108.054 66.8215 106.572C66.8215 104.96 66.2235 103.894 63.3375 103.894C60.1655 103.894 59.5155 104.934 59.5155 107.326V107.69H56.7075V107.274C56.7075 104.024 58.7355 101.32 63.5455 101.32C67.8355 101.32 69.6295 103.582 69.6295 106.468C69.6295 109.328 67.6795 110.862 65.4435 112.006L62.8955 113.306C61.1275 114.216 59.7755 115.048 59.7755 116.478H69.6815V119Z"/><path fill="#1A1A21" d="M72.9159 122.068H71.9799V120.222H72.8379C73.2799 120.222 73.5139 120.118 73.5139 119.546V119H71.9279V114.97H75.4899V119.494C75.4899 121.236 74.5539 122.068 72.9159 122.068Z"/><path fill="#1A1A21" d="M85.245 119.26C80.565 119.26 77.731 115.802 77.731 110.29C77.731 104.778 80.565 101.32 85.245 101.32C89.925 101.32 92.785 104.778 92.785 110.29C92.785 115.802 89.925 119.26 85.245 119.26ZM85.245 116.556C88.339 116.556 89.795 114.892 89.795 110.29C89.795 105.688 88.339 104.024 85.245 104.024C82.151 104.024 80.721 105.688 80.721 110.29C80.721 114.892 82.151 116.556 85.245 116.556Z"/><path fill="#1A1A21" d="M103.501 119.26C98.8208 119.26 95.9868 115.802 95.9868 110.29C95.9868 104.778 98.8208 101.32 103.501 101.32C108.181 101.32 111.041 104.778 111.041 110.29C111.041 115.802 108.181 119.26 103.501 119.26ZM103.501 116.556C106.595 116.556 108.051 114.892 108.051 110.29C108.051 105.688 106.595 104.024 103.501 104.024C100.407 104.024 98.9768 105.688 98.9768 110.29C98.9768 114.892 100.407 116.556 103.501 116.556Z"/><path fill="#1A1A21" d="M121.757 119.26C117.077 119.26 114.243 115.802 114.243 110.29C114.243 104.778 117.077 101.32 121.757 101.32C126.437 101.32 129.297 104.778 129.297 110.29C129.297 115.802 126.437 119.26 121.757 119.26ZM121.757 116.556C124.851 116.556 126.307 114.892 126.307 110.29C126.307 105.688 124.851 104.024 121.757 104.024C118.663 104.024 117.233 105.688 117.233 110.29C117.233 114.892 118.663 116.556 121.757 116.556Z"/><path fill="#8C94A6" d="M134.021 119H131.555V116.21H134.021V119Z"/><path fill="#8C94A6" d="M140.429 119.18C137.333 119.18 135.497 118.01 135.497 115.706C135.497 113.996 136.577 113.06 137.909 112.682V112.61C136.631 112.394 135.857 111.368 135.857 109.982C135.857 108.11 137.387 106.76 140.429 106.76C143.471 106.76 145.001 108.11 145.001 109.982C145.001 111.368 144.227 112.394 142.967 112.61V112.682C144.281 113.06 145.379 113.996 145.379 115.706C145.379 118.01 143.525 119.18 140.429 119.18ZM140.429 112.07C142.409 112.07 143.057 111.494 143.057 110.288C143.057 109.154 142.463 108.542 140.429 108.542C138.413 108.542 137.801 109.154 137.801 110.288C137.801 111.494 138.467 112.07 140.429 112.07ZM140.429 117.398C142.805 117.398 143.417 116.732 143.417 115.4C143.417 114.086 142.769 113.402 140.429 113.402C138.089 113.402 137.459 114.086 137.459 115.4C137.459 116.732 138.071 117.398 140.429 117.398Z"/><path fill="#8C94A6" d="M151.631 119.18C148.535 119.18 146.699 118.01 146.699 115.706C146.699 113.996 147.779 113.06 149.111 112.682V112.61C147.833 112.394 147.059 111.368 147.059 109.982C147.059 108.11 148.589 106.76 151.631 106.76C154.673 106.76 156.203 108.11 156.203 109.982C156.203 111.368 155.429 112.394 154.169 112.61V112.682C155.483 113.06 156.581 113.996 156.581 115.706C156.581 118.01 154.727 119.18 151.631 119.18ZM151.631 112.07C153.611 112.07 154.259 111.494 154.259 110.288C154.259 109.154 153.665 108.542 151.631 108.542C149.615 108.542 149.003 109.154 149.003 110.288C149.003 111.494 149.669 112.07 151.631 112.07ZM151.631 117.398C154.007 117.398 154.619 116.732 154.619 115.4C154.619 114.086 153.971 113.402 151.631 113.402C149.291 113.402 148.661 114.086 148.661 115.4C148.661 116.732 149.273 117.398 151.631 117.398Z"/><g clip-path="url(#clip0_4018_52690)"><g clip-path="url(#clip1_4018_52690)"><rect width="20" height="20" x="24" y="26" fill="#EEEEF0" rx="10"/><g clip-path="url(#clip2_4018_52690)"><rect width="10" height="10" fill="#002868" transform="translate(24 26)"/><path fill="#fff" d="M26.5 26.3799L27.0878 28.0709L28.8776 28.1073L27.4511 29.1889L27.9695 30.9024L26.5 29.8799L25.0305 30.9024L25.5489 29.1889L24.1224 28.1073L25.9122 28.0709L26.5 26.3799Z"/><path fill="#fff" d="M29 30.6196L29.5878 32.3106L31.3776 32.3471L29.9511 33.4286L30.4695 35.1422L29 34.1196L27.5305 35.1422L28.0489 33.4286L26.6224 32.3471L28.4122 32.3106L29 30.6196Z"/><path fill="#fff" d="M31.5 26.3799L32.0878 28.0709L33.8776 28.1073L32.4511 29.1889L32.9695 30.9024L31.5 29.8799L30.0305 30.9024L30.5489 29.1889L29.1224 28.1073L30.9122 28.0709L31.5 26.3799Z"/></g><rect width="10" height="3.333" fill="#BF0A30" transform="translate(34 26)"/><rect width="10" height="3.333" fill="#fff" transform="translate(34 29.3335)"/><rect width="10" height="3.333" fill="#BF0A30" transform="translate(34 32.6665)"/><rect width="20" height="5" fill="#fff" transform="translate(24 36)"/><rect width="20" height="5" fill="#BF0A30" transform="translate(24 41)"/></g></g><rect width="19" height="19" x="24.5" y="26.5" stroke="#EEEEF0" rx="9.5"/><path fill="#49576D" d="M58.5732 31.2728H59.8942V37.0128C59.8942 37.6236 59.7507 38.1648 59.4638 38.6364C59.1768 39.1052 58.7734 39.4745 58.2536 39.7444C57.7337 40.0114 57.1243 40.1449 56.4254 40.1449C55.7294 40.1449 55.1214 40.0114 54.6016 39.7444C54.0817 39.4745 53.6783 39.1052 53.3913 38.6364C53.1044 38.1648 52.9609 37.6236 52.9609 37.0128V31.2728H54.2777V36.9063C54.2777 37.3012 54.3643 37.652 54.5376 37.9589C54.7138 38.2657 54.9624 38.5071 55.2834 38.6833C55.6044 38.8566 55.9851 38.9432 56.4254 38.9432C56.8686 38.9432 57.2507 38.8566 57.5717 38.6833C57.8956 38.5071 58.1428 38.2657 58.3132 37.9589C58.4865 37.652 58.5732 37.3012 58.5732 36.9063V31.2728Z"/><path fill="#49576D" d="M62.9805 36.1137V40H61.7063V33.4546H62.9293V34.5199H63.0103C63.1609 34.1733 63.3967 33.8949 63.7177 33.6847C64.0415 33.4745 64.4492 33.3694 64.9407 33.3694C65.3867 33.3694 65.7773 33.4631 66.1126 33.6506C66.4478 33.8353 66.7077 34.1108 66.8924 34.4773C67.0771 34.8438 67.1694 35.2969 67.1694 35.8367V40H65.8952V35.9901C65.8952 35.5157 65.7717 35.1449 65.5245 34.8779C65.2773 34.608 64.9379 34.4731 64.506 34.4731C64.2106 34.4731 63.9478 34.537 63.7177 34.6648C63.4904 34.7927 63.31 34.9802 63.1765 35.2273C63.0458 35.4716 62.9805 35.7671 62.9805 36.1137Z"/><path fill="#49576D" d="M68.8782 40V33.4546H70.1523V40H68.8782ZM69.5217 32.4446C69.3001 32.4446 69.1097 32.3708 68.9506 32.2231C68.7944 32.0725 68.7163 31.8935 68.7163 31.6861C68.7163 31.4759 68.7944 31.2969 68.9506 31.1492C69.1097 30.9986 69.3001 30.9233 69.5217 30.9233C69.7433 30.9233 69.9322 30.9986 70.0884 31.1492C70.2475 31.2969 70.3271 31.4759 70.3271 31.6861C70.3271 31.8935 70.2475 32.0725 70.0884 32.2231C69.9322 32.3708 69.7433 32.4446 69.5217 32.4446Z"/><path fill="#49576D" d="M74.9219 33.4546V34.4773H71.3466V33.4546H74.9219ZM72.3054 31.8864H73.5795V38.0782C73.5795 38.3253 73.6165 38.5114 73.6903 38.6364C73.7642 38.7586 73.8594 38.8424 73.9759 38.8878C74.0952 38.9304 74.2244 38.9517 74.3636 38.9517C74.4659 38.9517 74.5554 38.9446 74.6321 38.9304C74.7088 38.9162 74.7685 38.9049 74.8111 38.8964L75.0412 39.9489C74.9673 39.9773 74.8622 40.0057 74.7259 40.0341C74.5895 40.0654 74.419 40.0824 74.2145 40.0853C73.8793 40.091 73.5668 40.0313 73.277 39.9063C72.9872 39.7813 72.7528 39.5881 72.5739 39.3267C72.3949 39.0654 72.3054 38.7373 72.3054 38.3424V31.8864Z"/><path fill="#49576D" d="M79.082 40.1321C78.4371 40.1321 77.8817 39.9944 77.4158 39.7188C76.9528 39.4404 76.5948 39.0498 76.342 38.5469C76.092 38.0412 75.967 37.4489 75.967 36.7699C75.967 36.0995 76.092 35.5086 76.342 34.9972C76.5948 34.4858 76.9471 34.0867 77.3988 33.7998C77.8533 33.5128 78.3846 33.3694 78.9925 33.3694C79.3619 33.3694 79.7198 33.4304 80.0664 33.5526C80.413 33.6748 80.7241 33.8665 80.9996 34.1279C81.2752 34.3892 81.4925 34.7287 81.6516 35.1464C81.8107 35.5611 81.8903 36.0654 81.8903 36.6591V37.1108H76.6871V36.1563H80.6417C80.6417 35.8211 80.5735 35.5242 80.4371 35.2657C80.3008 35.0043 80.109 34.7983 79.8619 34.6478C79.6175 34.4972 79.3306 34.4219 79.0011 34.4219C78.6431 34.4219 78.3306 34.51 78.0636 34.6861C77.7994 34.8594 77.5948 35.0867 77.4499 35.3679C77.3079 35.6464 77.2369 35.9489 77.2369 36.2756V37.0214C77.2369 37.4589 77.3136 37.831 77.467 38.1378C77.6232 38.4446 77.8406 38.679 78.119 38.841C78.3974 39 78.7227 39.0796 79.0948 39.0796C79.3363 39.0796 79.5565 39.0455 79.7553 38.9773C79.9542 38.9063 80.1261 38.8012 80.271 38.662C80.4158 38.5228 80.5266 38.3509 80.6033 38.1464L81.8093 38.3637C81.7127 38.7188 81.5394 39.0299 81.2894 39.2969C81.0423 39.5611 80.7312 39.7671 80.3562 39.9148C79.984 40.0597 79.5593 40.1321 79.082 40.1321Z"/><path fill="#49576D" d="M85.7543 40.1279C85.2259 40.1279 84.7543 39.9929 84.3395 39.7231C83.9276 39.4503 83.6037 39.0625 83.3679 38.5597C83.1349 38.054 83.0185 37.4475 83.0185 36.7401C83.0185 36.0327 83.1364 35.4276 83.3722 34.9248C83.6108 34.4219 83.9375 34.037 84.3523 33.7699C84.767 33.5029 85.2372 33.3694 85.7628 33.3694C86.169 33.3694 86.4957 33.4375 86.7429 33.5739C86.9929 33.7074 87.1861 33.8637 87.3224 34.0427C87.4616 34.2216 87.5696 34.3793 87.6463 34.5157H87.723V31.2728H88.9972V40H87.7528V38.9816H87.6463C87.5696 39.1208 87.4588 39.2799 87.3139 39.4589C87.1719 39.6378 86.9759 39.7941 86.7259 39.9276C86.4759 40.0611 86.152 40.1279 85.7543 40.1279ZM86.0355 39.0412C86.402 39.0412 86.7116 38.9446 86.9645 38.7515C87.2202 38.5554 87.4134 38.2841 87.544 37.9375C87.6776 37.591 87.7443 37.1875 87.7443 36.7273C87.7443 36.2728 87.679 35.875 87.5483 35.5341C87.4176 35.1932 87.2259 34.9276 86.973 34.7373C86.7202 34.5469 86.4077 34.4517 86.0355 34.4517C85.652 34.4517 85.3324 34.5512 85.0767 34.75C84.821 34.9489 84.6278 35.2202 84.4972 35.564C84.3693 35.9077 84.3054 36.2955 84.3054 36.7273C84.3054 37.1648 84.3707 37.5583 84.5014 37.9077C84.6321 38.2571 84.8253 38.5341 85.081 38.7387C85.3395 38.9404 85.6577 39.0412 86.0355 39.0412Z"/><path fill="#49576D" d="M98.8537 33.5654C98.8082 33.162 98.6207 32.8495 98.2912 32.6279C97.9616 32.4035 97.5469 32.2912 97.0469 32.2912C96.6889 32.2912 96.3793 32.3481 96.1179 32.4617C95.8565 32.5725 95.6534 32.7259 95.5085 32.9219C95.3665 33.1151 95.2955 33.3353 95.2955 33.5824C95.2955 33.7898 95.3438 33.9688 95.4403 34.1194C95.5398 34.2699 95.669 34.3964 95.8281 34.4986C95.9901 34.5981 96.1634 34.6819 96.348 34.75C96.5327 34.8154 96.7102 34.8694 96.8807 34.912L97.733 35.1336C98.0114 35.2017 98.2969 35.2941 98.5895 35.4106C98.8821 35.527 99.1534 35.6804 99.4034 35.8708C99.6534 36.0611 99.8551 36.2969 100.009 36.5782C100.165 36.8594 100.243 37.1961 100.243 37.5881C100.243 38.0824 100.115 38.5214 99.8594 38.9049C99.6065 39.2884 99.2386 39.591 98.7557 39.8125C98.2756 40.0341 97.6946 40.1449 97.0128 40.1449C96.3594 40.1449 95.794 40.0412 95.3168 39.8339C94.8395 39.6265 94.4659 39.3324 94.196 38.9517C93.9261 38.5682 93.777 38.1137 93.7486 37.5881H95.0696C95.0952 37.9035 95.1974 38.1662 95.3764 38.3765C95.5582 38.5839 95.7898 38.7387 96.071 38.841C96.3551 38.9404 96.6662 38.9901 97.0043 38.9901C97.3764 38.9901 97.7074 38.9319 97.9972 38.8154C98.2898 38.6961 98.5199 38.5313 98.6875 38.3211C98.8551 38.108 98.9389 37.8594 98.9389 37.5753C98.9389 37.3168 98.8651 37.1052 98.7173 36.9404C98.5724 36.7756 98.375 36.6392 98.125 36.5313C97.8778 36.4233 97.598 36.3282 97.2855 36.2458L96.2543 35.9645C95.5554 35.7742 95.0014 35.4944 94.5923 35.125C94.1861 34.7557 93.983 34.2671 93.983 33.6591C93.983 33.1563 94.1193 32.7174 94.392 32.3424C94.6648 31.9674 95.0341 31.6762 95.5 31.4688C95.9659 31.2586 96.4915 31.1535 97.0767 31.1535C97.6676 31.1535 98.1889 31.2571 98.6406 31.4645C99.0952 31.6719 99.4531 31.9574 99.7145 32.3211C99.9759 32.6819 100.112 33.0966 100.124 33.5654H98.8537Z"/><path fill="#49576D" d="M104.77 33.4546V34.4773H101.194V33.4546H104.77ZM102.153 31.8864H103.427V38.0782C103.427 38.3253 103.464 38.5114 103.538 38.6364C103.612 38.7586 103.707 38.8424 103.824 38.8878C103.943 38.9304 104.072 38.9517 104.211 38.9517C104.314 38.9517 104.403 38.9446 104.48 38.9304C104.556 38.9162 104.616 38.9049 104.659 38.8964L104.889 39.9489C104.815 39.9773 104.71 40.0057 104.574 40.0341C104.437 40.0654 104.267 40.0824 104.062 40.0853C103.727 40.091 103.414 40.0313 103.125 39.9063C102.835 39.7813 102.6 39.5881 102.422 39.3267C102.243 39.0654 102.153 38.7373 102.153 38.3424V31.8864Z"/><path fill="#49576D" d="M108.084 40.1449C107.669 40.1449 107.294 40.0682 106.959 39.9148C106.624 39.7586 106.358 39.5327 106.162 39.2373C105.969 38.9418 105.872 38.5796 105.872 38.1506C105.872 37.7813 105.943 37.4773 106.085 37.2387C106.227 37 106.419 36.8111 106.661 36.6719C106.902 36.5327 107.172 36.4276 107.47 36.3566C107.768 36.2856 108.072 36.2316 108.382 36.1946C108.774 36.1492 109.092 36.1123 109.337 36.0839C109.581 36.0526 109.759 36.0029 109.869 35.9347C109.98 35.8665 110.036 35.7557 110.036 35.6023V35.5725C110.036 35.2003 109.93 34.912 109.72 34.7074C109.513 34.5029 109.203 34.4006 108.791 34.4006C108.362 34.4006 108.024 34.4958 107.777 34.6861C107.533 34.8736 107.364 35.0824 107.27 35.3125L106.072 35.0398C106.214 34.6421 106.422 34.3211 106.695 34.0767C106.97 33.8296 107.287 33.6506 107.645 33.5398C108.003 33.4262 108.379 33.3694 108.774 33.3694C109.036 33.3694 109.313 33.4006 109.605 33.4631C109.901 33.5228 110.176 33.6336 110.432 33.7955C110.69 33.9574 110.902 34.189 111.067 34.4901C111.232 34.7884 111.314 35.1762 111.314 35.6535V40H110.07V39.1052H110.018C109.936 39.2699 109.813 39.4319 109.648 39.591C109.483 39.75 109.271 39.8821 109.013 39.9873C108.754 40.0924 108.445 40.1449 108.084 40.1449ZM108.361 39.1222C108.713 39.1222 109.014 39.0526 109.264 38.9134C109.517 38.7742 109.709 38.5924 109.839 38.3679C109.973 38.1407 110.04 37.8978 110.04 37.6392V36.7955C109.994 36.841 109.906 36.8836 109.776 36.9233C109.648 36.9603 109.501 36.9929 109.337 37.0214C109.172 37.0469 109.011 37.0711 108.855 37.0938C108.699 37.1137 108.568 37.1307 108.463 37.1449C108.216 37.1762 107.99 37.2287 107.786 37.3026C107.584 37.3765 107.422 37.483 107.3 37.6222C107.18 37.7586 107.121 37.9404 107.121 38.1677C107.121 38.483 107.237 38.7216 107.47 38.8836C107.703 39.0427 108 39.1222 108.361 39.1222Z"/><path fill="#49576D" d="M116.066 33.4546V34.4773H112.491V33.4546H116.066ZM113.45 31.8864H114.724V38.0782C114.724 38.3253 114.761 38.5114 114.835 38.6364C114.909 38.7586 115.004 38.8424 115.12 38.8878C115.24 38.9304 115.369 38.9517 115.508 38.9517C115.61 38.9517 115.7 38.9446 115.777 38.9304C115.853 38.9162 115.913 38.9049 115.956 38.8964L116.186 39.9489C116.112 39.9773 116.007 40.0057 115.87 40.0341C115.734 40.0654 115.564 40.0824 115.359 40.0853C115.024 40.091 114.711 40.0313 114.422 39.9063C114.132 39.7813 113.897 39.5881 113.718 39.3267C113.539 39.0654 113.45 38.7373 113.45 38.3424V31.8864Z"/><path fill="#49576D" d="M120.227 40.1321C119.582 40.1321 119.026 39.9944 118.56 39.7188C118.097 39.4404 117.739 39.0498 117.487 38.5469C117.237 38.0412 117.112 37.4489 117.112 36.7699C117.112 36.0995 117.237 35.5086 117.487 34.9972C117.739 34.4858 118.092 34.0867 118.543 33.7998C118.998 33.5128 119.529 33.3694 120.137 33.3694C120.506 33.3694 120.864 33.4304 121.211 33.5526C121.558 33.6748 121.869 33.8665 122.144 34.1279C122.42 34.3892 122.637 34.7287 122.796 35.1464C122.955 35.5611 123.035 36.0654 123.035 36.6591V37.1108H117.832V36.1563H121.786C121.786 35.8211 121.718 35.5242 121.582 35.2657C121.445 35.0043 121.254 34.7983 121.006 34.6478C120.762 34.4972 120.475 34.4219 120.146 34.4219C119.788 34.4219 119.475 34.51 119.208 34.6861C118.944 34.8594 118.739 35.0867 118.594 35.3679C118.452 35.6464 118.381 35.9489 118.381 36.2756V37.0214C118.381 37.4589 118.458 37.831 118.612 38.1378C118.768 38.4446 118.985 38.679 119.263 38.841C119.542 39 119.867 39.0796 120.239 39.0796C120.481 39.0796 120.701 39.0455 120.9 38.9773C121.099 38.9063 121.271 38.8012 121.415 38.662C121.56 38.5228 121.671 38.3509 121.748 38.1464L122.954 38.3637C122.857 38.7188 122.684 39.0299 122.434 39.2969C122.187 39.5611 121.876 39.7671 121.501 39.9148C121.129 40.0597 120.704 40.1321 120.227 40.1321Z"/><path fill="#49576D" d="M129.353 35.0526L128.199 35.2571C128.15 35.1094 128.074 34.9688 127.968 34.8353C127.866 34.7017 127.727 34.5924 127.551 34.5071C127.375 34.4219 127.154 34.3793 126.89 34.3793C126.529 34.3793 126.228 34.4603 125.987 34.6222C125.745 34.7813 125.625 34.9873 125.625 35.2401C125.625 35.4589 125.706 35.635 125.868 35.7685C126.029 35.902 126.291 36.0114 126.652 36.0966L127.691 36.3353C128.294 36.4745 128.743 36.689 129.038 36.9787C129.333 37.2685 129.481 37.6449 129.481 38.108C129.481 38.5 129.368 38.8495 129.14 39.1563C128.916 39.4603 128.602 39.6989 128.199 39.8722C127.798 40.0455 127.333 40.1321 126.805 40.1321C126.072 40.1321 125.474 39.9759 125.011 39.6634C124.548 39.3481 124.264 38.9006 124.159 38.3211L125.39 38.1336C125.467 38.4546 125.625 38.6975 125.863 38.8623C126.102 39.0242 126.413 39.1052 126.797 39.1052C127.214 39.1052 127.548 39.0185 127.798 38.8452C128.048 38.6691 128.173 38.4546 128.173 38.2017C128.173 37.9972 128.096 37.8253 127.943 37.6861C127.792 37.5469 127.561 37.4418 127.248 37.3708L126.14 37.1279C125.529 36.9887 125.078 36.7671 124.785 36.4631C124.495 36.1591 124.35 35.7742 124.35 35.3083C124.35 34.9219 124.458 34.5839 124.674 34.2941C124.89 34.0043 125.189 33.7785 125.569 33.6165C125.95 33.4517 126.386 33.3694 126.877 33.3694C127.585 33.3694 128.142 33.5228 128.548 33.8296C128.954 34.1336 129.223 34.5412 129.353 35.0526Z"/><path fill="#49576D" d="M136.985 40H134.16V31.2728H137.075C137.93 31.2728 138.664 31.4475 139.278 31.7969C139.892 32.1435 140.362 32.6421 140.689 33.2927C141.018 33.9404 141.183 34.7174 141.183 35.6236C141.183 36.5327 141.017 37.314 140.684 37.9674C140.355 38.6208 139.877 39.1236 139.252 39.4759C138.627 39.8253 137.872 40 136.985 40ZM135.477 38.8495H136.913C137.578 38.8495 138.13 38.7245 138.571 38.4745C139.011 38.2216 139.341 37.8566 139.559 37.3793C139.778 36.8992 139.887 36.314 139.887 35.6236C139.887 34.939 139.778 34.358 139.559 33.8807C139.343 33.4035 139.021 33.0412 138.592 32.7941C138.163 32.5469 137.63 32.4233 136.994 32.4233H135.477V38.8495Z"/><path fill="#49576D" d="M145.475 40.1321C144.862 40.1321 144.326 39.9915 143.869 39.7103C143.411 39.429 143.056 39.0356 142.803 38.5299C142.55 38.0242 142.424 37.4333 142.424 36.7571C142.424 36.0782 142.55 35.4844 142.803 34.9759C143.056 34.4674 143.411 34.0725 143.869 33.7912C144.326 33.51 144.862 33.3694 145.475 33.3694C146.089 33.3694 146.624 33.51 147.082 33.7912C147.539 34.0725 147.894 34.4674 148.147 34.9759C148.4 35.4844 148.526 36.0782 148.526 36.7571C148.526 37.4333 148.4 38.0242 148.147 38.5299C147.894 39.0356 147.539 39.429 147.082 39.7103C146.624 39.9915 146.089 40.1321 145.475 40.1321ZM145.479 39.0625C145.877 39.0625 146.207 38.9574 146.468 38.7472C146.729 38.537 146.923 38.2571 147.048 37.9077C147.175 37.5583 147.239 37.1733 147.239 36.7529C147.239 36.3353 147.175 35.9517 147.048 35.6023C146.923 35.25 146.729 34.9674 146.468 34.7543C146.207 34.5412 145.877 34.4347 145.479 34.4347C145.079 34.4347 144.746 34.5412 144.482 34.7543C144.221 34.9674 144.026 35.25 143.898 35.6023C143.773 35.9517 143.711 36.3353 143.711 36.7529C143.711 37.1733 143.773 37.5583 143.898 37.9077C144.026 38.2571 144.221 38.537 144.482 38.7472C144.746 38.9574 145.079 39.0625 145.479 39.0625Z"/><path fill="#49576D" d="M151.223 31.2728V40H149.949V31.2728H151.223Z"/><path fill="#49576D" d="M154.211 31.2728V40H152.937V31.2728H154.211Z"/><path fill="#49576D" d="M157.83 40.1449C157.415 40.1449 157.04 40.0682 156.705 39.9148C156.37 39.7586 156.104 39.5327 155.908 39.2373C155.715 38.9418 155.618 38.5796 155.618 38.1506C155.618 37.7813 155.689 37.4773 155.831 37.2387C155.973 37 156.165 36.8111 156.407 36.6719C156.648 36.5327 156.918 36.4276 157.216 36.3566C157.515 36.2856 157.819 36.2316 158.128 36.1946C158.52 36.1492 158.838 36.1123 159.083 36.0839C159.327 36.0526 159.505 36.0029 159.615 35.9347C159.726 35.8665 159.782 35.7557 159.782 35.6023V35.5725C159.782 35.2003 159.676 34.912 159.466 34.7074C159.259 34.5029 158.949 34.4006 158.537 34.4006C158.108 34.4006 157.77 34.4958 157.523 34.6861C157.279 34.8736 157.11 35.0824 157.016 35.3125L155.819 35.0398C155.961 34.6421 156.168 34.3211 156.441 34.0767C156.716 33.8296 157.033 33.6506 157.391 33.5398C157.749 33.4262 158.125 33.3694 158.52 33.3694C158.782 33.3694 159.059 33.4006 159.351 33.4631C159.647 33.5228 159.922 33.6336 160.178 33.7955C160.436 33.9574 160.648 34.189 160.813 34.4901C160.978 34.7884 161.06 35.1762 161.06 35.6535V40H159.816V39.1052H159.765C159.682 39.2699 159.559 39.4319 159.394 39.591C159.229 39.75 159.017 39.8821 158.759 39.9873C158.5 40.0924 158.191 40.1449 157.83 40.1449ZM158.107 39.1222C158.459 39.1222 158.76 39.0526 159.01 38.9134C159.263 38.7742 159.455 38.5924 159.586 38.3679C159.719 38.1407 159.786 37.8978 159.786 37.6392V36.7955C159.74 36.841 159.652 36.8836 159.522 36.9233C159.394 36.9603 159.248 36.9929 159.083 37.0214C158.918 37.0469 158.757 37.0711 158.601 37.0938C158.445 37.1137 158.314 37.1307 158.209 37.1449C157.962 37.1762 157.736 37.2287 157.532 37.3026C157.33 37.3765 157.168 37.483 157.046 37.6222C156.926 37.7586 156.867 37.9404 156.867 38.1677C156.867 38.483 156.983 38.7216 157.216 38.8836C157.449 39.0427 157.746 39.1222 158.107 39.1222Z"/><path fill="#49576D" d="M162.757 40V33.4546H163.989V34.4944H164.057C164.176 34.1421 164.386 33.8651 164.688 33.6634C164.991 33.4589 165.335 33.3566 165.719 33.3566C165.798 33.3566 165.892 33.3594 166 33.3651C166.111 33.3708 166.197 33.3779 166.26 33.3864V34.6052C166.209 34.591 166.118 34.5753 165.987 34.5583C165.857 34.5384 165.726 34.5285 165.595 34.5285C165.294 34.5285 165.026 34.5924 164.79 34.7202C164.557 34.8452 164.372 35.0199 164.236 35.2444C164.099 35.466 164.031 35.7188 164.031 36.0029V40H162.757Z"/><path fill="#49576D" d="M172.267 35.0526L171.113 35.2571C171.064 35.1094 170.988 34.9688 170.882 34.8353C170.78 34.7017 170.641 34.5924 170.465 34.5071C170.289 34.4219 170.069 34.3793 169.804 34.3793C169.444 34.3793 169.142 34.4603 168.901 34.6222C168.659 34.7813 168.539 34.9873 168.539 35.2401C168.539 35.4589 168.62 35.635 168.782 35.7685C168.944 35.902 169.205 36.0114 169.566 36.0966L170.605 36.3353C171.208 36.4745 171.657 36.689 171.952 36.9787C172.248 37.2685 172.395 37.6449 172.395 38.108C172.395 38.5 172.282 38.8495 172.054 39.1563C171.83 39.4603 171.516 39.6989 171.113 39.8722C170.712 40.0455 170.248 40.1321 169.719 40.1321C168.986 40.1321 168.388 39.9759 167.925 39.6634C167.462 39.3481 167.178 38.9006 167.073 38.3211L168.304 38.1336C168.381 38.4546 168.539 38.6975 168.777 38.8623C169.016 39.0242 169.327 39.1052 169.711 39.1052C170.128 39.1052 170.462 39.0185 170.712 38.8452C170.962 38.6691 171.087 38.4546 171.087 38.2017C171.087 37.9972 171.01 37.8253 170.857 37.6861C170.706 37.5469 170.475 37.4418 170.162 37.3708L169.054 37.1279C168.444 36.9887 167.992 36.7671 167.699 36.4631C167.409 36.1591 167.265 35.7742 167.265 35.3083C167.265 34.9219 167.373 34.5839 167.588 34.2941C167.804 34.0043 168.103 33.7785 168.483 33.6165C168.864 33.4517 169.3 33.3694 169.792 33.3694C170.499 33.3694 171.056 33.5228 171.462 33.8296C171.868 34.1336 172.137 34.5412 172.267 35.0526Z"/><defs><clipPath id="clip0_4018_52690"><rect width="20" height="20" x="24" y="26" fill="#fff" rx="10"/></clipPath><clipPath id="clip1_4018_52690"><rect width="20" height="20" x="24" y="26" fill="#fff" rx="10"/></clipPath><clipPath id="clip2_4018_52690"><rect width="10" height="10" fill="#fff" transform="translate(24 26)"/></clipPath></defs></svg>